%TF.GenerationSoftware,KiCad,Pcbnew,8.0.3-8.0.3-0~ubuntu24.04.1*%
%TF.CreationDate,2024-06-13T21:29:58+05:00*%
%TF.ProjectId,solartap_mcu,736f6c61-7274-4617-905f-6d63752e6b69,rev?*%
%TF.SameCoordinates,Original*%
%TF.FileFunction,Legend,Top*%
%TF.FilePolarity,Positive*%
%FSLAX46Y46*%
G04 Gerber Fmt 4.6, Leading zero omitted, Abs format (unit mm)*
G04 Created by KiCad (PCBNEW 8.0.3-8.0.3-0~ubuntu24.04.1) date 2024-06-13 21:29:58*
%MOMM*%
%LPD*%
G01*
G04 APERTURE LIST*
%ADD10C,0.100000*%
%ADD11C,0.150000*%
%ADD12C,0.120000*%
G04 APERTURE END LIST*
D10*
X125827693Y-108420038D02*
X125732455Y-108372419D01*
X125732455Y-108372419D02*
X125589598Y-108372419D01*
X125589598Y-108372419D02*
X125446741Y-108420038D01*
X125446741Y-108420038D02*
X125351503Y-108515276D01*
X125351503Y-108515276D02*
X125303884Y-108610514D01*
X125303884Y-108610514D02*
X125256265Y-108800990D01*
X125256265Y-108800990D02*
X125256265Y-108943847D01*
X125256265Y-108943847D02*
X125303884Y-109134323D01*
X125303884Y-109134323D02*
X125351503Y-109229561D01*
X125351503Y-109229561D02*
X125446741Y-109324800D01*
X125446741Y-109324800D02*
X125589598Y-109372419D01*
X125589598Y-109372419D02*
X125684836Y-109372419D01*
X125684836Y-109372419D02*
X125827693Y-109324800D01*
X125827693Y-109324800D02*
X125875312Y-109277180D01*
X125875312Y-109277180D02*
X125875312Y-108943847D01*
X125875312Y-108943847D02*
X125684836Y-108943847D01*
X126303884Y-109372419D02*
X126303884Y-108372419D01*
X126303884Y-108372419D02*
X126875312Y-109372419D01*
X126875312Y-109372419D02*
X126875312Y-108372419D01*
X127351503Y-109372419D02*
X127351503Y-108372419D01*
X127351503Y-108372419D02*
X127589598Y-108372419D01*
X127589598Y-108372419D02*
X127732455Y-108420038D01*
X127732455Y-108420038D02*
X127827693Y-108515276D01*
X127827693Y-108515276D02*
X127875312Y-108610514D01*
X127875312Y-108610514D02*
X127922931Y-108800990D01*
X127922931Y-108800990D02*
X127922931Y-108943847D01*
X127922931Y-108943847D02*
X127875312Y-109134323D01*
X127875312Y-109134323D02*
X127827693Y-109229561D01*
X127827693Y-109229561D02*
X127732455Y-109324800D01*
X127732455Y-109324800D02*
X127589598Y-109372419D01*
X127589598Y-109372419D02*
X127351503Y-109372419D01*
X120303884Y-100991466D02*
X121065789Y-100991466D01*
X120684836Y-101372419D02*
X120684836Y-100610514D01*
X122018169Y-100372419D02*
X121541979Y-100372419D01*
X121541979Y-100372419D02*
X121494360Y-100848609D01*
X121494360Y-100848609D02*
X121541979Y-100800990D01*
X121541979Y-100800990D02*
X121637217Y-100753371D01*
X121637217Y-100753371D02*
X121875312Y-100753371D01*
X121875312Y-100753371D02*
X121970550Y-100800990D01*
X121970550Y-100800990D02*
X122018169Y-100848609D01*
X122018169Y-100848609D02*
X122065788Y-100943847D01*
X122065788Y-100943847D02*
X122065788Y-101181942D01*
X122065788Y-101181942D02*
X122018169Y-101277180D01*
X122018169Y-101277180D02*
X121970550Y-101324800D01*
X121970550Y-101324800D02*
X121875312Y-101372419D01*
X121875312Y-101372419D02*
X121637217Y-101372419D01*
X121637217Y-101372419D02*
X121541979Y-101324800D01*
X121541979Y-101324800D02*
X121494360Y-101277180D01*
X124803884Y-95491466D02*
X125565789Y-95491466D01*
X125184836Y-95872419D02*
X125184836Y-95110514D01*
X125946741Y-94872419D02*
X126565788Y-94872419D01*
X126565788Y-94872419D02*
X126232455Y-95253371D01*
X126232455Y-95253371D02*
X126375312Y-95253371D01*
X126375312Y-95253371D02*
X126470550Y-95300990D01*
X126470550Y-95300990D02*
X126518169Y-95348609D01*
X126518169Y-95348609D02*
X126565788Y-95443847D01*
X126565788Y-95443847D02*
X126565788Y-95681942D01*
X126565788Y-95681942D02*
X126518169Y-95777180D01*
X126518169Y-95777180D02*
X126470550Y-95824800D01*
X126470550Y-95824800D02*
X126375312Y-95872419D01*
X126375312Y-95872419D02*
X126089598Y-95872419D01*
X126089598Y-95872419D02*
X125994360Y-95824800D01*
X125994360Y-95824800D02*
X125946741Y-95777180D01*
X126994360Y-95777180D02*
X127041979Y-95824800D01*
X127041979Y-95824800D02*
X126994360Y-95872419D01*
X126994360Y-95872419D02*
X126946741Y-95824800D01*
X126946741Y-95824800D02*
X126994360Y-95777180D01*
X126994360Y-95777180D02*
X126994360Y-95872419D01*
X127375312Y-94872419D02*
X127994359Y-94872419D01*
X127994359Y-94872419D02*
X127661026Y-95253371D01*
X127661026Y-95253371D02*
X127803883Y-95253371D01*
X127803883Y-95253371D02*
X127899121Y-95300990D01*
X127899121Y-95300990D02*
X127946740Y-95348609D01*
X127946740Y-95348609D02*
X127994359Y-95443847D01*
X127994359Y-95443847D02*
X127994359Y-95681942D01*
X127994359Y-95681942D02*
X127946740Y-95777180D01*
X127946740Y-95777180D02*
X127899121Y-95824800D01*
X127899121Y-95824800D02*
X127803883Y-95872419D01*
X127803883Y-95872419D02*
X127518169Y-95872419D01*
X127518169Y-95872419D02*
X127422931Y-95824800D01*
X127422931Y-95824800D02*
X127375312Y-95777180D01*
X85375312Y-52872419D02*
X85041979Y-52396228D01*
X84803884Y-52872419D02*
X84803884Y-51872419D01*
X84803884Y-51872419D02*
X85184836Y-51872419D01*
X85184836Y-51872419D02*
X85280074Y-51920038D01*
X85280074Y-51920038D02*
X85327693Y-51967657D01*
X85327693Y-51967657D02*
X85375312Y-52062895D01*
X85375312Y-52062895D02*
X85375312Y-52205752D01*
X85375312Y-52205752D02*
X85327693Y-52300990D01*
X85327693Y-52300990D02*
X85280074Y-52348609D01*
X85280074Y-52348609D02*
X85184836Y-52396228D01*
X85184836Y-52396228D02*
X84803884Y-52396228D01*
X85803884Y-52348609D02*
X86137217Y-52348609D01*
X86280074Y-52872419D02*
X85803884Y-52872419D01*
X85803884Y-52872419D02*
X85803884Y-51872419D01*
X85803884Y-51872419D02*
X86280074Y-51872419D01*
X86565789Y-51872419D02*
X86899122Y-52872419D01*
X86899122Y-52872419D02*
X87232455Y-51872419D01*
X87565789Y-52777180D02*
X87613408Y-52824800D01*
X87613408Y-52824800D02*
X87565789Y-52872419D01*
X87565789Y-52872419D02*
X87518170Y-52824800D01*
X87518170Y-52824800D02*
X87565789Y-52777180D01*
X87565789Y-52777180D02*
X87565789Y-52872419D01*
X87565789Y-52253371D02*
X87613408Y-52300990D01*
X87613408Y-52300990D02*
X87565789Y-52348609D01*
X87565789Y-52348609D02*
X87518170Y-52300990D01*
X87518170Y-52300990D02*
X87565789Y-52253371D01*
X87565789Y-52253371D02*
X87565789Y-52348609D01*
X89137217Y-52348609D02*
X89280074Y-52396228D01*
X89280074Y-52396228D02*
X89327693Y-52443847D01*
X89327693Y-52443847D02*
X89375312Y-52539085D01*
X89375312Y-52539085D02*
X89375312Y-52681942D01*
X89375312Y-52681942D02*
X89327693Y-52777180D01*
X89327693Y-52777180D02*
X89280074Y-52824800D01*
X89280074Y-52824800D02*
X89184836Y-52872419D01*
X89184836Y-52872419D02*
X88803884Y-52872419D01*
X88803884Y-52872419D02*
X88803884Y-51872419D01*
X88803884Y-51872419D02*
X89137217Y-51872419D01*
X89137217Y-51872419D02*
X89232455Y-51920038D01*
X89232455Y-51920038D02*
X89280074Y-51967657D01*
X89280074Y-51967657D02*
X89327693Y-52062895D01*
X89327693Y-52062895D02*
X89327693Y-52158133D01*
X89327693Y-52158133D02*
X89280074Y-52253371D01*
X89280074Y-52253371D02*
X89232455Y-52300990D01*
X89232455Y-52300990D02*
X89137217Y-52348609D01*
X89137217Y-52348609D02*
X88803884Y-52348609D01*
X89661027Y-51872419D02*
X90232455Y-51872419D01*
X89946741Y-52872419D02*
X89946741Y-51872419D01*
X91280074Y-51824800D02*
X90422932Y-53110514D01*
X91803884Y-51872419D02*
X91994360Y-51872419D01*
X91994360Y-51872419D02*
X92089598Y-51920038D01*
X92089598Y-51920038D02*
X92184836Y-52015276D01*
X92184836Y-52015276D02*
X92232455Y-52205752D01*
X92232455Y-52205752D02*
X92232455Y-52539085D01*
X92232455Y-52539085D02*
X92184836Y-52729561D01*
X92184836Y-52729561D02*
X92089598Y-52824800D01*
X92089598Y-52824800D02*
X91994360Y-52872419D01*
X91994360Y-52872419D02*
X91803884Y-52872419D01*
X91803884Y-52872419D02*
X91708646Y-52824800D01*
X91708646Y-52824800D02*
X91613408Y-52729561D01*
X91613408Y-52729561D02*
X91565789Y-52539085D01*
X91565789Y-52539085D02*
X91565789Y-52205752D01*
X91565789Y-52205752D02*
X91613408Y-52015276D01*
X91613408Y-52015276D02*
X91708646Y-51920038D01*
X91708646Y-51920038D02*
X91803884Y-51872419D01*
X92613408Y-52824800D02*
X92756265Y-52872419D01*
X92756265Y-52872419D02*
X92994360Y-52872419D01*
X92994360Y-52872419D02*
X93089598Y-52824800D01*
X93089598Y-52824800D02*
X93137217Y-52777180D01*
X93137217Y-52777180D02*
X93184836Y-52681942D01*
X93184836Y-52681942D02*
X93184836Y-52586704D01*
X93184836Y-52586704D02*
X93137217Y-52491466D01*
X93137217Y-52491466D02*
X93089598Y-52443847D01*
X93089598Y-52443847D02*
X92994360Y-52396228D01*
X92994360Y-52396228D02*
X92803884Y-52348609D01*
X92803884Y-52348609D02*
X92708646Y-52300990D01*
X92708646Y-52300990D02*
X92661027Y-52253371D01*
X92661027Y-52253371D02*
X92613408Y-52158133D01*
X92613408Y-52158133D02*
X92613408Y-52062895D01*
X92613408Y-52062895D02*
X92661027Y-51967657D01*
X92661027Y-51967657D02*
X92708646Y-51920038D01*
X92708646Y-51920038D02*
X92803884Y-51872419D01*
X92803884Y-51872419D02*
X93041979Y-51872419D01*
X93041979Y-51872419D02*
X93184836Y-51920038D01*
X94184836Y-52777180D02*
X94137217Y-52824800D01*
X94137217Y-52824800D02*
X93994360Y-52872419D01*
X93994360Y-52872419D02*
X93899122Y-52872419D01*
X93899122Y-52872419D02*
X93756265Y-52824800D01*
X93756265Y-52824800D02*
X93661027Y-52729561D01*
X93661027Y-52729561D02*
X93613408Y-52634323D01*
X93613408Y-52634323D02*
X93565789Y-52443847D01*
X93565789Y-52443847D02*
X93565789Y-52300990D01*
X93565789Y-52300990D02*
X93613408Y-52110514D01*
X93613408Y-52110514D02*
X93661027Y-52015276D01*
X93661027Y-52015276D02*
X93756265Y-51920038D01*
X93756265Y-51920038D02*
X93899122Y-51872419D01*
X93899122Y-51872419D02*
X93994360Y-51872419D01*
X93994360Y-51872419D02*
X94137217Y-51920038D01*
X94137217Y-51920038D02*
X94184836Y-51967657D01*
X95327693Y-51824800D02*
X94470551Y-53110514D01*
X95661027Y-52872419D02*
X95661027Y-51872419D01*
X95661027Y-51872419D02*
X95899122Y-51872419D01*
X95899122Y-51872419D02*
X96041979Y-51920038D01*
X96041979Y-51920038D02*
X96137217Y-52015276D01*
X96137217Y-52015276D02*
X96184836Y-52110514D01*
X96184836Y-52110514D02*
X96232455Y-52300990D01*
X96232455Y-52300990D02*
X96232455Y-52443847D01*
X96232455Y-52443847D02*
X96184836Y-52634323D01*
X96184836Y-52634323D02*
X96137217Y-52729561D01*
X96137217Y-52729561D02*
X96041979Y-52824800D01*
X96041979Y-52824800D02*
X95899122Y-52872419D01*
X95899122Y-52872419D02*
X95661027Y-52872419D01*
X97232455Y-52777180D02*
X97184836Y-52824800D01*
X97184836Y-52824800D02*
X97041979Y-52872419D01*
X97041979Y-52872419D02*
X96946741Y-52872419D01*
X96946741Y-52872419D02*
X96803884Y-52824800D01*
X96803884Y-52824800D02*
X96708646Y-52729561D01*
X96708646Y-52729561D02*
X96661027Y-52634323D01*
X96661027Y-52634323D02*
X96613408Y-52443847D01*
X96613408Y-52443847D02*
X96613408Y-52300990D01*
X96613408Y-52300990D02*
X96661027Y-52110514D01*
X96661027Y-52110514D02*
X96708646Y-52015276D01*
X96708646Y-52015276D02*
X96803884Y-51920038D01*
X96803884Y-51920038D02*
X96946741Y-51872419D01*
X96946741Y-51872419D02*
X97041979Y-51872419D01*
X97041979Y-51872419D02*
X97184836Y-51920038D01*
X97184836Y-51920038D02*
X97232455Y-51967657D01*
X97661027Y-52872419D02*
X97661027Y-51872419D01*
X97661027Y-51872419D02*
X97899122Y-51872419D01*
X97899122Y-51872419D02*
X98041979Y-51920038D01*
X98041979Y-51920038D02*
X98137217Y-52015276D01*
X98137217Y-52015276D02*
X98184836Y-52110514D01*
X98184836Y-52110514D02*
X98232455Y-52300990D01*
X98232455Y-52300990D02*
X98232455Y-52443847D01*
X98232455Y-52443847D02*
X98184836Y-52634323D01*
X98184836Y-52634323D02*
X98137217Y-52729561D01*
X98137217Y-52729561D02*
X98041979Y-52824800D01*
X98041979Y-52824800D02*
X97899122Y-52872419D01*
X97899122Y-52872419D02*
X97661027Y-52872419D01*
X99232455Y-52777180D02*
X99184836Y-52824800D01*
X99184836Y-52824800D02*
X99041979Y-52872419D01*
X99041979Y-52872419D02*
X98946741Y-52872419D01*
X98946741Y-52872419D02*
X98803884Y-52824800D01*
X98803884Y-52824800D02*
X98708646Y-52729561D01*
X98708646Y-52729561D02*
X98661027Y-52634323D01*
X98661027Y-52634323D02*
X98613408Y-52443847D01*
X98613408Y-52443847D02*
X98613408Y-52300990D01*
X98613408Y-52300990D02*
X98661027Y-52110514D01*
X98661027Y-52110514D02*
X98708646Y-52015276D01*
X98708646Y-52015276D02*
X98803884Y-51920038D01*
X98803884Y-51920038D02*
X98946741Y-51872419D01*
X98946741Y-51872419D02*
X99041979Y-51872419D01*
X99041979Y-51872419D02*
X99184836Y-51920038D01*
X99184836Y-51920038D02*
X99232455Y-51967657D01*
X100375312Y-51824800D02*
X99518170Y-53110514D01*
X101232455Y-51920038D02*
X101137217Y-51872419D01*
X101137217Y-51872419D02*
X100994360Y-51872419D01*
X100994360Y-51872419D02*
X100851503Y-51920038D01*
X100851503Y-51920038D02*
X100756265Y-52015276D01*
X100756265Y-52015276D02*
X100708646Y-52110514D01*
X100708646Y-52110514D02*
X100661027Y-52300990D01*
X100661027Y-52300990D02*
X100661027Y-52443847D01*
X100661027Y-52443847D02*
X100708646Y-52634323D01*
X100708646Y-52634323D02*
X100756265Y-52729561D01*
X100756265Y-52729561D02*
X100851503Y-52824800D01*
X100851503Y-52824800D02*
X100994360Y-52872419D01*
X100994360Y-52872419D02*
X101089598Y-52872419D01*
X101089598Y-52872419D02*
X101232455Y-52824800D01*
X101232455Y-52824800D02*
X101280074Y-52777180D01*
X101280074Y-52777180D02*
X101280074Y-52443847D01*
X101280074Y-52443847D02*
X101089598Y-52443847D01*
X101708646Y-52348609D02*
X102470551Y-52348609D01*
X102470551Y-52634323D02*
X101708646Y-52634323D01*
X103470550Y-52872419D02*
X102899122Y-52872419D01*
X103184836Y-52872419D02*
X103184836Y-51872419D01*
X103184836Y-51872419D02*
X103089598Y-52015276D01*
X103089598Y-52015276D02*
X102994360Y-52110514D01*
X102994360Y-52110514D02*
X102899122Y-52158133D01*
X103851503Y-51967657D02*
X103899122Y-51920038D01*
X103899122Y-51920038D02*
X103994360Y-51872419D01*
X103994360Y-51872419D02*
X104232455Y-51872419D01*
X104232455Y-51872419D02*
X104327693Y-51920038D01*
X104327693Y-51920038D02*
X104375312Y-51967657D01*
X104375312Y-51967657D02*
X104422931Y-52062895D01*
X104422931Y-52062895D02*
X104422931Y-52158133D01*
X104422931Y-52158133D02*
X104375312Y-52300990D01*
X104375312Y-52300990D02*
X103803884Y-52872419D01*
X103803884Y-52872419D02*
X104422931Y-52872419D01*
X105041979Y-51872419D02*
X105137217Y-51872419D01*
X105137217Y-51872419D02*
X105232455Y-51920038D01*
X105232455Y-51920038D02*
X105280074Y-51967657D01*
X105280074Y-51967657D02*
X105327693Y-52062895D01*
X105327693Y-52062895D02*
X105375312Y-52253371D01*
X105375312Y-52253371D02*
X105375312Y-52491466D01*
X105375312Y-52491466D02*
X105327693Y-52681942D01*
X105327693Y-52681942D02*
X105280074Y-52777180D01*
X105280074Y-52777180D02*
X105232455Y-52824800D01*
X105232455Y-52824800D02*
X105137217Y-52872419D01*
X105137217Y-52872419D02*
X105041979Y-52872419D01*
X105041979Y-52872419D02*
X104946741Y-52824800D01*
X104946741Y-52824800D02*
X104899122Y-52777180D01*
X104899122Y-52777180D02*
X104851503Y-52681942D01*
X104851503Y-52681942D02*
X104803884Y-52491466D01*
X104803884Y-52491466D02*
X104803884Y-52253371D01*
X104803884Y-52253371D02*
X104851503Y-52062895D01*
X104851503Y-52062895D02*
X104899122Y-51967657D01*
X104899122Y-51967657D02*
X104946741Y-51920038D01*
X104946741Y-51920038D02*
X105041979Y-51872419D01*
X66803884Y-86372419D02*
X66803884Y-85372419D01*
X67470550Y-85372419D02*
X67661026Y-85372419D01*
X67661026Y-85372419D02*
X67756264Y-85420038D01*
X67756264Y-85420038D02*
X67851502Y-85515276D01*
X67851502Y-85515276D02*
X67899121Y-85705752D01*
X67899121Y-85705752D02*
X67899121Y-86039085D01*
X67899121Y-86039085D02*
X67851502Y-86229561D01*
X67851502Y-86229561D02*
X67756264Y-86324800D01*
X67756264Y-86324800D02*
X67661026Y-86372419D01*
X67661026Y-86372419D02*
X67470550Y-86372419D01*
X67470550Y-86372419D02*
X67375312Y-86324800D01*
X67375312Y-86324800D02*
X67280074Y-86229561D01*
X67280074Y-86229561D02*
X67232455Y-86039085D01*
X67232455Y-86039085D02*
X67232455Y-85705752D01*
X67232455Y-85705752D02*
X67280074Y-85515276D01*
X67280074Y-85515276D02*
X67375312Y-85420038D01*
X67375312Y-85420038D02*
X67470550Y-85372419D01*
X67375312Y-80777180D02*
X67327693Y-80824800D01*
X67327693Y-80824800D02*
X67184836Y-80872419D01*
X67184836Y-80872419D02*
X67089598Y-80872419D01*
X67089598Y-80872419D02*
X66946741Y-80824800D01*
X66946741Y-80824800D02*
X66851503Y-80729561D01*
X66851503Y-80729561D02*
X66803884Y-80634323D01*
X66803884Y-80634323D02*
X66756265Y-80443847D01*
X66756265Y-80443847D02*
X66756265Y-80300990D01*
X66756265Y-80300990D02*
X66803884Y-80110514D01*
X66803884Y-80110514D02*
X66851503Y-80015276D01*
X66851503Y-80015276D02*
X66946741Y-79920038D01*
X66946741Y-79920038D02*
X67089598Y-79872419D01*
X67089598Y-79872419D02*
X67184836Y-79872419D01*
X67184836Y-79872419D02*
X67327693Y-79920038D01*
X67327693Y-79920038D02*
X67375312Y-79967657D01*
X68280074Y-80872419D02*
X67803884Y-80872419D01*
X67803884Y-80872419D02*
X67803884Y-79872419D01*
X68613408Y-80872419D02*
X68613408Y-79872419D01*
X69184836Y-80872419D02*
X68756265Y-80300990D01*
X69184836Y-79872419D02*
X68613408Y-80443847D01*
X67375312Y-76372419D02*
X67041979Y-75896228D01*
X66803884Y-76372419D02*
X66803884Y-75372419D01*
X66803884Y-75372419D02*
X67184836Y-75372419D01*
X67184836Y-75372419D02*
X67280074Y-75420038D01*
X67280074Y-75420038D02*
X67327693Y-75467657D01*
X67327693Y-75467657D02*
X67375312Y-75562895D01*
X67375312Y-75562895D02*
X67375312Y-75705752D01*
X67375312Y-75705752D02*
X67327693Y-75800990D01*
X67327693Y-75800990D02*
X67280074Y-75848609D01*
X67280074Y-75848609D02*
X67184836Y-75896228D01*
X67184836Y-75896228D02*
X66803884Y-75896228D01*
X67803884Y-75848609D02*
X68137217Y-75848609D01*
X68280074Y-76372419D02*
X67803884Y-76372419D01*
X67803884Y-76372419D02*
X67803884Y-75372419D01*
X67803884Y-75372419D02*
X68280074Y-75372419D01*
X68661027Y-76324800D02*
X68803884Y-76372419D01*
X68803884Y-76372419D02*
X69041979Y-76372419D01*
X69041979Y-76372419D02*
X69137217Y-76324800D01*
X69137217Y-76324800D02*
X69184836Y-76277180D01*
X69184836Y-76277180D02*
X69232455Y-76181942D01*
X69232455Y-76181942D02*
X69232455Y-76086704D01*
X69232455Y-76086704D02*
X69184836Y-75991466D01*
X69184836Y-75991466D02*
X69137217Y-75943847D01*
X69137217Y-75943847D02*
X69041979Y-75896228D01*
X69041979Y-75896228D02*
X68851503Y-75848609D01*
X68851503Y-75848609D02*
X68756265Y-75800990D01*
X68756265Y-75800990D02*
X68708646Y-75753371D01*
X68708646Y-75753371D02*
X68661027Y-75658133D01*
X68661027Y-75658133D02*
X68661027Y-75562895D01*
X68661027Y-75562895D02*
X68708646Y-75467657D01*
X68708646Y-75467657D02*
X68756265Y-75420038D01*
X68756265Y-75420038D02*
X68851503Y-75372419D01*
X68851503Y-75372419D02*
X69089598Y-75372419D01*
X69089598Y-75372419D02*
X69232455Y-75420038D01*
X69661027Y-75848609D02*
X69994360Y-75848609D01*
X70137217Y-76372419D02*
X69661027Y-76372419D01*
X69661027Y-76372419D02*
X69661027Y-75372419D01*
X69661027Y-75372419D02*
X70137217Y-75372419D01*
X70422932Y-75372419D02*
X70994360Y-75372419D01*
X70708646Y-76372419D02*
X70708646Y-75372419D01*
D11*
X125238095Y-103056819D02*
X125809523Y-103056819D01*
X125523809Y-104056819D02*
X125523809Y-103056819D01*
X126142857Y-104056819D02*
X126142857Y-103056819D01*
X126142857Y-103056819D02*
X126523809Y-103056819D01*
X126523809Y-103056819D02*
X126619047Y-103104438D01*
X126619047Y-103104438D02*
X126666666Y-103152057D01*
X126666666Y-103152057D02*
X126714285Y-103247295D01*
X126714285Y-103247295D02*
X126714285Y-103390152D01*
X126714285Y-103390152D02*
X126666666Y-103485390D01*
X126666666Y-103485390D02*
X126619047Y-103533009D01*
X126619047Y-103533009D02*
X126523809Y-103580628D01*
X126523809Y-103580628D02*
X126142857Y-103580628D01*
X127571428Y-103056819D02*
X127380952Y-103056819D01*
X127380952Y-103056819D02*
X127285714Y-103104438D01*
X127285714Y-103104438D02*
X127238095Y-103152057D01*
X127238095Y-103152057D02*
X127142857Y-103294914D01*
X127142857Y-103294914D02*
X127095238Y-103485390D01*
X127095238Y-103485390D02*
X127095238Y-103866342D01*
X127095238Y-103866342D02*
X127142857Y-103961580D01*
X127142857Y-103961580D02*
X127190476Y-104009200D01*
X127190476Y-104009200D02*
X127285714Y-104056819D01*
X127285714Y-104056819D02*
X127476190Y-104056819D01*
X127476190Y-104056819D02*
X127571428Y-104009200D01*
X127571428Y-104009200D02*
X127619047Y-103961580D01*
X127619047Y-103961580D02*
X127666666Y-103866342D01*
X127666666Y-103866342D02*
X127666666Y-103628247D01*
X127666666Y-103628247D02*
X127619047Y-103533009D01*
X127619047Y-103533009D02*
X127571428Y-103485390D01*
X127571428Y-103485390D02*
X127476190Y-103437771D01*
X127476190Y-103437771D02*
X127285714Y-103437771D01*
X127285714Y-103437771D02*
X127190476Y-103485390D01*
X127190476Y-103485390D02*
X127142857Y-103533009D01*
X127142857Y-103533009D02*
X127095238Y-103628247D01*
X125238095Y-96556819D02*
X125809523Y-96556819D01*
X125523809Y-97556819D02*
X125523809Y-96556819D01*
X126142857Y-97556819D02*
X126142857Y-96556819D01*
X126142857Y-96556819D02*
X126523809Y-96556819D01*
X126523809Y-96556819D02*
X126619047Y-96604438D01*
X126619047Y-96604438D02*
X126666666Y-96652057D01*
X126666666Y-96652057D02*
X126714285Y-96747295D01*
X126714285Y-96747295D02*
X126714285Y-96890152D01*
X126714285Y-96890152D02*
X126666666Y-96985390D01*
X126666666Y-96985390D02*
X126619047Y-97033009D01*
X126619047Y-97033009D02*
X126523809Y-97080628D01*
X126523809Y-97080628D02*
X126142857Y-97080628D01*
X127619047Y-96556819D02*
X127142857Y-96556819D01*
X127142857Y-96556819D02*
X127095238Y-97033009D01*
X127095238Y-97033009D02*
X127142857Y-96985390D01*
X127142857Y-96985390D02*
X127238095Y-96937771D01*
X127238095Y-96937771D02*
X127476190Y-96937771D01*
X127476190Y-96937771D02*
X127571428Y-96985390D01*
X127571428Y-96985390D02*
X127619047Y-97033009D01*
X127619047Y-97033009D02*
X127666666Y-97128247D01*
X127666666Y-97128247D02*
X127666666Y-97366342D01*
X127666666Y-97366342D02*
X127619047Y-97461580D01*
X127619047Y-97461580D02*
X127571428Y-97509200D01*
X127571428Y-97509200D02*
X127476190Y-97556819D01*
X127476190Y-97556819D02*
X127238095Y-97556819D01*
X127238095Y-97556819D02*
X127142857Y-97509200D01*
X127142857Y-97509200D02*
X127095238Y-97461580D01*
X120238095Y-102056819D02*
X120809523Y-102056819D01*
X120523809Y-103056819D02*
X120523809Y-102056819D01*
X121142857Y-103056819D02*
X121142857Y-102056819D01*
X121142857Y-102056819D02*
X121523809Y-102056819D01*
X121523809Y-102056819D02*
X121619047Y-102104438D01*
X121619047Y-102104438D02*
X121666666Y-102152057D01*
X121666666Y-102152057D02*
X121714285Y-102247295D01*
X121714285Y-102247295D02*
X121714285Y-102390152D01*
X121714285Y-102390152D02*
X121666666Y-102485390D01*
X121666666Y-102485390D02*
X121619047Y-102533009D01*
X121619047Y-102533009D02*
X121523809Y-102580628D01*
X121523809Y-102580628D02*
X121142857Y-102580628D01*
X122571428Y-102390152D02*
X122571428Y-103056819D01*
X122333333Y-102009200D02*
X122095238Y-102723485D01*
X122095238Y-102723485D02*
X122714285Y-102723485D01*
X111761905Y-103954819D02*
X111761905Y-102954819D01*
X111761905Y-102954819D02*
X112000000Y-102954819D01*
X112000000Y-102954819D02*
X112142857Y-103002438D01*
X112142857Y-103002438D02*
X112238095Y-103097676D01*
X112238095Y-103097676D02*
X112285714Y-103192914D01*
X112285714Y-103192914D02*
X112333333Y-103383390D01*
X112333333Y-103383390D02*
X112333333Y-103526247D01*
X112333333Y-103526247D02*
X112285714Y-103716723D01*
X112285714Y-103716723D02*
X112238095Y-103811961D01*
X112238095Y-103811961D02*
X112142857Y-103907200D01*
X112142857Y-103907200D02*
X112000000Y-103954819D01*
X112000000Y-103954819D02*
X111761905Y-103954819D01*
X112714286Y-103050057D02*
X112761905Y-103002438D01*
X112761905Y-103002438D02*
X112857143Y-102954819D01*
X112857143Y-102954819D02*
X113095238Y-102954819D01*
X113095238Y-102954819D02*
X113190476Y-103002438D01*
X113190476Y-103002438D02*
X113238095Y-103050057D01*
X113238095Y-103050057D02*
X113285714Y-103145295D01*
X113285714Y-103145295D02*
X113285714Y-103240533D01*
X113285714Y-103240533D02*
X113238095Y-103383390D01*
X113238095Y-103383390D02*
X112666667Y-103954819D01*
X112666667Y-103954819D02*
X113285714Y-103954819D01*
X99023809Y-69478628D02*
X99023809Y-69954819D01*
X98690476Y-68954819D02*
X99023809Y-69478628D01*
X99023809Y-69478628D02*
X99357142Y-68954819D01*
X100214285Y-69954819D02*
X99642857Y-69954819D01*
X99928571Y-69954819D02*
X99928571Y-68954819D01*
X99928571Y-68954819D02*
X99833333Y-69097676D01*
X99833333Y-69097676D02*
X99738095Y-69192914D01*
X99738095Y-69192914D02*
X99642857Y-69240533D01*
X66238095Y-72954819D02*
X66809523Y-72954819D01*
X66523809Y-73954819D02*
X66523809Y-72954819D01*
X67142857Y-73954819D02*
X67142857Y-72954819D01*
X67142857Y-72954819D02*
X67523809Y-72954819D01*
X67523809Y-72954819D02*
X67619047Y-73002438D01*
X67619047Y-73002438D02*
X67666666Y-73050057D01*
X67666666Y-73050057D02*
X67714285Y-73145295D01*
X67714285Y-73145295D02*
X67714285Y-73288152D01*
X67714285Y-73288152D02*
X67666666Y-73383390D01*
X67666666Y-73383390D02*
X67619047Y-73431009D01*
X67619047Y-73431009D02*
X67523809Y-73478628D01*
X67523809Y-73478628D02*
X67142857Y-73478628D01*
X68666666Y-73954819D02*
X68095238Y-73954819D01*
X68380952Y-73954819D02*
X68380952Y-72954819D01*
X68380952Y-72954819D02*
X68285714Y-73097676D01*
X68285714Y-73097676D02*
X68190476Y-73192914D01*
X68190476Y-73192914D02*
X68095238Y-73240533D01*
X93833333Y-59859580D02*
X93785714Y-59907200D01*
X93785714Y-59907200D02*
X93642857Y-59954819D01*
X93642857Y-59954819D02*
X93547619Y-59954819D01*
X93547619Y-59954819D02*
X93404762Y-59907200D01*
X93404762Y-59907200D02*
X93309524Y-59811961D01*
X93309524Y-59811961D02*
X93261905Y-59716723D01*
X93261905Y-59716723D02*
X93214286Y-59526247D01*
X93214286Y-59526247D02*
X93214286Y-59383390D01*
X93214286Y-59383390D02*
X93261905Y-59192914D01*
X93261905Y-59192914D02*
X93309524Y-59097676D01*
X93309524Y-59097676D02*
X93404762Y-59002438D01*
X93404762Y-59002438D02*
X93547619Y-58954819D01*
X93547619Y-58954819D02*
X93642857Y-58954819D01*
X93642857Y-58954819D02*
X93785714Y-59002438D01*
X93785714Y-59002438D02*
X93833333Y-59050057D01*
X94738095Y-58954819D02*
X94261905Y-58954819D01*
X94261905Y-58954819D02*
X94214286Y-59431009D01*
X94214286Y-59431009D02*
X94261905Y-59383390D01*
X94261905Y-59383390D02*
X94357143Y-59335771D01*
X94357143Y-59335771D02*
X94595238Y-59335771D01*
X94595238Y-59335771D02*
X94690476Y-59383390D01*
X94690476Y-59383390D02*
X94738095Y-59431009D01*
X94738095Y-59431009D02*
X94785714Y-59526247D01*
X94785714Y-59526247D02*
X94785714Y-59764342D01*
X94785714Y-59764342D02*
X94738095Y-59859580D01*
X94738095Y-59859580D02*
X94690476Y-59907200D01*
X94690476Y-59907200D02*
X94595238Y-59954819D01*
X94595238Y-59954819D02*
X94357143Y-59954819D01*
X94357143Y-59954819D02*
X94261905Y-59907200D01*
X94261905Y-59907200D02*
X94214286Y-59859580D01*
X78333333Y-64859580D02*
X78285714Y-64907200D01*
X78285714Y-64907200D02*
X78142857Y-64954819D01*
X78142857Y-64954819D02*
X78047619Y-64954819D01*
X78047619Y-64954819D02*
X77904762Y-64907200D01*
X77904762Y-64907200D02*
X77809524Y-64811961D01*
X77809524Y-64811961D02*
X77761905Y-64716723D01*
X77761905Y-64716723D02*
X77714286Y-64526247D01*
X77714286Y-64526247D02*
X77714286Y-64383390D01*
X77714286Y-64383390D02*
X77761905Y-64192914D01*
X77761905Y-64192914D02*
X77809524Y-64097676D01*
X77809524Y-64097676D02*
X77904762Y-64002438D01*
X77904762Y-64002438D02*
X78047619Y-63954819D01*
X78047619Y-63954819D02*
X78142857Y-63954819D01*
X78142857Y-63954819D02*
X78285714Y-64002438D01*
X78285714Y-64002438D02*
X78333333Y-64050057D01*
X79190476Y-64288152D02*
X79190476Y-64954819D01*
X78952381Y-63907200D02*
X78714286Y-64621485D01*
X78714286Y-64621485D02*
X79333333Y-64621485D01*
X81333333Y-74859580D02*
X81285714Y-74907200D01*
X81285714Y-74907200D02*
X81142857Y-74954819D01*
X81142857Y-74954819D02*
X81047619Y-74954819D01*
X81047619Y-74954819D02*
X80904762Y-74907200D01*
X80904762Y-74907200D02*
X80809524Y-74811961D01*
X80809524Y-74811961D02*
X80761905Y-74716723D01*
X80761905Y-74716723D02*
X80714286Y-74526247D01*
X80714286Y-74526247D02*
X80714286Y-74383390D01*
X80714286Y-74383390D02*
X80761905Y-74192914D01*
X80761905Y-74192914D02*
X80809524Y-74097676D01*
X80809524Y-74097676D02*
X80904762Y-74002438D01*
X80904762Y-74002438D02*
X81047619Y-73954819D01*
X81047619Y-73954819D02*
X81142857Y-73954819D01*
X81142857Y-73954819D02*
X81285714Y-74002438D01*
X81285714Y-74002438D02*
X81333333Y-74050057D01*
X81809524Y-74954819D02*
X82000000Y-74954819D01*
X82000000Y-74954819D02*
X82095238Y-74907200D01*
X82095238Y-74907200D02*
X82142857Y-74859580D01*
X82142857Y-74859580D02*
X82238095Y-74716723D01*
X82238095Y-74716723D02*
X82285714Y-74526247D01*
X82285714Y-74526247D02*
X82285714Y-74145295D01*
X82285714Y-74145295D02*
X82238095Y-74050057D01*
X82238095Y-74050057D02*
X82190476Y-74002438D01*
X82190476Y-74002438D02*
X82095238Y-73954819D01*
X82095238Y-73954819D02*
X81904762Y-73954819D01*
X81904762Y-73954819D02*
X81809524Y-74002438D01*
X81809524Y-74002438D02*
X81761905Y-74050057D01*
X81761905Y-74050057D02*
X81714286Y-74145295D01*
X81714286Y-74145295D02*
X81714286Y-74383390D01*
X81714286Y-74383390D02*
X81761905Y-74478628D01*
X81761905Y-74478628D02*
X81809524Y-74526247D01*
X81809524Y-74526247D02*
X81904762Y-74573866D01*
X81904762Y-74573866D02*
X82095238Y-74573866D01*
X82095238Y-74573866D02*
X82190476Y-74526247D01*
X82190476Y-74526247D02*
X82238095Y-74478628D01*
X82238095Y-74478628D02*
X82285714Y-74383390D01*
X91333333Y-67859580D02*
X91285714Y-67907200D01*
X91285714Y-67907200D02*
X91142857Y-67954819D01*
X91142857Y-67954819D02*
X91047619Y-67954819D01*
X91047619Y-67954819D02*
X90904762Y-67907200D01*
X90904762Y-67907200D02*
X90809524Y-67811961D01*
X90809524Y-67811961D02*
X90761905Y-67716723D01*
X90761905Y-67716723D02*
X90714286Y-67526247D01*
X90714286Y-67526247D02*
X90714286Y-67383390D01*
X90714286Y-67383390D02*
X90761905Y-67192914D01*
X90761905Y-67192914D02*
X90809524Y-67097676D01*
X90809524Y-67097676D02*
X90904762Y-67002438D01*
X90904762Y-67002438D02*
X91047619Y-66954819D01*
X91047619Y-66954819D02*
X91142857Y-66954819D01*
X91142857Y-66954819D02*
X91285714Y-67002438D01*
X91285714Y-67002438D02*
X91333333Y-67050057D01*
X91666667Y-66954819D02*
X92285714Y-66954819D01*
X92285714Y-66954819D02*
X91952381Y-67335771D01*
X91952381Y-67335771D02*
X92095238Y-67335771D01*
X92095238Y-67335771D02*
X92190476Y-67383390D01*
X92190476Y-67383390D02*
X92238095Y-67431009D01*
X92238095Y-67431009D02*
X92285714Y-67526247D01*
X92285714Y-67526247D02*
X92285714Y-67764342D01*
X92285714Y-67764342D02*
X92238095Y-67859580D01*
X92238095Y-67859580D02*
X92190476Y-67907200D01*
X92190476Y-67907200D02*
X92095238Y-67954819D01*
X92095238Y-67954819D02*
X91809524Y-67954819D01*
X91809524Y-67954819D02*
X91714286Y-67907200D01*
X91714286Y-67907200D02*
X91666667Y-67859580D01*
X109333333Y-69859580D02*
X109285714Y-69907200D01*
X109285714Y-69907200D02*
X109142857Y-69954819D01*
X109142857Y-69954819D02*
X109047619Y-69954819D01*
X109047619Y-69954819D02*
X108904762Y-69907200D01*
X108904762Y-69907200D02*
X108809524Y-69811961D01*
X108809524Y-69811961D02*
X108761905Y-69716723D01*
X108761905Y-69716723D02*
X108714286Y-69526247D01*
X108714286Y-69526247D02*
X108714286Y-69383390D01*
X108714286Y-69383390D02*
X108761905Y-69192914D01*
X108761905Y-69192914D02*
X108809524Y-69097676D01*
X108809524Y-69097676D02*
X108904762Y-69002438D01*
X108904762Y-69002438D02*
X109047619Y-68954819D01*
X109047619Y-68954819D02*
X109142857Y-68954819D01*
X109142857Y-68954819D02*
X109285714Y-69002438D01*
X109285714Y-69002438D02*
X109333333Y-69050057D01*
X109666667Y-68954819D02*
X110333333Y-68954819D01*
X110333333Y-68954819D02*
X109904762Y-69954819D01*
X91333333Y-65454819D02*
X90857143Y-65454819D01*
X90857143Y-65454819D02*
X90857143Y-64454819D01*
X92190476Y-65454819D02*
X91619048Y-65454819D01*
X91904762Y-65454819D02*
X91904762Y-64454819D01*
X91904762Y-64454819D02*
X91809524Y-64597676D01*
X91809524Y-64597676D02*
X91714286Y-64692914D01*
X91714286Y-64692914D02*
X91619048Y-64740533D01*
X66238095Y-77954819D02*
X66809523Y-77954819D01*
X66523809Y-78954819D02*
X66523809Y-77954819D01*
X67142857Y-78954819D02*
X67142857Y-77954819D01*
X67142857Y-77954819D02*
X67523809Y-77954819D01*
X67523809Y-77954819D02*
X67619047Y-78002438D01*
X67619047Y-78002438D02*
X67666666Y-78050057D01*
X67666666Y-78050057D02*
X67714285Y-78145295D01*
X67714285Y-78145295D02*
X67714285Y-78288152D01*
X67714285Y-78288152D02*
X67666666Y-78383390D01*
X67666666Y-78383390D02*
X67619047Y-78431009D01*
X67619047Y-78431009D02*
X67523809Y-78478628D01*
X67523809Y-78478628D02*
X67142857Y-78478628D01*
X68095238Y-78050057D02*
X68142857Y-78002438D01*
X68142857Y-78002438D02*
X68238095Y-77954819D01*
X68238095Y-77954819D02*
X68476190Y-77954819D01*
X68476190Y-77954819D02*
X68571428Y-78002438D01*
X68571428Y-78002438D02*
X68619047Y-78050057D01*
X68619047Y-78050057D02*
X68666666Y-78145295D01*
X68666666Y-78145295D02*
X68666666Y-78240533D01*
X68666666Y-78240533D02*
X68619047Y-78383390D01*
X68619047Y-78383390D02*
X68047619Y-78954819D01*
X68047619Y-78954819D02*
X68666666Y-78954819D01*
X103857142Y-109859580D02*
X103809523Y-109907200D01*
X103809523Y-109907200D02*
X103666666Y-109954819D01*
X103666666Y-109954819D02*
X103571428Y-109954819D01*
X103571428Y-109954819D02*
X103428571Y-109907200D01*
X103428571Y-109907200D02*
X103333333Y-109811961D01*
X103333333Y-109811961D02*
X103285714Y-109716723D01*
X103285714Y-109716723D02*
X103238095Y-109526247D01*
X103238095Y-109526247D02*
X103238095Y-109383390D01*
X103238095Y-109383390D02*
X103285714Y-109192914D01*
X103285714Y-109192914D02*
X103333333Y-109097676D01*
X103333333Y-109097676D02*
X103428571Y-109002438D01*
X103428571Y-109002438D02*
X103571428Y-108954819D01*
X103571428Y-108954819D02*
X103666666Y-108954819D01*
X103666666Y-108954819D02*
X103809523Y-109002438D01*
X103809523Y-109002438D02*
X103857142Y-109050057D01*
X104809523Y-109954819D02*
X104238095Y-109954819D01*
X104523809Y-109954819D02*
X104523809Y-108954819D01*
X104523809Y-108954819D02*
X104428571Y-109097676D01*
X104428571Y-109097676D02*
X104333333Y-109192914D01*
X104333333Y-109192914D02*
X104238095Y-109240533D01*
X105190476Y-109050057D02*
X105238095Y-109002438D01*
X105238095Y-109002438D02*
X105333333Y-108954819D01*
X105333333Y-108954819D02*
X105571428Y-108954819D01*
X105571428Y-108954819D02*
X105666666Y-109002438D01*
X105666666Y-109002438D02*
X105714285Y-109050057D01*
X105714285Y-109050057D02*
X105761904Y-109145295D01*
X105761904Y-109145295D02*
X105761904Y-109240533D01*
X105761904Y-109240533D02*
X105714285Y-109383390D01*
X105714285Y-109383390D02*
X105142857Y-109954819D01*
X105142857Y-109954819D02*
X105761904Y-109954819D01*
X66238095Y-82954819D02*
X66809523Y-82954819D01*
X66523809Y-83954819D02*
X66523809Y-82954819D01*
X67142857Y-83954819D02*
X67142857Y-82954819D01*
X67142857Y-82954819D02*
X67523809Y-82954819D01*
X67523809Y-82954819D02*
X67619047Y-83002438D01*
X67619047Y-83002438D02*
X67666666Y-83050057D01*
X67666666Y-83050057D02*
X67714285Y-83145295D01*
X67714285Y-83145295D02*
X67714285Y-83288152D01*
X67714285Y-83288152D02*
X67666666Y-83383390D01*
X67666666Y-83383390D02*
X67619047Y-83431009D01*
X67619047Y-83431009D02*
X67523809Y-83478628D01*
X67523809Y-83478628D02*
X67142857Y-83478628D01*
X68047619Y-82954819D02*
X68666666Y-82954819D01*
X68666666Y-82954819D02*
X68333333Y-83335771D01*
X68333333Y-83335771D02*
X68476190Y-83335771D01*
X68476190Y-83335771D02*
X68571428Y-83383390D01*
X68571428Y-83383390D02*
X68619047Y-83431009D01*
X68619047Y-83431009D02*
X68666666Y-83526247D01*
X68666666Y-83526247D02*
X68666666Y-83764342D01*
X68666666Y-83764342D02*
X68619047Y-83859580D01*
X68619047Y-83859580D02*
X68571428Y-83907200D01*
X68571428Y-83907200D02*
X68476190Y-83954819D01*
X68476190Y-83954819D02*
X68190476Y-83954819D01*
X68190476Y-83954819D02*
X68095238Y-83907200D01*
X68095238Y-83907200D02*
X68047619Y-83859580D01*
X117357142Y-106859580D02*
X117309523Y-106907200D01*
X117309523Y-106907200D02*
X117166666Y-106954819D01*
X117166666Y-106954819D02*
X117071428Y-106954819D01*
X117071428Y-106954819D02*
X116928571Y-106907200D01*
X116928571Y-106907200D02*
X116833333Y-106811961D01*
X116833333Y-106811961D02*
X116785714Y-106716723D01*
X116785714Y-106716723D02*
X116738095Y-106526247D01*
X116738095Y-106526247D02*
X116738095Y-106383390D01*
X116738095Y-106383390D02*
X116785714Y-106192914D01*
X116785714Y-106192914D02*
X116833333Y-106097676D01*
X116833333Y-106097676D02*
X116928571Y-106002438D01*
X116928571Y-106002438D02*
X117071428Y-105954819D01*
X117071428Y-105954819D02*
X117166666Y-105954819D01*
X117166666Y-105954819D02*
X117309523Y-106002438D01*
X117309523Y-106002438D02*
X117357142Y-106050057D01*
X118309523Y-106954819D02*
X117738095Y-106954819D01*
X118023809Y-106954819D02*
X118023809Y-105954819D01*
X118023809Y-105954819D02*
X117928571Y-106097676D01*
X117928571Y-106097676D02*
X117833333Y-106192914D01*
X117833333Y-106192914D02*
X117738095Y-106240533D01*
X118642857Y-105954819D02*
X119261904Y-105954819D01*
X119261904Y-105954819D02*
X118928571Y-106335771D01*
X118928571Y-106335771D02*
X119071428Y-106335771D01*
X119071428Y-106335771D02*
X119166666Y-106383390D01*
X119166666Y-106383390D02*
X119214285Y-106431009D01*
X119214285Y-106431009D02*
X119261904Y-106526247D01*
X119261904Y-106526247D02*
X119261904Y-106764342D01*
X119261904Y-106764342D02*
X119214285Y-106859580D01*
X119214285Y-106859580D02*
X119166666Y-106907200D01*
X119166666Y-106907200D02*
X119071428Y-106954819D01*
X119071428Y-106954819D02*
X118785714Y-106954819D01*
X118785714Y-106954819D02*
X118690476Y-106907200D01*
X118690476Y-106907200D02*
X118642857Y-106859580D01*
X104214285Y-75431009D02*
X104357142Y-75478628D01*
X104357142Y-75478628D02*
X104404761Y-75526247D01*
X104404761Y-75526247D02*
X104452380Y-75621485D01*
X104452380Y-75621485D02*
X104452380Y-75764342D01*
X104452380Y-75764342D02*
X104404761Y-75859580D01*
X104404761Y-75859580D02*
X104357142Y-75907200D01*
X104357142Y-75907200D02*
X104261904Y-75954819D01*
X104261904Y-75954819D02*
X103880952Y-75954819D01*
X103880952Y-75954819D02*
X103880952Y-74954819D01*
X103880952Y-74954819D02*
X104214285Y-74954819D01*
X104214285Y-74954819D02*
X104309523Y-75002438D01*
X104309523Y-75002438D02*
X104357142Y-75050057D01*
X104357142Y-75050057D02*
X104404761Y-75145295D01*
X104404761Y-75145295D02*
X104404761Y-75240533D01*
X104404761Y-75240533D02*
X104357142Y-75335771D01*
X104357142Y-75335771D02*
X104309523Y-75383390D01*
X104309523Y-75383390D02*
X104214285Y-75431009D01*
X104214285Y-75431009D02*
X103880952Y-75431009D01*
X104738095Y-74954819D02*
X105309523Y-74954819D01*
X105023809Y-75954819D02*
X105023809Y-74954819D01*
X106166666Y-75954819D02*
X105595238Y-75954819D01*
X105880952Y-75954819D02*
X105880952Y-74954819D01*
X105880952Y-74954819D02*
X105785714Y-75097676D01*
X105785714Y-75097676D02*
X105690476Y-75192914D01*
X105690476Y-75192914D02*
X105595238Y-75240533D01*
X98333333Y-63454819D02*
X97857143Y-63454819D01*
X97857143Y-63454819D02*
X97857143Y-62454819D01*
X98619048Y-62550057D02*
X98666667Y-62502438D01*
X98666667Y-62502438D02*
X98761905Y-62454819D01*
X98761905Y-62454819D02*
X99000000Y-62454819D01*
X99000000Y-62454819D02*
X99095238Y-62502438D01*
X99095238Y-62502438D02*
X99142857Y-62550057D01*
X99142857Y-62550057D02*
X99190476Y-62645295D01*
X99190476Y-62645295D02*
X99190476Y-62740533D01*
X99190476Y-62740533D02*
X99142857Y-62883390D01*
X99142857Y-62883390D02*
X98571429Y-63454819D01*
X98571429Y-63454819D02*
X99190476Y-63454819D01*
X85833333Y-107954819D02*
X85500000Y-107478628D01*
X85261905Y-107954819D02*
X85261905Y-106954819D01*
X85261905Y-106954819D02*
X85642857Y-106954819D01*
X85642857Y-106954819D02*
X85738095Y-107002438D01*
X85738095Y-107002438D02*
X85785714Y-107050057D01*
X85785714Y-107050057D02*
X85833333Y-107145295D01*
X85833333Y-107145295D02*
X85833333Y-107288152D01*
X85833333Y-107288152D02*
X85785714Y-107383390D01*
X85785714Y-107383390D02*
X85738095Y-107431009D01*
X85738095Y-107431009D02*
X85642857Y-107478628D01*
X85642857Y-107478628D02*
X85261905Y-107478628D01*
X86785714Y-107954819D02*
X86214286Y-107954819D01*
X86500000Y-107954819D02*
X86500000Y-106954819D01*
X86500000Y-106954819D02*
X86404762Y-107097676D01*
X86404762Y-107097676D02*
X86309524Y-107192914D01*
X86309524Y-107192914D02*
X86214286Y-107240533D01*
X80857142Y-59709580D02*
X80809523Y-59757200D01*
X80809523Y-59757200D02*
X80666666Y-59804819D01*
X80666666Y-59804819D02*
X80571428Y-59804819D01*
X80571428Y-59804819D02*
X80428571Y-59757200D01*
X80428571Y-59757200D02*
X80333333Y-59661961D01*
X80333333Y-59661961D02*
X80285714Y-59566723D01*
X80285714Y-59566723D02*
X80238095Y-59376247D01*
X80238095Y-59376247D02*
X80238095Y-59233390D01*
X80238095Y-59233390D02*
X80285714Y-59042914D01*
X80285714Y-59042914D02*
X80333333Y-58947676D01*
X80333333Y-58947676D02*
X80428571Y-58852438D01*
X80428571Y-58852438D02*
X80571428Y-58804819D01*
X80571428Y-58804819D02*
X80666666Y-58804819D01*
X80666666Y-58804819D02*
X80809523Y-58852438D01*
X80809523Y-58852438D02*
X80857142Y-58900057D01*
X81809523Y-59804819D02*
X81238095Y-59804819D01*
X81523809Y-59804819D02*
X81523809Y-58804819D01*
X81523809Y-58804819D02*
X81428571Y-58947676D01*
X81428571Y-58947676D02*
X81333333Y-59042914D01*
X81333333Y-59042914D02*
X81238095Y-59090533D01*
X82428571Y-58804819D02*
X82523809Y-58804819D01*
X82523809Y-58804819D02*
X82619047Y-58852438D01*
X82619047Y-58852438D02*
X82666666Y-58900057D01*
X82666666Y-58900057D02*
X82714285Y-58995295D01*
X82714285Y-58995295D02*
X82761904Y-59185771D01*
X82761904Y-59185771D02*
X82761904Y-59423866D01*
X82761904Y-59423866D02*
X82714285Y-59614342D01*
X82714285Y-59614342D02*
X82666666Y-59709580D01*
X82666666Y-59709580D02*
X82619047Y-59757200D01*
X82619047Y-59757200D02*
X82523809Y-59804819D01*
X82523809Y-59804819D02*
X82428571Y-59804819D01*
X82428571Y-59804819D02*
X82333333Y-59757200D01*
X82333333Y-59757200D02*
X82285714Y-59709580D01*
X82285714Y-59709580D02*
X82238095Y-59614342D01*
X82238095Y-59614342D02*
X82190476Y-59423866D01*
X82190476Y-59423866D02*
X82190476Y-59185771D01*
X82190476Y-59185771D02*
X82238095Y-58995295D01*
X82238095Y-58995295D02*
X82285714Y-58900057D01*
X82285714Y-58900057D02*
X82333333Y-58852438D01*
X82333333Y-58852438D02*
X82428571Y-58804819D01*
X85357142Y-59709580D02*
X85309523Y-59757200D01*
X85309523Y-59757200D02*
X85166666Y-59804819D01*
X85166666Y-59804819D02*
X85071428Y-59804819D01*
X85071428Y-59804819D02*
X84928571Y-59757200D01*
X84928571Y-59757200D02*
X84833333Y-59661961D01*
X84833333Y-59661961D02*
X84785714Y-59566723D01*
X84785714Y-59566723D02*
X84738095Y-59376247D01*
X84738095Y-59376247D02*
X84738095Y-59233390D01*
X84738095Y-59233390D02*
X84785714Y-59042914D01*
X84785714Y-59042914D02*
X84833333Y-58947676D01*
X84833333Y-58947676D02*
X84928571Y-58852438D01*
X84928571Y-58852438D02*
X85071428Y-58804819D01*
X85071428Y-58804819D02*
X85166666Y-58804819D01*
X85166666Y-58804819D02*
X85309523Y-58852438D01*
X85309523Y-58852438D02*
X85357142Y-58900057D01*
X86309523Y-59804819D02*
X85738095Y-59804819D01*
X86023809Y-59804819D02*
X86023809Y-58804819D01*
X86023809Y-58804819D02*
X85928571Y-58947676D01*
X85928571Y-58947676D02*
X85833333Y-59042914D01*
X85833333Y-59042914D02*
X85738095Y-59090533D01*
X87261904Y-59804819D02*
X86690476Y-59804819D01*
X86976190Y-59804819D02*
X86976190Y-58804819D01*
X86976190Y-58804819D02*
X86880952Y-58947676D01*
X86880952Y-58947676D02*
X86785714Y-59042914D01*
X86785714Y-59042914D02*
X86690476Y-59090533D01*
X94666666Y-102439819D02*
X94666666Y-103154104D01*
X94666666Y-103154104D02*
X94619047Y-103296961D01*
X94619047Y-103296961D02*
X94523809Y-103392200D01*
X94523809Y-103392200D02*
X94380952Y-103439819D01*
X94380952Y-103439819D02*
X94285714Y-103439819D01*
X95666666Y-103439819D02*
X95095238Y-103439819D01*
X95380952Y-103439819D02*
X95380952Y-102439819D01*
X95380952Y-102439819D02*
X95285714Y-102582676D01*
X95285714Y-102582676D02*
X95190476Y-102677914D01*
X95190476Y-102677914D02*
X95095238Y-102725533D01*
X79761905Y-104454819D02*
X79761905Y-103454819D01*
X79761905Y-103454819D02*
X80000000Y-103454819D01*
X80000000Y-103454819D02*
X80142857Y-103502438D01*
X80142857Y-103502438D02*
X80238095Y-103597676D01*
X80238095Y-103597676D02*
X80285714Y-103692914D01*
X80285714Y-103692914D02*
X80333333Y-103883390D01*
X80333333Y-103883390D02*
X80333333Y-104026247D01*
X80333333Y-104026247D02*
X80285714Y-104216723D01*
X80285714Y-104216723D02*
X80238095Y-104311961D01*
X80238095Y-104311961D02*
X80142857Y-104407200D01*
X80142857Y-104407200D02*
X80000000Y-104454819D01*
X80000000Y-104454819D02*
X79761905Y-104454819D01*
X81285714Y-104454819D02*
X80714286Y-104454819D01*
X81000000Y-104454819D02*
X81000000Y-103454819D01*
X81000000Y-103454819D02*
X80904762Y-103597676D01*
X80904762Y-103597676D02*
X80809524Y-103692914D01*
X80809524Y-103692914D02*
X80714286Y-103740533D01*
X68669104Y-95666666D02*
X68669104Y-95190476D01*
X68954819Y-95761904D02*
X67954819Y-95428571D01*
X67954819Y-95428571D02*
X68954819Y-95095238D01*
X68431009Y-94761904D02*
X68431009Y-94428571D01*
X68954819Y-94285714D02*
X68954819Y-94761904D01*
X68954819Y-94761904D02*
X67954819Y-94761904D01*
X67954819Y-94761904D02*
X67954819Y-94285714D01*
X68954819Y-93333333D02*
X68954819Y-93904761D01*
X68954819Y-93619047D02*
X67954819Y-93619047D01*
X67954819Y-93619047D02*
X68097676Y-93714285D01*
X68097676Y-93714285D02*
X68192914Y-93809523D01*
X68192914Y-93809523D02*
X68240533Y-93904761D01*
X89738095Y-71454819D02*
X89738095Y-72264342D01*
X89738095Y-72264342D02*
X89785714Y-72359580D01*
X89785714Y-72359580D02*
X89833333Y-72407200D01*
X89833333Y-72407200D02*
X89928571Y-72454819D01*
X89928571Y-72454819D02*
X90119047Y-72454819D01*
X90119047Y-72454819D02*
X90214285Y-72407200D01*
X90214285Y-72407200D02*
X90261904Y-72359580D01*
X90261904Y-72359580D02*
X90309523Y-72264342D01*
X90309523Y-72264342D02*
X90309523Y-71454819D01*
X91309523Y-72454819D02*
X90738095Y-72454819D01*
X91023809Y-72454819D02*
X91023809Y-71454819D01*
X91023809Y-71454819D02*
X90928571Y-71597676D01*
X90928571Y-71597676D02*
X90833333Y-71692914D01*
X90833333Y-71692914D02*
X90738095Y-71740533D01*
X80833333Y-76804819D02*
X80357143Y-76804819D01*
X80357143Y-76804819D02*
X80357143Y-75804819D01*
X81071429Y-75804819D02*
X81690476Y-75804819D01*
X81690476Y-75804819D02*
X81357143Y-76185771D01*
X81357143Y-76185771D02*
X81500000Y-76185771D01*
X81500000Y-76185771D02*
X81595238Y-76233390D01*
X81595238Y-76233390D02*
X81642857Y-76281009D01*
X81642857Y-76281009D02*
X81690476Y-76376247D01*
X81690476Y-76376247D02*
X81690476Y-76614342D01*
X81690476Y-76614342D02*
X81642857Y-76709580D01*
X81642857Y-76709580D02*
X81595238Y-76757200D01*
X81595238Y-76757200D02*
X81500000Y-76804819D01*
X81500000Y-76804819D02*
X81214286Y-76804819D01*
X81214286Y-76804819D02*
X81119048Y-76757200D01*
X81119048Y-76757200D02*
X81071429Y-76709580D01*
X102833333Y-63679580D02*
X102785714Y-63727200D01*
X102785714Y-63727200D02*
X102642857Y-63774819D01*
X102642857Y-63774819D02*
X102547619Y-63774819D01*
X102547619Y-63774819D02*
X102404762Y-63727200D01*
X102404762Y-63727200D02*
X102309524Y-63631961D01*
X102309524Y-63631961D02*
X102261905Y-63536723D01*
X102261905Y-63536723D02*
X102214286Y-63346247D01*
X102214286Y-63346247D02*
X102214286Y-63203390D01*
X102214286Y-63203390D02*
X102261905Y-63012914D01*
X102261905Y-63012914D02*
X102309524Y-62917676D01*
X102309524Y-62917676D02*
X102404762Y-62822438D01*
X102404762Y-62822438D02*
X102547619Y-62774819D01*
X102547619Y-62774819D02*
X102642857Y-62774819D01*
X102642857Y-62774819D02*
X102785714Y-62822438D01*
X102785714Y-62822438D02*
X102833333Y-62870057D01*
X103404762Y-63203390D02*
X103309524Y-63155771D01*
X103309524Y-63155771D02*
X103261905Y-63108152D01*
X103261905Y-63108152D02*
X103214286Y-63012914D01*
X103214286Y-63012914D02*
X103214286Y-62965295D01*
X103214286Y-62965295D02*
X103261905Y-62870057D01*
X103261905Y-62870057D02*
X103309524Y-62822438D01*
X103309524Y-62822438D02*
X103404762Y-62774819D01*
X103404762Y-62774819D02*
X103595238Y-62774819D01*
X103595238Y-62774819D02*
X103690476Y-62822438D01*
X103690476Y-62822438D02*
X103738095Y-62870057D01*
X103738095Y-62870057D02*
X103785714Y-62965295D01*
X103785714Y-62965295D02*
X103785714Y-63012914D01*
X103785714Y-63012914D02*
X103738095Y-63108152D01*
X103738095Y-63108152D02*
X103690476Y-63155771D01*
X103690476Y-63155771D02*
X103595238Y-63203390D01*
X103595238Y-63203390D02*
X103404762Y-63203390D01*
X103404762Y-63203390D02*
X103309524Y-63251009D01*
X103309524Y-63251009D02*
X103261905Y-63298628D01*
X103261905Y-63298628D02*
X103214286Y-63393866D01*
X103214286Y-63393866D02*
X103214286Y-63584342D01*
X103214286Y-63584342D02*
X103261905Y-63679580D01*
X103261905Y-63679580D02*
X103309524Y-63727200D01*
X103309524Y-63727200D02*
X103404762Y-63774819D01*
X103404762Y-63774819D02*
X103595238Y-63774819D01*
X103595238Y-63774819D02*
X103690476Y-63727200D01*
X103690476Y-63727200D02*
X103738095Y-63679580D01*
X103738095Y-63679580D02*
X103785714Y-63584342D01*
X103785714Y-63584342D02*
X103785714Y-63393866D01*
X103785714Y-63393866D02*
X103738095Y-63298628D01*
X103738095Y-63298628D02*
X103690476Y-63251009D01*
X103690476Y-63251009D02*
X103595238Y-63203390D01*
X97333333Y-71359580D02*
X97285714Y-71407200D01*
X97285714Y-71407200D02*
X97142857Y-71454819D01*
X97142857Y-71454819D02*
X97047619Y-71454819D01*
X97047619Y-71454819D02*
X96904762Y-71407200D01*
X96904762Y-71407200D02*
X96809524Y-71311961D01*
X96809524Y-71311961D02*
X96761905Y-71216723D01*
X96761905Y-71216723D02*
X96714286Y-71026247D01*
X96714286Y-71026247D02*
X96714286Y-70883390D01*
X96714286Y-70883390D02*
X96761905Y-70692914D01*
X96761905Y-70692914D02*
X96809524Y-70597676D01*
X96809524Y-70597676D02*
X96904762Y-70502438D01*
X96904762Y-70502438D02*
X97047619Y-70454819D01*
X97047619Y-70454819D02*
X97142857Y-70454819D01*
X97142857Y-70454819D02*
X97285714Y-70502438D01*
X97285714Y-70502438D02*
X97333333Y-70550057D01*
X98190476Y-70454819D02*
X98000000Y-70454819D01*
X98000000Y-70454819D02*
X97904762Y-70502438D01*
X97904762Y-70502438D02*
X97857143Y-70550057D01*
X97857143Y-70550057D02*
X97761905Y-70692914D01*
X97761905Y-70692914D02*
X97714286Y-70883390D01*
X97714286Y-70883390D02*
X97714286Y-71264342D01*
X97714286Y-71264342D02*
X97761905Y-71359580D01*
X97761905Y-71359580D02*
X97809524Y-71407200D01*
X97809524Y-71407200D02*
X97904762Y-71454819D01*
X97904762Y-71454819D02*
X98095238Y-71454819D01*
X98095238Y-71454819D02*
X98190476Y-71407200D01*
X98190476Y-71407200D02*
X98238095Y-71359580D01*
X98238095Y-71359580D02*
X98285714Y-71264342D01*
X98285714Y-71264342D02*
X98285714Y-71026247D01*
X98285714Y-71026247D02*
X98238095Y-70931009D01*
X98238095Y-70931009D02*
X98190476Y-70883390D01*
X98190476Y-70883390D02*
X98095238Y-70835771D01*
X98095238Y-70835771D02*
X97904762Y-70835771D01*
X97904762Y-70835771D02*
X97809524Y-70883390D01*
X97809524Y-70883390D02*
X97761905Y-70931009D01*
X97761905Y-70931009D02*
X97714286Y-71026247D01*
X83333333Y-73359580D02*
X83285714Y-73407200D01*
X83285714Y-73407200D02*
X83142857Y-73454819D01*
X83142857Y-73454819D02*
X83047619Y-73454819D01*
X83047619Y-73454819D02*
X82904762Y-73407200D01*
X82904762Y-73407200D02*
X82809524Y-73311961D01*
X82809524Y-73311961D02*
X82761905Y-73216723D01*
X82761905Y-73216723D02*
X82714286Y-73026247D01*
X82714286Y-73026247D02*
X82714286Y-72883390D01*
X82714286Y-72883390D02*
X82761905Y-72692914D01*
X82761905Y-72692914D02*
X82809524Y-72597676D01*
X82809524Y-72597676D02*
X82904762Y-72502438D01*
X82904762Y-72502438D02*
X83047619Y-72454819D01*
X83047619Y-72454819D02*
X83142857Y-72454819D01*
X83142857Y-72454819D02*
X83285714Y-72502438D01*
X83285714Y-72502438D02*
X83333333Y-72550057D01*
X83714286Y-72550057D02*
X83761905Y-72502438D01*
X83761905Y-72502438D02*
X83857143Y-72454819D01*
X83857143Y-72454819D02*
X84095238Y-72454819D01*
X84095238Y-72454819D02*
X84190476Y-72502438D01*
X84190476Y-72502438D02*
X84238095Y-72550057D01*
X84238095Y-72550057D02*
X84285714Y-72645295D01*
X84285714Y-72645295D02*
X84285714Y-72740533D01*
X84285714Y-72740533D02*
X84238095Y-72883390D01*
X84238095Y-72883390D02*
X83666667Y-73454819D01*
X83666667Y-73454819D02*
X84285714Y-73454819D01*
X86333333Y-101454819D02*
X86000000Y-100978628D01*
X85761905Y-101454819D02*
X85761905Y-100454819D01*
X85761905Y-100454819D02*
X86142857Y-100454819D01*
X86142857Y-100454819D02*
X86238095Y-100502438D01*
X86238095Y-100502438D02*
X86285714Y-100550057D01*
X86285714Y-100550057D02*
X86333333Y-100645295D01*
X86333333Y-100645295D02*
X86333333Y-100788152D01*
X86333333Y-100788152D02*
X86285714Y-100883390D01*
X86285714Y-100883390D02*
X86238095Y-100931009D01*
X86238095Y-100931009D02*
X86142857Y-100978628D01*
X86142857Y-100978628D02*
X85761905Y-100978628D01*
X86714286Y-100550057D02*
X86761905Y-100502438D01*
X86761905Y-100502438D02*
X86857143Y-100454819D01*
X86857143Y-100454819D02*
X87095238Y-100454819D01*
X87095238Y-100454819D02*
X87190476Y-100502438D01*
X87190476Y-100502438D02*
X87238095Y-100550057D01*
X87238095Y-100550057D02*
X87285714Y-100645295D01*
X87285714Y-100645295D02*
X87285714Y-100740533D01*
X87285714Y-100740533D02*
X87238095Y-100883390D01*
X87238095Y-100883390D02*
X86666667Y-101454819D01*
X86666667Y-101454819D02*
X87285714Y-101454819D01*
X108238095Y-102954819D02*
X108238095Y-103764342D01*
X108238095Y-103764342D02*
X108285714Y-103859580D01*
X108285714Y-103859580D02*
X108333333Y-103907200D01*
X108333333Y-103907200D02*
X108428571Y-103954819D01*
X108428571Y-103954819D02*
X108619047Y-103954819D01*
X108619047Y-103954819D02*
X108714285Y-103907200D01*
X108714285Y-103907200D02*
X108761904Y-103859580D01*
X108761904Y-103859580D02*
X108809523Y-103764342D01*
X108809523Y-103764342D02*
X108809523Y-102954819D01*
X109238095Y-103050057D02*
X109285714Y-103002438D01*
X109285714Y-103002438D02*
X109380952Y-102954819D01*
X109380952Y-102954819D02*
X109619047Y-102954819D01*
X109619047Y-102954819D02*
X109714285Y-103002438D01*
X109714285Y-103002438D02*
X109761904Y-103050057D01*
X109761904Y-103050057D02*
X109809523Y-103145295D01*
X109809523Y-103145295D02*
X109809523Y-103240533D01*
X109809523Y-103240533D02*
X109761904Y-103383390D01*
X109761904Y-103383390D02*
X109190476Y-103954819D01*
X109190476Y-103954819D02*
X109809523Y-103954819D01*
X103333333Y-101454819D02*
X103000000Y-100978628D01*
X102761905Y-101454819D02*
X102761905Y-100454819D01*
X102761905Y-100454819D02*
X103142857Y-100454819D01*
X103142857Y-100454819D02*
X103238095Y-100502438D01*
X103238095Y-100502438D02*
X103285714Y-100550057D01*
X103285714Y-100550057D02*
X103333333Y-100645295D01*
X103333333Y-100645295D02*
X103333333Y-100788152D01*
X103333333Y-100788152D02*
X103285714Y-100883390D01*
X103285714Y-100883390D02*
X103238095Y-100931009D01*
X103238095Y-100931009D02*
X103142857Y-100978628D01*
X103142857Y-100978628D02*
X102761905Y-100978628D01*
X103666667Y-100454819D02*
X104285714Y-100454819D01*
X104285714Y-100454819D02*
X103952381Y-100835771D01*
X103952381Y-100835771D02*
X104095238Y-100835771D01*
X104095238Y-100835771D02*
X104190476Y-100883390D01*
X104190476Y-100883390D02*
X104238095Y-100931009D01*
X104238095Y-100931009D02*
X104285714Y-101026247D01*
X104285714Y-101026247D02*
X104285714Y-101264342D01*
X104285714Y-101264342D02*
X104238095Y-101359580D01*
X104238095Y-101359580D02*
X104190476Y-101407200D01*
X104190476Y-101407200D02*
X104095238Y-101454819D01*
X104095238Y-101454819D02*
X103809524Y-101454819D01*
X103809524Y-101454819D02*
X103714286Y-101407200D01*
X103714286Y-101407200D02*
X103666667Y-101359580D01*
X90333333Y-59679580D02*
X90285714Y-59727200D01*
X90285714Y-59727200D02*
X90142857Y-59774819D01*
X90142857Y-59774819D02*
X90047619Y-59774819D01*
X90047619Y-59774819D02*
X89904762Y-59727200D01*
X89904762Y-59727200D02*
X89809524Y-59631961D01*
X89809524Y-59631961D02*
X89761905Y-59536723D01*
X89761905Y-59536723D02*
X89714286Y-59346247D01*
X89714286Y-59346247D02*
X89714286Y-59203390D01*
X89714286Y-59203390D02*
X89761905Y-59012914D01*
X89761905Y-59012914D02*
X89809524Y-58917676D01*
X89809524Y-58917676D02*
X89904762Y-58822438D01*
X89904762Y-58822438D02*
X90047619Y-58774819D01*
X90047619Y-58774819D02*
X90142857Y-58774819D01*
X90142857Y-58774819D02*
X90285714Y-58822438D01*
X90285714Y-58822438D02*
X90333333Y-58870057D01*
X91285714Y-59774819D02*
X90714286Y-59774819D01*
X91000000Y-59774819D02*
X91000000Y-58774819D01*
X91000000Y-58774819D02*
X90904762Y-58917676D01*
X90904762Y-58917676D02*
X90809524Y-59012914D01*
X90809524Y-59012914D02*
X90714286Y-59060533D01*
D12*
%TO.C,TP6*%
X128250000Y-106000000D02*
G75*
G02*
X124750000Y-106000000I-1750000J0D01*
G01*
X124750000Y-106000000D02*
G75*
G02*
X128250000Y-106000000I1750000J0D01*
G01*
%TO.C,TP5*%
X128250000Y-99500000D02*
G75*
G02*
X124750000Y-99500000I-1750000J0D01*
G01*
X124750000Y-99500000D02*
G75*
G02*
X128250000Y-99500000I1750000J0D01*
G01*
%TO.C,TP4*%
X123250000Y-105000000D02*
G75*
G02*
X119750000Y-105000000I-1750000J0D01*
G01*
X119750000Y-105000000D02*
G75*
G02*
X123250000Y-105000000I1750000J0D01*
G01*
%TO.C,D2*%
X111900000Y-106700000D02*
X111900000Y-104740000D01*
X113100000Y-106700000D02*
X113100000Y-104740000D01*
X113100000Y-104740000D02*
X111900000Y-104740000D01*
%TO.C,Y1*%
X100750000Y-72200000D02*
X105250000Y-72200000D01*
X105250000Y-72200000D02*
X105250000Y-66800000D01*
%TO.C,TP1*%
X65750000Y-75500000D02*
G75*
G02*
X62250000Y-75500000I-1750000J0D01*
G01*
X62250000Y-75500000D02*
G75*
G02*
X65750000Y-75500000I1750000J0D01*
G01*
%TO.C,C5*%
X94735000Y-62261252D02*
X94735000Y-61738748D01*
X93265000Y-62261252D02*
X93265000Y-61738748D01*
%TO.C,C4*%
X81235000Y-64791252D02*
X81235000Y-64268748D01*
X79765000Y-64791252D02*
X79765000Y-64268748D01*
%TO.C,C9*%
X84761252Y-76235000D02*
X84238748Y-76235000D01*
X84761252Y-74765000D02*
X84238748Y-74765000D01*
%TO.C,C3*%
X94761252Y-68235000D02*
X94238748Y-68235000D01*
X94761252Y-66765000D02*
X94238748Y-66765000D01*
%TO.C,C7*%
X106265000Y-69761252D02*
X106265000Y-69238748D01*
X107735000Y-69761252D02*
X107735000Y-69238748D01*
%TO.C,L1*%
X94761252Y-64290000D02*
X94238748Y-64290000D01*
X94761252Y-65710000D02*
X94238748Y-65710000D01*
%TO.C,TP2*%
X65750000Y-80000000D02*
G75*
G02*
X62250000Y-80000000I-1750000J0D01*
G01*
X62250000Y-80000000D02*
G75*
G02*
X65750000Y-80000000I1750000J0D01*
G01*
%TO.C,C12*%
X104238748Y-108235000D02*
X104761252Y-108235000D01*
X104238748Y-106765000D02*
X104761252Y-106765000D01*
%TO.C,TP3*%
X65750000Y-84500000D02*
G75*
G02*
X62250000Y-84500000I-1750000J0D01*
G01*
X62250000Y-84500000D02*
G75*
G02*
X65750000Y-84500000I1750000J0D01*
G01*
%TO.C,C13*%
X115735000Y-106238748D02*
X115735000Y-106761252D01*
X114265000Y-106238748D02*
X114265000Y-106761252D01*
%TO.C,BT1*%
X84530000Y-77615000D02*
X86137090Y-77615000D01*
X84530000Y-79500000D02*
X84530000Y-77615000D01*
X84530000Y-85500000D02*
X84530000Y-87385000D01*
X84530000Y-87385000D02*
X86137090Y-87385000D01*
X105470000Y-77615000D02*
X103862910Y-77615000D01*
X105470000Y-79500000D02*
X105470000Y-77615000D01*
X105470000Y-85500000D02*
X105470000Y-87385000D01*
X105470000Y-87385000D02*
X103862910Y-87385000D01*
X86137090Y-77615000D02*
G75*
G02*
X103862910Y-77615000I8862910J-4885000D01*
G01*
X103865021Y-87381168D02*
G75*
G02*
X86137090Y-87385000I-8865021J4881167D01*
G01*
%TO.C,L2*%
X98761252Y-64290000D02*
X98238748Y-64290000D01*
X98761252Y-65710000D02*
X98238748Y-65710000D01*
%TO.C,R1*%
X84735000Y-107227064D02*
X84735000Y-106772936D01*
X83265000Y-107227064D02*
X83265000Y-106772936D01*
%TO.C,C10*%
X81238748Y-60295000D02*
X81761252Y-60295000D01*
X81238748Y-61765000D02*
X81761252Y-61765000D01*
%TO.C,C11*%
X85738748Y-60295000D02*
X86261252Y-60295000D01*
X85738748Y-61765000D02*
X86261252Y-61765000D01*
%TO.C,J1*%
X99580000Y-107565000D02*
X99580000Y-106155000D01*
X92040000Y-103485000D02*
X91240000Y-103485000D01*
X91240000Y-103485000D02*
X91240000Y-103635000D01*
X90420000Y-107565000D02*
X90420000Y-106155000D01*
%TO.C,D1*%
X80040000Y-105315000D02*
X80040000Y-108000000D01*
X81960000Y-105315000D02*
X80040000Y-105315000D01*
X81960000Y-108000000D02*
X81960000Y-105315000D01*
%TO.C,U1*%
X89060000Y-63890000D02*
X89370000Y-63890000D01*
X83390000Y-63890000D02*
X83940000Y-63890000D01*
X89610000Y-64440000D02*
X89610000Y-64190000D01*
X83390000Y-64440000D02*
X83390000Y-63890000D01*
X89610000Y-69560000D02*
X89610000Y-70110000D01*
X83390000Y-69560000D02*
X83390000Y-70110000D01*
X89610000Y-70110000D02*
X89060000Y-70110000D01*
X83390000Y-70110000D02*
X83940000Y-70110000D01*
X89940000Y-64130000D02*
X89610000Y-63890000D01*
X89940000Y-63650000D01*
X89940000Y-64130000D01*
G36*
X89940000Y-64130000D02*
G01*
X89610000Y-63890000D01*
X89940000Y-63650000D01*
X89940000Y-64130000D01*
G37*
%TO.C,L3*%
X80738748Y-77290000D02*
X81261252Y-77290000D01*
X80738748Y-78710000D02*
X81261252Y-78710000D01*
%TO.C,C8*%
X102738748Y-65735000D02*
X103261252Y-65735000D01*
X102738748Y-64265000D02*
X103261252Y-64265000D01*
%TO.C,C6*%
X94238748Y-69265000D02*
X94761252Y-69265000D01*
X94238748Y-70735000D02*
X94761252Y-70735000D01*
%TO.C,C2*%
X86761252Y-73735000D02*
X86238748Y-73735000D01*
X86761252Y-72265000D02*
X86238748Y-72265000D01*
%TO.C,R2*%
X85765000Y-104227064D02*
X85765000Y-103772936D01*
X87235000Y-104227064D02*
X87235000Y-103772936D01*
%TO.C,U2*%
X107490000Y-107800000D02*
X107160000Y-108040000D01*
X107160000Y-107560000D01*
X107490000Y-107800000D01*
G36*
X107490000Y-107800000D02*
G01*
X107160000Y-108040000D01*
X107160000Y-107560000D01*
X107490000Y-107800000D01*
G37*
X110560000Y-106500000D02*
X110560000Y-107300000D01*
X110560000Y-106500000D02*
X110560000Y-105700000D01*
X107440000Y-106500000D02*
X107440000Y-107300000D01*
X107440000Y-106500000D02*
X107440000Y-105700000D01*
%TO.C,R3*%
X102765000Y-103772936D02*
X102765000Y-104227064D01*
X104235000Y-103772936D02*
X104235000Y-104227064D01*
%TO.C,C1*%
X90238748Y-60265000D02*
X90761252Y-60265000D01*
X90238748Y-61735000D02*
X90761252Y-61735000D01*
%TD*%
M02*
