%TF.GenerationSoftware,KiCad,Pcbnew,8.0.3-8.0.3-0~ubuntu24.04.1*%
%TF.CreationDate,2024-06-13T21:30:14+05:00*%
%TF.ProjectId,solartap_mcu,736f6c61-7274-4617-905f-6d63752e6b69,rev?*%
%TF.SameCoordinates,Original*%
%TF.FileFunction,Drillmap*%
%TF.FilePolarity,Positive*%
%FSLAX45Y45*%
G04 Gerber Fmt 4.5, Leading zero omitted, Abs format (unit mm)*
G04 Created by KiCad (PCBNEW 8.0.3-8.0.3-0~ubuntu24.04.1) date 2024-06-13 21:30:14*
%MOMM*%
%LPD*%
G01*
G04 APERTURE LIST*
%ADD10C,0.050000*%
%ADD11C,0.200000*%
%ADD12C,0.100000*%
G04 APERTURE END LIST*
D10*
X6000000Y-4000000D02*
X13000000Y-4000000D01*
X13000000Y-11000000D01*
X6000000Y-11000000D01*
X6000000Y-4000000D01*
D11*
D12*
X9178500Y-10507000D02*
X9243500Y-10572000D01*
X9243500Y-10507000D02*
X9178500Y-10572000D01*
X9756500Y-10507000D02*
X9821500Y-10572000D01*
X9821500Y-10507000D02*
X9756500Y-10572000D01*
D11*
X6258277Y-11313984D02*
X6258277Y-11113984D01*
X6258277Y-11113984D02*
X6305896Y-11113984D01*
X6305896Y-11113984D02*
X6334467Y-11123508D01*
X6334467Y-11123508D02*
X6353515Y-11142555D01*
X6353515Y-11142555D02*
X6363039Y-11161603D01*
X6363039Y-11161603D02*
X6372562Y-11199698D01*
X6372562Y-11199698D02*
X6372562Y-11228269D01*
X6372562Y-11228269D02*
X6363039Y-11266365D01*
X6363039Y-11266365D02*
X6353515Y-11285412D01*
X6353515Y-11285412D02*
X6334467Y-11304460D01*
X6334467Y-11304460D02*
X6305896Y-11313984D01*
X6305896Y-11313984D02*
X6258277Y-11313984D01*
X6458277Y-11313984D02*
X6458277Y-11180650D01*
X6458277Y-11218746D02*
X6467801Y-11199698D01*
X6467801Y-11199698D02*
X6477324Y-11190174D01*
X6477324Y-11190174D02*
X6496372Y-11180650D01*
X6496372Y-11180650D02*
X6515420Y-11180650D01*
X6582086Y-11313984D02*
X6582086Y-11180650D01*
X6582086Y-11113984D02*
X6572562Y-11123508D01*
X6572562Y-11123508D02*
X6582086Y-11133031D01*
X6582086Y-11133031D02*
X6591610Y-11123508D01*
X6591610Y-11123508D02*
X6582086Y-11113984D01*
X6582086Y-11113984D02*
X6582086Y-11133031D01*
X6705896Y-11313984D02*
X6686848Y-11304460D01*
X6686848Y-11304460D02*
X6677324Y-11285412D01*
X6677324Y-11285412D02*
X6677324Y-11113984D01*
X6810658Y-11313984D02*
X6791610Y-11304460D01*
X6791610Y-11304460D02*
X6782086Y-11285412D01*
X6782086Y-11285412D02*
X6782086Y-11113984D01*
X7039229Y-11313984D02*
X7039229Y-11113984D01*
X7039229Y-11113984D02*
X7105896Y-11256841D01*
X7105896Y-11256841D02*
X7172562Y-11113984D01*
X7172562Y-11113984D02*
X7172562Y-11313984D01*
X7353515Y-11313984D02*
X7353515Y-11209222D01*
X7353515Y-11209222D02*
X7343991Y-11190174D01*
X7343991Y-11190174D02*
X7324943Y-11180650D01*
X7324943Y-11180650D02*
X7286848Y-11180650D01*
X7286848Y-11180650D02*
X7267801Y-11190174D01*
X7353515Y-11304460D02*
X7334467Y-11313984D01*
X7334467Y-11313984D02*
X7286848Y-11313984D01*
X7286848Y-11313984D02*
X7267801Y-11304460D01*
X7267801Y-11304460D02*
X7258277Y-11285412D01*
X7258277Y-11285412D02*
X7258277Y-11266365D01*
X7258277Y-11266365D02*
X7267801Y-11247317D01*
X7267801Y-11247317D02*
X7286848Y-11237793D01*
X7286848Y-11237793D02*
X7334467Y-11237793D01*
X7334467Y-11237793D02*
X7353515Y-11228269D01*
X7448753Y-11180650D02*
X7448753Y-11380650D01*
X7448753Y-11190174D02*
X7467801Y-11180650D01*
X7467801Y-11180650D02*
X7505896Y-11180650D01*
X7505896Y-11180650D02*
X7524943Y-11190174D01*
X7524943Y-11190174D02*
X7534467Y-11199698D01*
X7534467Y-11199698D02*
X7543991Y-11218746D01*
X7543991Y-11218746D02*
X7543991Y-11275888D01*
X7543991Y-11275888D02*
X7534467Y-11294936D01*
X7534467Y-11294936D02*
X7524943Y-11304460D01*
X7524943Y-11304460D02*
X7505896Y-11313984D01*
X7505896Y-11313984D02*
X7467801Y-11313984D01*
X7467801Y-11313984D02*
X7448753Y-11304460D01*
X7629705Y-11294936D02*
X7639229Y-11304460D01*
X7639229Y-11304460D02*
X7629705Y-11313984D01*
X7629705Y-11313984D02*
X7620182Y-11304460D01*
X7620182Y-11304460D02*
X7629705Y-11294936D01*
X7629705Y-11294936D02*
X7629705Y-11313984D01*
X7629705Y-11190174D02*
X7639229Y-11199698D01*
X7639229Y-11199698D02*
X7629705Y-11209222D01*
X7629705Y-11209222D02*
X7620182Y-11199698D01*
X7620182Y-11199698D02*
X7629705Y-11190174D01*
X7629705Y-11190174D02*
X7629705Y-11209222D01*
D12*
X5932500Y-11610000D02*
X5997500Y-11675000D01*
X5997500Y-11610000D02*
X5932500Y-11675000D01*
D11*
X6296372Y-11533984D02*
X6315420Y-11533984D01*
X6315420Y-11533984D02*
X6334467Y-11543508D01*
X6334467Y-11543508D02*
X6343991Y-11553031D01*
X6343991Y-11553031D02*
X6353515Y-11572079D01*
X6353515Y-11572079D02*
X6363039Y-11610174D01*
X6363039Y-11610174D02*
X6363039Y-11657793D01*
X6363039Y-11657793D02*
X6353515Y-11695888D01*
X6353515Y-11695888D02*
X6343991Y-11714936D01*
X6343991Y-11714936D02*
X6334467Y-11724460D01*
X6334467Y-11724460D02*
X6315420Y-11733984D01*
X6315420Y-11733984D02*
X6296372Y-11733984D01*
X6296372Y-11733984D02*
X6277324Y-11724460D01*
X6277324Y-11724460D02*
X6267801Y-11714936D01*
X6267801Y-11714936D02*
X6258277Y-11695888D01*
X6258277Y-11695888D02*
X6248753Y-11657793D01*
X6248753Y-11657793D02*
X6248753Y-11610174D01*
X6248753Y-11610174D02*
X6258277Y-11572079D01*
X6258277Y-11572079D02*
X6267801Y-11553031D01*
X6267801Y-11553031D02*
X6277324Y-11543508D01*
X6277324Y-11543508D02*
X6296372Y-11533984D01*
X6448753Y-11714936D02*
X6458277Y-11724460D01*
X6458277Y-11724460D02*
X6448753Y-11733984D01*
X6448753Y-11733984D02*
X6439229Y-11724460D01*
X6439229Y-11724460D02*
X6448753Y-11714936D01*
X6448753Y-11714936D02*
X6448753Y-11733984D01*
X6629705Y-11533984D02*
X6591610Y-11533984D01*
X6591610Y-11533984D02*
X6572562Y-11543508D01*
X6572562Y-11543508D02*
X6563039Y-11553031D01*
X6563039Y-11553031D02*
X6543991Y-11581603D01*
X6543991Y-11581603D02*
X6534467Y-11619698D01*
X6534467Y-11619698D02*
X6534467Y-11695888D01*
X6534467Y-11695888D02*
X6543991Y-11714936D01*
X6543991Y-11714936D02*
X6553515Y-11724460D01*
X6553515Y-11724460D02*
X6572562Y-11733984D01*
X6572562Y-11733984D02*
X6610658Y-11733984D01*
X6610658Y-11733984D02*
X6629705Y-11724460D01*
X6629705Y-11724460D02*
X6639229Y-11714936D01*
X6639229Y-11714936D02*
X6648753Y-11695888D01*
X6648753Y-11695888D02*
X6648753Y-11648269D01*
X6648753Y-11648269D02*
X6639229Y-11629222D01*
X6639229Y-11629222D02*
X6629705Y-11619698D01*
X6629705Y-11619698D02*
X6610658Y-11610174D01*
X6610658Y-11610174D02*
X6572562Y-11610174D01*
X6572562Y-11610174D02*
X6553515Y-11619698D01*
X6553515Y-11619698D02*
X6543991Y-11629222D01*
X6543991Y-11629222D02*
X6534467Y-11648269D01*
X6829705Y-11533984D02*
X6734467Y-11533984D01*
X6734467Y-11533984D02*
X6724943Y-11629222D01*
X6724943Y-11629222D02*
X6734467Y-11619698D01*
X6734467Y-11619698D02*
X6753515Y-11610174D01*
X6753515Y-11610174D02*
X6801134Y-11610174D01*
X6801134Y-11610174D02*
X6820182Y-11619698D01*
X6820182Y-11619698D02*
X6829705Y-11629222D01*
X6829705Y-11629222D02*
X6839229Y-11648269D01*
X6839229Y-11648269D02*
X6839229Y-11695888D01*
X6839229Y-11695888D02*
X6829705Y-11714936D01*
X6829705Y-11714936D02*
X6820182Y-11724460D01*
X6820182Y-11724460D02*
X6801134Y-11733984D01*
X6801134Y-11733984D02*
X6753515Y-11733984D01*
X6753515Y-11733984D02*
X6734467Y-11724460D01*
X6734467Y-11724460D02*
X6724943Y-11714936D01*
X6963039Y-11533984D02*
X6982086Y-11533984D01*
X6982086Y-11533984D02*
X7001134Y-11543508D01*
X7001134Y-11543508D02*
X7010658Y-11553031D01*
X7010658Y-11553031D02*
X7020182Y-11572079D01*
X7020182Y-11572079D02*
X7029705Y-11610174D01*
X7029705Y-11610174D02*
X7029705Y-11657793D01*
X7029705Y-11657793D02*
X7020182Y-11695888D01*
X7020182Y-11695888D02*
X7010658Y-11714936D01*
X7010658Y-11714936D02*
X7001134Y-11724460D01*
X7001134Y-11724460D02*
X6982086Y-11733984D01*
X6982086Y-11733984D02*
X6963039Y-11733984D01*
X6963039Y-11733984D02*
X6943991Y-11724460D01*
X6943991Y-11724460D02*
X6934467Y-11714936D01*
X6934467Y-11714936D02*
X6924943Y-11695888D01*
X6924943Y-11695888D02*
X6915420Y-11657793D01*
X6915420Y-11657793D02*
X6915420Y-11610174D01*
X6915420Y-11610174D02*
X6924943Y-11572079D01*
X6924943Y-11572079D02*
X6934467Y-11553031D01*
X6934467Y-11553031D02*
X6943991Y-11543508D01*
X6943991Y-11543508D02*
X6963039Y-11533984D01*
X7115420Y-11733984D02*
X7115420Y-11600650D01*
X7115420Y-11619698D02*
X7124943Y-11610174D01*
X7124943Y-11610174D02*
X7143991Y-11600650D01*
X7143991Y-11600650D02*
X7172563Y-11600650D01*
X7172563Y-11600650D02*
X7191610Y-11610174D01*
X7191610Y-11610174D02*
X7201134Y-11629222D01*
X7201134Y-11629222D02*
X7201134Y-11733984D01*
X7201134Y-11629222D02*
X7210658Y-11610174D01*
X7210658Y-11610174D02*
X7229705Y-11600650D01*
X7229705Y-11600650D02*
X7258277Y-11600650D01*
X7258277Y-11600650D02*
X7277324Y-11610174D01*
X7277324Y-11610174D02*
X7286848Y-11629222D01*
X7286848Y-11629222D02*
X7286848Y-11733984D01*
X7382086Y-11733984D02*
X7382086Y-11600650D01*
X7382086Y-11619698D02*
X7391610Y-11610174D01*
X7391610Y-11610174D02*
X7410658Y-11600650D01*
X7410658Y-11600650D02*
X7439229Y-11600650D01*
X7439229Y-11600650D02*
X7458277Y-11610174D01*
X7458277Y-11610174D02*
X7467801Y-11629222D01*
X7467801Y-11629222D02*
X7467801Y-11733984D01*
X7467801Y-11629222D02*
X7477324Y-11610174D01*
X7477324Y-11610174D02*
X7496372Y-11600650D01*
X7496372Y-11600650D02*
X7524943Y-11600650D01*
X7524943Y-11600650D02*
X7543991Y-11610174D01*
X7543991Y-11610174D02*
X7553515Y-11629222D01*
X7553515Y-11629222D02*
X7553515Y-11733984D01*
X7943991Y-11524460D02*
X7772563Y-11781603D01*
X8201134Y-11533984D02*
X8220182Y-11533984D01*
X8220182Y-11533984D02*
X8239229Y-11543508D01*
X8239229Y-11543508D02*
X8248753Y-11553031D01*
X8248753Y-11553031D02*
X8258277Y-11572079D01*
X8258277Y-11572079D02*
X8267801Y-11610174D01*
X8267801Y-11610174D02*
X8267801Y-11657793D01*
X8267801Y-11657793D02*
X8258277Y-11695888D01*
X8258277Y-11695888D02*
X8248753Y-11714936D01*
X8248753Y-11714936D02*
X8239229Y-11724460D01*
X8239229Y-11724460D02*
X8220182Y-11733984D01*
X8220182Y-11733984D02*
X8201134Y-11733984D01*
X8201134Y-11733984D02*
X8182086Y-11724460D01*
X8182086Y-11724460D02*
X8172563Y-11714936D01*
X8172563Y-11714936D02*
X8163039Y-11695888D01*
X8163039Y-11695888D02*
X8153515Y-11657793D01*
X8153515Y-11657793D02*
X8153515Y-11610174D01*
X8153515Y-11610174D02*
X8163039Y-11572079D01*
X8163039Y-11572079D02*
X8172563Y-11553031D01*
X8172563Y-11553031D02*
X8182086Y-11543508D01*
X8182086Y-11543508D02*
X8201134Y-11533984D01*
X8353515Y-11714936D02*
X8363039Y-11724460D01*
X8363039Y-11724460D02*
X8353515Y-11733984D01*
X8353515Y-11733984D02*
X8343991Y-11724460D01*
X8343991Y-11724460D02*
X8353515Y-11714936D01*
X8353515Y-11714936D02*
X8353515Y-11733984D01*
X8486848Y-11533984D02*
X8505896Y-11533984D01*
X8505896Y-11533984D02*
X8524944Y-11543508D01*
X8524944Y-11543508D02*
X8534468Y-11553031D01*
X8534468Y-11553031D02*
X8543991Y-11572079D01*
X8543991Y-11572079D02*
X8553515Y-11610174D01*
X8553515Y-11610174D02*
X8553515Y-11657793D01*
X8553515Y-11657793D02*
X8543991Y-11695888D01*
X8543991Y-11695888D02*
X8534468Y-11714936D01*
X8534468Y-11714936D02*
X8524944Y-11724460D01*
X8524944Y-11724460D02*
X8505896Y-11733984D01*
X8505896Y-11733984D02*
X8486848Y-11733984D01*
X8486848Y-11733984D02*
X8467801Y-11724460D01*
X8467801Y-11724460D02*
X8458277Y-11714936D01*
X8458277Y-11714936D02*
X8448753Y-11695888D01*
X8448753Y-11695888D02*
X8439229Y-11657793D01*
X8439229Y-11657793D02*
X8439229Y-11610174D01*
X8439229Y-11610174D02*
X8448753Y-11572079D01*
X8448753Y-11572079D02*
X8458277Y-11553031D01*
X8458277Y-11553031D02*
X8467801Y-11543508D01*
X8467801Y-11543508D02*
X8486848Y-11533984D01*
X8629706Y-11553031D02*
X8639229Y-11543508D01*
X8639229Y-11543508D02*
X8658277Y-11533984D01*
X8658277Y-11533984D02*
X8705896Y-11533984D01*
X8705896Y-11533984D02*
X8724944Y-11543508D01*
X8724944Y-11543508D02*
X8734468Y-11553031D01*
X8734468Y-11553031D02*
X8743991Y-11572079D01*
X8743991Y-11572079D02*
X8743991Y-11591127D01*
X8743991Y-11591127D02*
X8734468Y-11619698D01*
X8734468Y-11619698D02*
X8620182Y-11733984D01*
X8620182Y-11733984D02*
X8743991Y-11733984D01*
X8924944Y-11533984D02*
X8829706Y-11533984D01*
X8829706Y-11533984D02*
X8820182Y-11629222D01*
X8820182Y-11629222D02*
X8829706Y-11619698D01*
X8829706Y-11619698D02*
X8848753Y-11610174D01*
X8848753Y-11610174D02*
X8896372Y-11610174D01*
X8896372Y-11610174D02*
X8915420Y-11619698D01*
X8915420Y-11619698D02*
X8924944Y-11629222D01*
X8924944Y-11629222D02*
X8934468Y-11648269D01*
X8934468Y-11648269D02*
X8934468Y-11695888D01*
X8934468Y-11695888D02*
X8924944Y-11714936D01*
X8924944Y-11714936D02*
X8915420Y-11724460D01*
X8915420Y-11724460D02*
X8896372Y-11733984D01*
X8896372Y-11733984D02*
X8848753Y-11733984D01*
X8848753Y-11733984D02*
X8829706Y-11724460D01*
X8829706Y-11724460D02*
X8820182Y-11714936D01*
X9105896Y-11533984D02*
X9067801Y-11533984D01*
X9067801Y-11533984D02*
X9048753Y-11543508D01*
X9048753Y-11543508D02*
X9039229Y-11553031D01*
X9039229Y-11553031D02*
X9020182Y-11581603D01*
X9020182Y-11581603D02*
X9010658Y-11619698D01*
X9010658Y-11619698D02*
X9010658Y-11695888D01*
X9010658Y-11695888D02*
X9020182Y-11714936D01*
X9020182Y-11714936D02*
X9029706Y-11724460D01*
X9029706Y-11724460D02*
X9048753Y-11733984D01*
X9048753Y-11733984D02*
X9086849Y-11733984D01*
X9086849Y-11733984D02*
X9105896Y-11724460D01*
X9105896Y-11724460D02*
X9115420Y-11714936D01*
X9115420Y-11714936D02*
X9124944Y-11695888D01*
X9124944Y-11695888D02*
X9124944Y-11648269D01*
X9124944Y-11648269D02*
X9115420Y-11629222D01*
X9115420Y-11629222D02*
X9105896Y-11619698D01*
X9105896Y-11619698D02*
X9086849Y-11610174D01*
X9086849Y-11610174D02*
X9048753Y-11610174D01*
X9048753Y-11610174D02*
X9029706Y-11619698D01*
X9029706Y-11619698D02*
X9020182Y-11629222D01*
X9020182Y-11629222D02*
X9010658Y-11648269D01*
X9201134Y-11533984D02*
X9201134Y-11572079D01*
X9277325Y-11533984D02*
X9277325Y-11572079D01*
X9572563Y-11810174D02*
X9563039Y-11800650D01*
X9563039Y-11800650D02*
X9543991Y-11772079D01*
X9543991Y-11772079D02*
X9534468Y-11753031D01*
X9534468Y-11753031D02*
X9524944Y-11724460D01*
X9524944Y-11724460D02*
X9515420Y-11676841D01*
X9515420Y-11676841D02*
X9515420Y-11638746D01*
X9515420Y-11638746D02*
X9524944Y-11591127D01*
X9524944Y-11591127D02*
X9534468Y-11562555D01*
X9534468Y-11562555D02*
X9543991Y-11543508D01*
X9543991Y-11543508D02*
X9563039Y-11514936D01*
X9563039Y-11514936D02*
X9572563Y-11505412D01*
X9639230Y-11553031D02*
X9648753Y-11543508D01*
X9648753Y-11543508D02*
X9667801Y-11533984D01*
X9667801Y-11533984D02*
X9715420Y-11533984D01*
X9715420Y-11533984D02*
X9734468Y-11543508D01*
X9734468Y-11543508D02*
X9743991Y-11553031D01*
X9743991Y-11553031D02*
X9753515Y-11572079D01*
X9753515Y-11572079D02*
X9753515Y-11591127D01*
X9753515Y-11591127D02*
X9743991Y-11619698D01*
X9743991Y-11619698D02*
X9629706Y-11733984D01*
X9629706Y-11733984D02*
X9753515Y-11733984D01*
X9991611Y-11733984D02*
X9991611Y-11533984D01*
X10077325Y-11733984D02*
X10077325Y-11629222D01*
X10077325Y-11629222D02*
X10067801Y-11610174D01*
X10067801Y-11610174D02*
X10048753Y-11600650D01*
X10048753Y-11600650D02*
X10020182Y-11600650D01*
X10020182Y-11600650D02*
X10001134Y-11610174D01*
X10001134Y-11610174D02*
X9991611Y-11619698D01*
X10201134Y-11733984D02*
X10182087Y-11724460D01*
X10182087Y-11724460D02*
X10172563Y-11714936D01*
X10172563Y-11714936D02*
X10163039Y-11695888D01*
X10163039Y-11695888D02*
X10163039Y-11638746D01*
X10163039Y-11638746D02*
X10172563Y-11619698D01*
X10172563Y-11619698D02*
X10182087Y-11610174D01*
X10182087Y-11610174D02*
X10201134Y-11600650D01*
X10201134Y-11600650D02*
X10229706Y-11600650D01*
X10229706Y-11600650D02*
X10248753Y-11610174D01*
X10248753Y-11610174D02*
X10258277Y-11619698D01*
X10258277Y-11619698D02*
X10267801Y-11638746D01*
X10267801Y-11638746D02*
X10267801Y-11695888D01*
X10267801Y-11695888D02*
X10258277Y-11714936D01*
X10258277Y-11714936D02*
X10248753Y-11724460D01*
X10248753Y-11724460D02*
X10229706Y-11733984D01*
X10229706Y-11733984D02*
X10201134Y-11733984D01*
X10382087Y-11733984D02*
X10363039Y-11724460D01*
X10363039Y-11724460D02*
X10353515Y-11705412D01*
X10353515Y-11705412D02*
X10353515Y-11533984D01*
X10534468Y-11724460D02*
X10515420Y-11733984D01*
X10515420Y-11733984D02*
X10477325Y-11733984D01*
X10477325Y-11733984D02*
X10458277Y-11724460D01*
X10458277Y-11724460D02*
X10448753Y-11705412D01*
X10448753Y-11705412D02*
X10448753Y-11629222D01*
X10448753Y-11629222D02*
X10458277Y-11610174D01*
X10458277Y-11610174D02*
X10477325Y-11600650D01*
X10477325Y-11600650D02*
X10515420Y-11600650D01*
X10515420Y-11600650D02*
X10534468Y-11610174D01*
X10534468Y-11610174D02*
X10543992Y-11629222D01*
X10543992Y-11629222D02*
X10543992Y-11648269D01*
X10543992Y-11648269D02*
X10448753Y-11667317D01*
X10620182Y-11724460D02*
X10639230Y-11733984D01*
X10639230Y-11733984D02*
X10677325Y-11733984D01*
X10677325Y-11733984D02*
X10696373Y-11724460D01*
X10696373Y-11724460D02*
X10705896Y-11705412D01*
X10705896Y-11705412D02*
X10705896Y-11695888D01*
X10705896Y-11695888D02*
X10696373Y-11676841D01*
X10696373Y-11676841D02*
X10677325Y-11667317D01*
X10677325Y-11667317D02*
X10648753Y-11667317D01*
X10648753Y-11667317D02*
X10629706Y-11657793D01*
X10629706Y-11657793D02*
X10620182Y-11638746D01*
X10620182Y-11638746D02*
X10620182Y-11629222D01*
X10620182Y-11629222D02*
X10629706Y-11610174D01*
X10629706Y-11610174D02*
X10648753Y-11600650D01*
X10648753Y-11600650D02*
X10677325Y-11600650D01*
X10677325Y-11600650D02*
X10696373Y-11610174D01*
X10772563Y-11810174D02*
X10782087Y-11800650D01*
X10782087Y-11800650D02*
X10801134Y-11772079D01*
X10801134Y-11772079D02*
X10810658Y-11753031D01*
X10810658Y-11753031D02*
X10820182Y-11724460D01*
X10820182Y-11724460D02*
X10829706Y-11676841D01*
X10829706Y-11676841D02*
X10829706Y-11638746D01*
X10829706Y-11638746D02*
X10820182Y-11591127D01*
X10820182Y-11591127D02*
X10810658Y-11562555D01*
X10810658Y-11562555D02*
X10801134Y-11543508D01*
X10801134Y-11543508D02*
X10782087Y-11514936D01*
X10782087Y-11514936D02*
X10772563Y-11505412D01*
X11134468Y-11810174D02*
X11124944Y-11800650D01*
X11124944Y-11800650D02*
X11105896Y-11772079D01*
X11105896Y-11772079D02*
X11096373Y-11753031D01*
X11096373Y-11753031D02*
X11086849Y-11724460D01*
X11086849Y-11724460D02*
X11077325Y-11676841D01*
X11077325Y-11676841D02*
X11077325Y-11638746D01*
X11077325Y-11638746D02*
X11086849Y-11591127D01*
X11086849Y-11591127D02*
X11096373Y-11562555D01*
X11096373Y-11562555D02*
X11105896Y-11543508D01*
X11105896Y-11543508D02*
X11124944Y-11514936D01*
X11124944Y-11514936D02*
X11134468Y-11505412D01*
X11210658Y-11600650D02*
X11210658Y-11733984D01*
X11210658Y-11619698D02*
X11220182Y-11610174D01*
X11220182Y-11610174D02*
X11239230Y-11600650D01*
X11239230Y-11600650D02*
X11267801Y-11600650D01*
X11267801Y-11600650D02*
X11286849Y-11610174D01*
X11286849Y-11610174D02*
X11296372Y-11629222D01*
X11296372Y-11629222D02*
X11296372Y-11733984D01*
X11420182Y-11733984D02*
X11401134Y-11724460D01*
X11401134Y-11724460D02*
X11391611Y-11714936D01*
X11391611Y-11714936D02*
X11382087Y-11695888D01*
X11382087Y-11695888D02*
X11382087Y-11638746D01*
X11382087Y-11638746D02*
X11391611Y-11619698D01*
X11391611Y-11619698D02*
X11401134Y-11610174D01*
X11401134Y-11610174D02*
X11420182Y-11600650D01*
X11420182Y-11600650D02*
X11448753Y-11600650D01*
X11448753Y-11600650D02*
X11467801Y-11610174D01*
X11467801Y-11610174D02*
X11477325Y-11619698D01*
X11477325Y-11619698D02*
X11486849Y-11638746D01*
X11486849Y-11638746D02*
X11486849Y-11695888D01*
X11486849Y-11695888D02*
X11477325Y-11714936D01*
X11477325Y-11714936D02*
X11467801Y-11724460D01*
X11467801Y-11724460D02*
X11448753Y-11733984D01*
X11448753Y-11733984D02*
X11420182Y-11733984D01*
X11543992Y-11600650D02*
X11620182Y-11600650D01*
X11572563Y-11533984D02*
X11572563Y-11705412D01*
X11572563Y-11705412D02*
X11582087Y-11724460D01*
X11582087Y-11724460D02*
X11601134Y-11733984D01*
X11601134Y-11733984D02*
X11620182Y-11733984D01*
X11839230Y-11600650D02*
X11839230Y-11800650D01*
X11839230Y-11610174D02*
X11858277Y-11600650D01*
X11858277Y-11600650D02*
X11896373Y-11600650D01*
X11896373Y-11600650D02*
X11915420Y-11610174D01*
X11915420Y-11610174D02*
X11924944Y-11619698D01*
X11924944Y-11619698D02*
X11934468Y-11638746D01*
X11934468Y-11638746D02*
X11934468Y-11695888D01*
X11934468Y-11695888D02*
X11924944Y-11714936D01*
X11924944Y-11714936D02*
X11915420Y-11724460D01*
X11915420Y-11724460D02*
X11896373Y-11733984D01*
X11896373Y-11733984D02*
X11858277Y-11733984D01*
X11858277Y-11733984D02*
X11839230Y-11724460D01*
X12048753Y-11733984D02*
X12029706Y-11724460D01*
X12029706Y-11724460D02*
X12020182Y-11705412D01*
X12020182Y-11705412D02*
X12020182Y-11533984D01*
X12210658Y-11733984D02*
X12210658Y-11629222D01*
X12210658Y-11629222D02*
X12201134Y-11610174D01*
X12201134Y-11610174D02*
X12182087Y-11600650D01*
X12182087Y-11600650D02*
X12143992Y-11600650D01*
X12143992Y-11600650D02*
X12124944Y-11610174D01*
X12210658Y-11724460D02*
X12191611Y-11733984D01*
X12191611Y-11733984D02*
X12143992Y-11733984D01*
X12143992Y-11733984D02*
X12124944Y-11724460D01*
X12124944Y-11724460D02*
X12115420Y-11705412D01*
X12115420Y-11705412D02*
X12115420Y-11686365D01*
X12115420Y-11686365D02*
X12124944Y-11667317D01*
X12124944Y-11667317D02*
X12143992Y-11657793D01*
X12143992Y-11657793D02*
X12191611Y-11657793D01*
X12191611Y-11657793D02*
X12210658Y-11648269D01*
X12277325Y-11600650D02*
X12353515Y-11600650D01*
X12305896Y-11533984D02*
X12305896Y-11705412D01*
X12305896Y-11705412D02*
X12315420Y-11724460D01*
X12315420Y-11724460D02*
X12334468Y-11733984D01*
X12334468Y-11733984D02*
X12353515Y-11733984D01*
X12496373Y-11724460D02*
X12477325Y-11733984D01*
X12477325Y-11733984D02*
X12439230Y-11733984D01*
X12439230Y-11733984D02*
X12420182Y-11724460D01*
X12420182Y-11724460D02*
X12410658Y-11705412D01*
X12410658Y-11705412D02*
X12410658Y-11629222D01*
X12410658Y-11629222D02*
X12420182Y-11610174D01*
X12420182Y-11610174D02*
X12439230Y-11600650D01*
X12439230Y-11600650D02*
X12477325Y-11600650D01*
X12477325Y-11600650D02*
X12496373Y-11610174D01*
X12496373Y-11610174D02*
X12505896Y-11629222D01*
X12505896Y-11629222D02*
X12505896Y-11648269D01*
X12505896Y-11648269D02*
X12410658Y-11667317D01*
X12677325Y-11733984D02*
X12677325Y-11533984D01*
X12677325Y-11724460D02*
X12658277Y-11733984D01*
X12658277Y-11733984D02*
X12620182Y-11733984D01*
X12620182Y-11733984D02*
X12601134Y-11724460D01*
X12601134Y-11724460D02*
X12591611Y-11714936D01*
X12591611Y-11714936D02*
X12582087Y-11695888D01*
X12582087Y-11695888D02*
X12582087Y-11638746D01*
X12582087Y-11638746D02*
X12591611Y-11619698D01*
X12591611Y-11619698D02*
X12601134Y-11610174D01*
X12601134Y-11610174D02*
X12620182Y-11600650D01*
X12620182Y-11600650D02*
X12658277Y-11600650D01*
X12658277Y-11600650D02*
X12677325Y-11610174D01*
X12753515Y-11810174D02*
X12763039Y-11800650D01*
X12763039Y-11800650D02*
X12782087Y-11772079D01*
X12782087Y-11772079D02*
X12791611Y-11753031D01*
X12791611Y-11753031D02*
X12801134Y-11724460D01*
X12801134Y-11724460D02*
X12810658Y-11676841D01*
X12810658Y-11676841D02*
X12810658Y-11638746D01*
X12810658Y-11638746D02*
X12801134Y-11591127D01*
X12801134Y-11591127D02*
X12791611Y-11562555D01*
X12791611Y-11562555D02*
X12782087Y-11543508D01*
X12782087Y-11543508D02*
X12763039Y-11514936D01*
X12763039Y-11514936D02*
X12753515Y-11505412D01*
M02*
