%TF.GenerationSoftware,KiCad,Pcbnew,8.0.3-8.0.3-0~ubuntu24.04.1*%
%TF.CreationDate,2024-06-13T21:29:57+05:00*%
%TF.ProjectId,solartap_mcu,736f6c61-7274-4617-905f-6d63752e6b69,rev?*%
%TF.SameCoordinates,Original*%
%TF.FileFunction,Copper,L1,Top*%
%TF.FilePolarity,Positive*%
%FSLAX46Y46*%
G04 Gerber Fmt 4.6, Leading zero omitted, Abs format (unit mm)*
G04 Created by KiCad (PCBNEW 8.0.3-8.0.3-0~ubuntu24.04.1) date 2024-06-13 21:29:57*
%MOMM*%
%LPD*%
G01*
G04 APERTURE LIST*
G04 Aperture macros list*
%AMRoundRect*
0 Rectangle with rounded corners*
0 $1 Rounding radius*
0 $2 $3 $4 $5 $6 $7 $8 $9 X,Y pos of 4 corners*
0 Add a 4 corners polygon primitive as box body*
4,1,4,$2,$3,$4,$5,$6,$7,$8,$9,$2,$3,0*
0 Add four circle primitives for the rounded corners*
1,1,$1+$1,$2,$3*
1,1,$1+$1,$4,$5*
1,1,$1+$1,$6,$7*
1,1,$1+$1,$8,$9*
0 Add four rect primitives between the rounded corners*
20,1,$1+$1,$2,$3,$4,$5,0*
20,1,$1+$1,$4,$5,$6,$7,0*
20,1,$1+$1,$6,$7,$8,$9,0*
20,1,$1+$1,$8,$9,$2,$3,0*%
G04 Aperture macros list end*
%TA.AperFunction,EtchedComponent*%
%ADD10C,0.000000*%
%TD*%
%TA.AperFunction,SMDPad,CuDef*%
%ADD11C,3.000000*%
%TD*%
%TA.AperFunction,SMDPad,CuDef*%
%ADD12RoundRect,0.150000X0.200000X-0.150000X0.200000X0.150000X-0.200000X0.150000X-0.200000X-0.150000X0*%
%TD*%
%TA.AperFunction,SMDPad,CuDef*%
%ADD13R,1.800000X2.100000*%
%TD*%
%TA.AperFunction,SMDPad,CuDef*%
%ADD14RoundRect,0.250000X0.475000X-0.337500X0.475000X0.337500X-0.475000X0.337500X-0.475000X-0.337500X0*%
%TD*%
%TA.AperFunction,SMDPad,CuDef*%
%ADD15RoundRect,0.250000X0.337500X0.475000X-0.337500X0.475000X-0.337500X-0.475000X0.337500X-0.475000X0*%
%TD*%
%TA.AperFunction,SMDPad,CuDef*%
%ADD16RoundRect,0.250000X0.325000X0.450000X-0.325000X0.450000X-0.325000X-0.450000X0.325000X-0.450000X0*%
%TD*%
%TA.AperFunction,SMDPad,CuDef*%
%ADD17RoundRect,0.250000X-0.337500X-0.475000X0.337500X-0.475000X0.337500X0.475000X-0.337500X0.475000X0*%
%TD*%
%TA.AperFunction,SMDPad,CuDef*%
%ADD18RoundRect,0.250000X-0.475000X0.337500X-0.475000X-0.337500X0.475000X-0.337500X0.475000X0.337500X0*%
%TD*%
%TA.AperFunction,SMDPad,CuDef*%
%ADD19R,2.600000X5.560000*%
%TD*%
%TA.AperFunction,SMDPad,CuDef*%
%ADD20C,17.800000*%
%TD*%
%TA.AperFunction,SMDPad,CuDef*%
%ADD21RoundRect,0.250000X0.450000X-0.350000X0.450000X0.350000X-0.450000X0.350000X-0.450000X-0.350000X0*%
%TD*%
%TA.AperFunction,SMDPad,CuDef*%
%ADD22RoundRect,0.250000X-0.840000X-0.750000X0.840000X-0.750000X0.840000X0.750000X-0.840000X0.750000X0*%
%TD*%
%TA.AperFunction,SMDPad,CuDef*%
%ADD23RoundRect,0.150000X-0.150000X-0.425000X0.150000X-0.425000X0.150000X0.425000X-0.150000X0.425000X0*%
%TD*%
%TA.AperFunction,SMDPad,CuDef*%
%ADD24RoundRect,0.075000X-0.075000X-0.500000X0.075000X-0.500000X0.075000X0.500000X-0.075000X0.500000X0*%
%TD*%
%TA.AperFunction,SMDPad,CuDef*%
%ADD25RoundRect,0.243750X-0.456250X0.243750X-0.456250X-0.243750X0.456250X-0.243750X0.456250X0.243750X0*%
%TD*%
%TA.AperFunction,ComponentPad*%
%ADD26R,0.500000X0.900000*%
%TD*%
%TA.AperFunction,ConnectorPad*%
%ADD27R,0.500000X0.500000*%
%TD*%
%TA.AperFunction,SMDPad,CuDef*%
%ADD28RoundRect,0.050000X-0.050000X0.350000X-0.050000X-0.350000X0.050000X-0.350000X0.050000X0.350000X0*%
%TD*%
%TA.AperFunction,SMDPad,CuDef*%
%ADD29RoundRect,0.050000X-0.350000X0.050000X-0.350000X-0.050000X0.350000X-0.050000X0.350000X0.050000X0*%
%TD*%
%TA.AperFunction,HeatsinkPad*%
%ADD30R,4.600000X4.600000*%
%TD*%
%TA.AperFunction,SMDPad,CuDef*%
%ADD31RoundRect,0.250000X-0.325000X-0.450000X0.325000X-0.450000X0.325000X0.450000X-0.325000X0.450000X0*%
%TD*%
%TA.AperFunction,SMDPad,CuDef*%
%ADD32RoundRect,0.150000X0.150000X-0.512500X0.150000X0.512500X-0.150000X0.512500X-0.150000X-0.512500X0*%
%TD*%
%TA.AperFunction,SMDPad,CuDef*%
%ADD33RoundRect,0.250000X-0.450000X0.350000X-0.450000X-0.350000X0.450000X-0.350000X0.450000X0.350000X0*%
%TD*%
%TA.AperFunction,ViaPad*%
%ADD34C,0.600000*%
%TD*%
%TA.AperFunction,Conductor*%
%ADD35C,0.200000*%
%TD*%
G04 APERTURE END LIST*
D10*
%TA.AperFunction,EtchedComponent*%
%TO.C,AE1*%
G36*
X65790000Y-88150000D02*
G01*
X61850000Y-88150000D01*
X61850000Y-89850000D01*
X64490000Y-89850000D01*
X64490000Y-92850000D01*
X61850000Y-92850000D01*
X61850000Y-94550000D01*
X64490000Y-94550000D01*
X64490000Y-97550000D01*
X61850000Y-97550000D01*
X61850000Y-99250000D01*
X66750000Y-99250000D01*
X66750000Y-99750000D01*
X61850000Y-99750000D01*
X61850000Y-101150000D01*
X66750000Y-101150000D01*
X66750000Y-102050000D01*
X66506785Y-102050000D01*
X61350000Y-102050000D01*
X61350000Y-101607267D01*
X66352018Y-101607267D01*
X66359908Y-101655353D01*
X66376814Y-101688245D01*
X66413584Y-101723185D01*
X66458378Y-101742847D01*
X66506785Y-101747583D01*
X66554395Y-101737742D01*
X66596797Y-101713674D01*
X66629581Y-101675731D01*
X66633935Y-101667819D01*
X66646043Y-101625156D01*
X66645300Y-101576637D01*
X66632400Y-101531122D01*
X66621787Y-101512511D01*
X66586553Y-101478868D01*
X66541368Y-101458309D01*
X66491842Y-101451778D01*
X66443583Y-101460218D01*
X66411357Y-101477112D01*
X66378687Y-101512372D01*
X66358592Y-101557682D01*
X66352018Y-101607267D01*
X61350000Y-101607267D01*
X61350000Y-97050000D01*
X63990000Y-97050000D01*
X63990000Y-95050000D01*
X61350000Y-95050000D01*
X61350000Y-92350000D01*
X63990000Y-92350000D01*
X63990000Y-90350000D01*
X61350000Y-90350000D01*
X61350000Y-87650000D01*
X65790000Y-87650000D01*
X65790000Y-88150000D01*
G37*
%TD.AperFunction*%
%TD*%
D11*
%TO.P,TP6,1,1*%
%TO.N,GND*%
X126500000Y-106000000D03*
%TD*%
%TO.P,TP5,1,1*%
%TO.N,+3.3V*%
X126500000Y-99500000D03*
%TD*%
%TO.P,TP4,1,1*%
%TO.N,Net-(U2-IN)*%
X121500000Y-105000000D03*
%TD*%
D12*
%TO.P,D2,2,A*%
%TO.N,Net-(D2-A)*%
X112500000Y-106700000D03*
%TO.P,D2,1,K*%
%TO.N,+3.3V*%
X112500000Y-105300000D03*
%TD*%
D13*
%TO.P,Y1,1,1*%
%TO.N,Net-(U1-XC1)*%
X104150000Y-70950000D03*
%TO.P,Y1,2,2*%
%TO.N,GND*%
X104150000Y-68050000D03*
%TO.P,Y1,3,3*%
%TO.N,Net-(U1-XC2)*%
X101850000Y-68050000D03*
%TO.P,Y1,4,4*%
%TO.N,GND*%
X101850000Y-70950000D03*
%TD*%
D11*
%TO.P,TP1,1,1*%
%TO.N,Net-(U1-P0.21{slash}~{RESET})*%
X64000000Y-75500000D03*
%TD*%
D14*
%TO.P,C5,1*%
%TO.N,+3.3V*%
X94000000Y-63037500D03*
%TO.P,C5,2*%
%TO.N,GND*%
X94000000Y-60962500D03*
%TD*%
%TO.P,C4,1*%
%TO.N,+3.3V*%
X80500000Y-65567500D03*
%TO.P,C4,2*%
%TO.N,GND*%
X80500000Y-63492500D03*
%TD*%
D15*
%TO.P,C9,2*%
%TO.N,Net-(U1-ANT)*%
X83462500Y-75500000D03*
%TO.P,C9,1*%
%TO.N,GND*%
X85537500Y-75500000D03*
%TD*%
%TO.P,C3,1*%
%TO.N,Net-(U1-DEC4)*%
X95537500Y-67500000D03*
%TO.P,C3,2*%
%TO.N,GND*%
X93462500Y-67500000D03*
%TD*%
D14*
%TO.P,C7,1*%
%TO.N,Net-(U1-XC1)*%
X107000000Y-70537500D03*
%TO.P,C7,2*%
%TO.N,GND*%
X107000000Y-68462500D03*
%TD*%
D16*
%TO.P,L1,1*%
%TO.N,Net-(L1-Pad1)*%
X95525000Y-65000000D03*
%TO.P,L1,2*%
%TO.N,Net-(U1-DCC)*%
X93475000Y-65000000D03*
%TD*%
D11*
%TO.P,TP2,1,1*%
%TO.N,Net-(U1-SWDCLK)*%
X64000000Y-80000000D03*
%TD*%
D17*
%TO.P,C12,2*%
%TO.N,GND*%
X105537500Y-107500000D03*
%TO.P,C12,1*%
%TO.N,Net-(U2-IN)*%
X103462500Y-107500000D03*
%TD*%
D11*
%TO.P,TP3,1,1*%
%TO.N,Net-(U1-SWDIO)*%
X64000000Y-84500000D03*
%TD*%
D18*
%TO.P,C13,2*%
%TO.N,GND*%
X115000000Y-107537500D03*
%TO.P,C13,1*%
%TO.N,Net-(D2-A)*%
X115000000Y-105462500D03*
%TD*%
D19*
%TO.P,BT1,1,+*%
%TO.N,+3.3V*%
X83095000Y-82500000D03*
X106905000Y-82500000D03*
D20*
%TO.P,BT1,2,-*%
%TO.N,GND*%
X95000000Y-82500000D03*
%TD*%
D16*
%TO.P,L2,1*%
%TO.N,Net-(U1-DEC4)*%
X99525000Y-65000000D03*
%TO.P,L2,2*%
%TO.N,Net-(L1-Pad1)*%
X97475000Y-65000000D03*
%TD*%
D21*
%TO.P,R1,1*%
%TO.N,Net-(D1-A)*%
X84000000Y-108000000D03*
%TO.P,R1,2*%
%TO.N,+3.3V*%
X84000000Y-106000000D03*
%TD*%
D17*
%TO.P,C10,1*%
%TO.N,GND*%
X80462500Y-61030000D03*
%TO.P,C10,2*%
%TO.N,Net-(U1-NFC1{slash}P0.09)*%
X82537500Y-61030000D03*
%TD*%
%TO.P,C11,1*%
%TO.N,Net-(U1-NFC1{slash}P0.09)*%
X84962500Y-61030000D03*
%TO.P,C11,2*%
%TO.N,GND*%
X87037500Y-61030000D03*
%TD*%
D22*
%TO.P,J1,S1,SHIELD*%
%TO.N,GND*%
X100110000Y-108825000D03*
X100110000Y-104895000D03*
X89890000Y-108825000D03*
X89890000Y-104895000D03*
D23*
%TO.P,J1,B12,GND*%
X91800000Y-104320000D03*
%TO.P,J1,B9,VBUS*%
%TO.N,Net-(U2-IN)*%
X92600000Y-104320000D03*
D24*
%TO.P,J1,B8,SBU2*%
%TO.N,unconnected-(J1-SBU2-PadB8)*%
X93250000Y-104320000D03*
%TO.P,J1,B7,D-*%
%TO.N,unconnected-(J1-D--PadB7)*%
X94250000Y-104320000D03*
%TO.P,J1,B6,D+*%
%TO.N,unconnected-(J1-D+-PadB6)*%
X95750000Y-104320000D03*
%TO.P,J1,B5,CC2*%
%TO.N,Net-(J1-CC2)*%
X96750000Y-104320000D03*
D23*
%TO.P,J1,B4,VBUS*%
%TO.N,Net-(U2-IN)*%
X97400000Y-104320000D03*
%TO.P,J1,B1,GND*%
%TO.N,GND*%
X98200000Y-104320000D03*
%TO.P,J1,A12,GND*%
X98200000Y-104320000D03*
%TO.P,J1,A9,VBUS*%
%TO.N,Net-(U2-IN)*%
X97400000Y-104320000D03*
D24*
%TO.P,J1,A8,SBU1*%
%TO.N,unconnected-(J1-SBU1-PadA8)*%
X96250000Y-104320000D03*
%TO.P,J1,A7,D-*%
%TO.N,unconnected-(J1-D--PadA7)*%
X95250000Y-104320000D03*
%TO.P,J1,A6,D+*%
%TO.N,unconnected-(J1-D+-PadA6)*%
X94750000Y-104320000D03*
%TO.P,J1,A5,CC1*%
%TO.N,Net-(J1-CC1)*%
X93750000Y-104320000D03*
D23*
%TO.P,J1,A4,VBUS*%
%TO.N,Net-(U2-IN)*%
X92600000Y-104320000D03*
%TO.P,J1,A1,GND*%
%TO.N,GND*%
X91800000Y-104320000D03*
%TD*%
D25*
%TO.P,D1,1,K*%
%TO.N,Net-(D1-K)*%
X81000000Y-106062500D03*
%TO.P,D1,2,A*%
%TO.N,Net-(D1-A)*%
X81000000Y-107937500D03*
%TD*%
D26*
%TO.P,AE1,2*%
%TO.N,N/C*%
X66500000Y-101600000D03*
D27*
%TO.P,AE1,1,A*%
%TO.N,Net-(AE1-A)*%
X66500000Y-99500000D03*
%TD*%
D28*
%TO.P,U1,1,DEC1*%
%TO.N,Net-(U1-DEC1)*%
X88700000Y-64050000D03*
%TO.P,U1,2,P0.00/XL1*%
%TO.N,unconnected-(U1-P0.00{slash}XL1-Pad2)*%
X88300000Y-64050000D03*
%TO.P,U1,3,P0.01/XL2*%
%TO.N,unconnected-(U1-P0.01{slash}XL2-Pad3)*%
X87900000Y-64050000D03*
%TO.P,U1,4,P0.02/AIN0*%
%TO.N,unconnected-(U1-P0.02{slash}AIN0-Pad4)*%
X87500000Y-64050000D03*
%TO.P,U1,5,P0.03/AIN1*%
%TO.N,unconnected-(U1-P0.03{slash}AIN1-Pad5)*%
X87100000Y-64050000D03*
%TO.P,U1,6,P0.04/AIN2*%
%TO.N,unconnected-(U1-P0.04{slash}AIN2-Pad6)*%
X86700000Y-64050000D03*
%TO.P,U1,7,P0.05/AIN3*%
%TO.N,unconnected-(U1-P0.05{slash}AIN3-Pad7)*%
X86300000Y-64050000D03*
%TO.P,U1,8,P0.06*%
%TO.N,unconnected-(U1-P0.06-Pad8)*%
X85900000Y-64050000D03*
%TO.P,U1,9,P0.07*%
%TO.N,unconnected-(U1-P0.07-Pad9)*%
X85500000Y-64050000D03*
%TO.P,U1,10,P0.08*%
%TO.N,unconnected-(U1-P0.08-Pad10)*%
X85100000Y-64050000D03*
%TO.P,U1,11,NFC1/P0.09*%
%TO.N,Net-(U1-NFC1{slash}P0.09)*%
X84700000Y-64050000D03*
%TO.P,U1,12,NFC2/P0.10*%
X84300000Y-64050000D03*
D29*
%TO.P,U1,13,VDD*%
%TO.N,+3.3V*%
X83550000Y-64800000D03*
%TO.P,U1,14,P0.11*%
%TO.N,unconnected-(U1-P0.11-Pad14)*%
X83550000Y-65200000D03*
%TO.P,U1,15,P0.12*%
%TO.N,unconnected-(U1-P0.12-Pad15)*%
X83550000Y-65600000D03*
%TO.P,U1,16,P0.13*%
%TO.N,unconnected-(U1-P0.13-Pad16)*%
X83550000Y-66000000D03*
%TO.P,U1,17,P0.14*%
%TO.N,unconnected-(U1-P0.14-Pad17)*%
X83550000Y-66400000D03*
%TO.P,U1,18,P0.15*%
%TO.N,unconnected-(U1-P0.15-Pad18)*%
X83550000Y-66800000D03*
%TO.P,U1,19,P0.16*%
%TO.N,unconnected-(U1-P0.16-Pad19)*%
X83550000Y-67200000D03*
%TO.P,U1,20,P0.17*%
%TO.N,unconnected-(U1-P0.17-Pad20)*%
X83550000Y-67600000D03*
%TO.P,U1,21,P0.18/SWO*%
%TO.N,unconnected-(U1-P0.18{slash}SWO-Pad21)*%
X83550000Y-68000000D03*
%TO.P,U1,22,P0.19*%
%TO.N,unconnected-(U1-P0.19-Pad22)*%
X83550000Y-68400000D03*
%TO.P,U1,23,P0.20*%
%TO.N,unconnected-(U1-P0.20-Pad23)*%
X83550000Y-68800000D03*
%TO.P,U1,24,P0.21/~{RESET}*%
%TO.N,Net-(U1-P0.21{slash}~{RESET})*%
X83550000Y-69200000D03*
D28*
%TO.P,U1,25,SWDCLK*%
%TO.N,Net-(U1-SWDCLK)*%
X84300000Y-69950000D03*
%TO.P,U1,26,SWDIO*%
%TO.N,Net-(U1-SWDIO)*%
X84700000Y-69950000D03*
%TO.P,U1,27,P0.22*%
%TO.N,Net-(D1-K)*%
X85100000Y-69950000D03*
%TO.P,U1,28,P0.23*%
%TO.N,unconnected-(U1-P0.23-Pad28)*%
X85500000Y-69950000D03*
%TO.P,U1,29,P0.24*%
%TO.N,unconnected-(U1-P0.24-Pad29)*%
X85900000Y-69950000D03*
%TO.P,U1,30,ANT*%
%TO.N,Net-(U1-ANT)*%
X86300000Y-69950000D03*
%TO.P,U1,31,VSS*%
%TO.N,GND*%
X86700000Y-69950000D03*
%TO.P,U1,32,DEC2*%
%TO.N,unconnected-(U1-DEC2-Pad32)*%
X87100000Y-69950000D03*
%TO.P,U1,33,DEC3*%
%TO.N,Net-(U1-DEC3)*%
X87500000Y-69950000D03*
%TO.P,U1,34,XC1*%
%TO.N,Net-(U1-XC1)*%
X87900000Y-69950000D03*
%TO.P,U1,35,XC2*%
%TO.N,Net-(U1-XC2)*%
X88300000Y-69950000D03*
%TO.P,U1,36,VDD*%
%TO.N,+3.3V*%
X88700000Y-69950000D03*
D29*
%TO.P,U1,37,P0.25*%
%TO.N,unconnected-(U1-P0.25-Pad37)*%
X89450000Y-69200000D03*
%TO.P,U1,38,P0.26*%
%TO.N,unconnected-(U1-P0.26-Pad38)*%
X89450000Y-68800000D03*
%TO.P,U1,39,P0.27*%
%TO.N,unconnected-(U1-P0.27-Pad39)*%
X89450000Y-68400000D03*
%TO.P,U1,40,P0.28/AIN4*%
%TO.N,unconnected-(U1-P0.28{slash}AIN4-Pad40)*%
X89450000Y-68000000D03*
%TO.P,U1,41,P0.29/AIN5*%
%TO.N,unconnected-(U1-P0.29{slash}AIN5-Pad41)*%
X89450000Y-67600000D03*
%TO.P,U1,42,P0.30/AIN6*%
%TO.N,unconnected-(U1-P0.30{slash}AIN6-Pad42)*%
X89450000Y-67200000D03*
%TO.P,U1,43,P0.31/AIN7*%
%TO.N,unconnected-(U1-P0.31{slash}AIN7-Pad43)*%
X89450000Y-66800000D03*
%TO.P,U1,44,NC*%
%TO.N,unconnected-(U1-NC-Pad44)*%
X89450000Y-66400000D03*
%TO.P,U1,45,VSS*%
%TO.N,GND*%
X89450000Y-66000000D03*
%TO.P,U1,46,DEC4*%
%TO.N,Net-(U1-DEC4)*%
X89450000Y-65600000D03*
%TO.P,U1,47,DCC*%
%TO.N,Net-(U1-DCC)*%
X89450000Y-65200000D03*
%TO.P,U1,48,VDD*%
%TO.N,+3.3V*%
X89450000Y-64800000D03*
D30*
%TO.P,U1,49,VSS*%
%TO.N,GND*%
X86500000Y-67000000D03*
%TD*%
D31*
%TO.P,L3,2*%
%TO.N,Net-(U1-ANT)*%
X82025000Y-78000000D03*
%TO.P,L3,1*%
%TO.N,Net-(AE1-A)*%
X79975000Y-78000000D03*
%TD*%
D17*
%TO.P,C8,1*%
%TO.N,Net-(U1-XC2)*%
X101962500Y-65000000D03*
%TO.P,C8,2*%
%TO.N,GND*%
X104037500Y-65000000D03*
%TD*%
%TO.P,C6,1*%
%TO.N,+3.3V*%
X93462500Y-70000000D03*
%TO.P,C6,2*%
%TO.N,GND*%
X95537500Y-70000000D03*
%TD*%
D15*
%TO.P,C2,1*%
%TO.N,Net-(U1-DEC3)*%
X87537500Y-73000000D03*
%TO.P,C2,2*%
%TO.N,GND*%
X85462500Y-73000000D03*
%TD*%
D21*
%TO.P,R2,2*%
%TO.N,Net-(J1-CC1)*%
X86500000Y-103000000D03*
%TO.P,R2,1*%
%TO.N,GND*%
X86500000Y-105000000D03*
%TD*%
D32*
%TO.P,U2,3,IN*%
%TO.N,Net-(U2-IN)*%
X109000000Y-105362500D03*
%TO.P,U2,2,OUT*%
%TO.N,Net-(D2-A)*%
X109950000Y-107637500D03*
%TO.P,U2,1,GND*%
%TO.N,GND*%
X108050000Y-107637500D03*
%TD*%
D33*
%TO.P,R3,2*%
%TO.N,GND*%
X103500000Y-105000000D03*
%TO.P,R3,1*%
%TO.N,Net-(J1-CC2)*%
X103500000Y-103000000D03*
%TD*%
D17*
%TO.P,C1,1*%
%TO.N,Net-(U1-DEC1)*%
X89462500Y-61000000D03*
%TO.P,C1,2*%
%TO.N,GND*%
X91537500Y-61000000D03*
%TD*%
D34*
%TO.N,Net-(U2-IN)*%
X121500000Y-105000000D03*
X109000000Y-105362500D03*
%TO.N,+3.3V*%
X83000000Y-80500000D03*
%TO.N,GND*%
X101500000Y-71500000D03*
X92000000Y-75000000D03*
X88000000Y-68500000D03*
%TO.N,+3.3V*%
X107000000Y-80500000D03*
X82000000Y-65000000D03*
X91500000Y-70000000D03*
X91500000Y-63000000D03*
%TO.N,GND*%
X100000000Y-109000000D03*
X100000000Y-105000000D03*
X90500000Y-62500000D03*
X88000000Y-65500000D03*
X85000000Y-65500000D03*
X82000000Y-62500000D03*
X87000000Y-62500000D03*
%TO.N,Net-(U1-NFC1{slash}P0.09)*%
X68000000Y-72500000D03*
X85000000Y-58500000D03*
%TD*%
D35*
%TO.N,Net-(U2-IN)*%
X109000000Y-105362500D02*
X105600000Y-105362500D01*
X105600000Y-105362500D02*
X103462500Y-107500000D01*
%TO.N,+3.3V*%
X126500000Y-99500000D02*
X123500000Y-102500000D01*
X123500000Y-102500000D02*
X115300000Y-102500000D01*
X115300000Y-102500000D02*
X112500000Y-105300000D01*
%TO.N,GND*%
X115000000Y-107537500D02*
X115537500Y-107537500D01*
X115800000Y-107800000D02*
X124700000Y-107800000D01*
X115537500Y-107537500D02*
X115800000Y-107800000D01*
X124700000Y-107800000D02*
X126500000Y-106000000D01*
X98200000Y-104320000D02*
X98880000Y-105000000D01*
X98880000Y-105000000D02*
X100000000Y-105000000D01*
X66500000Y-101600000D02*
X71800000Y-106900000D01*
X71800000Y-106900000D02*
X87965000Y-106900000D01*
X87965000Y-106900000D02*
X89890000Y-108825000D01*
%TO.N,Net-(AE1-A)*%
X66500000Y-99500000D02*
X70000000Y-99500000D01*
X70000000Y-99500000D02*
X79975000Y-89525000D01*
X79975000Y-89525000D02*
X79975000Y-78000000D01*
%TO.N,GND*%
X85537500Y-75500000D02*
X85537500Y-73075000D01*
X85537500Y-73075000D02*
X85462500Y-73000000D01*
%TO.N,Net-(U1-ANT)*%
X83462500Y-75500000D02*
X83462500Y-76562500D01*
X83462500Y-76562500D02*
X82025000Y-78000000D01*
X86300000Y-69950000D02*
X86300000Y-70446360D01*
X86300000Y-70446360D02*
X83462500Y-73283860D01*
X83462500Y-73283860D02*
X83462500Y-75500000D01*
%TO.N,GND*%
X86700000Y-69950000D02*
X86700000Y-70800000D01*
X86700000Y-70800000D02*
X85462500Y-72037500D01*
X85462500Y-72037500D02*
X85462500Y-73000000D01*
%TO.N,Net-(D1-K)*%
X85100000Y-69950000D02*
X85100000Y-70612046D01*
X85100000Y-70612046D02*
X81000000Y-74712046D01*
X81000000Y-74712046D02*
X81000000Y-106062500D01*
%TO.N,GND*%
X80500000Y-63492500D02*
X81007500Y-63492500D01*
X81007500Y-63492500D02*
X82000000Y-62500000D01*
X82000000Y-62500000D02*
X80530000Y-61030000D01*
X80530000Y-61030000D02*
X80462500Y-61030000D01*
X87000000Y-62500000D02*
X87037500Y-62462500D01*
X87037500Y-62462500D02*
X87037500Y-61030000D01*
X95000000Y-82500000D02*
X105434314Y-92934314D01*
X105434314Y-92934314D02*
X105434314Y-103065686D01*
X105434314Y-103065686D02*
X103500000Y-105000000D01*
%TO.N,+3.3V*%
X84000000Y-106000000D02*
X84000000Y-105500000D01*
X84000000Y-105500000D02*
X83095000Y-104595000D01*
X83095000Y-104595000D02*
X83095000Y-82500000D01*
X81800000Y-64800000D02*
X81267500Y-64800000D01*
X82000000Y-65000000D02*
X81800000Y-64800000D01*
X82200000Y-64800000D02*
X82000000Y-65000000D01*
X91550000Y-69950000D02*
X93412500Y-69950000D01*
X91500000Y-70000000D02*
X91550000Y-69950000D01*
X91450000Y-69950000D02*
X91500000Y-70000000D01*
X91537500Y-63037500D02*
X94000000Y-63037500D01*
X91500000Y-63000000D02*
X91537500Y-63037500D01*
X91462500Y-63037500D02*
X91500000Y-63000000D01*
X106905000Y-82500000D02*
X106905000Y-99705000D01*
X106905000Y-99705000D02*
X112500000Y-105300000D01*
%TO.N,Net-(D1-A)*%
X81000000Y-107937500D02*
X81437500Y-107937500D01*
X81500000Y-108000000D02*
X84000000Y-108000000D01*
X81437500Y-107937500D02*
X81500000Y-108000000D01*
X80937500Y-108000000D02*
X81000000Y-107937500D01*
%TO.N,Net-(U1-SWDIO)*%
X84700000Y-69950000D02*
X84700000Y-70446360D01*
X84700000Y-70446360D02*
X70646360Y-84500000D01*
X70646360Y-84500000D02*
X64000000Y-84500000D01*
%TO.N,Net-(U1-SWDCLK)*%
X84300000Y-69950000D02*
X74250000Y-80000000D01*
X74250000Y-80000000D02*
X64000000Y-80000000D01*
%TO.N,Net-(U1-P0.21{slash}~{RESET})*%
X83550000Y-69200000D02*
X77250000Y-75500000D01*
X77250000Y-75500000D02*
X64000000Y-75500000D01*
%TO.N,GND*%
X100000000Y-109000000D02*
X100110000Y-108825000D01*
X100000000Y-105000000D02*
X100110000Y-104895000D01*
%TO.N,Net-(J1-CC2)*%
X103500000Y-103000000D02*
X97495001Y-103000000D01*
X97495001Y-103000000D02*
X96750000Y-103745001D01*
X96750000Y-103745001D02*
X96750000Y-104320000D01*
%TO.N,Net-(J1-CC1)*%
X86500000Y-103000000D02*
X93037410Y-103000000D01*
X93037410Y-103000000D02*
X93750000Y-103712590D01*
X93750000Y-103712590D02*
X93750000Y-104320000D01*
%TO.N,GND*%
X86500000Y-105000000D02*
X89785000Y-105000000D01*
X89785000Y-105000000D02*
X89890000Y-104895000D01*
X89890000Y-104895000D02*
X91225000Y-104895000D01*
X91225000Y-104895000D02*
X91800000Y-104320000D01*
X89890000Y-108825000D02*
X89890000Y-104895000D01*
X108050000Y-107637500D02*
X109012500Y-108600000D01*
X109012500Y-108600000D02*
X113937500Y-108600000D01*
X113937500Y-108600000D02*
X115000000Y-107537500D01*
%TO.N,Net-(D2-A)*%
X115000000Y-105462500D02*
X113737500Y-105462500D01*
X113737500Y-105462500D02*
X112500000Y-106700000D01*
X109950000Y-107637500D02*
X110887500Y-106700000D01*
X110887500Y-106700000D02*
X112500000Y-106700000D01*
%TO.N,GND*%
X105537500Y-107500000D02*
X107912500Y-107500000D01*
X107912500Y-107500000D02*
X108050000Y-107637500D01*
X100110000Y-108825000D02*
X104212500Y-108825000D01*
X104212500Y-108825000D02*
X105537500Y-107500000D01*
X99535000Y-104320000D02*
X100000000Y-105000000D01*
X103500000Y-105000000D02*
X100215000Y-105000000D01*
X100215000Y-105000000D02*
X100110000Y-104895000D01*
%TO.N,Net-(U2-IN)*%
X92600000Y-104320000D02*
X92600000Y-104894999D01*
X92600000Y-104894999D02*
X93379595Y-105674594D01*
X93379595Y-105674594D02*
X96540406Y-105674594D01*
X96540406Y-105674594D02*
X97400000Y-104815000D01*
X97400000Y-104815000D02*
X97400000Y-104320000D01*
X103462500Y-107500000D02*
X99040406Y-107500000D01*
X99040406Y-107500000D02*
X97215000Y-105674594D01*
X97215000Y-105674594D02*
X97215000Y-104505000D01*
X97215000Y-104505000D02*
X97400000Y-104320000D01*
%TO.N,Net-(U1-XC1)*%
X87900000Y-69950000D02*
X87900000Y-70612046D01*
X87900000Y-70612046D02*
X89587954Y-72300000D01*
X102950000Y-72300000D02*
X104150000Y-71100000D01*
X89587954Y-72300000D02*
X102950000Y-72300000D01*
X104150000Y-71100000D02*
X104150000Y-70950000D01*
%TO.N,Net-(U1-XC2)*%
X88300000Y-69950000D02*
X88300000Y-70446360D01*
X88300000Y-70446360D02*
X88878640Y-71025000D01*
X88878640Y-71025000D02*
X98875000Y-71025000D01*
X98875000Y-71025000D02*
X101850000Y-68050000D01*
%TO.N,GND*%
X101850000Y-70950000D02*
X101850000Y-70800000D01*
X101850000Y-70800000D02*
X104150000Y-68500000D01*
X104150000Y-68500000D02*
X104150000Y-68050000D01*
X104037500Y-65000000D02*
X104037500Y-67937500D01*
X104037500Y-67937500D02*
X104150000Y-68050000D01*
X107000000Y-68462500D02*
X104562500Y-68462500D01*
X104562500Y-68462500D02*
X104150000Y-68050000D01*
%TO.N,Net-(U1-XC1)*%
X104150000Y-70950000D02*
X106587500Y-70950000D01*
X106587500Y-70950000D02*
X107000000Y-70537500D01*
%TO.N,Net-(U1-XC2)*%
X101850000Y-68050000D02*
X101850000Y-65112500D01*
X101850000Y-65112500D02*
X101962500Y-65000000D01*
%TO.N,Net-(U1-XC1)*%
X104150000Y-70950000D02*
X104150000Y-71350000D01*
%TO.N,Net-(U1-DEC3)*%
X87500000Y-69950000D02*
X87500000Y-72962500D01*
X87500000Y-72962500D02*
X87537500Y-73000000D01*
%TO.N,GND*%
X86700000Y-69950000D02*
X86700000Y-67200000D01*
X86700000Y-67200000D02*
X86500000Y-67000000D01*
X89450000Y-66000000D02*
X87500000Y-66000000D01*
X87500000Y-66000000D02*
X86500000Y-67000000D01*
X95537500Y-70000000D02*
X93462500Y-67925000D01*
X93462500Y-67925000D02*
X93462500Y-67500000D01*
%TO.N,+3.3V*%
X88700000Y-69950000D02*
X91450000Y-69950000D01*
X93412500Y-69950000D02*
X93462500Y-70000000D01*
%TO.N,Net-(U1-DEC4)*%
X93500000Y-66000000D02*
X95500000Y-66000000D01*
X95537500Y-66037500D02*
X95500000Y-66000000D01*
X95500000Y-66000000D02*
X98525000Y-66000000D01*
X95537500Y-67500000D02*
X95537500Y-66037500D01*
%TO.N,GND*%
X89450000Y-66000000D02*
X91962500Y-66000000D01*
X91962500Y-66000000D02*
X93462500Y-67500000D01*
%TO.N,Net-(U1-DEC4)*%
X92915256Y-66000000D02*
X93500000Y-66000000D01*
X89450000Y-65600000D02*
X92515256Y-65600000D01*
X92515256Y-65600000D02*
X92915256Y-66000000D01*
X98525000Y-66000000D02*
X99525000Y-65000000D01*
%TO.N,Net-(L1-Pad1)*%
X95525000Y-65000000D02*
X97475000Y-65000000D01*
%TO.N,Net-(U1-DCC)*%
X89450000Y-65200000D02*
X93275000Y-65200000D01*
X93275000Y-65200000D02*
X93475000Y-65000000D01*
%TO.N,GND*%
X91537500Y-61000000D02*
X91537500Y-61462500D01*
X91537500Y-61462500D02*
X90500000Y-62500000D01*
%TO.N,+3.3V*%
X89450000Y-64800000D02*
X91212500Y-63037500D01*
X91212500Y-63037500D02*
X91462500Y-63037500D01*
%TO.N,Net-(U1-DEC1)*%
X88700000Y-64050000D02*
X88700000Y-61762500D01*
X88700000Y-61762500D02*
X89462500Y-61000000D01*
%TO.N,+3.3V*%
X83550000Y-64800000D02*
X82200000Y-64800000D01*
X81267500Y-64800000D02*
X80500000Y-65567500D01*
%TO.N,Net-(U1-NFC1{slash}P0.09)*%
X68000000Y-72500000D02*
X68000000Y-71000000D01*
X81512500Y-60005000D02*
X82537500Y-61030000D01*
X68000000Y-71000000D02*
X78995000Y-60005000D01*
X78995000Y-60005000D02*
X81512500Y-60005000D01*
X84300000Y-64050000D02*
X84300000Y-62792500D01*
X84300000Y-62792500D02*
X82537500Y-61030000D01*
X84962500Y-61030000D02*
X84962500Y-61462500D01*
X84962500Y-61462500D02*
X84700000Y-61725000D01*
X84700000Y-61725000D02*
X84700000Y-64050000D01*
X85000000Y-59000000D02*
X84962500Y-59037500D01*
X84962500Y-59037500D02*
X84962500Y-61030000D01*
X85000000Y-58500000D02*
X85000000Y-59000000D01*
%TO.N,GND*%
X91500000Y-61000000D02*
X93962500Y-61000000D01*
X93962500Y-61000000D02*
X94000000Y-60962500D01*
X91537500Y-61000000D02*
X91500000Y-61000000D01*
%TD*%
M02*
