M48
; DRILL file {KiCad 8.0.3-8.0.3-0~ubuntu24.04.1} date 2024-06-13T21:30:11+0500
; FORMAT={-:-/ absolute / inch / decimal}
; #@! TF.CreationDate,2024-06-13T21:30:11+05:00
; #@! TF.GenerationSoftware,Kicad,Pcbnew,8.0.3-8.0.3-0~ubuntu24.04.1
; #@! TF.FileFunction,Plated,1,2,PTH
FMAT,2
INCH
; #@! TA.AperFunction,Plated,PTH,ViaDrill
T1C0.0118
; #@! TA.AperFunction,Plated,PTH,ComponentDrill
T2C0.0118
%
G90
G05
T1
X2.6772Y-2.8543
X3.2283Y-2.4606
X3.2283Y-2.5591
X3.2677Y-3.1693
X3.3465Y-2.3031
X3.3465Y-2.5787
X3.4252Y-2.4606
X3.4646Y-2.5787
X3.4646Y-2.6969
X3.563Y-2.4606
X3.6024Y-2.4803
X3.6024Y-2.7559
X3.622Y-2.9528
X3.937Y-4.1339
X3.937Y-4.2913
X3.9961Y-2.815
X4.2126Y-3.1693
X4.2913Y-4.1481
X4.7835Y-4.1339
T2
X2.6181Y-4.0
M30
