M48
; DRILL file {KiCad 8.0.6-8.0.6-0~ubuntu24.04.1} date 2024-11-29T19:36:13+0500
; FORMAT={-:-/ absolute / inch / decimal}
; #@! TF.CreationDate,2024-11-29T19:36:13+05:00
; #@! TF.GenerationSoftware,Kicad,Pcbnew,8.0.6-8.0.6-0~ubuntu24.04.1
; #@! TF.FileFunction,Plated,1,2,PTH
FMAT,2
INCH
; #@! TA.AperFunction,Plated,PTH,ViaDrill
T1C0.0118
; #@! TA.AperFunction,Plated,PTH,ComponentDrill
T2C0.0236
%
G90
G05
T1
X0.6102Y-3.6024
X0.6102Y-6.4371
X0.689Y-1.1615
X0.689Y-3.7402
X0.689Y-3.9961
X0.689Y-6.5749
X1.063Y-2.5985
X1.063Y-5.4331
X1.0748Y-1.8819
X1.0748Y-4.7166
X1.0827Y-1.7914
X1.0827Y-4.626
X1.2008Y-1.9095
X1.2008Y-4.7442
X1.2795Y-1.7914
X1.2795Y-4.626
X1.2953Y-1.6575
X1.2953Y-4.4922
X1.3189Y-1.9095
X1.3189Y-2.0276
X1.3189Y-4.7442
X1.3189Y-4.8623
X1.4173Y-1.7914
X1.4173Y-4.626
X1.4567Y-1.8898
X1.4567Y-2.0867
X1.4567Y-4.7245
X1.4567Y-4.9213
X1.4764Y-2.1851
X1.4764Y-5.0197
X1.5157Y-2.3815
X1.5157Y-5.2161
X1.7323Y-2.3623
X1.7323Y-5.1969
X1.9634Y-3.5915
X1.9634Y-6.4261
X1.9834Y-3.7715
X1.9834Y-6.6061
X2.0934Y-3.6315
X2.0934Y-6.4661
X2.4934Y-3.7715
X2.4934Y-6.6061
X3.4449Y-3.6024
X3.4449Y-6.4371
X3.5236Y-1.1615
X3.5236Y-3.7402
X3.5236Y-3.9961
X3.5236Y-6.5749
X3.8976Y-2.5985
X3.8976Y-5.4331
X3.9094Y-1.8819
X3.9094Y-4.7166
X3.9173Y-1.7914
X3.9173Y-4.626
X4.0354Y-1.9095
X4.0354Y-4.7442
X4.1142Y-1.7914
X4.1142Y-4.626
X4.1299Y-1.6575
X4.1299Y-4.4922
X4.1535Y-1.9095
X4.1535Y-2.0276
X4.1535Y-4.7442
X4.1535Y-4.8623
X4.252Y-1.7914
X4.252Y-4.626
X4.2913Y-1.8898
X4.2913Y-2.0867
X4.2913Y-4.7245
X4.2913Y-4.9213
X4.311Y-2.1851
X4.311Y-5.0197
X4.3504Y-2.3815
X4.3504Y-5.2161
X4.5669Y-2.3623
X4.5669Y-5.1969
X4.798Y-3.5915
X4.798Y-6.4261
X4.818Y-3.7715
X4.818Y-6.6061
X4.928Y-3.6315
X4.928Y-6.4661
X5.328Y-3.7715
X5.328Y-6.6061
X6.2795Y-3.6024
X6.2795Y-6.4371
X6.3583Y-1.1615
X6.3583Y-3.7402
X6.3583Y-3.9961
X6.3583Y-6.5749
X6.7323Y-2.5985
X6.7323Y-5.4331
X6.7441Y-1.8819
X6.7441Y-4.7166
X6.752Y-1.7914
X6.752Y-4.626
X6.8701Y-1.9095
X6.8701Y-4.7442
X6.9488Y-1.7914
X6.9488Y-4.626
X6.9646Y-1.6575
X6.9646Y-4.4922
X6.9882Y-1.9095
X6.9882Y-2.0276
X6.9882Y-4.7442
X6.9882Y-4.8623
X7.0866Y-1.7914
X7.0866Y-4.626
X7.126Y-1.8898
X7.126Y-2.0867
X7.126Y-4.7245
X7.126Y-4.9213
X7.1457Y-2.1851
X7.1457Y-5.0197
X7.185Y-2.3815
X7.185Y-5.2161
X7.4016Y-2.3623
X7.4016Y-5.1969
X7.6327Y-3.5915
X7.6327Y-6.4261
X7.6527Y-3.7715
X7.6527Y-6.6061
X7.7627Y-3.6315
X7.7627Y-6.4661
X8.1627Y-3.7715
X8.1627Y-6.6061
X9.1142Y-3.6024
X9.1142Y-6.4371
X9.1929Y-1.1615
X9.1929Y-3.7402
X9.1929Y-3.9961
X9.1929Y-6.5749
X9.5669Y-2.5985
X9.5669Y-5.4331
X9.5787Y-1.8819
X9.5787Y-4.7166
X9.5866Y-1.7914
X9.5866Y-4.626
X9.7047Y-1.9095
X9.7047Y-4.7442
X9.7835Y-1.7914
X9.7835Y-4.626
X9.7992Y-1.6575
X9.7992Y-4.4922
X9.8228Y-1.9095
X9.8228Y-2.0276
X9.8228Y-4.7442
X9.8228Y-4.8623
X9.9213Y-1.7914
X9.9213Y-4.626
X9.9606Y-1.8898
X9.9606Y-2.0867
X9.9606Y-4.7245
X9.9606Y-4.9213
X9.9803Y-2.1851
X9.9803Y-5.0197
X10.0197Y-2.3815
X10.0197Y-5.2161
X10.2362Y-2.3623
X10.2362Y-5.1969
X10.4673Y-3.5915
X10.4673Y-6.4261
X10.4873Y-3.7715
X10.4873Y-6.6061
X10.5973Y-3.6315
X10.5973Y-6.4661
X10.9973Y-3.7715
X10.9973Y-6.6061
T2
G00X1.4244Y-3.5766
M15
G01X1.4244Y-3.6199
M16
G05
G00X1.4244Y-3.7471
M15
G01X1.4244Y-3.7786
M16
G05
G00X1.4244Y-6.4113
M15
G01X1.4244Y-6.4546
M16
G05
G00X1.4244Y-6.5818
M15
G01X1.4244Y-6.6132
M16
G05
G00X1.7646Y-3.5766
M15
G01X1.7646Y-3.6199
M16
G05
G00X1.7646Y-3.7471
M15
G01X1.7646Y-3.7786
M16
G05
G00X1.7646Y-6.4113
M15
G01X1.7646Y-6.4546
M16
G05
G00X1.7646Y-6.5818
M15
G01X1.7646Y-6.6132
M16
G05
G00X4.2591Y-3.5766
M15
G01X4.2591Y-3.6199
M16
G05
G00X4.2591Y-3.7471
M15
G01X4.2591Y-3.7786
M16
G05
G00X4.2591Y-6.4113
M15
G01X4.2591Y-6.4546
M16
G05
G00X4.2591Y-6.5818
M15
G01X4.2591Y-6.6132
M16
G05
G00X4.5992Y-3.5766
M15
G01X4.5992Y-3.6199
M16
G05
G00X4.5992Y-3.7471
M15
G01X4.5992Y-3.7786
M16
G05
G00X4.5992Y-6.4113
M15
G01X4.5992Y-6.4546
M16
G05
G00X4.5992Y-6.5818
M15
G01X4.5992Y-6.6132
M16
G05
G00X7.0937Y-3.5766
M15
G01X7.0937Y-3.6199
M16
G05
G00X7.0937Y-3.7471
M15
G01X7.0937Y-3.7786
M16
G05
G00X7.0937Y-6.4113
M15
G01X7.0937Y-6.4546
M16
G05
G00X7.0937Y-6.5818
M15
G01X7.0937Y-6.6132
M16
G05
G00X7.4339Y-3.5766
M15
G01X7.4339Y-3.6199
M16
G05
G00X7.4339Y-3.7471
M15
G01X7.4339Y-3.7786
M16
G05
G00X7.4339Y-6.4113
M15
G01X7.4339Y-6.4546
M16
G05
G00X7.4339Y-6.5818
M15
G01X7.4339Y-6.6132
M16
G05
G00X9.9283Y-3.5766
M15
G01X9.9283Y-3.6199
M16
G05
G00X9.9283Y-3.7471
M15
G01X9.9283Y-3.7786
M16
G05
G00X9.9283Y-6.4113
M15
G01X9.9283Y-6.4546
M16
G05
G00X9.9283Y-6.5818
M15
G01X9.9283Y-6.6132
M16
G05
G00X10.2685Y-3.5766
M15
G01X10.2685Y-3.6199
M16
G05
G00X10.2685Y-3.7471
M15
G01X10.2685Y-3.7786
M16
G05
G00X10.2685Y-6.4113
M15
G01X10.2685Y-6.4546
M16
G05
G00X10.2685Y-6.5818
M15
G01X10.2685Y-6.6132
M16
G05
M30
