%TF.GenerationSoftware,KiCad,Pcbnew,8.0.6-8.0.6-0~ubuntu24.04.1*%
%TF.CreationDate,2024-11-29T19:36:17+05:00*%
%TF.ProjectId,panel,70616e65-6c2e-46b6-9963-61645f706362,rev?*%
%TF.SameCoordinates,Original*%
%TF.FileFunction,Soldermask,Top*%
%TF.FilePolarity,Negative*%
%FSLAX46Y46*%
G04 Gerber Fmt 4.6, Leading zero omitted, Abs format (unit mm)*
G04 Created by KiCad (PCBNEW 8.0.6-8.0.6-0~ubuntu24.04.1) date 2024-11-29 19:36:17*
%MOMM*%
%LPD*%
G01*
G04 APERTURE LIST*
G04 Aperture macros list*
%AMRoundRect*
0 Rectangle with rounded corners*
0 $1 Rounding radius*
0 $2 $3 $4 $5 $6 $7 $8 $9 X,Y pos of 4 corners*
0 Add a 4 corners polygon primitive as box body*
4,1,4,$2,$3,$4,$5,$6,$7,$8,$9,$2,$3,0*
0 Add four circle primitives for the rounded corners*
1,1,$1+$1,$2,$3*
1,1,$1+$1,$4,$5*
1,1,$1+$1,$6,$7*
1,1,$1+$1,$8,$9*
0 Add four rect primitives between the rounded corners*
20,1,$1+$1,$2,$3,$4,$5,0*
20,1,$1+$1,$4,$5,$6,$7,0*
20,1,$1+$1,$6,$7,$8,$9,0*
20,1,$1+$1,$8,$9,$2,$3,0*%
G04 Aperture macros list end*
%ADD10RoundRect,0.250000X0.250000X0.475000X-0.250000X0.475000X-0.250000X-0.475000X0.250000X-0.475000X0*%
%ADD11C,0.500000*%
%ADD12R,3.400000X1.800000*%
%ADD13RoundRect,0.250000X-0.250000X-0.475000X0.250000X-0.475000X0.250000X0.475000X-0.250000X0.475000X0*%
%ADD14C,0.650000*%
%ADD15RoundRect,0.150000X-0.150000X-0.425000X0.150000X-0.425000X0.150000X0.425000X-0.150000X0.425000X0*%
%ADD16RoundRect,0.075000X-0.075000X-0.500000X0.075000X-0.500000X0.075000X0.500000X-0.075000X0.500000X0*%
%ADD17O,1.000000X2.100000*%
%ADD18O,1.000000X1.800000*%
%ADD19RoundRect,0.250000X0.475000X-0.250000X0.475000X0.250000X-0.475000X0.250000X-0.475000X-0.250000X0*%
%ADD20RoundRect,0.250000X-0.475000X0.250000X-0.475000X-0.250000X0.475000X-0.250000X0.475000X0.250000X0*%
%ADD21RoundRect,0.250000X0.450000X-0.262500X0.450000X0.262500X-0.450000X0.262500X-0.450000X-0.262500X0*%
%ADD22RoundRect,0.243750X-0.243750X-0.456250X0.243750X-0.456250X0.243750X0.456250X-0.243750X0.456250X0*%
%ADD23RoundRect,0.150000X-0.512500X-0.150000X0.512500X-0.150000X0.512500X0.150000X-0.512500X0.150000X0*%
%ADD24RoundRect,0.150000X0.512500X0.150000X-0.512500X0.150000X-0.512500X-0.150000X0.512500X-0.150000X0*%
%ADD25C,1.000000*%
%ADD26RoundRect,0.050000X-0.050000X0.350000X-0.050000X-0.350000X0.050000X-0.350000X0.050000X0.350000X0*%
%ADD27RoundRect,0.050000X-0.350000X0.050000X-0.350000X-0.050000X0.350000X-0.050000X0.350000X0.050000X0*%
%ADD28R,4.600000X4.600000*%
%ADD29RoundRect,0.250000X-0.262500X-0.450000X0.262500X-0.450000X0.262500X0.450000X-0.262500X0.450000X0*%
%ADD30RoundRect,0.250000X0.262500X0.450000X-0.262500X0.450000X-0.262500X-0.450000X0.262500X-0.450000X0*%
%ADD31RoundRect,0.250000X-0.450000X0.262500X-0.450000X-0.262500X0.450000X-0.262500X0.450000X0.262500X0*%
%ADD32RoundRect,0.625000X-0.625000X-0.625000X0.625000X-0.625000X0.625000X0.625000X-0.625000X0.625000X0*%
%ADD33R,1.400000X1.200000*%
G04 APERTURE END LIST*
D10*
%TO.C,C9*%
X104450000Y-116001500D03*
X102550000Y-116001500D03*
%TD*%
D11*
%TO.C,KiKit_MB_8_4*%
X77500000Y-74543416D03*
%TD*%
%TO.C,KiKit_MB_38_1*%
X147500000Y-142167166D03*
%TD*%
D12*
%TO.C,TP5*%
X223500000Y-54041500D03*
%TD*%
D11*
%TO.C,KiKit_MB_25_1*%
X241332333Y-27001500D03*
%TD*%
D13*
%TO.C,C8*%
X251050000Y-116001500D03*
X252950000Y-116001500D03*
%TD*%
D11*
%TO.C,KiKit_MB_6_6*%
X51291416Y-97001500D03*
%TD*%
D10*
%TO.C,C10*%
X171950000Y-116031500D03*
X170050000Y-116031500D03*
%TD*%
D14*
%TO.C,J1*%
X37610000Y-91896500D03*
X43390000Y-91896500D03*
D15*
X37300000Y-90821500D03*
X38100000Y-90821500D03*
D16*
X39250000Y-90821500D03*
X40250000Y-90821500D03*
X40750000Y-90821500D03*
X41750000Y-90821500D03*
D15*
X42900000Y-90821500D03*
X43700000Y-90821500D03*
X43700000Y-90821500D03*
X42900000Y-90821500D03*
D16*
X42250000Y-90821500D03*
X41250000Y-90821500D03*
X39750000Y-90821500D03*
X38750000Y-90821500D03*
D15*
X38100000Y-90821500D03*
X37300000Y-90821500D03*
D17*
X36180000Y-91396500D03*
D18*
X36180000Y-95576500D03*
D17*
X44820000Y-91396500D03*
D18*
X44820000Y-95576500D03*
%TD*%
D19*
%TO.C,C1*%
X36000000Y-129451500D03*
X36000000Y-127551500D03*
%TD*%
D11*
%TO.C,KiKit_MB_48_9*%
X199667666Y-99001500D03*
%TD*%
%TO.C,KiKit_MB_6_4*%
X53041916Y-97001500D03*
%TD*%
%TO.C,KiKit_MB_12_8*%
X126792416Y-27001500D03*
%TD*%
%TO.C,KiKit_MB_36_8*%
X77500000Y-143042416D03*
%TD*%
%TO.C,KiKit_MB_49_9*%
X169332333Y-169001500D03*
%TD*%
%TO.C,KiKit_MB_38_6*%
X147500000Y-146543416D03*
%TD*%
%TO.C,KiKit_MB_41_8*%
X98207583Y-169001500D03*
%TD*%
D14*
%TO.C,J1*%
X109610000Y-91896500D03*
X115390000Y-91896500D03*
D15*
X109300000Y-90821500D03*
X110100000Y-90821500D03*
D16*
X111250000Y-90821500D03*
X112250000Y-90821500D03*
X112750000Y-90821500D03*
X113750000Y-90821500D03*
D15*
X114900000Y-90821500D03*
X115700000Y-90821500D03*
X115700000Y-90821500D03*
X114900000Y-90821500D03*
D16*
X114250000Y-90821500D03*
X113250000Y-90821500D03*
X111750000Y-90821500D03*
X110750000Y-90821500D03*
D15*
X110100000Y-90821500D03*
X109300000Y-90821500D03*
D17*
X108180000Y-91396500D03*
D18*
X108180000Y-95576500D03*
D17*
X116820000Y-91396500D03*
D18*
X116820000Y-95576500D03*
%TD*%
D10*
%TO.C,C7*%
X248950000Y-128001500D03*
X247050000Y-128001500D03*
%TD*%
D11*
%TO.C,KiKit_MB_20_1*%
X192665666Y-27001500D03*
%TD*%
D20*
%TO.C,C6*%
X111500000Y-48051500D03*
X111500000Y-49951500D03*
%TD*%
D19*
%TO.C,C4*%
X39500000Y-117951500D03*
X39500000Y-116051500D03*
%TD*%
D11*
%TO.C,KiKit_MB_31_4*%
X27958084Y-99001500D03*
%TD*%
D21*
%TO.C,R4*%
X176090000Y-92136000D03*
X176090000Y-90311000D03*
%TD*%
D19*
%TO.C,C3*%
X109000000Y-123951500D03*
X109000000Y-122051500D03*
%TD*%
D12*
%TO.C,TP3*%
X79500000Y-56581500D03*
%TD*%
D11*
%TO.C,KiKit_MB_29_6*%
X75500000Y-123210083D03*
%TD*%
%TO.C,KiKit_MB_33_4*%
X29708584Y-169001500D03*
%TD*%
%TO.C,KiKit_MB_50_8*%
X193540916Y-169001500D03*
%TD*%
%TO.C,KiKit_MB_23_5*%
X221500000Y-50334834D03*
%TD*%
%TO.C,KiKit_MB_50_3*%
X197917166Y-169001500D03*
%TD*%
%TO.C,KiKit_MB_38_2*%
X147500000Y-143042416D03*
%TD*%
%TO.C,KiKit_MB_48_8*%
X198792416Y-99001500D03*
%TD*%
%TO.C,KiKit_MB_51_3*%
X221500000Y-124085333D03*
%TD*%
%TO.C,KiKit_MB_34_8*%
X49540916Y-169001500D03*
%TD*%
D12*
%TO.C,TP4*%
X79500000Y-123501500D03*
%TD*%
D11*
%TO.C,KiKit_MB_25_9*%
X248334333Y-27001500D03*
%TD*%
%TO.C,KiKit_MB_56_5*%
X268166666Y-169001500D03*
%TD*%
%TO.C,KiKit_MB_21_4*%
X173708583Y-97001500D03*
%TD*%
%TO.C,KiKit_MB_31_8*%
X31459084Y-99001500D03*
%TD*%
%TO.C,KiKit_MB_50_2*%
X198792416Y-169001500D03*
%TD*%
D22*
%TO.C,D2*%
X200044500Y-167541500D03*
X201919500Y-167541500D03*
%TD*%
D11*
%TO.C,KiKit_MB_21_1*%
X176334333Y-97001500D03*
%TD*%
%TO.C,KiKit_MB_17_7*%
X219500000Y-52085334D03*
%TD*%
%TO.C,KiKit_MB_14_7*%
X122416166Y-97001500D03*
%TD*%
%TO.C,KiKit_MB_45_6*%
X219500000Y-123210083D03*
%TD*%
%TO.C,KiKit_MB_8_9*%
X77500000Y-70167166D03*
%TD*%
D12*
%TO.C,TP3*%
X223500000Y-128581500D03*
%TD*%
D11*
%TO.C,KiKit_MB_23_2*%
X221500000Y-52960584D03*
%TD*%
%TO.C,KiKit_MB_28_1*%
X271667666Y-97001500D03*
%TD*%
%TO.C,KiKit_MB_35_2*%
X77500000Y-124960583D03*
%TD*%
%TO.C,KiKit_MB_54_1*%
X264665666Y-99001500D03*
%TD*%
%TO.C,KiKit_MB_53_5*%
X244833333Y-99001500D03*
%TD*%
%TO.C,KiKit_MB_29_9*%
X75500000Y-125835833D03*
%TD*%
%TO.C,KiKit_MB_50_5*%
X196166666Y-169001500D03*
%TD*%
%TO.C,KiKit_MB_43_2*%
X149500000Y-124960583D03*
%TD*%
%TO.C,KiKit_MB_50_1*%
X199667666Y-169001500D03*
%TD*%
%TO.C,KiKit_MB_36_3*%
X77500000Y-147418666D03*
%TD*%
D19*
%TO.C,C4*%
X183500000Y-45951500D03*
X183500000Y-44051500D03*
%TD*%
D12*
%TO.C,TP5*%
X151500000Y-54041500D03*
%TD*%
D11*
%TO.C,KiKit_MB_17_2*%
X219500000Y-47709084D03*
%TD*%
%TO.C,KiKit_MB_11_4*%
X99958083Y-27001500D03*
%TD*%
%TO.C,KiKit_MB_7_2*%
X77500000Y-52960584D03*
%TD*%
%TO.C,KiKit_MB_38_7*%
X147500000Y-147418666D03*
%TD*%
%TO.C,KiKit_MB_39_6*%
X101708583Y-99001500D03*
%TD*%
D20*
%TO.C,C6*%
X111500000Y-120051500D03*
X111500000Y-121951500D03*
%TD*%
D11*
%TO.C,KiKit_MB_13_5*%
X100833333Y-97001500D03*
%TD*%
D19*
%TO.C,C5*%
X25500000Y-48451500D03*
X25500000Y-46551500D03*
%TD*%
D13*
%TO.C,C8*%
X107050000Y-116001500D03*
X108950000Y-116001500D03*
%TD*%
D19*
%TO.C,C1*%
X252000000Y-57451500D03*
X252000000Y-55551500D03*
%TD*%
D11*
%TO.C,KiKit_MB_48_1*%
X192665666Y-99001500D03*
%TD*%
D23*
%TO.C,U2*%
X59654500Y-91289500D03*
X59654500Y-92239500D03*
X59654500Y-93189500D03*
X61929500Y-93189500D03*
X61929500Y-91289500D03*
%TD*%
D14*
%TO.C,J1*%
X181610000Y-91896500D03*
X187390000Y-91896500D03*
D15*
X181300000Y-90821500D03*
X182100000Y-90821500D03*
D16*
X183250000Y-90821500D03*
X184250000Y-90821500D03*
X184750000Y-90821500D03*
X185750000Y-90821500D03*
D15*
X186900000Y-90821500D03*
X187700000Y-90821500D03*
X187700000Y-90821500D03*
X186900000Y-90821500D03*
D16*
X186250000Y-90821500D03*
X185250000Y-90821500D03*
X183750000Y-90821500D03*
X182750000Y-90821500D03*
D15*
X182100000Y-90821500D03*
X181300000Y-90821500D03*
D17*
X180180000Y-91396500D03*
D18*
X180180000Y-95576500D03*
D17*
X188820000Y-91396500D03*
D18*
X188820000Y-95576500D03*
%TD*%
D10*
%TO.C,C7*%
X104950000Y-56001500D03*
X103050000Y-56001500D03*
%TD*%
D11*
%TO.C,KiKit_MB_17_6*%
X219500000Y-51210084D03*
%TD*%
%TO.C,KiKit_MB_32_8*%
X54792416Y-99001500D03*
%TD*%
D24*
%TO.C,U3*%
X198309500Y-165189500D03*
X198309500Y-164239500D03*
X198309500Y-163289500D03*
X196034500Y-163289500D03*
X196034500Y-165189500D03*
%TD*%
D20*
%TO.C,C2*%
X43000000Y-55551500D03*
X43000000Y-57451500D03*
%TD*%
D11*
%TO.C,KiKit_MB_5_5*%
X28833334Y-97001500D03*
%TD*%
%TO.C,KiKit_MB_37_3*%
X147500000Y-120584333D03*
%TD*%
%TO.C,KiKit_MB_41_7*%
X99082833Y-169001500D03*
%TD*%
D25*
%TO.C,KiKit_FID_T_1*%
X8000000Y-22500000D03*
%TD*%
D11*
%TO.C,KiKit_MB_47_9*%
X176334333Y-99001500D03*
%TD*%
%TO.C,KiKit_MB_52_4*%
X221500000Y-146543416D03*
%TD*%
D12*
%TO.C,TP1*%
X87120000Y-131121500D03*
%TD*%
D11*
%TO.C,KiKit_MB_27_4*%
X245708583Y-97001500D03*
%TD*%
%TO.C,KiKit_MB_16_3*%
X149500000Y-75418666D03*
%TD*%
D13*
%TO.C,C8*%
X251050000Y-44001500D03*
X252950000Y-44001500D03*
%TD*%
D21*
%TO.C,R4*%
X104090000Y-164136000D03*
X104090000Y-162311000D03*
%TD*%
D11*
%TO.C,KiKit_MB_34_7*%
X50416166Y-169001500D03*
%TD*%
%TO.C,KiKit_MB_32_2*%
X49540916Y-99001500D03*
%TD*%
D21*
%TO.C,R4*%
X248090000Y-92136000D03*
X248090000Y-90311000D03*
%TD*%
D20*
%TO.C,C6*%
X183500000Y-48051500D03*
X183500000Y-49951500D03*
%TD*%
D11*
%TO.C,KiKit_MB_3_8*%
X31459084Y-27001500D03*
%TD*%
%TO.C,KiKit_MB_18_7*%
X219500000Y-75418666D03*
%TD*%
%TO.C,KiKit_MB_53_1*%
X241332333Y-99001500D03*
%TD*%
D12*
%TO.C,TP3*%
X151500000Y-128581500D03*
%TD*%
D11*
%TO.C,KiKit_MB_26_5*%
X268166666Y-27001500D03*
%TD*%
D23*
%TO.C,U2*%
X275654500Y-91289500D03*
X275654500Y-92239500D03*
X275654500Y-93189500D03*
X277929500Y-93189500D03*
X277929500Y-91289500D03*
%TD*%
D11*
%TO.C,KiKit_MB_14_8*%
X121540916Y-97001500D03*
%TD*%
%TO.C,KiKit_MB_44_2*%
X149500000Y-148293916D03*
%TD*%
D26*
%TO.C,U1*%
X106200000Y-47051500D03*
X105800000Y-47051500D03*
X105400000Y-47051500D03*
X105000000Y-47051500D03*
X104600000Y-47051500D03*
X104200000Y-47051500D03*
X103800000Y-47051500D03*
X103400000Y-47051500D03*
X103000000Y-47051500D03*
X102600000Y-47051500D03*
X102200000Y-47051500D03*
X101800000Y-47051500D03*
D27*
X101050000Y-47801500D03*
X101050000Y-48201500D03*
X101050000Y-48601500D03*
X101050000Y-49001500D03*
X101050000Y-49401500D03*
X101050000Y-49801500D03*
X101050000Y-50201500D03*
X101050000Y-50601500D03*
X101050000Y-51001500D03*
X101050000Y-51401500D03*
X101050000Y-51801500D03*
X101050000Y-52201500D03*
D26*
X101800000Y-52951500D03*
X102200000Y-52951500D03*
X102600000Y-52951500D03*
X103000000Y-52951500D03*
X103400000Y-52951500D03*
X103800000Y-52951500D03*
X104200000Y-52951500D03*
X104600000Y-52951500D03*
X105000000Y-52951500D03*
X105400000Y-52951500D03*
X105800000Y-52951500D03*
X106200000Y-52951500D03*
D27*
X106950000Y-52201500D03*
X106950000Y-51801500D03*
X106950000Y-51401500D03*
X106950000Y-51001500D03*
X106950000Y-50601500D03*
X106950000Y-50201500D03*
X106950000Y-49801500D03*
X106950000Y-49401500D03*
X106950000Y-49001500D03*
X106950000Y-48601500D03*
X106950000Y-48201500D03*
X106950000Y-47801500D03*
D28*
X104000000Y-50001500D03*
%TD*%
D26*
%TO.C,U1*%
X34200000Y-119051500D03*
X33800000Y-119051500D03*
X33400000Y-119051500D03*
X33000000Y-119051500D03*
X32600000Y-119051500D03*
X32200000Y-119051500D03*
X31800000Y-119051500D03*
X31400000Y-119051500D03*
X31000000Y-119051500D03*
X30600000Y-119051500D03*
X30200000Y-119051500D03*
X29800000Y-119051500D03*
D27*
X29050000Y-119801500D03*
X29050000Y-120201500D03*
X29050000Y-120601500D03*
X29050000Y-121001500D03*
X29050000Y-121401500D03*
X29050000Y-121801500D03*
X29050000Y-122201500D03*
X29050000Y-122601500D03*
X29050000Y-123001500D03*
X29050000Y-123401500D03*
X29050000Y-123801500D03*
X29050000Y-124201500D03*
D26*
X29800000Y-124951500D03*
X30200000Y-124951500D03*
X30600000Y-124951500D03*
X31000000Y-124951500D03*
X31400000Y-124951500D03*
X31800000Y-124951500D03*
X32200000Y-124951500D03*
X32600000Y-124951500D03*
X33000000Y-124951500D03*
X33400000Y-124951500D03*
X33800000Y-124951500D03*
X34200000Y-124951500D03*
D27*
X34950000Y-124201500D03*
X34950000Y-123801500D03*
X34950000Y-123401500D03*
X34950000Y-123001500D03*
X34950000Y-122601500D03*
X34950000Y-122201500D03*
X34950000Y-121801500D03*
X34950000Y-121401500D03*
X34950000Y-121001500D03*
X34950000Y-120601500D03*
X34950000Y-120201500D03*
X34950000Y-119801500D03*
D28*
X32000000Y-122001500D03*
%TD*%
D10*
%TO.C,C9*%
X176450000Y-44001500D03*
X174550000Y-44001500D03*
%TD*%
D29*
%TO.C,R2*%
X196005500Y-95541500D03*
X197830500Y-95541500D03*
%TD*%
D11*
%TO.C,KiKit_MB_35_4*%
X77500000Y-123210083D03*
%TD*%
%TO.C,KiKit_MB_16_6*%
X149500000Y-72792916D03*
%TD*%
%TO.C,KiKit_MB_27_7*%
X243082833Y-97001500D03*
%TD*%
D26*
%TO.C,U1*%
X106200000Y-119051500D03*
X105800000Y-119051500D03*
X105400000Y-119051500D03*
X105000000Y-119051500D03*
X104600000Y-119051500D03*
X104200000Y-119051500D03*
X103800000Y-119051500D03*
X103400000Y-119051500D03*
X103000000Y-119051500D03*
X102600000Y-119051500D03*
X102200000Y-119051500D03*
X101800000Y-119051500D03*
D27*
X101050000Y-119801500D03*
X101050000Y-120201500D03*
X101050000Y-120601500D03*
X101050000Y-121001500D03*
X101050000Y-121401500D03*
X101050000Y-121801500D03*
X101050000Y-122201500D03*
X101050000Y-122601500D03*
X101050000Y-123001500D03*
X101050000Y-123401500D03*
X101050000Y-123801500D03*
X101050000Y-124201500D03*
D26*
X101800000Y-124951500D03*
X102200000Y-124951500D03*
X102600000Y-124951500D03*
X103000000Y-124951500D03*
X103400000Y-124951500D03*
X103800000Y-124951500D03*
X104200000Y-124951500D03*
X104600000Y-124951500D03*
X105000000Y-124951500D03*
X105400000Y-124951500D03*
X105800000Y-124951500D03*
X106200000Y-124951500D03*
D27*
X106950000Y-124201500D03*
X106950000Y-123801500D03*
X106950000Y-123401500D03*
X106950000Y-123001500D03*
X106950000Y-122601500D03*
X106950000Y-122201500D03*
X106950000Y-121801500D03*
X106950000Y-121401500D03*
X106950000Y-121001500D03*
X106950000Y-120601500D03*
X106950000Y-120201500D03*
X106950000Y-119801500D03*
D28*
X104000000Y-122001500D03*
%TD*%
D11*
%TO.C,KiKit_MB_6_9*%
X48665666Y-97001500D03*
%TD*%
%TO.C,KiKit_MB_40_4*%
X123291416Y-99001500D03*
%TD*%
%TO.C,KiKit_MB_23_9*%
X221500000Y-46833834D03*
%TD*%
%TO.C,KiKit_MB_39_5*%
X100833333Y-99001500D03*
%TD*%
D20*
%TO.C,C11*%
X136602000Y-163289500D03*
X136602000Y-165189500D03*
%TD*%
D11*
%TO.C,KiKit_MB_55_4*%
X245708583Y-169001500D03*
%TD*%
%TO.C,KiKit_MB_17_8*%
X219500000Y-52960584D03*
%TD*%
%TO.C,KiKit_MB_47_7*%
X174583833Y-99001500D03*
%TD*%
%TO.C,KiKit_MB_26_2*%
X265540916Y-27001500D03*
%TD*%
%TO.C,KiKit_MB_35_1*%
X77500000Y-125835833D03*
%TD*%
D20*
%TO.C,C12*%
X128982000Y-163289500D03*
X128982000Y-165189500D03*
%TD*%
D11*
%TO.C,KiKit_MB_54_2*%
X265540916Y-99001500D03*
%TD*%
%TO.C,KiKit_MB_13_3*%
X102583833Y-97001500D03*
%TD*%
D12*
%TO.C,TP1*%
X231120000Y-59121500D03*
%TD*%
D20*
%TO.C,C11*%
X280602000Y-163289500D03*
X280602000Y-165189500D03*
%TD*%
D11*
%TO.C,KiKit_MB_18_9*%
X219500000Y-77169166D03*
%TD*%
D12*
%TO.C,TP3*%
X223500000Y-56581500D03*
%TD*%
D11*
%TO.C,KiKit_MB_52_3*%
X221500000Y-147418666D03*
%TD*%
%TO.C,KiKit_MB_15_2*%
X149500000Y-52960584D03*
%TD*%
%TO.C,KiKit_MB_38_4*%
X147500000Y-144792916D03*
%TD*%
%TO.C,KiKit_MB_30_9*%
X75500000Y-149169166D03*
%TD*%
D25*
%TO.C,KiKit_FID_T_2*%
X289000000Y-22500000D03*
%TD*%
D19*
%TO.C,C3*%
X253000000Y-123951500D03*
X253000000Y-122051500D03*
%TD*%
D11*
%TO.C,KiKit_MB_44_4*%
X149500000Y-146543416D03*
%TD*%
%TO.C,KiKit_MB_49_7*%
X171082833Y-169001500D03*
%TD*%
%TO.C,KiKit_MB_13_1*%
X104334333Y-97001500D03*
%TD*%
D12*
%TO.C,TP5*%
X79500000Y-54041500D03*
%TD*%
D11*
%TO.C,KiKit_MB_22_4*%
X197041916Y-97001500D03*
%TD*%
D22*
%TO.C,D2*%
X128044500Y-95541500D03*
X129919500Y-95541500D03*
%TD*%
D10*
%TO.C,C7*%
X176950000Y-128001500D03*
X175050000Y-128001500D03*
%TD*%
D11*
%TO.C,KiKit_MB_7_7*%
X77500000Y-48584334D03*
%TD*%
%TO.C,KiKit_MB_55_9*%
X241332333Y-169001500D03*
%TD*%
%TO.C,KiKit_MB_34_5*%
X52166666Y-169001500D03*
%TD*%
%TO.C,KiKit_MB_45_4*%
X219500000Y-121459583D03*
%TD*%
D19*
%TO.C,C5*%
X25500000Y-120451500D03*
X25500000Y-118551500D03*
%TD*%
D11*
%TO.C,KiKit_MB_51_9*%
X221500000Y-118833833D03*
%TD*%
%TO.C,KiKit_MB_50_7*%
X194416166Y-169001500D03*
%TD*%
D19*
%TO.C,C13*%
X48854000Y-95729500D03*
X48854000Y-93829500D03*
%TD*%
D13*
%TO.C,C8*%
X179050000Y-116001500D03*
X180950000Y-116001500D03*
%TD*%
D30*
%TO.C,R3*%
X277958500Y-95541500D03*
X276133500Y-95541500D03*
%TD*%
D11*
%TO.C,KiKit_MB_52_5*%
X221500000Y-145668166D03*
%TD*%
%TO.C,KiKit_MB_19_3*%
X171082833Y-27001500D03*
%TD*%
%TO.C,KiKit_MB_35_8*%
X77500000Y-119709083D03*
%TD*%
%TO.C,KiKit_MB_21_2*%
X175459083Y-97001500D03*
%TD*%
%TO.C,KiKit_MB_46_7*%
X219500000Y-147418666D03*
%TD*%
%TO.C,KiKit_MB_18_5*%
X219500000Y-73668166D03*
%TD*%
%TO.C,KiKit_MB_33_3*%
X30583834Y-169001500D03*
%TD*%
%TO.C,KiKit_MB_11_3*%
X99082833Y-27001500D03*
%TD*%
D31*
%TO.C,R1*%
X98000000Y-61089000D03*
X98000000Y-62914000D03*
%TD*%
D11*
%TO.C,KiKit_MB_51_8*%
X221500000Y-119709083D03*
%TD*%
%TO.C,KiKit_MB_45_9*%
X219500000Y-125835833D03*
%TD*%
%TO.C,KiKit_MB_2_4*%
X75500000Y-72792916D03*
%TD*%
%TO.C,KiKit_MB_29_4*%
X75500000Y-121459583D03*
%TD*%
%TO.C,KiKit_MB_25_8*%
X247459083Y-27001500D03*
%TD*%
%TO.C,KiKit_MB_34_6*%
X51291416Y-169001500D03*
%TD*%
%TO.C,KiKit_MB_22_9*%
X192665666Y-97001500D03*
%TD*%
%TO.C,KiKit_MB_13_7*%
X99082833Y-97001500D03*
%TD*%
%TO.C,KiKit_MB_25_5*%
X244833333Y-27001500D03*
%TD*%
%TO.C,KiKit_MB_6_7*%
X50416166Y-97001500D03*
%TD*%
D10*
%TO.C,C10*%
X171950000Y-44031500D03*
X170050000Y-44031500D03*
%TD*%
D11*
%TO.C,KiKit_MB_51_4*%
X221500000Y-123210083D03*
%TD*%
%TO.C,KiKit_MB_33_8*%
X26207584Y-169001500D03*
%TD*%
D12*
%TO.C,TP2*%
X79500000Y-59121500D03*
%TD*%
D11*
%TO.C,KiKit_MB_33_2*%
X31459084Y-169001500D03*
%TD*%
%TO.C,KiKit_MB_38_8*%
X147500000Y-148293916D03*
%TD*%
%TO.C,KiKit_MB_37_2*%
X147500000Y-119709083D03*
%TD*%
%TO.C,KiKit_MB_4_4*%
X51291416Y-27001500D03*
%TD*%
%TO.C,KiKit_MB_16_9*%
X149500000Y-70167166D03*
%TD*%
D19*
%TO.C,C5*%
X241500000Y-120451500D03*
X241500000Y-118551500D03*
%TD*%
D24*
%TO.C,U3*%
X270309500Y-93189500D03*
X270309500Y-92239500D03*
X270309500Y-91289500D03*
X268034500Y-91289500D03*
X268034500Y-93189500D03*
%TD*%
D11*
%TO.C,KiKit_MB_27_1*%
X248334333Y-97001500D03*
%TD*%
D31*
%TO.C,R1*%
X170000000Y-61089000D03*
X170000000Y-62914000D03*
%TD*%
D11*
%TO.C,KiKit_MB_45_3*%
X219500000Y-120584333D03*
%TD*%
D32*
%TO.C,BT1*%
X198442000Y-159921500D03*
X208602000Y-159921500D03*
%TD*%
D11*
%TO.C,KiKit_MB_42_7*%
X122416166Y-169001500D03*
%TD*%
%TO.C,KiKit_MB_16_2*%
X149500000Y-76293916D03*
%TD*%
D23*
%TO.C,U2*%
X131654500Y-91289500D03*
X131654500Y-92239500D03*
X131654500Y-93189500D03*
X133929500Y-93189500D03*
X133929500Y-91289500D03*
%TD*%
D11*
%TO.C,KiKit_MB_50_4*%
X197041916Y-169001500D03*
%TD*%
%TO.C,KiKit_MB_54_9*%
X271667666Y-99001500D03*
%TD*%
%TO.C,KiKit_MB_28_6*%
X267291416Y-97001500D03*
%TD*%
D20*
%TO.C,C6*%
X255500000Y-120051500D03*
X255500000Y-121951500D03*
%TD*%
D11*
%TO.C,KiKit_MB_52_2*%
X221500000Y-148293916D03*
%TD*%
%TO.C,KiKit_MB_11_7*%
X102583833Y-27001500D03*
%TD*%
%TO.C,KiKit_MB_40_8*%
X126792416Y-99001500D03*
%TD*%
D20*
%TO.C,C6*%
X39500000Y-120051500D03*
X39500000Y-121951500D03*
%TD*%
D22*
%TO.C,D2*%
X128044500Y-167541500D03*
X129919500Y-167541500D03*
%TD*%
D32*
%TO.C,BT1*%
X270442000Y-159921500D03*
X280602000Y-159921500D03*
%TD*%
D11*
%TO.C,KiKit_MB_28_2*%
X270792416Y-97001500D03*
%TD*%
%TO.C,KiKit_MB_33_5*%
X28833334Y-169001500D03*
%TD*%
%TO.C,KiKit_MB_21_3*%
X174583833Y-97001500D03*
%TD*%
D21*
%TO.C,R4*%
X176090000Y-164136000D03*
X176090000Y-162311000D03*
%TD*%
D11*
%TO.C,KiKit_MB_14_2*%
X126792416Y-97001500D03*
%TD*%
%TO.C,KiKit_MB_48_6*%
X197041916Y-99001500D03*
%TD*%
%TO.C,KiKit_MB_3_2*%
X26207584Y-27001500D03*
%TD*%
%TO.C,KiKit_MB_22_6*%
X195291416Y-97001500D03*
%TD*%
%TO.C,KiKit_MB_26_8*%
X270792416Y-27001500D03*
%TD*%
D19*
%TO.C,C4*%
X39500000Y-45951500D03*
X39500000Y-44051500D03*
%TD*%
D11*
%TO.C,KiKit_MB_21_5*%
X172833333Y-97001500D03*
%TD*%
%TO.C,KiKit_MB_15_1*%
X149500000Y-53835834D03*
%TD*%
D19*
%TO.C,C1*%
X36000000Y-57451500D03*
X36000000Y-55551500D03*
%TD*%
D11*
%TO.C,KiKit_MB_6_2*%
X54792416Y-97001500D03*
%TD*%
%TO.C,KiKit_MB_35_6*%
X77500000Y-121459583D03*
%TD*%
%TO.C,KiKit_MB_47_3*%
X171082833Y-99001500D03*
%TD*%
D29*
%TO.C,R2*%
X124005500Y-167541500D03*
X125830500Y-167541500D03*
%TD*%
D11*
%TO.C,KiKit_MB_56_3*%
X269917166Y-169001500D03*
%TD*%
D24*
%TO.C,U3*%
X270309500Y-165189500D03*
X270309500Y-164239500D03*
X270309500Y-163289500D03*
X268034500Y-163289500D03*
X268034500Y-165189500D03*
%TD*%
D11*
%TO.C,KiKit_MB_55_7*%
X243082833Y-169001500D03*
%TD*%
%TO.C,KiKit_MB_55_8*%
X242207583Y-169001500D03*
%TD*%
%TO.C,KiKit_MB_8_3*%
X77500000Y-75418666D03*
%TD*%
%TO.C,KiKit_MB_14_6*%
X123291416Y-97001500D03*
%TD*%
%TO.C,KiKit_MB_20_8*%
X198792416Y-27001500D03*
%TD*%
D29*
%TO.C,R2*%
X268005500Y-95541500D03*
X269830500Y-95541500D03*
%TD*%
D11*
%TO.C,KiKit_MB_20_4*%
X195291416Y-27001500D03*
%TD*%
%TO.C,KiKit_MB_34_2*%
X54792416Y-169001500D03*
%TD*%
D12*
%TO.C,TP1*%
X87120000Y-59121500D03*
%TD*%
D20*
%TO.C,C11*%
X136602000Y-91289500D03*
X136602000Y-93189500D03*
%TD*%
D11*
%TO.C,KiKit_MB_23_8*%
X221500000Y-47709084D03*
%TD*%
D10*
%TO.C,C7*%
X32950000Y-128001500D03*
X31050000Y-128001500D03*
%TD*%
D11*
%TO.C,KiKit_MB_19_5*%
X172833333Y-27001500D03*
%TD*%
%TO.C,KiKit_MB_32_5*%
X52166666Y-99001500D03*
%TD*%
%TO.C,KiKit_MB_21_6*%
X171958083Y-97001500D03*
%TD*%
D20*
%TO.C,C2*%
X187000000Y-127551500D03*
X187000000Y-129451500D03*
%TD*%
D19*
%TO.C,C5*%
X97500000Y-120451500D03*
X97500000Y-118551500D03*
%TD*%
D31*
%TO.C,R5*%
X264854000Y-90311000D03*
X264854000Y-92136000D03*
%TD*%
D11*
%TO.C,KiKit_MB_2_6*%
X75500000Y-74543416D03*
%TD*%
%TO.C,KiKit_MB_11_1*%
X97332333Y-27001500D03*
%TD*%
%TO.C,KiKit_MB_48_3*%
X194416166Y-99001500D03*
%TD*%
%TO.C,KiKit_MB_8_6*%
X77500000Y-72792916D03*
%TD*%
%TO.C,KiKit_MB_35_7*%
X77500000Y-120584333D03*
%TD*%
D12*
%TO.C,TP1*%
X159120000Y-59121500D03*
%TD*%
D31*
%TO.C,R1*%
X26000000Y-133089000D03*
X26000000Y-134914000D03*
%TD*%
D11*
%TO.C,KiKit_MB_13_2*%
X103459083Y-97001500D03*
%TD*%
%TO.C,KiKit_MB_28_4*%
X269041916Y-97001500D03*
%TD*%
%TO.C,KiKit_MB_17_5*%
X219500000Y-50334834D03*
%TD*%
%TO.C,KiKit_MB_17_1*%
X219500000Y-46833834D03*
%TD*%
D19*
%TO.C,C1*%
X108000000Y-57451500D03*
X108000000Y-55551500D03*
%TD*%
D31*
%TO.C,R5*%
X120854000Y-90311000D03*
X120854000Y-92136000D03*
%TD*%
D10*
%TO.C,C10*%
X243950000Y-116031500D03*
X242050000Y-116031500D03*
%TD*%
D11*
%TO.C,KiKit_MB_13_9*%
X97332333Y-97001500D03*
%TD*%
%TO.C,KiKit_MB_18_2*%
X219500000Y-71042416D03*
%TD*%
%TO.C,KiKit_MB_19_1*%
X169332333Y-27001500D03*
%TD*%
D19*
%TO.C,C3*%
X37000000Y-123951500D03*
X37000000Y-122051500D03*
%TD*%
D31*
%TO.C,R5*%
X120854000Y-162311000D03*
X120854000Y-164136000D03*
%TD*%
D11*
%TO.C,KiKit_MB_18_4*%
X219500000Y-72792916D03*
%TD*%
%TO.C,KiKit_MB_27_8*%
X242207583Y-97001500D03*
%TD*%
%TO.C,KiKit_MB_54_8*%
X270792416Y-99001500D03*
%TD*%
%TO.C,KiKit_MB_8_5*%
X77500000Y-73668166D03*
%TD*%
D10*
%TO.C,C9*%
X248450000Y-116001500D03*
X246550000Y-116001500D03*
%TD*%
D11*
%TO.C,KiKit_MB_1_3*%
X75500000Y-48584334D03*
%TD*%
%TO.C,KiKit_MB_37_8*%
X147500000Y-124960583D03*
%TD*%
%TO.C,KiKit_MB_9_6*%
X147500000Y-51210084D03*
%TD*%
D19*
%TO.C,C13*%
X192854000Y-167729500D03*
X192854000Y-165829500D03*
%TD*%
D11*
%TO.C,KiKit_MB_56_6*%
X267291416Y-169001500D03*
%TD*%
%TO.C,KiKit_MB_12_4*%
X123291416Y-27001500D03*
%TD*%
D12*
%TO.C,TP4*%
X151500000Y-123501500D03*
%TD*%
D11*
%TO.C,KiKit_MB_1_8*%
X75500000Y-52960584D03*
%TD*%
%TO.C,KiKit_MB_41_9*%
X97332333Y-169001500D03*
%TD*%
D20*
%TO.C,C11*%
X64602000Y-91289500D03*
X64602000Y-93189500D03*
%TD*%
D11*
%TO.C,KiKit_MB_39_8*%
X103459083Y-99001500D03*
%TD*%
D19*
%TO.C,C3*%
X181000000Y-51951500D03*
X181000000Y-50051500D03*
%TD*%
D11*
%TO.C,KiKit_MB_8_2*%
X77500000Y-76293916D03*
%TD*%
%TO.C,KiKit_MB_6_5*%
X52166666Y-97001500D03*
%TD*%
%TO.C,KiKit_MB_12_3*%
X122416166Y-27001500D03*
%TD*%
%TO.C,KiKit_MB_5_2*%
X31459084Y-97001500D03*
%TD*%
%TO.C,KiKit_MB_11_2*%
X98207583Y-27001500D03*
%TD*%
D10*
%TO.C,C9*%
X32450000Y-116001500D03*
X30550000Y-116001500D03*
%TD*%
D11*
%TO.C,KiKit_MB_44_9*%
X149500000Y-142167166D03*
%TD*%
%TO.C,KiKit_MB_45_8*%
X219500000Y-124960583D03*
%TD*%
D12*
%TO.C,TP2*%
X151500000Y-131121500D03*
%TD*%
D11*
%TO.C,KiKit_MB_3_9*%
X32334334Y-27001500D03*
%TD*%
%TO.C,KiKit_MB_9_1*%
X147500000Y-46833834D03*
%TD*%
%TO.C,KiKit_MB_44_1*%
X149500000Y-149169166D03*
%TD*%
D12*
%TO.C,TP5*%
X223500000Y-126041500D03*
%TD*%
D11*
%TO.C,KiKit_MB_31_5*%
X28833334Y-99001500D03*
%TD*%
%TO.C,KiKit_MB_1_6*%
X75500000Y-51210084D03*
%TD*%
%TO.C,KiKit_MB_54_6*%
X269041916Y-99001500D03*
%TD*%
%TO.C,KiKit_MB_13_4*%
X101708583Y-97001500D03*
%TD*%
D26*
%TO.C,U1*%
X178200000Y-47051500D03*
X177800000Y-47051500D03*
X177400000Y-47051500D03*
X177000000Y-47051500D03*
X176600000Y-47051500D03*
X176200000Y-47051500D03*
X175800000Y-47051500D03*
X175400000Y-47051500D03*
X175000000Y-47051500D03*
X174600000Y-47051500D03*
X174200000Y-47051500D03*
X173800000Y-47051500D03*
D27*
X173050000Y-47801500D03*
X173050000Y-48201500D03*
X173050000Y-48601500D03*
X173050000Y-49001500D03*
X173050000Y-49401500D03*
X173050000Y-49801500D03*
X173050000Y-50201500D03*
X173050000Y-50601500D03*
X173050000Y-51001500D03*
X173050000Y-51401500D03*
X173050000Y-51801500D03*
X173050000Y-52201500D03*
D26*
X173800000Y-52951500D03*
X174200000Y-52951500D03*
X174600000Y-52951500D03*
X175000000Y-52951500D03*
X175400000Y-52951500D03*
X175800000Y-52951500D03*
X176200000Y-52951500D03*
X176600000Y-52951500D03*
X177000000Y-52951500D03*
X177400000Y-52951500D03*
X177800000Y-52951500D03*
X178200000Y-52951500D03*
D27*
X178950000Y-52201500D03*
X178950000Y-51801500D03*
X178950000Y-51401500D03*
X178950000Y-51001500D03*
X178950000Y-50601500D03*
X178950000Y-50201500D03*
X178950000Y-49801500D03*
X178950000Y-49401500D03*
X178950000Y-49001500D03*
X178950000Y-48601500D03*
X178950000Y-48201500D03*
X178950000Y-47801500D03*
D28*
X176000000Y-50001500D03*
%TD*%
D11*
%TO.C,KiKit_MB_27_9*%
X241332333Y-97001500D03*
%TD*%
%TO.C,KiKit_MB_20_9*%
X199667666Y-27001500D03*
%TD*%
%TO.C,KiKit_MB_45_1*%
X219500000Y-118833833D03*
%TD*%
D32*
%TO.C,BT1*%
X198442000Y-87921500D03*
X208602000Y-87921500D03*
%TD*%
D19*
%TO.C,C1*%
X252000000Y-129451500D03*
X252000000Y-127551500D03*
%TD*%
D11*
%TO.C,KiKit_MB_29_3*%
X75500000Y-120584333D03*
%TD*%
D10*
%TO.C,C10*%
X27950000Y-116031500D03*
X26050000Y-116031500D03*
%TD*%
D32*
%TO.C,BT1*%
X54442000Y-87921500D03*
X64602000Y-87921500D03*
%TD*%
D11*
%TO.C,KiKit_MB_52_7*%
X221500000Y-143917666D03*
%TD*%
%TO.C,KiKit_MB_43_3*%
X149500000Y-124085333D03*
%TD*%
%TO.C,KiKit_MB_36_1*%
X77500000Y-149169166D03*
%TD*%
%TO.C,KiKit_MB_53_3*%
X243082833Y-99001500D03*
%TD*%
%TO.C,KiKit_MB_42_5*%
X124166666Y-169001500D03*
%TD*%
%TO.C,KiKit_MB_25_7*%
X246583833Y-27001500D03*
%TD*%
D31*
%TO.C,R1*%
X26000000Y-61089000D03*
X26000000Y-62914000D03*
%TD*%
D11*
%TO.C,KiKit_MB_17_4*%
X219500000Y-49459584D03*
%TD*%
%TO.C,KiKit_MB_16_5*%
X149500000Y-73668166D03*
%TD*%
%TO.C,KiKit_MB_32_1*%
X48665666Y-99001500D03*
%TD*%
D20*
%TO.C,C12*%
X200982000Y-91289500D03*
X200982000Y-93189500D03*
%TD*%
D11*
%TO.C,KiKit_MB_54_7*%
X269917166Y-99001500D03*
%TD*%
%TO.C,KiKit_MB_53_7*%
X246583833Y-99001500D03*
%TD*%
%TO.C,KiKit_MB_22_8*%
X193540916Y-97001500D03*
%TD*%
%TO.C,KiKit_MB_26_7*%
X269917166Y-27001500D03*
%TD*%
D20*
%TO.C,C6*%
X39500000Y-48051500D03*
X39500000Y-49951500D03*
%TD*%
D11*
%TO.C,KiKit_MB_37_9*%
X147500000Y-125835833D03*
%TD*%
%TO.C,KiKit_MB_48_7*%
X197917166Y-99001500D03*
%TD*%
D10*
%TO.C,C9*%
X176450000Y-116001500D03*
X174550000Y-116001500D03*
%TD*%
D12*
%TO.C,TP5*%
X79500000Y-126041500D03*
%TD*%
D11*
%TO.C,KiKit_MB_19_6*%
X173708583Y-27001500D03*
%TD*%
%TO.C,KiKit_MB_46_4*%
X219500000Y-144792916D03*
%TD*%
D10*
%TO.C,C9*%
X104450000Y-44001500D03*
X102550000Y-44001500D03*
%TD*%
%TO.C,C10*%
X99950000Y-44031500D03*
X98050000Y-44031500D03*
%TD*%
D11*
%TO.C,KiKit_MB_2_5*%
X75500000Y-73668166D03*
%TD*%
%TO.C,KiKit_MB_1_7*%
X75500000Y-52085334D03*
%TD*%
%TO.C,KiKit_MB_43_6*%
X149500000Y-121459583D03*
%TD*%
%TO.C,KiKit_MB_30_6*%
X75500000Y-146543416D03*
%TD*%
%TO.C,KiKit_MB_29_7*%
X75500000Y-124085333D03*
%TD*%
%TO.C,KiKit_MB_24_9*%
X221500000Y-70167166D03*
%TD*%
%TO.C,KiKit_MB_4_2*%
X49540916Y-27001500D03*
%TD*%
%TO.C,KiKit_MB_56_1*%
X271667666Y-169001500D03*
%TD*%
%TO.C,KiKit_MB_56_2*%
X270792416Y-169001500D03*
%TD*%
%TO.C,KiKit_MB_33_1*%
X32334334Y-169001500D03*
%TD*%
%TO.C,KiKit_MB_5_8*%
X26207584Y-97001500D03*
%TD*%
%TO.C,KiKit_MB_54_4*%
X267291416Y-99001500D03*
%TD*%
D19*
%TO.C,C5*%
X169500000Y-48451500D03*
X169500000Y-46551500D03*
%TD*%
D31*
%TO.C,R5*%
X48854000Y-162311000D03*
X48854000Y-164136000D03*
%TD*%
D11*
%TO.C,KiKit_MB_46_8*%
X219500000Y-148293916D03*
%TD*%
D12*
%TO.C,TP2*%
X7500000Y-131121500D03*
%TD*%
D11*
%TO.C,KiKit_MB_2_3*%
X75500000Y-71917666D03*
%TD*%
D26*
%TO.C,U1*%
X250200000Y-119051500D03*
X249800000Y-119051500D03*
X249400000Y-119051500D03*
X249000000Y-119051500D03*
X248600000Y-119051500D03*
X248200000Y-119051500D03*
X247800000Y-119051500D03*
X247400000Y-119051500D03*
X247000000Y-119051500D03*
X246600000Y-119051500D03*
X246200000Y-119051500D03*
X245800000Y-119051500D03*
D27*
X245050000Y-119801500D03*
X245050000Y-120201500D03*
X245050000Y-120601500D03*
X245050000Y-121001500D03*
X245050000Y-121401500D03*
X245050000Y-121801500D03*
X245050000Y-122201500D03*
X245050000Y-122601500D03*
X245050000Y-123001500D03*
X245050000Y-123401500D03*
X245050000Y-123801500D03*
X245050000Y-124201500D03*
D26*
X245800000Y-124951500D03*
X246200000Y-124951500D03*
X246600000Y-124951500D03*
X247000000Y-124951500D03*
X247400000Y-124951500D03*
X247800000Y-124951500D03*
X248200000Y-124951500D03*
X248600000Y-124951500D03*
X249000000Y-124951500D03*
X249400000Y-124951500D03*
X249800000Y-124951500D03*
X250200000Y-124951500D03*
D27*
X250950000Y-124201500D03*
X250950000Y-123801500D03*
X250950000Y-123401500D03*
X250950000Y-123001500D03*
X250950000Y-122601500D03*
X250950000Y-122201500D03*
X250950000Y-121801500D03*
X250950000Y-121401500D03*
X250950000Y-121001500D03*
X250950000Y-120601500D03*
X250950000Y-120201500D03*
X250950000Y-119801500D03*
D28*
X248000000Y-122001500D03*
%TD*%
D11*
%TO.C,KiKit_MB_56_4*%
X269041916Y-169001500D03*
%TD*%
D12*
%TO.C,TP3*%
X79500000Y-128581500D03*
%TD*%
D19*
%TO.C,C13*%
X48854000Y-167729500D03*
X48854000Y-165829500D03*
%TD*%
D11*
%TO.C,KiKit_MB_16_7*%
X149500000Y-71917666D03*
%TD*%
%TO.C,KiKit_MB_11_6*%
X101708583Y-27001500D03*
%TD*%
%TO.C,KiKit_MB_20_7*%
X197917166Y-27001500D03*
%TD*%
D32*
%TO.C,BT1*%
X270442000Y-87921500D03*
X280602000Y-87921500D03*
%TD*%
D12*
%TO.C,TP1*%
X231120000Y-131121500D03*
%TD*%
D11*
%TO.C,KiKit_MB_24_5*%
X221500000Y-73668166D03*
%TD*%
D22*
%TO.C,D2*%
X56044500Y-95541500D03*
X57919500Y-95541500D03*
%TD*%
D11*
%TO.C,KiKit_MB_9_7*%
X147500000Y-52085334D03*
%TD*%
%TO.C,KiKit_MB_46_2*%
X219500000Y-143042416D03*
%TD*%
%TO.C,KiKit_MB_10_9*%
X147500000Y-77169166D03*
%TD*%
%TO.C,KiKit_MB_2_2*%
X75500000Y-71042416D03*
%TD*%
%TO.C,KiKit_MB_24_2*%
X221500000Y-76293916D03*
%TD*%
D12*
%TO.C,TP5*%
X7500000Y-54041500D03*
%TD*%
%TO.C,TP3*%
X7500000Y-56581500D03*
%TD*%
%TO.C,TP2*%
X7500000Y-59121500D03*
%TD*%
D11*
%TO.C,KiKit_MB_47_1*%
X169332333Y-99001500D03*
%TD*%
%TO.C,KiKit_MB_46_9*%
X219500000Y-149169166D03*
%TD*%
%TO.C,KiKit_MB_46_6*%
X219500000Y-146543416D03*
%TD*%
%TO.C,KiKit_MB_28_3*%
X269917166Y-97001500D03*
%TD*%
%TO.C,KiKit_MB_12_7*%
X125917166Y-27001500D03*
%TD*%
%TO.C,KiKit_MB_30_5*%
X75500000Y-145668166D03*
%TD*%
%TO.C,KiKit_MB_42_3*%
X125917166Y-169001500D03*
%TD*%
%TO.C,KiKit_MB_1_5*%
X75500000Y-50334834D03*
%TD*%
%TO.C,KiKit_MB_42_8*%
X121540916Y-169001500D03*
%TD*%
%TO.C,KiKit_MB_7_3*%
X77500000Y-52085334D03*
%TD*%
%TO.C,KiKit_MB_20_5*%
X196166666Y-27001500D03*
%TD*%
%TO.C,KiKit_MB_32_6*%
X53041916Y-99001500D03*
%TD*%
%TO.C,KiKit_MB_15_8*%
X149500000Y-47709084D03*
%TD*%
D12*
%TO.C,TP4*%
X223500000Y-123501500D03*
%TD*%
D19*
%TO.C,C4*%
X111500000Y-45951500D03*
X111500000Y-44051500D03*
%TD*%
D11*
%TO.C,KiKit_MB_40_7*%
X125917166Y-99001500D03*
%TD*%
D20*
%TO.C,C6*%
X183500000Y-120051500D03*
X183500000Y-121951500D03*
%TD*%
D11*
%TO.C,KiKit_MB_3_5*%
X28833334Y-27001500D03*
%TD*%
D31*
%TO.C,R1*%
X98000000Y-133089000D03*
X98000000Y-134914000D03*
%TD*%
D11*
%TO.C,KiKit_MB_55_1*%
X248334333Y-169001500D03*
%TD*%
%TO.C,KiKit_MB_15_6*%
X149500000Y-49459584D03*
%TD*%
%TO.C,KiKit_MB_56_9*%
X264665666Y-169001500D03*
%TD*%
%TO.C,KiKit_MB_7_8*%
X77500000Y-47709084D03*
%TD*%
D19*
%TO.C,C13*%
X264854000Y-167729500D03*
X264854000Y-165829500D03*
%TD*%
D11*
%TO.C,KiKit_MB_40_5*%
X124166666Y-99001500D03*
%TD*%
D26*
%TO.C,U1*%
X250200000Y-47051500D03*
X249800000Y-47051500D03*
X249400000Y-47051500D03*
X249000000Y-47051500D03*
X248600000Y-47051500D03*
X248200000Y-47051500D03*
X247800000Y-47051500D03*
X247400000Y-47051500D03*
X247000000Y-47051500D03*
X246600000Y-47051500D03*
X246200000Y-47051500D03*
X245800000Y-47051500D03*
D27*
X245050000Y-47801500D03*
X245050000Y-48201500D03*
X245050000Y-48601500D03*
X245050000Y-49001500D03*
X245050000Y-49401500D03*
X245050000Y-49801500D03*
X245050000Y-50201500D03*
X245050000Y-50601500D03*
X245050000Y-51001500D03*
X245050000Y-51401500D03*
X245050000Y-51801500D03*
X245050000Y-52201500D03*
D26*
X245800000Y-52951500D03*
X246200000Y-52951500D03*
X246600000Y-52951500D03*
X247000000Y-52951500D03*
X247400000Y-52951500D03*
X247800000Y-52951500D03*
X248200000Y-52951500D03*
X248600000Y-52951500D03*
X249000000Y-52951500D03*
X249400000Y-52951500D03*
X249800000Y-52951500D03*
X250200000Y-52951500D03*
D27*
X250950000Y-52201500D03*
X250950000Y-51801500D03*
X250950000Y-51401500D03*
X250950000Y-51001500D03*
X250950000Y-50601500D03*
X250950000Y-50201500D03*
X250950000Y-49801500D03*
X250950000Y-49401500D03*
X250950000Y-49001500D03*
X250950000Y-48601500D03*
X250950000Y-48201500D03*
X250950000Y-47801500D03*
D28*
X248000000Y-50001500D03*
%TD*%
D11*
%TO.C,KiKit_MB_39_4*%
X99958083Y-99001500D03*
%TD*%
%TO.C,KiKit_MB_11_9*%
X104334333Y-27001500D03*
%TD*%
D19*
%TO.C,C5*%
X241500000Y-48451500D03*
X241500000Y-46551500D03*
%TD*%
D11*
%TO.C,KiKit_MB_21_9*%
X169332333Y-97001500D03*
%TD*%
%TO.C,KiKit_MB_52_8*%
X221500000Y-143042416D03*
%TD*%
D19*
%TO.C,C1*%
X180000000Y-57451500D03*
X180000000Y-55551500D03*
%TD*%
D31*
%TO.C,R1*%
X170000000Y-133089000D03*
X170000000Y-134914000D03*
%TD*%
D11*
%TO.C,KiKit_MB_34_1*%
X55667666Y-169001500D03*
%TD*%
%TO.C,KiKit_MB_47_4*%
X171958083Y-99001500D03*
%TD*%
D20*
%TO.C,C11*%
X64602000Y-163289500D03*
X64602000Y-165189500D03*
%TD*%
D11*
%TO.C,KiKit_MB_38_3*%
X147500000Y-143917666D03*
%TD*%
D31*
%TO.C,R5*%
X192854000Y-162311000D03*
X192854000Y-164136000D03*
%TD*%
D11*
%TO.C,KiKit_MB_40_9*%
X127667666Y-99001500D03*
%TD*%
%TO.C,KiKit_MB_34_9*%
X48665666Y-169001500D03*
%TD*%
%TO.C,KiKit_MB_9_3*%
X147500000Y-48584334D03*
%TD*%
%TO.C,KiKit_MB_53_9*%
X248334333Y-99001500D03*
%TD*%
%TO.C,KiKit_MB_27_3*%
X246583833Y-97001500D03*
%TD*%
%TO.C,KiKit_MB_11_8*%
X103459083Y-27001500D03*
%TD*%
%TO.C,KiKit_MB_28_7*%
X266416166Y-97001500D03*
%TD*%
%TO.C,KiKit_MB_24_8*%
X221500000Y-71042416D03*
%TD*%
%TO.C,KiKit_MB_49_3*%
X174583833Y-169001500D03*
%TD*%
D19*
%TO.C,C4*%
X255500000Y-45951500D03*
X255500000Y-44051500D03*
%TD*%
D11*
%TO.C,KiKit_MB_24_1*%
X221500000Y-77169166D03*
%TD*%
%TO.C,KiKit_MB_23_1*%
X221500000Y-53835834D03*
%TD*%
D10*
%TO.C,C7*%
X32950000Y-56001500D03*
X31050000Y-56001500D03*
%TD*%
D11*
%TO.C,KiKit_MB_28_8*%
X265540916Y-97001500D03*
%TD*%
%TO.C,KiKit_MB_24_4*%
X221500000Y-74543416D03*
%TD*%
%TO.C,KiKit_MB_41_6*%
X99958083Y-169001500D03*
%TD*%
%TO.C,KiKit_MB_14_1*%
X127667666Y-97001500D03*
%TD*%
%TO.C,KiKit_MB_42_1*%
X127667666Y-169001500D03*
%TD*%
%TO.C,KiKit_MB_44_3*%
X149500000Y-147418666D03*
%TD*%
%TO.C,KiKit_MB_23_3*%
X221500000Y-52085334D03*
%TD*%
%TO.C,KiKit_MB_21_8*%
X170207583Y-97001500D03*
%TD*%
%TO.C,KiKit_MB_9_9*%
X147500000Y-53835834D03*
%TD*%
D33*
%TO.C,Y1*%
X254400000Y-57351500D03*
X256600000Y-57351500D03*
X256600000Y-55651500D03*
X254400000Y-55651500D03*
%TD*%
D11*
%TO.C,KiKit_MB_3_1*%
X25332334Y-27001500D03*
%TD*%
%TO.C,KiKit_MB_20_3*%
X194416166Y-27001500D03*
%TD*%
D23*
%TO.C,U2*%
X59654500Y-163289500D03*
X59654500Y-164239500D03*
X59654500Y-165189500D03*
X61929500Y-165189500D03*
X61929500Y-163289500D03*
%TD*%
D11*
%TO.C,KiKit_MB_31_1*%
X25332334Y-99001500D03*
%TD*%
%TO.C,KiKit_MB_4_1*%
X48665666Y-27001500D03*
%TD*%
%TO.C,KiKit_MB_13_6*%
X99958083Y-97001500D03*
%TD*%
D22*
%TO.C,D2*%
X272044500Y-167541500D03*
X273919500Y-167541500D03*
%TD*%
D11*
%TO.C,KiKit_MB_6_3*%
X53917166Y-97001500D03*
%TD*%
D33*
%TO.C,Y1*%
X182400000Y-129351500D03*
X184600000Y-129351500D03*
X184600000Y-127651500D03*
X182400000Y-127651500D03*
%TD*%
D12*
%TO.C,TP3*%
X7500000Y-128581500D03*
%TD*%
D30*
%TO.C,R3*%
X205958500Y-167541500D03*
X204133500Y-167541500D03*
%TD*%
D12*
%TO.C,TP2*%
X223500000Y-131121500D03*
%TD*%
D11*
%TO.C,KiKit_MB_30_4*%
X75500000Y-144792916D03*
%TD*%
%TO.C,KiKit_MB_22_7*%
X194416166Y-97001500D03*
%TD*%
%TO.C,KiKit_MB_7_9*%
X77500000Y-46833834D03*
%TD*%
%TO.C,KiKit_MB_9_8*%
X147500000Y-52960584D03*
%TD*%
%TO.C,KiKit_MB_42_9*%
X120665666Y-169001500D03*
%TD*%
D19*
%TO.C,C3*%
X37000000Y-51951500D03*
X37000000Y-50051500D03*
%TD*%
D11*
%TO.C,KiKit_MB_35_5*%
X77500000Y-122334833D03*
%TD*%
D20*
%TO.C,C2*%
X187000000Y-55551500D03*
X187000000Y-57451500D03*
%TD*%
D11*
%TO.C,KiKit_MB_14_5*%
X124166666Y-97001500D03*
%TD*%
%TO.C,KiKit_MB_5_3*%
X30583834Y-97001500D03*
%TD*%
%TO.C,KiKit_MB_12_2*%
X121540916Y-27001500D03*
%TD*%
%TO.C,KiKit_MB_3_7*%
X30583834Y-27001500D03*
%TD*%
%TO.C,KiKit_MB_36_5*%
X77500000Y-145668166D03*
%TD*%
%TO.C,KiKit_MB_14_3*%
X125917166Y-97001500D03*
%TD*%
D19*
%TO.C,C4*%
X183500000Y-117951500D03*
X183500000Y-116051500D03*
%TD*%
D20*
%TO.C,C2*%
X115000000Y-127551500D03*
X115000000Y-129451500D03*
%TD*%
D19*
%TO.C,C1*%
X108000000Y-129451500D03*
X108000000Y-127551500D03*
%TD*%
D23*
%TO.C,U2*%
X131654500Y-163289500D03*
X131654500Y-164239500D03*
X131654500Y-165189500D03*
X133929500Y-165189500D03*
X133929500Y-163289500D03*
%TD*%
D11*
%TO.C,KiKit_MB_12_9*%
X127667666Y-27001500D03*
%TD*%
%TO.C,KiKit_MB_34_3*%
X53917166Y-169001500D03*
%TD*%
D13*
%TO.C,C8*%
X35050000Y-44001500D03*
X36950000Y-44001500D03*
%TD*%
D14*
%TO.C,J1*%
X253610000Y-91896500D03*
X259390000Y-91896500D03*
D15*
X253300000Y-90821500D03*
X254100000Y-90821500D03*
D16*
X255250000Y-90821500D03*
X256250000Y-90821500D03*
X256750000Y-90821500D03*
X257750000Y-90821500D03*
D15*
X258900000Y-90821500D03*
X259700000Y-90821500D03*
X259700000Y-90821500D03*
X258900000Y-90821500D03*
D16*
X258250000Y-90821500D03*
X257250000Y-90821500D03*
X255750000Y-90821500D03*
X254750000Y-90821500D03*
D15*
X254100000Y-90821500D03*
X253300000Y-90821500D03*
D17*
X252180000Y-91396500D03*
D18*
X252180000Y-95576500D03*
D17*
X260820000Y-91396500D03*
D18*
X260820000Y-95576500D03*
%TD*%
D11*
%TO.C,KiKit_MB_26_3*%
X266416166Y-27001500D03*
%TD*%
%TO.C,KiKit_MB_54_5*%
X268166666Y-99001500D03*
%TD*%
%TO.C,KiKit_MB_43_1*%
X149500000Y-125835833D03*
%TD*%
%TO.C,KiKit_MB_2_8*%
X75500000Y-76293916D03*
%TD*%
D14*
%TO.C,J1*%
X109610000Y-163896500D03*
X115390000Y-163896500D03*
D15*
X109300000Y-162821500D03*
X110100000Y-162821500D03*
D16*
X111250000Y-162821500D03*
X112250000Y-162821500D03*
X112750000Y-162821500D03*
X113750000Y-162821500D03*
D15*
X114900000Y-162821500D03*
X115700000Y-162821500D03*
X115700000Y-162821500D03*
X114900000Y-162821500D03*
D16*
X114250000Y-162821500D03*
X113250000Y-162821500D03*
X111750000Y-162821500D03*
X110750000Y-162821500D03*
D15*
X110100000Y-162821500D03*
X109300000Y-162821500D03*
D17*
X108180000Y-163396500D03*
D18*
X108180000Y-167576500D03*
D17*
X116820000Y-163396500D03*
D18*
X116820000Y-167576500D03*
%TD*%
D11*
%TO.C,KiKit_MB_51_6*%
X221500000Y-121459583D03*
%TD*%
%TO.C,KiKit_MB_43_9*%
X149500000Y-118833833D03*
%TD*%
%TO.C,KiKit_MB_1_9*%
X75500000Y-53835834D03*
%TD*%
D19*
%TO.C,C4*%
X255500000Y-117951500D03*
X255500000Y-116051500D03*
%TD*%
D11*
%TO.C,KiKit_MB_29_1*%
X75500000Y-118833833D03*
%TD*%
%TO.C,KiKit_MB_23_4*%
X221500000Y-51210084D03*
%TD*%
%TO.C,KiKit_MB_3_3*%
X27082834Y-27001500D03*
%TD*%
%TO.C,KiKit_MB_31_2*%
X26207584Y-99001500D03*
%TD*%
D25*
%TO.C,KiKit_FID_T_4*%
X289000000Y-173503500D03*
%TD*%
D11*
%TO.C,KiKit_MB_40_3*%
X122416166Y-99001500D03*
%TD*%
%TO.C,KiKit_MB_55_2*%
X247459083Y-169001500D03*
%TD*%
D21*
%TO.C,R4*%
X104090000Y-92136000D03*
X104090000Y-90311000D03*
%TD*%
D32*
%TO.C,BT1*%
X126442000Y-159921500D03*
X136602000Y-159921500D03*
%TD*%
D11*
%TO.C,KiKit_MB_41_2*%
X103459083Y-169001500D03*
%TD*%
%TO.C,KiKit_MB_38_9*%
X147500000Y-149169166D03*
%TD*%
%TO.C,KiKit_MB_5_6*%
X27958084Y-97001500D03*
%TD*%
D12*
%TO.C,TP4*%
X7500000Y-51501500D03*
%TD*%
D11*
%TO.C,KiKit_MB_31_9*%
X32334334Y-99001500D03*
%TD*%
%TO.C,KiKit_MB_30_1*%
X75500000Y-142167166D03*
%TD*%
D24*
%TO.C,U3*%
X126309500Y-93189500D03*
X126309500Y-92239500D03*
X126309500Y-91289500D03*
X124034500Y-91289500D03*
X124034500Y-93189500D03*
%TD*%
D11*
%TO.C,KiKit_MB_35_9*%
X77500000Y-118833833D03*
%TD*%
%TO.C,KiKit_MB_12_1*%
X120665666Y-27001500D03*
%TD*%
%TO.C,KiKit_MB_18_1*%
X219500000Y-70167166D03*
%TD*%
%TO.C,KiKit_MB_42_6*%
X123291416Y-169001500D03*
%TD*%
%TO.C,KiKit_MB_30_8*%
X75500000Y-148293916D03*
%TD*%
D24*
%TO.C,U3*%
X126309500Y-165189500D03*
X126309500Y-164239500D03*
X126309500Y-163289500D03*
X124034500Y-163289500D03*
X124034500Y-165189500D03*
%TD*%
D11*
%TO.C,KiKit_MB_16_8*%
X149500000Y-71042416D03*
%TD*%
D30*
%TO.C,R3*%
X61958500Y-95541500D03*
X60133500Y-95541500D03*
%TD*%
D11*
%TO.C,KiKit_MB_21_7*%
X171082833Y-97001500D03*
%TD*%
%TO.C,KiKit_MB_49_4*%
X173708583Y-169001500D03*
%TD*%
%TO.C,KiKit_MB_26_1*%
X264665666Y-27001500D03*
%TD*%
D12*
%TO.C,TP4*%
X151500000Y-51501500D03*
%TD*%
%TO.C,TP4*%
X223500000Y-51501500D03*
%TD*%
D26*
%TO.C,U1*%
X178200000Y-119051500D03*
X177800000Y-119051500D03*
X177400000Y-119051500D03*
X177000000Y-119051500D03*
X176600000Y-119051500D03*
X176200000Y-119051500D03*
X175800000Y-119051500D03*
X175400000Y-119051500D03*
X175000000Y-119051500D03*
X174600000Y-119051500D03*
X174200000Y-119051500D03*
X173800000Y-119051500D03*
D27*
X173050000Y-119801500D03*
X173050000Y-120201500D03*
X173050000Y-120601500D03*
X173050000Y-121001500D03*
X173050000Y-121401500D03*
X173050000Y-121801500D03*
X173050000Y-122201500D03*
X173050000Y-122601500D03*
X173050000Y-123001500D03*
X173050000Y-123401500D03*
X173050000Y-123801500D03*
X173050000Y-124201500D03*
D26*
X173800000Y-124951500D03*
X174200000Y-124951500D03*
X174600000Y-124951500D03*
X175000000Y-124951500D03*
X175400000Y-124951500D03*
X175800000Y-124951500D03*
X176200000Y-124951500D03*
X176600000Y-124951500D03*
X177000000Y-124951500D03*
X177400000Y-124951500D03*
X177800000Y-124951500D03*
X178200000Y-124951500D03*
D27*
X178950000Y-124201500D03*
X178950000Y-123801500D03*
X178950000Y-123401500D03*
X178950000Y-123001500D03*
X178950000Y-122601500D03*
X178950000Y-122201500D03*
X178950000Y-121801500D03*
X178950000Y-121401500D03*
X178950000Y-121001500D03*
X178950000Y-120601500D03*
X178950000Y-120201500D03*
X178950000Y-119801500D03*
D28*
X176000000Y-122001500D03*
%TD*%
D33*
%TO.C,Y1*%
X38400000Y-57351500D03*
X40600000Y-57351500D03*
X40600000Y-55651500D03*
X38400000Y-55651500D03*
%TD*%
D12*
%TO.C,TP5*%
X151500000Y-126041500D03*
%TD*%
D22*
%TO.C,D2*%
X200044500Y-95541500D03*
X201919500Y-95541500D03*
%TD*%
D11*
%TO.C,KiKit_MB_13_8*%
X98207583Y-97001500D03*
%TD*%
%TO.C,KiKit_MB_25_2*%
X242207583Y-27001500D03*
%TD*%
D33*
%TO.C,Y1*%
X110400000Y-129351500D03*
X112600000Y-129351500D03*
X112600000Y-127651500D03*
X110400000Y-127651500D03*
%TD*%
D12*
%TO.C,TP2*%
X79500000Y-131121500D03*
%TD*%
D11*
%TO.C,KiKit_MB_3_4*%
X27958084Y-27001500D03*
%TD*%
%TO.C,KiKit_MB_48_5*%
X196166666Y-99001500D03*
%TD*%
%TO.C,KiKit_MB_31_6*%
X29708584Y-99001500D03*
%TD*%
%TO.C,KiKit_MB_43_7*%
X149500000Y-120584333D03*
%TD*%
%TO.C,KiKit_MB_11_5*%
X100833333Y-27001500D03*
%TD*%
%TO.C,KiKit_MB_26_4*%
X267291416Y-27001500D03*
%TD*%
%TO.C,KiKit_MB_46_5*%
X219500000Y-145668166D03*
%TD*%
%TO.C,KiKit_MB_49_1*%
X176334333Y-169001500D03*
%TD*%
%TO.C,KiKit_MB_47_6*%
X173708583Y-99001500D03*
%TD*%
%TO.C,KiKit_MB_32_3*%
X50416166Y-99001500D03*
%TD*%
%TO.C,KiKit_MB_56_8*%
X265540916Y-169001500D03*
%TD*%
%TO.C,KiKit_MB_1_2*%
X75500000Y-47709084D03*
%TD*%
D19*
%TO.C,C1*%
X180000000Y-129451500D03*
X180000000Y-127551500D03*
%TD*%
D11*
%TO.C,KiKit_MB_12_5*%
X124166666Y-27001500D03*
%TD*%
%TO.C,KiKit_MB_15_3*%
X149500000Y-52085334D03*
%TD*%
%TO.C,KiKit_MB_36_2*%
X77500000Y-148293916D03*
%TD*%
%TO.C,KiKit_MB_19_8*%
X175459083Y-27001500D03*
%TD*%
%TO.C,KiKit_MB_22_5*%
X196166666Y-97001500D03*
%TD*%
%TO.C,KiKit_MB_30_2*%
X75500000Y-143042416D03*
%TD*%
%TO.C,KiKit_MB_38_5*%
X147500000Y-145668166D03*
%TD*%
%TO.C,KiKit_MB_19_4*%
X171958083Y-27001500D03*
%TD*%
D30*
%TO.C,R3*%
X277958500Y-167541500D03*
X276133500Y-167541500D03*
%TD*%
D11*
%TO.C,KiKit_MB_4_6*%
X53041916Y-27001500D03*
%TD*%
%TO.C,KiKit_MB_10_3*%
X147500000Y-71917666D03*
%TD*%
%TO.C,KiKit_MB_10_5*%
X147500000Y-73668166D03*
%TD*%
%TO.C,KiKit_MB_55_6*%
X243958083Y-169001500D03*
%TD*%
%TO.C,KiKit_MB_35_3*%
X77500000Y-124085333D03*
%TD*%
%TO.C,KiKit_MB_6_1*%
X55667666Y-97001500D03*
%TD*%
%TO.C,KiKit_MB_32_9*%
X55667666Y-99001500D03*
%TD*%
%TO.C,KiKit_MB_6_8*%
X49540916Y-97001500D03*
%TD*%
%TO.C,KiKit_MB_32_7*%
X53917166Y-99001500D03*
%TD*%
%TO.C,KiKit_MB_39_3*%
X99082833Y-99001500D03*
%TD*%
D19*
%TO.C,C4*%
X111500000Y-117951500D03*
X111500000Y-116051500D03*
%TD*%
D11*
%TO.C,KiKit_MB_15_7*%
X149500000Y-48584334D03*
%TD*%
%TO.C,KiKit_MB_4_7*%
X53917166Y-27001500D03*
%TD*%
D22*
%TO.C,D2*%
X56044500Y-167541500D03*
X57919500Y-167541500D03*
%TD*%
D11*
%TO.C,KiKit_MB_32_4*%
X51291416Y-99001500D03*
%TD*%
%TO.C,KiKit_MB_40_1*%
X120665666Y-99001500D03*
%TD*%
D26*
%TO.C,U1*%
X34200000Y-47051500D03*
X33800000Y-47051500D03*
X33400000Y-47051500D03*
X33000000Y-47051500D03*
X32600000Y-47051500D03*
X32200000Y-47051500D03*
X31800000Y-47051500D03*
X31400000Y-47051500D03*
X31000000Y-47051500D03*
X30600000Y-47051500D03*
X30200000Y-47051500D03*
X29800000Y-47051500D03*
D27*
X29050000Y-47801500D03*
X29050000Y-48201500D03*
X29050000Y-48601500D03*
X29050000Y-49001500D03*
X29050000Y-49401500D03*
X29050000Y-49801500D03*
X29050000Y-50201500D03*
X29050000Y-50601500D03*
X29050000Y-51001500D03*
X29050000Y-51401500D03*
X29050000Y-51801500D03*
X29050000Y-52201500D03*
D26*
X29800000Y-52951500D03*
X30200000Y-52951500D03*
X30600000Y-52951500D03*
X31000000Y-52951500D03*
X31400000Y-52951500D03*
X31800000Y-52951500D03*
X32200000Y-52951500D03*
X32600000Y-52951500D03*
X33000000Y-52951500D03*
X33400000Y-52951500D03*
X33800000Y-52951500D03*
X34200000Y-52951500D03*
D27*
X34950000Y-52201500D03*
X34950000Y-51801500D03*
X34950000Y-51401500D03*
X34950000Y-51001500D03*
X34950000Y-50601500D03*
X34950000Y-50201500D03*
X34950000Y-49801500D03*
X34950000Y-49401500D03*
X34950000Y-49001500D03*
X34950000Y-48601500D03*
X34950000Y-48201500D03*
X34950000Y-47801500D03*
D28*
X32000000Y-50001500D03*
%TD*%
D11*
%TO.C,KiKit_MB_36_4*%
X77500000Y-146543416D03*
%TD*%
%TO.C,KiKit_MB_51_1*%
X221500000Y-125835833D03*
%TD*%
D10*
%TO.C,C9*%
X248450000Y-44001500D03*
X246550000Y-44001500D03*
%TD*%
D11*
%TO.C,KiKit_MB_55_3*%
X246583833Y-169001500D03*
%TD*%
%TO.C,KiKit_MB_14_4*%
X125041916Y-97001500D03*
%TD*%
D24*
%TO.C,U3*%
X198309500Y-93189500D03*
X198309500Y-92239500D03*
X198309500Y-91289500D03*
X196034500Y-91289500D03*
X196034500Y-93189500D03*
%TD*%
D11*
%TO.C,KiKit_MB_33_7*%
X27082834Y-169001500D03*
%TD*%
D12*
%TO.C,TP4*%
X7500000Y-123501500D03*
%TD*%
%TO.C,TP2*%
X223500000Y-59121500D03*
%TD*%
D11*
%TO.C,KiKit_MB_2_7*%
X75500000Y-75418666D03*
%TD*%
D21*
%TO.C,R4*%
X248090000Y-164136000D03*
X248090000Y-162311000D03*
%TD*%
D11*
%TO.C,KiKit_MB_52_9*%
X221500000Y-142167166D03*
%TD*%
D12*
%TO.C,TP5*%
X7500000Y-126041500D03*
%TD*%
D10*
%TO.C,C10*%
X99950000Y-116031500D03*
X98050000Y-116031500D03*
%TD*%
D20*
%TO.C,C12*%
X56982000Y-91289500D03*
X56982000Y-93189500D03*
%TD*%
D29*
%TO.C,R2*%
X52005500Y-95541500D03*
X53830500Y-95541500D03*
%TD*%
D11*
%TO.C,KiKit_MB_42_4*%
X125041916Y-169001500D03*
%TD*%
%TO.C,KiKit_MB_24_3*%
X221500000Y-75418666D03*
%TD*%
%TO.C,KiKit_MB_42_2*%
X126792416Y-169001500D03*
%TD*%
D19*
%TO.C,C13*%
X192854000Y-95729500D03*
X192854000Y-93829500D03*
%TD*%
D11*
%TO.C,KiKit_MB_53_8*%
X247459083Y-99001500D03*
%TD*%
D20*
%TO.C,C2*%
X43000000Y-127551500D03*
X43000000Y-129451500D03*
%TD*%
D11*
%TO.C,KiKit_MB_30_3*%
X75500000Y-143917666D03*
%TD*%
D33*
%TO.C,Y1*%
X182400000Y-57351500D03*
X184600000Y-57351500D03*
X184600000Y-55651500D03*
X182400000Y-55651500D03*
%TD*%
D24*
%TO.C,U3*%
X54309500Y-93189500D03*
X54309500Y-92239500D03*
X54309500Y-91289500D03*
X52034500Y-91289500D03*
X52034500Y-93189500D03*
%TD*%
D11*
%TO.C,KiKit_MB_9_5*%
X147500000Y-50334834D03*
%TD*%
%TO.C,KiKit_MB_37_1*%
X147500000Y-118833833D03*
%TD*%
%TO.C,KiKit_MB_19_7*%
X174583833Y-27001500D03*
%TD*%
D29*
%TO.C,R2*%
X268005500Y-167541500D03*
X269830500Y-167541500D03*
%TD*%
D11*
%TO.C,KiKit_MB_10_7*%
X147500000Y-75418666D03*
%TD*%
%TO.C,KiKit_MB_50_9*%
X192665666Y-169001500D03*
%TD*%
D10*
%TO.C,C7*%
X248950000Y-56001500D03*
X247050000Y-56001500D03*
%TD*%
D11*
%TO.C,KiKit_MB_10_6*%
X147500000Y-74543416D03*
%TD*%
%TO.C,KiKit_MB_20_2*%
X193540916Y-27001500D03*
%TD*%
%TO.C,KiKit_MB_41_4*%
X101708583Y-169001500D03*
%TD*%
D31*
%TO.C,R5*%
X192854000Y-90311000D03*
X192854000Y-92136000D03*
%TD*%
D11*
%TO.C,KiKit_MB_26_6*%
X269041916Y-27001500D03*
%TD*%
%TO.C,KiKit_MB_5_1*%
X32334334Y-97001500D03*
%TD*%
%TO.C,KiKit_MB_16_1*%
X149500000Y-77169166D03*
%TD*%
D29*
%TO.C,R2*%
X196005500Y-167541500D03*
X197830500Y-167541500D03*
%TD*%
D13*
%TO.C,C8*%
X107050000Y-44001500D03*
X108950000Y-44001500D03*
%TD*%
D11*
%TO.C,KiKit_MB_8_1*%
X77500000Y-77169166D03*
%TD*%
%TO.C,KiKit_MB_37_4*%
X147500000Y-121459583D03*
%TD*%
%TO.C,KiKit_MB_1_1*%
X75500000Y-46833834D03*
%TD*%
%TO.C,KiKit_MB_25_6*%
X245708583Y-27001500D03*
%TD*%
%TO.C,KiKit_MB_53_2*%
X242207583Y-99001500D03*
%TD*%
%TO.C,KiKit_MB_5_4*%
X29708584Y-97001500D03*
%TD*%
D31*
%TO.C,R5*%
X264854000Y-162311000D03*
X264854000Y-164136000D03*
%TD*%
D11*
%TO.C,KiKit_MB_34_4*%
X53041916Y-169001500D03*
%TD*%
%TO.C,KiKit_MB_52_1*%
X221500000Y-149169166D03*
%TD*%
D12*
%TO.C,TP2*%
X151500000Y-59121500D03*
%TD*%
D33*
%TO.C,Y1*%
X38400000Y-129351500D03*
X40600000Y-129351500D03*
X40600000Y-127651500D03*
X38400000Y-127651500D03*
%TD*%
D14*
%TO.C,J1*%
X253610000Y-163896500D03*
X259390000Y-163896500D03*
D15*
X253300000Y-162821500D03*
X254100000Y-162821500D03*
D16*
X255250000Y-162821500D03*
X256250000Y-162821500D03*
X256750000Y-162821500D03*
X257750000Y-162821500D03*
D15*
X258900000Y-162821500D03*
X259700000Y-162821500D03*
X259700000Y-162821500D03*
X258900000Y-162821500D03*
D16*
X258250000Y-162821500D03*
X257250000Y-162821500D03*
X255750000Y-162821500D03*
X254750000Y-162821500D03*
D15*
X254100000Y-162821500D03*
X253300000Y-162821500D03*
D17*
X252180000Y-163396500D03*
D18*
X252180000Y-167576500D03*
D17*
X260820000Y-163396500D03*
D18*
X260820000Y-167576500D03*
%TD*%
D11*
%TO.C,KiKit_MB_45_5*%
X219500000Y-122334833D03*
%TD*%
D12*
%TO.C,TP3*%
X151500000Y-56581500D03*
%TD*%
D11*
%TO.C,KiKit_MB_7_5*%
X77500000Y-50334834D03*
%TD*%
D13*
%TO.C,C8*%
X35050000Y-116001500D03*
X36950000Y-116001500D03*
%TD*%
D11*
%TO.C,KiKit_MB_24_7*%
X221500000Y-71917666D03*
%TD*%
D32*
%TO.C,BT1*%
X54442000Y-159921500D03*
X64602000Y-159921500D03*
%TD*%
D11*
%TO.C,KiKit_MB_37_5*%
X147500000Y-122334833D03*
%TD*%
%TO.C,KiKit_MB_18_3*%
X219500000Y-71917666D03*
%TD*%
%TO.C,KiKit_MB_33_9*%
X25332334Y-169001500D03*
%TD*%
D19*
%TO.C,C13*%
X120854000Y-167729500D03*
X120854000Y-165829500D03*
%TD*%
D11*
%TO.C,KiKit_MB_22_1*%
X199667666Y-97001500D03*
%TD*%
D31*
%TO.C,R1*%
X242000000Y-61089000D03*
X242000000Y-62914000D03*
%TD*%
D11*
%TO.C,KiKit_MB_19_9*%
X176334333Y-27001500D03*
%TD*%
%TO.C,KiKit_MB_51_2*%
X221500000Y-124960583D03*
%TD*%
%TO.C,KiKit_MB_47_2*%
X170207583Y-99001500D03*
%TD*%
%TO.C,KiKit_MB_41_1*%
X104334333Y-169001500D03*
%TD*%
%TO.C,KiKit_MB_41_5*%
X100833333Y-169001500D03*
%TD*%
D20*
%TO.C,C12*%
X200982000Y-163289500D03*
X200982000Y-165189500D03*
%TD*%
D11*
%TO.C,KiKit_MB_51_5*%
X221500000Y-122334833D03*
%TD*%
D20*
%TO.C,C11*%
X280602000Y-91289500D03*
X280602000Y-93189500D03*
%TD*%
D11*
%TO.C,KiKit_MB_10_1*%
X147500000Y-70167166D03*
%TD*%
D10*
%TO.C,C9*%
X32450000Y-44001500D03*
X30550000Y-44001500D03*
%TD*%
D19*
%TO.C,C13*%
X264854000Y-95729500D03*
X264854000Y-93829500D03*
%TD*%
D33*
%TO.C,Y1*%
X110400000Y-57351500D03*
X112600000Y-57351500D03*
X112600000Y-55651500D03*
X110400000Y-55651500D03*
%TD*%
D19*
%TO.C,C3*%
X253000000Y-51951500D03*
X253000000Y-50051500D03*
%TD*%
D11*
%TO.C,KiKit_MB_36_6*%
X77500000Y-144792916D03*
%TD*%
%TO.C,KiKit_MB_56_7*%
X266416166Y-169001500D03*
%TD*%
D30*
%TO.C,R3*%
X205958500Y-95541500D03*
X204133500Y-95541500D03*
%TD*%
D11*
%TO.C,KiKit_MB_39_7*%
X102583833Y-99001500D03*
%TD*%
D20*
%TO.C,C11*%
X208602000Y-91289500D03*
X208602000Y-93189500D03*
%TD*%
D11*
%TO.C,KiKit_MB_27_6*%
X243958083Y-97001500D03*
%TD*%
%TO.C,KiKit_MB_10_8*%
X147500000Y-76293916D03*
%TD*%
D14*
%TO.C,J1*%
X37610000Y-163896500D03*
X43390000Y-163896500D03*
D15*
X37300000Y-162821500D03*
X38100000Y-162821500D03*
D16*
X39250000Y-162821500D03*
X40250000Y-162821500D03*
X40750000Y-162821500D03*
X41750000Y-162821500D03*
D15*
X42900000Y-162821500D03*
X43700000Y-162821500D03*
X43700000Y-162821500D03*
X42900000Y-162821500D03*
D16*
X42250000Y-162821500D03*
X41250000Y-162821500D03*
X39750000Y-162821500D03*
X38750000Y-162821500D03*
D15*
X38100000Y-162821500D03*
X37300000Y-162821500D03*
D17*
X36180000Y-163396500D03*
D18*
X36180000Y-167576500D03*
D17*
X44820000Y-163396500D03*
D18*
X44820000Y-167576500D03*
%TD*%
D11*
%TO.C,KiKit_MB_23_7*%
X221500000Y-48584334D03*
%TD*%
D20*
%TO.C,C12*%
X272982000Y-91289500D03*
X272982000Y-93189500D03*
%TD*%
D11*
%TO.C,KiKit_MB_45_2*%
X219500000Y-119709083D03*
%TD*%
%TO.C,KiKit_MB_15_9*%
X149500000Y-46833834D03*
%TD*%
%TO.C,KiKit_MB_22_2*%
X198792416Y-97001500D03*
%TD*%
%TO.C,KiKit_MB_17_3*%
X219500000Y-48584334D03*
%TD*%
%TO.C,KiKit_MB_4_9*%
X55667666Y-27001500D03*
%TD*%
%TO.C,KiKit_MB_44_5*%
X149500000Y-145668166D03*
%TD*%
%TO.C,KiKit_MB_37_7*%
X147500000Y-124085333D03*
%TD*%
D31*
%TO.C,R5*%
X48854000Y-90311000D03*
X48854000Y-92136000D03*
%TD*%
D11*
%TO.C,KiKit_MB_50_6*%
X195291416Y-169001500D03*
%TD*%
%TO.C,KiKit_MB_49_2*%
X175459083Y-169001500D03*
%TD*%
%TO.C,KiKit_MB_33_6*%
X27958084Y-169001500D03*
%TD*%
%TO.C,KiKit_MB_36_7*%
X77500000Y-143917666D03*
%TD*%
%TO.C,KiKit_MB_14_9*%
X120665666Y-97001500D03*
%TD*%
%TO.C,KiKit_MB_29_5*%
X75500000Y-122334833D03*
%TD*%
%TO.C,KiKit_MB_31_7*%
X30583834Y-99001500D03*
%TD*%
%TO.C,KiKit_MB_10_4*%
X147500000Y-72792916D03*
%TD*%
%TO.C,KiKit_MB_39_9*%
X104334333Y-99001500D03*
%TD*%
%TO.C,KiKit_MB_24_6*%
X221500000Y-72792916D03*
%TD*%
D20*
%TO.C,C11*%
X208602000Y-163289500D03*
X208602000Y-165189500D03*
%TD*%
D11*
%TO.C,KiKit_MB_43_5*%
X149500000Y-122334833D03*
%TD*%
D25*
%TO.C,KiKit_FID_T_3*%
X8000000Y-173503500D03*
%TD*%
D33*
%TO.C,Y1*%
X254400000Y-129351500D03*
X256600000Y-129351500D03*
X256600000Y-127651500D03*
X254400000Y-127651500D03*
%TD*%
D20*
%TO.C,C2*%
X115000000Y-55551500D03*
X115000000Y-57451500D03*
%TD*%
D11*
%TO.C,KiKit_MB_7_4*%
X77500000Y-51210084D03*
%TD*%
%TO.C,KiKit_MB_25_4*%
X243958083Y-27001500D03*
%TD*%
%TO.C,KiKit_MB_51_7*%
X221500000Y-120584333D03*
%TD*%
%TO.C,KiKit_MB_41_3*%
X102583833Y-169001500D03*
%TD*%
%TO.C,KiKit_MB_45_7*%
X219500000Y-124085333D03*
%TD*%
%TO.C,KiKit_MB_44_6*%
X149500000Y-144792916D03*
%TD*%
D12*
%TO.C,TP4*%
X79500000Y-51501500D03*
%TD*%
D11*
%TO.C,KiKit_MB_7_1*%
X77500000Y-53835834D03*
%TD*%
D30*
%TO.C,R3*%
X61958500Y-167541500D03*
X60133500Y-167541500D03*
%TD*%
D29*
%TO.C,R2*%
X52005500Y-167541500D03*
X53830500Y-167541500D03*
%TD*%
D11*
%TO.C,KiKit_MB_15_4*%
X149500000Y-51210084D03*
%TD*%
%TO.C,KiKit_MB_9_4*%
X147500000Y-49459584D03*
%TD*%
D29*
%TO.C,R2*%
X124005500Y-95541500D03*
X125830500Y-95541500D03*
%TD*%
D11*
%TO.C,KiKit_MB_39_1*%
X97332333Y-99001500D03*
%TD*%
%TO.C,KiKit_MB_2_1*%
X75500000Y-70167166D03*
%TD*%
%TO.C,KiKit_MB_49_6*%
X171958083Y-169001500D03*
%TD*%
%TO.C,KiKit_MB_28_5*%
X268166666Y-97001500D03*
%TD*%
%TO.C,KiKit_MB_48_2*%
X193540916Y-99001500D03*
%TD*%
D19*
%TO.C,C5*%
X169500000Y-120451500D03*
X169500000Y-118551500D03*
%TD*%
D30*
%TO.C,R3*%
X133958500Y-95541500D03*
X132133500Y-95541500D03*
%TD*%
D11*
%TO.C,KiKit_MB_43_8*%
X149500000Y-119709083D03*
%TD*%
%TO.C,KiKit_MB_7_6*%
X77500000Y-49459584D03*
%TD*%
D19*
%TO.C,C5*%
X97500000Y-48451500D03*
X97500000Y-46551500D03*
%TD*%
D20*
%TO.C,C12*%
X56982000Y-163289500D03*
X56982000Y-165189500D03*
%TD*%
D11*
%TO.C,KiKit_MB_40_6*%
X125041916Y-99001500D03*
%TD*%
%TO.C,KiKit_MB_54_3*%
X266416166Y-99001500D03*
%TD*%
%TO.C,KiKit_MB_17_9*%
X219500000Y-53835834D03*
%TD*%
D24*
%TO.C,U3*%
X54309500Y-165189500D03*
X54309500Y-164239500D03*
X54309500Y-163289500D03*
X52034500Y-163289500D03*
X52034500Y-165189500D03*
%TD*%
D11*
%TO.C,KiKit_MB_4_8*%
X54792416Y-27001500D03*
%TD*%
%TO.C,KiKit_MB_5_9*%
X25332334Y-97001500D03*
%TD*%
%TO.C,KiKit_MB_29_8*%
X75500000Y-124960583D03*
%TD*%
%TO.C,KiKit_MB_27_2*%
X247459083Y-97001500D03*
%TD*%
D10*
%TO.C,C10*%
X27950000Y-44031500D03*
X26050000Y-44031500D03*
%TD*%
D12*
%TO.C,TP1*%
X159120000Y-131121500D03*
%TD*%
D11*
%TO.C,KiKit_MB_12_6*%
X125041916Y-27001500D03*
%TD*%
%TO.C,KiKit_MB_49_8*%
X170207583Y-169001500D03*
%TD*%
%TO.C,KiKit_MB_43_4*%
X149500000Y-123210083D03*
%TD*%
%TO.C,KiKit_MB_40_2*%
X121540916Y-99001500D03*
%TD*%
%TO.C,KiKit_MB_31_3*%
X27082834Y-99001500D03*
%TD*%
%TO.C,KiKit_MB_20_6*%
X197041916Y-27001500D03*
%TD*%
D22*
%TO.C,D2*%
X272044500Y-95541500D03*
X273919500Y-95541500D03*
%TD*%
D11*
%TO.C,KiKit_MB_48_4*%
X195291416Y-99001500D03*
%TD*%
%TO.C,KiKit_MB_3_6*%
X29708584Y-27001500D03*
%TD*%
D23*
%TO.C,U2*%
X203654500Y-91289500D03*
X203654500Y-92239500D03*
X203654500Y-93189500D03*
X205929500Y-93189500D03*
X205929500Y-91289500D03*
%TD*%
D11*
%TO.C,KiKit_MB_46_1*%
X219500000Y-142167166D03*
%TD*%
%TO.C,KiKit_MB_16_4*%
X149500000Y-74543416D03*
%TD*%
D20*
%TO.C,C12*%
X128982000Y-91289500D03*
X128982000Y-93189500D03*
%TD*%
D11*
%TO.C,KiKit_MB_18_8*%
X219500000Y-76293916D03*
%TD*%
D13*
%TO.C,C8*%
X179050000Y-44001500D03*
X180950000Y-44001500D03*
%TD*%
D11*
%TO.C,KiKit_MB_29_2*%
X75500000Y-119709083D03*
%TD*%
D10*
%TO.C,C7*%
X104950000Y-128001500D03*
X103050000Y-128001500D03*
%TD*%
D11*
%TO.C,KiKit_MB_23_6*%
X221500000Y-49459584D03*
%TD*%
%TO.C,KiKit_MB_26_9*%
X271667666Y-27001500D03*
%TD*%
%TO.C,KiKit_MB_44_7*%
X149500000Y-143917666D03*
%TD*%
%TO.C,KiKit_MB_4_5*%
X52166666Y-27001500D03*
%TD*%
%TO.C,KiKit_MB_55_5*%
X244833333Y-169001500D03*
%TD*%
%TO.C,KiKit_MB_22_3*%
X197917166Y-97001500D03*
%TD*%
D10*
%TO.C,C10*%
X243950000Y-44031500D03*
X242050000Y-44031500D03*
%TD*%
D11*
%TO.C,KiKit_MB_49_5*%
X172833333Y-169001500D03*
%TD*%
D20*
%TO.C,C2*%
X259000000Y-127551500D03*
X259000000Y-129451500D03*
%TD*%
D11*
%TO.C,KiKit_MB_39_2*%
X98207583Y-99001500D03*
%TD*%
%TO.C,KiKit_MB_4_3*%
X50416166Y-27001500D03*
%TD*%
D20*
%TO.C,C2*%
X259000000Y-55551500D03*
X259000000Y-57451500D03*
%TD*%
D31*
%TO.C,R1*%
X242000000Y-133089000D03*
X242000000Y-134914000D03*
%TD*%
D14*
%TO.C,J1*%
X181610000Y-163896500D03*
X187390000Y-163896500D03*
D15*
X181300000Y-162821500D03*
X182100000Y-162821500D03*
D16*
X183250000Y-162821500D03*
X184250000Y-162821500D03*
X184750000Y-162821500D03*
X185750000Y-162821500D03*
D15*
X186900000Y-162821500D03*
X187700000Y-162821500D03*
X187700000Y-162821500D03*
X186900000Y-162821500D03*
D16*
X186250000Y-162821500D03*
X185250000Y-162821500D03*
X183750000Y-162821500D03*
X182750000Y-162821500D03*
D15*
X182100000Y-162821500D03*
X181300000Y-162821500D03*
D17*
X180180000Y-163396500D03*
D18*
X180180000Y-167576500D03*
D17*
X188820000Y-163396500D03*
D18*
X188820000Y-167576500D03*
%TD*%
D12*
%TO.C,TP1*%
X15120000Y-59121500D03*
%TD*%
D11*
%TO.C,KiKit_MB_52_6*%
X221500000Y-144792916D03*
%TD*%
%TO.C,KiKit_MB_15_5*%
X149500000Y-50334834D03*
%TD*%
D30*
%TO.C,R3*%
X133958500Y-167541500D03*
X132133500Y-167541500D03*
%TD*%
D11*
%TO.C,KiKit_MB_47_5*%
X172833333Y-99001500D03*
%TD*%
%TO.C,KiKit_MB_10_2*%
X147500000Y-71042416D03*
%TD*%
%TO.C,KiKit_MB_47_8*%
X175459083Y-99001500D03*
%TD*%
%TO.C,KiKit_MB_36_9*%
X77500000Y-142167166D03*
%TD*%
D23*
%TO.C,U2*%
X275654500Y-163289500D03*
X275654500Y-164239500D03*
X275654500Y-165189500D03*
X277929500Y-165189500D03*
X277929500Y-163289500D03*
%TD*%
D11*
%TO.C,KiKit_MB_53_6*%
X245708583Y-99001500D03*
%TD*%
%TO.C,KiKit_MB_18_6*%
X219500000Y-74543416D03*
%TD*%
%TO.C,KiKit_MB_30_7*%
X75500000Y-147418666D03*
%TD*%
D19*
%TO.C,C3*%
X109000000Y-51951500D03*
X109000000Y-50051500D03*
%TD*%
D11*
%TO.C,KiKit_MB_37_6*%
X147500000Y-123210083D03*
%TD*%
D23*
%TO.C,U2*%
X203654500Y-163289500D03*
X203654500Y-164239500D03*
X203654500Y-165189500D03*
X205929500Y-165189500D03*
X205929500Y-163289500D03*
%TD*%
D12*
%TO.C,TP1*%
X15120000Y-131121500D03*
%TD*%
D20*
%TO.C,C12*%
X272982000Y-163289500D03*
X272982000Y-165189500D03*
%TD*%
D11*
%TO.C,KiKit_MB_8_8*%
X77500000Y-71042416D03*
%TD*%
D10*
%TO.C,C7*%
X176950000Y-56001500D03*
X175050000Y-56001500D03*
%TD*%
D11*
%TO.C,KiKit_MB_27_5*%
X244833333Y-97001500D03*
%TD*%
%TO.C,KiKit_MB_44_8*%
X149500000Y-143042416D03*
%TD*%
%TO.C,KiKit_MB_46_3*%
X219500000Y-143917666D03*
%TD*%
D21*
%TO.C,R4*%
X32090000Y-164136000D03*
X32090000Y-162311000D03*
%TD*%
D11*
%TO.C,KiKit_MB_28_9*%
X264665666Y-97001500D03*
%TD*%
D19*
%TO.C,C13*%
X120854000Y-95729500D03*
X120854000Y-93829500D03*
%TD*%
D11*
%TO.C,KiKit_MB_1_4*%
X75500000Y-49459584D03*
%TD*%
D20*
%TO.C,C6*%
X255500000Y-48051500D03*
X255500000Y-49951500D03*
%TD*%
D32*
%TO.C,BT1*%
X126442000Y-87921500D03*
X136602000Y-87921500D03*
%TD*%
D19*
%TO.C,C3*%
X181000000Y-123951500D03*
X181000000Y-122051500D03*
%TD*%
D11*
%TO.C,KiKit_MB_19_2*%
X170207583Y-27001500D03*
%TD*%
%TO.C,KiKit_MB_2_9*%
X75500000Y-77169166D03*
%TD*%
%TO.C,KiKit_MB_9_2*%
X147500000Y-47709084D03*
%TD*%
D21*
%TO.C,R4*%
X32090000Y-92136000D03*
X32090000Y-90311000D03*
%TD*%
D11*
%TO.C,KiKit_MB_5_7*%
X27082834Y-97001500D03*
%TD*%
%TO.C,KiKit_MB_8_7*%
X77500000Y-71917666D03*
%TD*%
%TO.C,KiKit_MB_25_3*%
X243082833Y-27001500D03*
%TD*%
%TO.C,KiKit_MB_53_4*%
X243958083Y-99001500D03*
%TD*%
M02*
