%TF.GenerationSoftware,KiCad,Pcbnew,8.0.3-8.0.3-0~ubuntu24.04.1*%
%TF.CreationDate,2024-06-13T23:21:10+05:00*%
%TF.ProjectId,solartap_mcu_clear_60x60_g400,736f6c61-7274-4617-905f-6d63755f636c,rev?*%
%TF.SameCoordinates,Original*%
%TF.FileFunction,Copper,L2,Bot*%
%TF.FilePolarity,Positive*%
%FSLAX46Y46*%
G04 Gerber Fmt 4.6, Leading zero omitted, Abs format (unit mm)*
G04 Created by KiCad (PCBNEW 8.0.3-8.0.3-0~ubuntu24.04.1) date 2024-06-13 23:21:10*
%MOMM*%
%LPD*%
G01*
G04 APERTURE LIST*
%TA.AperFunction,ViaPad*%
%ADD10C,0.600000*%
%TD*%
%TA.AperFunction,Conductor*%
%ADD11C,1.000000*%
%TD*%
%TA.AperFunction,Conductor*%
%ADD12C,0.200000*%
%TD*%
G04 APERTURE END LIST*
D10*
%TO.N,Net-(U1-NFC1{slash}P0.09)*%
X87400000Y-55100000D03*
X72000000Y-42500000D03*
%TO.N,+3.3V*%
X82000000Y-61000000D03*
X91500000Y-66000000D03*
X91500000Y-61000000D03*
X83000000Y-76500000D03*
X107000000Y-76500000D03*
%TO.N,GND*%
X88000000Y-61500000D03*
X100000000Y-105000000D03*
X92000000Y-71000000D03*
X88000000Y-64500000D03*
X100000000Y-109000000D03*
X87000000Y-58500000D03*
X90500000Y-58500000D03*
X85000000Y-61500000D03*
X82000000Y-58500000D03*
%TD*%
D11*
%TO.N,Net-(U1-NFC1{slash}P0.09)*%
X112600000Y-90100000D02*
X112600000Y-55100000D01*
X77600000Y-55100000D02*
X77600000Y-90100000D01*
X83200000Y-55100000D02*
X77600000Y-55100000D01*
X77600000Y-90100000D02*
X112600000Y-90100000D01*
X112600000Y-55100000D02*
X87400000Y-55100000D01*
X119600000Y-97100000D02*
X119600000Y-48100000D01*
X70600000Y-97100000D02*
X119600000Y-97100000D01*
X77600000Y-48100000D02*
X70600000Y-48100000D01*
X123800000Y-43900000D02*
X76200000Y-43900000D01*
X66400000Y-43900000D02*
X66400000Y-101300000D01*
X122400000Y-99900000D02*
X122400000Y-45300000D01*
X121000000Y-46700000D02*
X79000000Y-46700000D01*
X67800000Y-45300000D02*
X67800000Y-99900000D01*
X74800000Y-42500000D02*
X73400000Y-43900000D01*
X69200000Y-98500000D02*
X121000000Y-98500000D01*
X81800000Y-52300000D02*
X74800000Y-52300000D01*
X69200000Y-46700000D02*
X69200000Y-98500000D01*
X76200000Y-46700000D02*
X69200000Y-46700000D01*
X114000000Y-91500000D02*
X114000000Y-53700000D01*
X77600000Y-45300000D02*
X76200000Y-46700000D01*
X122400000Y-45300000D02*
X77600000Y-45300000D01*
X70600000Y-48100000D02*
X70600000Y-97100000D01*
X65000000Y-102500000D02*
X125000000Y-102500000D01*
X67800000Y-99900000D02*
X122400000Y-99900000D01*
X79000000Y-46700000D02*
X77600000Y-48100000D01*
X72000000Y-42500000D02*
X65000000Y-42500000D01*
X65000000Y-42500000D02*
X65000000Y-102500000D01*
X119600000Y-48100000D02*
X80400000Y-48100000D01*
X66400000Y-101300000D02*
X123800000Y-101300000D01*
X125000000Y-102500000D02*
X125000000Y-42500000D01*
X73400000Y-43900000D02*
X66400000Y-43900000D01*
X86000000Y-53700000D02*
X84600000Y-55100000D01*
X125000000Y-42500000D02*
X74800000Y-42500000D01*
X74800000Y-92900000D02*
X115400000Y-92900000D01*
X121000000Y-98500000D02*
X121000000Y-46700000D01*
X123800000Y-101300000D02*
X123800000Y-43900000D01*
X74800000Y-52300000D02*
X74800000Y-92900000D01*
X76200000Y-43900000D02*
X74800000Y-45300000D01*
X72000000Y-95700000D02*
X118200000Y-95700000D01*
X116800000Y-94300000D02*
X116800000Y-50900000D01*
X114000000Y-53700000D02*
X86000000Y-53700000D01*
X74800000Y-45300000D02*
X67800000Y-45300000D01*
X80400000Y-48100000D02*
X79000000Y-49500000D01*
X79000000Y-49500000D02*
X72000000Y-49500000D01*
X72000000Y-49500000D02*
X72000000Y-95700000D01*
X118200000Y-95700000D02*
X118200000Y-49500000D01*
X116800000Y-50900000D02*
X83200000Y-50900000D01*
X118200000Y-49500000D02*
X81800000Y-49500000D01*
X83200000Y-50900000D02*
X81800000Y-52300000D01*
X81800000Y-49500000D02*
X80400000Y-50900000D01*
X80400000Y-50900000D02*
X73400000Y-50900000D01*
X73400000Y-50900000D02*
X73400000Y-94300000D01*
X73400000Y-94300000D02*
X116800000Y-94300000D01*
X76200000Y-91500000D02*
X114000000Y-91500000D01*
X115400000Y-92900000D02*
X115400000Y-52300000D01*
X115400000Y-52300000D02*
X84600000Y-52300000D01*
X84600000Y-52300000D02*
X83200000Y-53700000D01*
X83200000Y-53700000D02*
X76200000Y-53700000D01*
X76200000Y-53700000D02*
X76200000Y-91500000D01*
X84600000Y-55100000D02*
X83200000Y-55100000D01*
X71900000Y-42500000D02*
X72000000Y-42500000D01*
D12*
%TO.N,+3.3V*%
X91500000Y-66000000D02*
X95000000Y-69500000D01*
X95000000Y-76500000D02*
X107000000Y-76500000D01*
X91500000Y-62000000D02*
X91500000Y-66000000D01*
X95000000Y-69500000D02*
X95000000Y-76500000D01*
X91500000Y-61000000D02*
X91500000Y-62000000D01*
X83100000Y-62100000D02*
X91400000Y-62100000D01*
X82000000Y-61000000D02*
X83100000Y-62100000D01*
X91400000Y-62100000D02*
X91500000Y-62000000D01*
X107000000Y-76500000D02*
X83000000Y-76500000D01*
%TO.N,GND*%
X100000000Y-105000000D02*
X100000000Y-109000000D01*
X92000000Y-68500000D02*
X92000000Y-71000000D01*
X88000000Y-64500000D02*
X92000000Y-68500000D01*
X88000000Y-61500000D02*
X90500000Y-59000000D01*
X85000000Y-61500000D02*
X85000000Y-58500000D01*
X84000000Y-58500000D02*
X87000000Y-58500000D01*
X90500000Y-59000000D02*
X90500000Y-58500000D01*
X82000000Y-58500000D02*
X84000000Y-58500000D01*
%TD*%
M02*
