%TF.GenerationSoftware,KiCad,Pcbnew,8.0.3-8.0.3-0~ubuntu24.04.1*%
%TF.CreationDate,2024-06-13T23:12:47+05:00*%
%TF.ProjectId,solartap_mcu_clear_60x60_g250,736f6c61-7274-4617-905f-6d63755f636c,rev?*%
%TF.SameCoordinates,Original*%
%TF.FileFunction,Legend,Top*%
%TF.FilePolarity,Positive*%
%FSLAX46Y46*%
G04 Gerber Fmt 4.6, Leading zero omitted, Abs format (unit mm)*
G04 Created by KiCad (PCBNEW 8.0.3-8.0.3-0~ubuntu24.04.1) date 2024-06-13 23:12:47*
%MOMM*%
%LPD*%
G01*
G04 APERTURE LIST*
%ADD10C,0.100000*%
%ADD11C,0.150000*%
%ADD12C,0.120000*%
G04 APERTURE END LIST*
D10*
X100827693Y-57670038D02*
X100732455Y-57622419D01*
X100732455Y-57622419D02*
X100589598Y-57622419D01*
X100589598Y-57622419D02*
X100446741Y-57670038D01*
X100446741Y-57670038D02*
X100351503Y-57765276D01*
X100351503Y-57765276D02*
X100303884Y-57860514D01*
X100303884Y-57860514D02*
X100256265Y-58050990D01*
X100256265Y-58050990D02*
X100256265Y-58193847D01*
X100256265Y-58193847D02*
X100303884Y-58384323D01*
X100303884Y-58384323D02*
X100351503Y-58479561D01*
X100351503Y-58479561D02*
X100446741Y-58574800D01*
X100446741Y-58574800D02*
X100589598Y-58622419D01*
X100589598Y-58622419D02*
X100684836Y-58622419D01*
X100684836Y-58622419D02*
X100827693Y-58574800D01*
X100827693Y-58574800D02*
X100875312Y-58527180D01*
X100875312Y-58527180D02*
X100875312Y-58193847D01*
X100875312Y-58193847D02*
X100684836Y-58193847D01*
X101303884Y-58098609D02*
X102065789Y-58098609D01*
X102065789Y-58384323D02*
X101303884Y-58384323D01*
X102494360Y-57717657D02*
X102541979Y-57670038D01*
X102541979Y-57670038D02*
X102637217Y-57622419D01*
X102637217Y-57622419D02*
X102875312Y-57622419D01*
X102875312Y-57622419D02*
X102970550Y-57670038D01*
X102970550Y-57670038D02*
X103018169Y-57717657D01*
X103018169Y-57717657D02*
X103065788Y-57812895D01*
X103065788Y-57812895D02*
X103065788Y-57908133D01*
X103065788Y-57908133D02*
X103018169Y-58050990D01*
X103018169Y-58050990D02*
X102446741Y-58622419D01*
X102446741Y-58622419D02*
X103065788Y-58622419D01*
X103970550Y-57622419D02*
X103494360Y-57622419D01*
X103494360Y-57622419D02*
X103446741Y-58098609D01*
X103446741Y-58098609D02*
X103494360Y-58050990D01*
X103494360Y-58050990D02*
X103589598Y-58003371D01*
X103589598Y-58003371D02*
X103827693Y-58003371D01*
X103827693Y-58003371D02*
X103922931Y-58050990D01*
X103922931Y-58050990D02*
X103970550Y-58098609D01*
X103970550Y-58098609D02*
X104018169Y-58193847D01*
X104018169Y-58193847D02*
X104018169Y-58431942D01*
X104018169Y-58431942D02*
X103970550Y-58527180D01*
X103970550Y-58527180D02*
X103922931Y-58574800D01*
X103922931Y-58574800D02*
X103827693Y-58622419D01*
X103827693Y-58622419D02*
X103589598Y-58622419D01*
X103589598Y-58622419D02*
X103494360Y-58574800D01*
X103494360Y-58574800D02*
X103446741Y-58527180D01*
X104637217Y-57622419D02*
X104732455Y-57622419D01*
X104732455Y-57622419D02*
X104827693Y-57670038D01*
X104827693Y-57670038D02*
X104875312Y-57717657D01*
X104875312Y-57717657D02*
X104922931Y-57812895D01*
X104922931Y-57812895D02*
X104970550Y-58003371D01*
X104970550Y-58003371D02*
X104970550Y-58241466D01*
X104970550Y-58241466D02*
X104922931Y-58431942D01*
X104922931Y-58431942D02*
X104875312Y-58527180D01*
X104875312Y-58527180D02*
X104827693Y-58574800D01*
X104827693Y-58574800D02*
X104732455Y-58622419D01*
X104732455Y-58622419D02*
X104637217Y-58622419D01*
X104637217Y-58622419D02*
X104541979Y-58574800D01*
X104541979Y-58574800D02*
X104494360Y-58527180D01*
X104494360Y-58527180D02*
X104446741Y-58431942D01*
X104446741Y-58431942D02*
X104399122Y-58241466D01*
X104399122Y-58241466D02*
X104399122Y-58003371D01*
X104399122Y-58003371D02*
X104446741Y-57812895D01*
X104446741Y-57812895D02*
X104494360Y-57717657D01*
X104494360Y-57717657D02*
X104541979Y-57670038D01*
X104541979Y-57670038D02*
X104637217Y-57622419D01*
X106113407Y-57574800D02*
X105256265Y-58860514D01*
X107018169Y-58527180D02*
X106970550Y-58574800D01*
X106970550Y-58574800D02*
X106827693Y-58622419D01*
X106827693Y-58622419D02*
X106732455Y-58622419D01*
X106732455Y-58622419D02*
X106589598Y-58574800D01*
X106589598Y-58574800D02*
X106494360Y-58479561D01*
X106494360Y-58479561D02*
X106446741Y-58384323D01*
X106446741Y-58384323D02*
X106399122Y-58193847D01*
X106399122Y-58193847D02*
X106399122Y-58050990D01*
X106399122Y-58050990D02*
X106446741Y-57860514D01*
X106446741Y-57860514D02*
X106494360Y-57765276D01*
X106494360Y-57765276D02*
X106589598Y-57670038D01*
X106589598Y-57670038D02*
X106732455Y-57622419D01*
X106732455Y-57622419D02*
X106827693Y-57622419D01*
X106827693Y-57622419D02*
X106970550Y-57670038D01*
X106970550Y-57670038D02*
X107018169Y-57717657D01*
X107446741Y-58098609D02*
X108208646Y-58098609D01*
X108208646Y-58384323D02*
X107446741Y-58384323D01*
X108732455Y-58622419D02*
X108922931Y-58622419D01*
X108922931Y-58622419D02*
X109018169Y-58574800D01*
X109018169Y-58574800D02*
X109065788Y-58527180D01*
X109065788Y-58527180D02*
X109161026Y-58384323D01*
X109161026Y-58384323D02*
X109208645Y-58193847D01*
X109208645Y-58193847D02*
X109208645Y-57812895D01*
X109208645Y-57812895D02*
X109161026Y-57717657D01*
X109161026Y-57717657D02*
X109113407Y-57670038D01*
X109113407Y-57670038D02*
X109018169Y-57622419D01*
X109018169Y-57622419D02*
X108827693Y-57622419D01*
X108827693Y-57622419D02*
X108732455Y-57670038D01*
X108732455Y-57670038D02*
X108684836Y-57717657D01*
X108684836Y-57717657D02*
X108637217Y-57812895D01*
X108637217Y-57812895D02*
X108637217Y-58050990D01*
X108637217Y-58050990D02*
X108684836Y-58146228D01*
X108684836Y-58146228D02*
X108732455Y-58193847D01*
X108732455Y-58193847D02*
X108827693Y-58241466D01*
X108827693Y-58241466D02*
X109018169Y-58241466D01*
X109018169Y-58241466D02*
X109113407Y-58193847D01*
X109113407Y-58193847D02*
X109161026Y-58146228D01*
X109161026Y-58146228D02*
X109208645Y-58050990D01*
X109637217Y-58527180D02*
X109684836Y-58574800D01*
X109684836Y-58574800D02*
X109637217Y-58622419D01*
X109637217Y-58622419D02*
X109589598Y-58574800D01*
X109589598Y-58574800D02*
X109637217Y-58527180D01*
X109637217Y-58527180D02*
X109637217Y-58622419D01*
X110018169Y-57622419D02*
X110684835Y-57622419D01*
X110684835Y-57622419D02*
X110256264Y-58622419D01*
X110970550Y-57622419D02*
X111637216Y-57622419D01*
X111637216Y-57622419D02*
X111208645Y-58622419D01*
X66875312Y-71872419D02*
X66541979Y-71396228D01*
X66303884Y-71872419D02*
X66303884Y-70872419D01*
X66303884Y-70872419D02*
X66684836Y-70872419D01*
X66684836Y-70872419D02*
X66780074Y-70920038D01*
X66780074Y-70920038D02*
X66827693Y-70967657D01*
X66827693Y-70967657D02*
X66875312Y-71062895D01*
X66875312Y-71062895D02*
X66875312Y-71205752D01*
X66875312Y-71205752D02*
X66827693Y-71300990D01*
X66827693Y-71300990D02*
X66780074Y-71348609D01*
X66780074Y-71348609D02*
X66684836Y-71396228D01*
X66684836Y-71396228D02*
X66303884Y-71396228D01*
X67303884Y-71348609D02*
X67637217Y-71348609D01*
X67780074Y-71872419D02*
X67303884Y-71872419D01*
X67303884Y-71872419D02*
X67303884Y-70872419D01*
X67303884Y-70872419D02*
X67780074Y-70872419D01*
X68161027Y-71824800D02*
X68303884Y-71872419D01*
X68303884Y-71872419D02*
X68541979Y-71872419D01*
X68541979Y-71872419D02*
X68637217Y-71824800D01*
X68637217Y-71824800D02*
X68684836Y-71777180D01*
X68684836Y-71777180D02*
X68732455Y-71681942D01*
X68732455Y-71681942D02*
X68732455Y-71586704D01*
X68732455Y-71586704D02*
X68684836Y-71491466D01*
X68684836Y-71491466D02*
X68637217Y-71443847D01*
X68637217Y-71443847D02*
X68541979Y-71396228D01*
X68541979Y-71396228D02*
X68351503Y-71348609D01*
X68351503Y-71348609D02*
X68256265Y-71300990D01*
X68256265Y-71300990D02*
X68208646Y-71253371D01*
X68208646Y-71253371D02*
X68161027Y-71158133D01*
X68161027Y-71158133D02*
X68161027Y-71062895D01*
X68161027Y-71062895D02*
X68208646Y-70967657D01*
X68208646Y-70967657D02*
X68256265Y-70920038D01*
X68256265Y-70920038D02*
X68351503Y-70872419D01*
X68351503Y-70872419D02*
X68589598Y-70872419D01*
X68589598Y-70872419D02*
X68732455Y-70920038D01*
X69161027Y-71348609D02*
X69494360Y-71348609D01*
X69637217Y-71872419D02*
X69161027Y-71872419D01*
X69161027Y-71872419D02*
X69161027Y-70872419D01*
X69161027Y-70872419D02*
X69637217Y-70872419D01*
X69922932Y-70872419D02*
X70494360Y-70872419D01*
X70208646Y-71872419D02*
X70208646Y-70872419D01*
X124803884Y-96991466D02*
X125565789Y-96991466D01*
X125184836Y-97372419D02*
X125184836Y-96610514D01*
X125946741Y-96372419D02*
X126565788Y-96372419D01*
X126565788Y-96372419D02*
X126232455Y-96753371D01*
X126232455Y-96753371D02*
X126375312Y-96753371D01*
X126375312Y-96753371D02*
X126470550Y-96800990D01*
X126470550Y-96800990D02*
X126518169Y-96848609D01*
X126518169Y-96848609D02*
X126565788Y-96943847D01*
X126565788Y-96943847D02*
X126565788Y-97181942D01*
X126565788Y-97181942D02*
X126518169Y-97277180D01*
X126518169Y-97277180D02*
X126470550Y-97324800D01*
X126470550Y-97324800D02*
X126375312Y-97372419D01*
X126375312Y-97372419D02*
X126089598Y-97372419D01*
X126089598Y-97372419D02*
X125994360Y-97324800D01*
X125994360Y-97324800D02*
X125946741Y-97277180D01*
X126994360Y-97277180D02*
X127041979Y-97324800D01*
X127041979Y-97324800D02*
X126994360Y-97372419D01*
X126994360Y-97372419D02*
X126946741Y-97324800D01*
X126946741Y-97324800D02*
X126994360Y-97277180D01*
X126994360Y-97277180D02*
X126994360Y-97372419D01*
X127375312Y-96372419D02*
X127994359Y-96372419D01*
X127994359Y-96372419D02*
X127661026Y-96753371D01*
X127661026Y-96753371D02*
X127803883Y-96753371D01*
X127803883Y-96753371D02*
X127899121Y-96800990D01*
X127899121Y-96800990D02*
X127946740Y-96848609D01*
X127946740Y-96848609D02*
X127994359Y-96943847D01*
X127994359Y-96943847D02*
X127994359Y-97181942D01*
X127994359Y-97181942D02*
X127946740Y-97277180D01*
X127946740Y-97277180D02*
X127899121Y-97324800D01*
X127899121Y-97324800D02*
X127803883Y-97372419D01*
X127803883Y-97372419D02*
X127518169Y-97372419D01*
X127518169Y-97372419D02*
X127422931Y-97324800D01*
X127422931Y-97324800D02*
X127375312Y-97277180D01*
X66303884Y-80872419D02*
X66303884Y-79872419D01*
X66970550Y-79872419D02*
X67161026Y-79872419D01*
X67161026Y-79872419D02*
X67256264Y-79920038D01*
X67256264Y-79920038D02*
X67351502Y-80015276D01*
X67351502Y-80015276D02*
X67399121Y-80205752D01*
X67399121Y-80205752D02*
X67399121Y-80539085D01*
X67399121Y-80539085D02*
X67351502Y-80729561D01*
X67351502Y-80729561D02*
X67256264Y-80824800D01*
X67256264Y-80824800D02*
X67161026Y-80872419D01*
X67161026Y-80872419D02*
X66970550Y-80872419D01*
X66970550Y-80872419D02*
X66875312Y-80824800D01*
X66875312Y-80824800D02*
X66780074Y-80729561D01*
X66780074Y-80729561D02*
X66732455Y-80539085D01*
X66732455Y-80539085D02*
X66732455Y-80205752D01*
X66732455Y-80205752D02*
X66780074Y-80015276D01*
X66780074Y-80015276D02*
X66875312Y-79920038D01*
X66875312Y-79920038D02*
X66970550Y-79872419D01*
X120327693Y-103420038D02*
X120232455Y-103372419D01*
X120232455Y-103372419D02*
X120089598Y-103372419D01*
X120089598Y-103372419D02*
X119946741Y-103420038D01*
X119946741Y-103420038D02*
X119851503Y-103515276D01*
X119851503Y-103515276D02*
X119803884Y-103610514D01*
X119803884Y-103610514D02*
X119756265Y-103800990D01*
X119756265Y-103800990D02*
X119756265Y-103943847D01*
X119756265Y-103943847D02*
X119803884Y-104134323D01*
X119803884Y-104134323D02*
X119851503Y-104229561D01*
X119851503Y-104229561D02*
X119946741Y-104324800D01*
X119946741Y-104324800D02*
X120089598Y-104372419D01*
X120089598Y-104372419D02*
X120184836Y-104372419D01*
X120184836Y-104372419D02*
X120327693Y-104324800D01*
X120327693Y-104324800D02*
X120375312Y-104277180D01*
X120375312Y-104277180D02*
X120375312Y-103943847D01*
X120375312Y-103943847D02*
X120184836Y-103943847D01*
X120803884Y-104372419D02*
X120803884Y-103372419D01*
X120803884Y-103372419D02*
X121375312Y-104372419D01*
X121375312Y-104372419D02*
X121375312Y-103372419D01*
X121851503Y-104372419D02*
X121851503Y-103372419D01*
X121851503Y-103372419D02*
X122089598Y-103372419D01*
X122089598Y-103372419D02*
X122232455Y-103420038D01*
X122232455Y-103420038D02*
X122327693Y-103515276D01*
X122327693Y-103515276D02*
X122375312Y-103610514D01*
X122375312Y-103610514D02*
X122422931Y-103800990D01*
X122422931Y-103800990D02*
X122422931Y-103943847D01*
X122422931Y-103943847D02*
X122375312Y-104134323D01*
X122375312Y-104134323D02*
X122327693Y-104229561D01*
X122327693Y-104229561D02*
X122232455Y-104324800D01*
X122232455Y-104324800D02*
X122089598Y-104372419D01*
X122089598Y-104372419D02*
X121851503Y-104372419D01*
X66875312Y-76277180D02*
X66827693Y-76324800D01*
X66827693Y-76324800D02*
X66684836Y-76372419D01*
X66684836Y-76372419D02*
X66589598Y-76372419D01*
X66589598Y-76372419D02*
X66446741Y-76324800D01*
X66446741Y-76324800D02*
X66351503Y-76229561D01*
X66351503Y-76229561D02*
X66303884Y-76134323D01*
X66303884Y-76134323D02*
X66256265Y-75943847D01*
X66256265Y-75943847D02*
X66256265Y-75800990D01*
X66256265Y-75800990D02*
X66303884Y-75610514D01*
X66303884Y-75610514D02*
X66351503Y-75515276D01*
X66351503Y-75515276D02*
X66446741Y-75420038D01*
X66446741Y-75420038D02*
X66589598Y-75372419D01*
X66589598Y-75372419D02*
X66684836Y-75372419D01*
X66684836Y-75372419D02*
X66827693Y-75420038D01*
X66827693Y-75420038D02*
X66875312Y-75467657D01*
X67780074Y-76372419D02*
X67303884Y-76372419D01*
X67303884Y-76372419D02*
X67303884Y-75372419D01*
X68113408Y-76372419D02*
X68113408Y-75372419D01*
X68684836Y-76372419D02*
X68256265Y-75800990D01*
X68684836Y-75372419D02*
X68113408Y-75943847D01*
D11*
X93833333Y-55859580D02*
X93785714Y-55907200D01*
X93785714Y-55907200D02*
X93642857Y-55954819D01*
X93642857Y-55954819D02*
X93547619Y-55954819D01*
X93547619Y-55954819D02*
X93404762Y-55907200D01*
X93404762Y-55907200D02*
X93309524Y-55811961D01*
X93309524Y-55811961D02*
X93261905Y-55716723D01*
X93261905Y-55716723D02*
X93214286Y-55526247D01*
X93214286Y-55526247D02*
X93214286Y-55383390D01*
X93214286Y-55383390D02*
X93261905Y-55192914D01*
X93261905Y-55192914D02*
X93309524Y-55097676D01*
X93309524Y-55097676D02*
X93404762Y-55002438D01*
X93404762Y-55002438D02*
X93547619Y-54954819D01*
X93547619Y-54954819D02*
X93642857Y-54954819D01*
X93642857Y-54954819D02*
X93785714Y-55002438D01*
X93785714Y-55002438D02*
X93833333Y-55050057D01*
X94738095Y-54954819D02*
X94261905Y-54954819D01*
X94261905Y-54954819D02*
X94214286Y-55431009D01*
X94214286Y-55431009D02*
X94261905Y-55383390D01*
X94261905Y-55383390D02*
X94357143Y-55335771D01*
X94357143Y-55335771D02*
X94595238Y-55335771D01*
X94595238Y-55335771D02*
X94690476Y-55383390D01*
X94690476Y-55383390D02*
X94738095Y-55431009D01*
X94738095Y-55431009D02*
X94785714Y-55526247D01*
X94785714Y-55526247D02*
X94785714Y-55764342D01*
X94785714Y-55764342D02*
X94738095Y-55859580D01*
X94738095Y-55859580D02*
X94690476Y-55907200D01*
X94690476Y-55907200D02*
X94595238Y-55954819D01*
X94595238Y-55954819D02*
X94357143Y-55954819D01*
X94357143Y-55954819D02*
X94261905Y-55907200D01*
X94261905Y-55907200D02*
X94214286Y-55859580D01*
X78333333Y-60859580D02*
X78285714Y-60907200D01*
X78285714Y-60907200D02*
X78142857Y-60954819D01*
X78142857Y-60954819D02*
X78047619Y-60954819D01*
X78047619Y-60954819D02*
X77904762Y-60907200D01*
X77904762Y-60907200D02*
X77809524Y-60811961D01*
X77809524Y-60811961D02*
X77761905Y-60716723D01*
X77761905Y-60716723D02*
X77714286Y-60526247D01*
X77714286Y-60526247D02*
X77714286Y-60383390D01*
X77714286Y-60383390D02*
X77761905Y-60192914D01*
X77761905Y-60192914D02*
X77809524Y-60097676D01*
X77809524Y-60097676D02*
X77904762Y-60002438D01*
X77904762Y-60002438D02*
X78047619Y-59954819D01*
X78047619Y-59954819D02*
X78142857Y-59954819D01*
X78142857Y-59954819D02*
X78285714Y-60002438D01*
X78285714Y-60002438D02*
X78333333Y-60050057D01*
X79190476Y-60288152D02*
X79190476Y-60954819D01*
X78952381Y-59907200D02*
X78714286Y-60621485D01*
X78714286Y-60621485D02*
X79333333Y-60621485D01*
X95833333Y-62359580D02*
X95785714Y-62407200D01*
X95785714Y-62407200D02*
X95642857Y-62454819D01*
X95642857Y-62454819D02*
X95547619Y-62454819D01*
X95547619Y-62454819D02*
X95404762Y-62407200D01*
X95404762Y-62407200D02*
X95309524Y-62311961D01*
X95309524Y-62311961D02*
X95261905Y-62216723D01*
X95261905Y-62216723D02*
X95214286Y-62026247D01*
X95214286Y-62026247D02*
X95214286Y-61883390D01*
X95214286Y-61883390D02*
X95261905Y-61692914D01*
X95261905Y-61692914D02*
X95309524Y-61597676D01*
X95309524Y-61597676D02*
X95404762Y-61502438D01*
X95404762Y-61502438D02*
X95547619Y-61454819D01*
X95547619Y-61454819D02*
X95642857Y-61454819D01*
X95642857Y-61454819D02*
X95785714Y-61502438D01*
X95785714Y-61502438D02*
X95833333Y-61550057D01*
X96166667Y-61454819D02*
X96785714Y-61454819D01*
X96785714Y-61454819D02*
X96452381Y-61835771D01*
X96452381Y-61835771D02*
X96595238Y-61835771D01*
X96595238Y-61835771D02*
X96690476Y-61883390D01*
X96690476Y-61883390D02*
X96738095Y-61931009D01*
X96738095Y-61931009D02*
X96785714Y-62026247D01*
X96785714Y-62026247D02*
X96785714Y-62264342D01*
X96785714Y-62264342D02*
X96738095Y-62359580D01*
X96738095Y-62359580D02*
X96690476Y-62407200D01*
X96690476Y-62407200D02*
X96595238Y-62454819D01*
X96595238Y-62454819D02*
X96309524Y-62454819D01*
X96309524Y-62454819D02*
X96214286Y-62407200D01*
X96214286Y-62407200D02*
X96166667Y-62359580D01*
X105357142Y-104359580D02*
X105309523Y-104407200D01*
X105309523Y-104407200D02*
X105166666Y-104454819D01*
X105166666Y-104454819D02*
X105071428Y-104454819D01*
X105071428Y-104454819D02*
X104928571Y-104407200D01*
X104928571Y-104407200D02*
X104833333Y-104311961D01*
X104833333Y-104311961D02*
X104785714Y-104216723D01*
X104785714Y-104216723D02*
X104738095Y-104026247D01*
X104738095Y-104026247D02*
X104738095Y-103883390D01*
X104738095Y-103883390D02*
X104785714Y-103692914D01*
X104785714Y-103692914D02*
X104833333Y-103597676D01*
X104833333Y-103597676D02*
X104928571Y-103502438D01*
X104928571Y-103502438D02*
X105071428Y-103454819D01*
X105071428Y-103454819D02*
X105166666Y-103454819D01*
X105166666Y-103454819D02*
X105309523Y-103502438D01*
X105309523Y-103502438D02*
X105357142Y-103550057D01*
X106309523Y-104454819D02*
X105738095Y-104454819D01*
X106023809Y-104454819D02*
X106023809Y-103454819D01*
X106023809Y-103454819D02*
X105928571Y-103597676D01*
X105928571Y-103597676D02*
X105833333Y-103692914D01*
X105833333Y-103692914D02*
X105738095Y-103740533D01*
X106690476Y-103550057D02*
X106738095Y-103502438D01*
X106738095Y-103502438D02*
X106833333Y-103454819D01*
X106833333Y-103454819D02*
X107071428Y-103454819D01*
X107071428Y-103454819D02*
X107166666Y-103502438D01*
X107166666Y-103502438D02*
X107214285Y-103550057D01*
X107214285Y-103550057D02*
X107261904Y-103645295D01*
X107261904Y-103645295D02*
X107261904Y-103740533D01*
X107261904Y-103740533D02*
X107214285Y-103883390D01*
X107214285Y-103883390D02*
X106642857Y-104454819D01*
X106642857Y-104454819D02*
X107261904Y-104454819D01*
X116357142Y-103859580D02*
X116309523Y-103907200D01*
X116309523Y-103907200D02*
X116166666Y-103954819D01*
X116166666Y-103954819D02*
X116071428Y-103954819D01*
X116071428Y-103954819D02*
X115928571Y-103907200D01*
X115928571Y-103907200D02*
X115833333Y-103811961D01*
X115833333Y-103811961D02*
X115785714Y-103716723D01*
X115785714Y-103716723D02*
X115738095Y-103526247D01*
X115738095Y-103526247D02*
X115738095Y-103383390D01*
X115738095Y-103383390D02*
X115785714Y-103192914D01*
X115785714Y-103192914D02*
X115833333Y-103097676D01*
X115833333Y-103097676D02*
X115928571Y-103002438D01*
X115928571Y-103002438D02*
X116071428Y-102954819D01*
X116071428Y-102954819D02*
X116166666Y-102954819D01*
X116166666Y-102954819D02*
X116309523Y-103002438D01*
X116309523Y-103002438D02*
X116357142Y-103050057D01*
X117309523Y-103954819D02*
X116738095Y-103954819D01*
X117023809Y-103954819D02*
X117023809Y-102954819D01*
X117023809Y-102954819D02*
X116928571Y-103097676D01*
X116928571Y-103097676D02*
X116833333Y-103192914D01*
X116833333Y-103192914D02*
X116738095Y-103240533D01*
X117642857Y-102954819D02*
X118261904Y-102954819D01*
X118261904Y-102954819D02*
X117928571Y-103335771D01*
X117928571Y-103335771D02*
X118071428Y-103335771D01*
X118071428Y-103335771D02*
X118166666Y-103383390D01*
X118166666Y-103383390D02*
X118214285Y-103431009D01*
X118214285Y-103431009D02*
X118261904Y-103526247D01*
X118261904Y-103526247D02*
X118261904Y-103764342D01*
X118261904Y-103764342D02*
X118214285Y-103859580D01*
X118214285Y-103859580D02*
X118166666Y-103907200D01*
X118166666Y-103907200D02*
X118071428Y-103954819D01*
X118071428Y-103954819D02*
X117785714Y-103954819D01*
X117785714Y-103954819D02*
X117690476Y-103907200D01*
X117690476Y-103907200D02*
X117642857Y-103859580D01*
X85833333Y-107954819D02*
X85500000Y-107478628D01*
X85261905Y-107954819D02*
X85261905Y-106954819D01*
X85261905Y-106954819D02*
X85642857Y-106954819D01*
X85642857Y-106954819D02*
X85738095Y-107002438D01*
X85738095Y-107002438D02*
X85785714Y-107050057D01*
X85785714Y-107050057D02*
X85833333Y-107145295D01*
X85833333Y-107145295D02*
X85833333Y-107288152D01*
X85833333Y-107288152D02*
X85785714Y-107383390D01*
X85785714Y-107383390D02*
X85738095Y-107431009D01*
X85738095Y-107431009D02*
X85642857Y-107478628D01*
X85642857Y-107478628D02*
X85261905Y-107478628D01*
X86785714Y-107954819D02*
X86214286Y-107954819D01*
X86500000Y-107954819D02*
X86500000Y-106954819D01*
X86500000Y-106954819D02*
X86404762Y-107097676D01*
X86404762Y-107097676D02*
X86309524Y-107192914D01*
X86309524Y-107192914D02*
X86214286Y-107240533D01*
X80857142Y-55709580D02*
X80809523Y-55757200D01*
X80809523Y-55757200D02*
X80666666Y-55804819D01*
X80666666Y-55804819D02*
X80571428Y-55804819D01*
X80571428Y-55804819D02*
X80428571Y-55757200D01*
X80428571Y-55757200D02*
X80333333Y-55661961D01*
X80333333Y-55661961D02*
X80285714Y-55566723D01*
X80285714Y-55566723D02*
X80238095Y-55376247D01*
X80238095Y-55376247D02*
X80238095Y-55233390D01*
X80238095Y-55233390D02*
X80285714Y-55042914D01*
X80285714Y-55042914D02*
X80333333Y-54947676D01*
X80333333Y-54947676D02*
X80428571Y-54852438D01*
X80428571Y-54852438D02*
X80571428Y-54804819D01*
X80571428Y-54804819D02*
X80666666Y-54804819D01*
X80666666Y-54804819D02*
X80809523Y-54852438D01*
X80809523Y-54852438D02*
X80857142Y-54900057D01*
X81809523Y-55804819D02*
X81238095Y-55804819D01*
X81523809Y-55804819D02*
X81523809Y-54804819D01*
X81523809Y-54804819D02*
X81428571Y-54947676D01*
X81428571Y-54947676D02*
X81333333Y-55042914D01*
X81333333Y-55042914D02*
X81238095Y-55090533D01*
X82428571Y-54804819D02*
X82523809Y-54804819D01*
X82523809Y-54804819D02*
X82619047Y-54852438D01*
X82619047Y-54852438D02*
X82666666Y-54900057D01*
X82666666Y-54900057D02*
X82714285Y-54995295D01*
X82714285Y-54995295D02*
X82761904Y-55185771D01*
X82761904Y-55185771D02*
X82761904Y-55423866D01*
X82761904Y-55423866D02*
X82714285Y-55614342D01*
X82714285Y-55614342D02*
X82666666Y-55709580D01*
X82666666Y-55709580D02*
X82619047Y-55757200D01*
X82619047Y-55757200D02*
X82523809Y-55804819D01*
X82523809Y-55804819D02*
X82428571Y-55804819D01*
X82428571Y-55804819D02*
X82333333Y-55757200D01*
X82333333Y-55757200D02*
X82285714Y-55709580D01*
X82285714Y-55709580D02*
X82238095Y-55614342D01*
X82238095Y-55614342D02*
X82190476Y-55423866D01*
X82190476Y-55423866D02*
X82190476Y-55185771D01*
X82190476Y-55185771D02*
X82238095Y-54995295D01*
X82238095Y-54995295D02*
X82285714Y-54900057D01*
X82285714Y-54900057D02*
X82333333Y-54852438D01*
X82333333Y-54852438D02*
X82428571Y-54804819D01*
X85357142Y-55709580D02*
X85309523Y-55757200D01*
X85309523Y-55757200D02*
X85166666Y-55804819D01*
X85166666Y-55804819D02*
X85071428Y-55804819D01*
X85071428Y-55804819D02*
X84928571Y-55757200D01*
X84928571Y-55757200D02*
X84833333Y-55661961D01*
X84833333Y-55661961D02*
X84785714Y-55566723D01*
X84785714Y-55566723D02*
X84738095Y-55376247D01*
X84738095Y-55376247D02*
X84738095Y-55233390D01*
X84738095Y-55233390D02*
X84785714Y-55042914D01*
X84785714Y-55042914D02*
X84833333Y-54947676D01*
X84833333Y-54947676D02*
X84928571Y-54852438D01*
X84928571Y-54852438D02*
X85071428Y-54804819D01*
X85071428Y-54804819D02*
X85166666Y-54804819D01*
X85166666Y-54804819D02*
X85309523Y-54852438D01*
X85309523Y-54852438D02*
X85357142Y-54900057D01*
X86309523Y-55804819D02*
X85738095Y-55804819D01*
X86023809Y-55804819D02*
X86023809Y-54804819D01*
X86023809Y-54804819D02*
X85928571Y-54947676D01*
X85928571Y-54947676D02*
X85833333Y-55042914D01*
X85833333Y-55042914D02*
X85738095Y-55090533D01*
X87261904Y-55804819D02*
X86690476Y-55804819D01*
X86976190Y-55804819D02*
X86976190Y-54804819D01*
X86976190Y-54804819D02*
X86880952Y-54947676D01*
X86880952Y-54947676D02*
X86785714Y-55042914D01*
X86785714Y-55042914D02*
X86690476Y-55090533D01*
X94666666Y-102439819D02*
X94666666Y-103154104D01*
X94666666Y-103154104D02*
X94619047Y-103296961D01*
X94619047Y-103296961D02*
X94523809Y-103392200D01*
X94523809Y-103392200D02*
X94380952Y-103439819D01*
X94380952Y-103439819D02*
X94285714Y-103439819D01*
X95666666Y-103439819D02*
X95095238Y-103439819D01*
X95380952Y-103439819D02*
X95380952Y-102439819D01*
X95380952Y-102439819D02*
X95285714Y-102582676D01*
X95285714Y-102582676D02*
X95190476Y-102677914D01*
X95190476Y-102677914D02*
X95095238Y-102725533D01*
X79761905Y-104454819D02*
X79761905Y-103454819D01*
X79761905Y-103454819D02*
X80000000Y-103454819D01*
X80000000Y-103454819D02*
X80142857Y-103502438D01*
X80142857Y-103502438D02*
X80238095Y-103597676D01*
X80238095Y-103597676D02*
X80285714Y-103692914D01*
X80285714Y-103692914D02*
X80333333Y-103883390D01*
X80333333Y-103883390D02*
X80333333Y-104026247D01*
X80333333Y-104026247D02*
X80285714Y-104216723D01*
X80285714Y-104216723D02*
X80238095Y-104311961D01*
X80238095Y-104311961D02*
X80142857Y-104407200D01*
X80142857Y-104407200D02*
X80000000Y-104454819D01*
X80000000Y-104454819D02*
X79761905Y-104454819D01*
X81285714Y-104454819D02*
X80714286Y-104454819D01*
X81000000Y-104454819D02*
X81000000Y-103454819D01*
X81000000Y-103454819D02*
X80904762Y-103597676D01*
X80904762Y-103597676D02*
X80809524Y-103692914D01*
X80809524Y-103692914D02*
X80714286Y-103740533D01*
X80238095Y-63954819D02*
X80238095Y-64764342D01*
X80238095Y-64764342D02*
X80285714Y-64859580D01*
X80285714Y-64859580D02*
X80333333Y-64907200D01*
X80333333Y-64907200D02*
X80428571Y-64954819D01*
X80428571Y-64954819D02*
X80619047Y-64954819D01*
X80619047Y-64954819D02*
X80714285Y-64907200D01*
X80714285Y-64907200D02*
X80761904Y-64859580D01*
X80761904Y-64859580D02*
X80809523Y-64764342D01*
X80809523Y-64764342D02*
X80809523Y-63954819D01*
X81809523Y-64954819D02*
X81238095Y-64954819D01*
X81523809Y-64954819D02*
X81523809Y-63954819D01*
X81523809Y-63954819D02*
X81428571Y-64097676D01*
X81428571Y-64097676D02*
X81333333Y-64192914D01*
X81333333Y-64192914D02*
X81238095Y-64240533D01*
X93333333Y-65859580D02*
X93285714Y-65907200D01*
X93285714Y-65907200D02*
X93142857Y-65954819D01*
X93142857Y-65954819D02*
X93047619Y-65954819D01*
X93047619Y-65954819D02*
X92904762Y-65907200D01*
X92904762Y-65907200D02*
X92809524Y-65811961D01*
X92809524Y-65811961D02*
X92761905Y-65716723D01*
X92761905Y-65716723D02*
X92714286Y-65526247D01*
X92714286Y-65526247D02*
X92714286Y-65383390D01*
X92714286Y-65383390D02*
X92761905Y-65192914D01*
X92761905Y-65192914D02*
X92809524Y-65097676D01*
X92809524Y-65097676D02*
X92904762Y-65002438D01*
X92904762Y-65002438D02*
X93047619Y-64954819D01*
X93047619Y-64954819D02*
X93142857Y-64954819D01*
X93142857Y-64954819D02*
X93285714Y-65002438D01*
X93285714Y-65002438D02*
X93333333Y-65050057D01*
X94190476Y-64954819D02*
X94000000Y-64954819D01*
X94000000Y-64954819D02*
X93904762Y-65002438D01*
X93904762Y-65002438D02*
X93857143Y-65050057D01*
X93857143Y-65050057D02*
X93761905Y-65192914D01*
X93761905Y-65192914D02*
X93714286Y-65383390D01*
X93714286Y-65383390D02*
X93714286Y-65764342D01*
X93714286Y-65764342D02*
X93761905Y-65859580D01*
X93761905Y-65859580D02*
X93809524Y-65907200D01*
X93809524Y-65907200D02*
X93904762Y-65954819D01*
X93904762Y-65954819D02*
X94095238Y-65954819D01*
X94095238Y-65954819D02*
X94190476Y-65907200D01*
X94190476Y-65907200D02*
X94238095Y-65859580D01*
X94238095Y-65859580D02*
X94285714Y-65764342D01*
X94285714Y-65764342D02*
X94285714Y-65526247D01*
X94285714Y-65526247D02*
X94238095Y-65431009D01*
X94238095Y-65431009D02*
X94190476Y-65383390D01*
X94190476Y-65383390D02*
X94095238Y-65335771D01*
X94095238Y-65335771D02*
X93904762Y-65335771D01*
X93904762Y-65335771D02*
X93809524Y-65383390D01*
X93809524Y-65383390D02*
X93761905Y-65431009D01*
X93761905Y-65431009D02*
X93714286Y-65526247D01*
X83333333Y-68859580D02*
X83285714Y-68907200D01*
X83285714Y-68907200D02*
X83142857Y-68954819D01*
X83142857Y-68954819D02*
X83047619Y-68954819D01*
X83047619Y-68954819D02*
X82904762Y-68907200D01*
X82904762Y-68907200D02*
X82809524Y-68811961D01*
X82809524Y-68811961D02*
X82761905Y-68716723D01*
X82761905Y-68716723D02*
X82714286Y-68526247D01*
X82714286Y-68526247D02*
X82714286Y-68383390D01*
X82714286Y-68383390D02*
X82761905Y-68192914D01*
X82761905Y-68192914D02*
X82809524Y-68097676D01*
X82809524Y-68097676D02*
X82904762Y-68002438D01*
X82904762Y-68002438D02*
X83047619Y-67954819D01*
X83047619Y-67954819D02*
X83142857Y-67954819D01*
X83142857Y-67954819D02*
X83285714Y-68002438D01*
X83285714Y-68002438D02*
X83333333Y-68050057D01*
X83714286Y-68050057D02*
X83761905Y-68002438D01*
X83761905Y-68002438D02*
X83857143Y-67954819D01*
X83857143Y-67954819D02*
X84095238Y-67954819D01*
X84095238Y-67954819D02*
X84190476Y-68002438D01*
X84190476Y-68002438D02*
X84238095Y-68050057D01*
X84238095Y-68050057D02*
X84285714Y-68145295D01*
X84285714Y-68145295D02*
X84285714Y-68240533D01*
X84285714Y-68240533D02*
X84238095Y-68383390D01*
X84238095Y-68383390D02*
X83666667Y-68954819D01*
X83666667Y-68954819D02*
X84285714Y-68954819D01*
X108238095Y-102954819D02*
X108238095Y-103764342D01*
X108238095Y-103764342D02*
X108285714Y-103859580D01*
X108285714Y-103859580D02*
X108333333Y-103907200D01*
X108333333Y-103907200D02*
X108428571Y-103954819D01*
X108428571Y-103954819D02*
X108619047Y-103954819D01*
X108619047Y-103954819D02*
X108714285Y-103907200D01*
X108714285Y-103907200D02*
X108761904Y-103859580D01*
X108761904Y-103859580D02*
X108809523Y-103764342D01*
X108809523Y-103764342D02*
X108809523Y-102954819D01*
X109238095Y-103050057D02*
X109285714Y-103002438D01*
X109285714Y-103002438D02*
X109380952Y-102954819D01*
X109380952Y-102954819D02*
X109619047Y-102954819D01*
X109619047Y-102954819D02*
X109714285Y-103002438D01*
X109714285Y-103002438D02*
X109761904Y-103050057D01*
X109761904Y-103050057D02*
X109809523Y-103145295D01*
X109809523Y-103145295D02*
X109809523Y-103240533D01*
X109809523Y-103240533D02*
X109761904Y-103383390D01*
X109761904Y-103383390D02*
X109190476Y-103954819D01*
X109190476Y-103954819D02*
X109809523Y-103954819D01*
X111761905Y-103954819D02*
X111761905Y-102954819D01*
X111761905Y-102954819D02*
X112000000Y-102954819D01*
X112000000Y-102954819D02*
X112142857Y-103002438D01*
X112142857Y-103002438D02*
X112238095Y-103097676D01*
X112238095Y-103097676D02*
X112285714Y-103192914D01*
X112285714Y-103192914D02*
X112333333Y-103383390D01*
X112333333Y-103383390D02*
X112333333Y-103526247D01*
X112333333Y-103526247D02*
X112285714Y-103716723D01*
X112285714Y-103716723D02*
X112238095Y-103811961D01*
X112238095Y-103811961D02*
X112142857Y-103907200D01*
X112142857Y-103907200D02*
X112000000Y-103954819D01*
X112000000Y-103954819D02*
X111761905Y-103954819D01*
X112714286Y-103050057D02*
X112761905Y-103002438D01*
X112761905Y-103002438D02*
X112857143Y-102954819D01*
X112857143Y-102954819D02*
X113095238Y-102954819D01*
X113095238Y-102954819D02*
X113190476Y-103002438D01*
X113190476Y-103002438D02*
X113238095Y-103050057D01*
X113238095Y-103050057D02*
X113285714Y-103145295D01*
X113285714Y-103145295D02*
X113285714Y-103240533D01*
X113285714Y-103240533D02*
X113238095Y-103383390D01*
X113238095Y-103383390D02*
X112666667Y-103954819D01*
X112666667Y-103954819D02*
X113285714Y-103954819D01*
X90333333Y-55679580D02*
X90285714Y-55727200D01*
X90285714Y-55727200D02*
X90142857Y-55774819D01*
X90142857Y-55774819D02*
X90047619Y-55774819D01*
X90047619Y-55774819D02*
X89904762Y-55727200D01*
X89904762Y-55727200D02*
X89809524Y-55631961D01*
X89809524Y-55631961D02*
X89761905Y-55536723D01*
X89761905Y-55536723D02*
X89714286Y-55346247D01*
X89714286Y-55346247D02*
X89714286Y-55203390D01*
X89714286Y-55203390D02*
X89761905Y-55012914D01*
X89761905Y-55012914D02*
X89809524Y-54917676D01*
X89809524Y-54917676D02*
X89904762Y-54822438D01*
X89904762Y-54822438D02*
X90047619Y-54774819D01*
X90047619Y-54774819D02*
X90142857Y-54774819D01*
X90142857Y-54774819D02*
X90285714Y-54822438D01*
X90285714Y-54822438D02*
X90333333Y-54870057D01*
X91285714Y-55774819D02*
X90714286Y-55774819D01*
X91000000Y-55774819D02*
X91000000Y-54774819D01*
X91000000Y-54774819D02*
X90904762Y-54917676D01*
X90904762Y-54917676D02*
X90809524Y-55012914D01*
X90809524Y-55012914D02*
X90714286Y-55060533D01*
X86333333Y-101454819D02*
X86000000Y-100978628D01*
X85761905Y-101454819D02*
X85761905Y-100454819D01*
X85761905Y-100454819D02*
X86142857Y-100454819D01*
X86142857Y-100454819D02*
X86238095Y-100502438D01*
X86238095Y-100502438D02*
X86285714Y-100550057D01*
X86285714Y-100550057D02*
X86333333Y-100645295D01*
X86333333Y-100645295D02*
X86333333Y-100788152D01*
X86333333Y-100788152D02*
X86285714Y-100883390D01*
X86285714Y-100883390D02*
X86238095Y-100931009D01*
X86238095Y-100931009D02*
X86142857Y-100978628D01*
X86142857Y-100978628D02*
X85761905Y-100978628D01*
X86714286Y-100550057D02*
X86761905Y-100502438D01*
X86761905Y-100502438D02*
X86857143Y-100454819D01*
X86857143Y-100454819D02*
X87095238Y-100454819D01*
X87095238Y-100454819D02*
X87190476Y-100502438D01*
X87190476Y-100502438D02*
X87238095Y-100550057D01*
X87238095Y-100550057D02*
X87285714Y-100645295D01*
X87285714Y-100645295D02*
X87285714Y-100740533D01*
X87285714Y-100740533D02*
X87238095Y-100883390D01*
X87238095Y-100883390D02*
X86666667Y-101454819D01*
X86666667Y-101454819D02*
X87285714Y-101454819D01*
X104214285Y-70431009D02*
X104357142Y-70478628D01*
X104357142Y-70478628D02*
X104404761Y-70526247D01*
X104404761Y-70526247D02*
X104452380Y-70621485D01*
X104452380Y-70621485D02*
X104452380Y-70764342D01*
X104452380Y-70764342D02*
X104404761Y-70859580D01*
X104404761Y-70859580D02*
X104357142Y-70907200D01*
X104357142Y-70907200D02*
X104261904Y-70954819D01*
X104261904Y-70954819D02*
X103880952Y-70954819D01*
X103880952Y-70954819D02*
X103880952Y-69954819D01*
X103880952Y-69954819D02*
X104214285Y-69954819D01*
X104214285Y-69954819D02*
X104309523Y-70002438D01*
X104309523Y-70002438D02*
X104357142Y-70050057D01*
X104357142Y-70050057D02*
X104404761Y-70145295D01*
X104404761Y-70145295D02*
X104404761Y-70240533D01*
X104404761Y-70240533D02*
X104357142Y-70335771D01*
X104357142Y-70335771D02*
X104309523Y-70383390D01*
X104309523Y-70383390D02*
X104214285Y-70431009D01*
X104214285Y-70431009D02*
X103880952Y-70431009D01*
X104738095Y-69954819D02*
X105309523Y-69954819D01*
X105023809Y-70954819D02*
X105023809Y-69954819D01*
X106166666Y-70954819D02*
X105595238Y-70954819D01*
X105880952Y-70954819D02*
X105880952Y-69954819D01*
X105880952Y-69954819D02*
X105785714Y-70097676D01*
X105785714Y-70097676D02*
X105690476Y-70192914D01*
X105690476Y-70192914D02*
X105595238Y-70240533D01*
X103333333Y-101454819D02*
X103000000Y-100978628D01*
X102761905Y-101454819D02*
X102761905Y-100454819D01*
X102761905Y-100454819D02*
X103142857Y-100454819D01*
X103142857Y-100454819D02*
X103238095Y-100502438D01*
X103238095Y-100502438D02*
X103285714Y-100550057D01*
X103285714Y-100550057D02*
X103333333Y-100645295D01*
X103333333Y-100645295D02*
X103333333Y-100788152D01*
X103333333Y-100788152D02*
X103285714Y-100883390D01*
X103285714Y-100883390D02*
X103238095Y-100931009D01*
X103238095Y-100931009D02*
X103142857Y-100978628D01*
X103142857Y-100978628D02*
X102761905Y-100978628D01*
X103666667Y-100454819D02*
X104285714Y-100454819D01*
X104285714Y-100454819D02*
X103952381Y-100835771D01*
X103952381Y-100835771D02*
X104095238Y-100835771D01*
X104095238Y-100835771D02*
X104190476Y-100883390D01*
X104190476Y-100883390D02*
X104238095Y-100931009D01*
X104238095Y-100931009D02*
X104285714Y-101026247D01*
X104285714Y-101026247D02*
X104285714Y-101264342D01*
X104285714Y-101264342D02*
X104238095Y-101359580D01*
X104238095Y-101359580D02*
X104190476Y-101407200D01*
X104190476Y-101407200D02*
X104095238Y-101454819D01*
X104095238Y-101454819D02*
X103809524Y-101454819D01*
X103809524Y-101454819D02*
X103714286Y-101407200D01*
X103714286Y-101407200D02*
X103666667Y-101359580D01*
D12*
%TO.C,TP1*%
X63200000Y-71500000D02*
G75*
G02*
X60800000Y-71500000I-1200000J0D01*
G01*
X60800000Y-71500000D02*
G75*
G02*
X63200000Y-71500000I1200000J0D01*
G01*
%TO.C,C5*%
X93265000Y-58261252D02*
X93265000Y-57738748D01*
X94735000Y-58261252D02*
X94735000Y-57738748D01*
%TO.C,C4*%
X79765000Y-60791252D02*
X79765000Y-60268748D01*
X81235000Y-60791252D02*
X81235000Y-60268748D01*
%TO.C,C3*%
X93265000Y-61738748D02*
X93265000Y-62261252D01*
X94735000Y-61738748D02*
X94735000Y-62261252D01*
%TO.C,TP2*%
X63200000Y-76000000D02*
G75*
G02*
X60800000Y-76000000I-1200000J0D01*
G01*
X60800000Y-76000000D02*
G75*
G02*
X63200000Y-76000000I1200000J0D01*
G01*
%TO.C,C12*%
X104238748Y-106765000D02*
X104761252Y-106765000D01*
X104238748Y-108235000D02*
X104761252Y-108235000D01*
%TO.C,TP3*%
X63200000Y-80500000D02*
G75*
G02*
X60800000Y-80500000I-1200000J0D01*
G01*
X60800000Y-80500000D02*
G75*
G02*
X63200000Y-80500000I1200000J0D01*
G01*
%TO.C,C13*%
X114265000Y-106238748D02*
X114265000Y-106761252D01*
X115735000Y-106238748D02*
X115735000Y-106761252D01*
%TO.C,R1*%
X83265000Y-107227064D02*
X83265000Y-106772936D01*
X84735000Y-107227064D02*
X84735000Y-106772936D01*
%TO.C,C10*%
X81238748Y-56295000D02*
X81761252Y-56295000D01*
X81238748Y-57765000D02*
X81761252Y-57765000D01*
%TO.C,C11*%
X85738748Y-56295000D02*
X86261252Y-56295000D01*
X85738748Y-57765000D02*
X86261252Y-57765000D01*
%TO.C,TP6*%
X121200000Y-106500000D02*
G75*
G02*
X118800000Y-106500000I-1200000J0D01*
G01*
X118800000Y-106500000D02*
G75*
G02*
X121200000Y-106500000I1200000J0D01*
G01*
%TO.C,J1*%
X99580000Y-107565000D02*
X99580000Y-106155000D01*
X92040000Y-103485000D02*
X91240000Y-103485000D01*
X91240000Y-103485000D02*
X91240000Y-103635000D01*
X90420000Y-107565000D02*
X90420000Y-106155000D01*
%TO.C,D1*%
X80040000Y-105315000D02*
X80040000Y-108000000D01*
X81960000Y-105315000D02*
X80040000Y-105315000D01*
X81960000Y-108000000D02*
X81960000Y-105315000D01*
%TO.C,U1*%
X83390000Y-59890000D02*
X83940000Y-59890000D01*
X83390000Y-60440000D02*
X83390000Y-59890000D01*
X83390000Y-65560000D02*
X83390000Y-66110000D01*
X83390000Y-66110000D02*
X83940000Y-66110000D01*
X89060000Y-59890000D02*
X89370000Y-59890000D01*
X89610000Y-60440000D02*
X89610000Y-60190000D01*
X89610000Y-65560000D02*
X89610000Y-66110000D01*
X89610000Y-66110000D02*
X89060000Y-66110000D01*
X89940000Y-60130000D02*
X89610000Y-59890000D01*
X89940000Y-59650000D01*
X89940000Y-60130000D01*
G36*
X89940000Y-60130000D02*
G01*
X89610000Y-59890000D01*
X89940000Y-59650000D01*
X89940000Y-60130000D01*
G37*
%TO.C,C6*%
X90765000Y-64261252D02*
X90765000Y-63738748D01*
X92235000Y-64261252D02*
X92235000Y-63738748D01*
%TO.C,C2*%
X86761252Y-67765000D02*
X86238748Y-67765000D01*
X86761252Y-69235000D02*
X86238748Y-69235000D01*
%TO.C,TP5*%
X128700000Y-99500000D02*
G75*
G02*
X126300000Y-99500000I-1200000J0D01*
G01*
X126300000Y-99500000D02*
G75*
G02*
X128700000Y-99500000I1200000J0D01*
G01*
%TO.C,U2*%
X107490000Y-107800000D02*
X107160000Y-108040000D01*
X107160000Y-107560000D01*
X107490000Y-107800000D01*
G36*
X107490000Y-107800000D02*
G01*
X107160000Y-108040000D01*
X107160000Y-107560000D01*
X107490000Y-107800000D01*
G37*
X110560000Y-106500000D02*
X110560000Y-107300000D01*
X110560000Y-106500000D02*
X110560000Y-105700000D01*
X107440000Y-106500000D02*
X107440000Y-107300000D01*
X107440000Y-106500000D02*
X107440000Y-105700000D01*
%TO.C,D2*%
X113100000Y-106700000D02*
X113100000Y-104740000D01*
X113100000Y-104740000D02*
X111900000Y-104740000D01*
X111900000Y-106700000D02*
X111900000Y-104740000D01*
%TO.C,C1*%
X90238748Y-56265000D02*
X90761252Y-56265000D01*
X90238748Y-57735000D02*
X90761252Y-57735000D01*
%TO.C,R2*%
X85765000Y-104227064D02*
X85765000Y-103772936D01*
X87235000Y-104227064D02*
X87235000Y-103772936D01*
%TO.C,BT1*%
X84530000Y-72615000D02*
X86137090Y-72615000D01*
X84530000Y-74500000D02*
X84530000Y-72615000D01*
X84530000Y-80500000D02*
X84530000Y-82385000D01*
X84530000Y-82385000D02*
X86137090Y-82385000D01*
X105470000Y-72615000D02*
X103862910Y-72615000D01*
X105470000Y-74500000D02*
X105470000Y-72615000D01*
X105470000Y-80500000D02*
X105470000Y-82385000D01*
X105470000Y-82385000D02*
X103862910Y-82385000D01*
X86137090Y-72615000D02*
G75*
G02*
X103862910Y-72615000I8862910J-4885000D01*
G01*
X103865021Y-82381168D02*
G75*
G02*
X86137090Y-82385000I-8865021J4881167D01*
G01*
%TO.C,R3*%
X102765000Y-103772936D02*
X102765000Y-104227064D01*
X104235000Y-103772936D02*
X104235000Y-104227064D01*
%TD*%
M02*
