M48
; DRILL file {KiCad 8.0.5-8.0.5-0~ubuntu24.04.1} date 2024-10-21T14:47:54+0500
; FORMAT={-:-/ absolute / inch / decimal}
; #@! TF.CreationDate,2024-10-21T14:47:54+05:00
; #@! TF.GenerationSoftware,Kicad,Pcbnew,8.0.5-8.0.5-0~ubuntu24.04.1
; #@! TF.FileFunction,Plated,1,2,PTH
FMAT,2
INCH
; #@! TA.AperFunction,Plated,PTH,ViaDrill
T1C0.0118
; #@! TA.AperFunction,Plated,PTH,ComponentDrill
T2C0.0236
%
G90
G05
T1
X2.7559Y-4.1142
X2.8346Y-1.6732
X2.8346Y-4.252
X3.2087Y-3.1102
X3.2205Y-2.3937
X3.2283Y-2.3031
X3.3465Y-2.4213
X3.4252Y-2.3031
X3.4409Y-2.1693
X3.4646Y-2.4213
X3.4646Y-2.5394
X3.563Y-2.3031
X3.6024Y-2.4016
X3.6024Y-2.5984
X3.622Y-2.6969
X3.6811Y-2.9331
X4.311Y-3.3071
T2
G00X3.5701Y-4.0884
M15
G01X3.5701Y-4.1317
M16
G05
G00X3.5701Y-4.2589
M15
G01X3.5701Y-4.2904
M16
G05
G00X3.9102Y-4.0884
M15
G01X3.9102Y-4.1317
M16
G05
G00X3.9102Y-4.2589
M15
G01X3.9102Y-4.2904
M16
G05
M30
