M48
; DRILL file {KiCad 8.0.9-8.0.9-0~ubuntu24.04.1} date 2025-07-17T17:50:51+0500
; FORMAT={-:-/ absolute / inch / decimal}
; #@! TF.CreationDate,2025-07-17T17:50:51+05:00
; #@! TF.GenerationSoftware,Kicad,Pcbnew,8.0.9-8.0.9-0~ubuntu24.04.1
; #@! TF.FileFunction,NonPlated,1,2,NPTH
FMAT,2
INCH
; #@! TA.AperFunction,NonPlated,NPTH,ComponentDrill
T1C0.0197
; #@! TA.AperFunction,NonPlated,NPTH,ComponentDrill
T2C0.0256
%
G90
G05
T1
X0.9973Y-1.0631
X0.9973Y-3.819
X0.9973Y-3.8977
X0.9973Y-6.6536
X1.0318Y-1.0631
X1.0318Y-3.819
X1.0318Y-3.8977
X1.0318Y-6.6536
X1.0663Y-1.0631
X1.0663Y-3.819
X1.0663Y-3.8977
X1.0663Y-6.6536
X1.1007Y-1.0631
X1.1007Y-3.819
X1.1007Y-3.8977
X1.1007Y-6.6536
X1.1352Y-1.0631
X1.1352Y-3.819
X1.1352Y-3.8977
X1.1352Y-6.6536
X1.1696Y-1.0631
X1.1696Y-3.819
X1.1696Y-3.8977
X1.1696Y-6.6536
X1.2041Y-1.0631
X1.2041Y-3.819
X1.2041Y-3.8977
X1.2041Y-6.6536
X1.2385Y-1.0631
X1.2385Y-3.819
X1.2385Y-3.8977
X1.2385Y-6.6536
X1.273Y-1.0631
X1.273Y-3.819
X1.273Y-3.8977
X1.273Y-6.6536
X1.916Y-1.0631
X1.916Y-3.819
X1.916Y-3.8977
X1.916Y-6.6536
X1.9504Y-1.0631
X1.9504Y-3.819
X1.9504Y-3.8977
X1.9504Y-6.6536
X1.9849Y-1.0631
X1.9849Y-3.819
X1.9849Y-3.8977
X1.9849Y-6.6536
X2.0193Y-1.0631
X2.0193Y-3.819
X2.0193Y-3.8977
X2.0193Y-6.6536
X2.0538Y-1.0631
X2.0538Y-3.819
X2.0538Y-3.8977
X2.0538Y-6.6536
X2.0883Y-1.0631
X2.0883Y-3.819
X2.0883Y-3.8977
X2.0883Y-6.6536
X2.1227Y-1.0631
X2.1227Y-3.819
X2.1227Y-3.8977
X2.1227Y-6.6536
X2.1572Y-1.0631
X2.1572Y-3.819
X2.1572Y-3.8977
X2.1572Y-6.6536
X2.1916Y-1.0631
X2.1916Y-3.819
X2.1916Y-3.8977
X2.1916Y-6.6536
X2.9724Y-1.8439
X2.9724Y-1.8783
X2.9724Y-1.9128
X2.9724Y-1.9472
X2.9724Y-1.9817
X2.9724Y-2.0161
X2.9724Y-2.0506
X2.9724Y-2.0851
X2.9724Y-2.1195
X2.9724Y-2.7625
X2.9724Y-2.7969
X2.9724Y-2.8314
X2.9724Y-2.8659
X2.9724Y-2.9003
X2.9724Y-2.9348
X2.9724Y-2.9692
X2.9724Y-3.0037
X2.9724Y-3.0382
X2.9724Y-4.6785
X2.9724Y-4.713
X2.9724Y-4.7474
X2.9724Y-4.7819
X2.9724Y-4.8163
X2.9724Y-4.8508
X2.9724Y-4.8852
X2.9724Y-4.9197
X2.9724Y-4.9542
X2.9724Y-5.5971
X2.9724Y-5.6316
X2.9724Y-5.666
X2.9724Y-5.7005
X2.9724Y-5.735
X2.9724Y-5.7694
X2.9724Y-5.8039
X2.9724Y-5.8383
X2.9724Y-5.8728
X3.0512Y-1.8439
X3.0512Y-1.8783
X3.0512Y-1.9128
X3.0512Y-1.9472
X3.0512Y-1.9817
X3.0512Y-2.0161
X3.0512Y-2.0506
X3.0512Y-2.0851
X3.0512Y-2.1195
X3.0512Y-2.7625
X3.0512Y-2.7969
X3.0512Y-2.8314
X3.0512Y-2.8659
X3.0512Y-2.9003
X3.0512Y-2.9348
X3.0512Y-2.9692
X3.0512Y-3.0037
X3.0512Y-3.0382
X3.0512Y-4.6785
X3.0512Y-4.713
X3.0512Y-4.7474
X3.0512Y-4.7819
X3.0512Y-4.8163
X3.0512Y-4.8508
X3.0512Y-4.8852
X3.0512Y-4.9197
X3.0512Y-4.9542
X3.0512Y-5.5971
X3.0512Y-5.6316
X3.0512Y-5.666
X3.0512Y-5.7005
X3.0512Y-5.735
X3.0512Y-5.7694
X3.0512Y-5.8039
X3.0512Y-5.8383
X3.0512Y-5.8728
X3.832Y-1.0631
X3.832Y-3.819
X3.832Y-3.8977
X3.832Y-6.6536
X3.8664Y-1.0631
X3.8664Y-3.819
X3.8664Y-3.8977
X3.8664Y-6.6536
X3.9009Y-1.0631
X3.9009Y-3.819
X3.9009Y-3.8977
X3.9009Y-6.6536
X3.9354Y-1.0631
X3.9354Y-3.819
X3.9354Y-3.8977
X3.9354Y-6.6536
X3.9698Y-1.0631
X3.9698Y-3.819
X3.9698Y-3.8977
X3.9698Y-6.6536
X4.0043Y-1.0631
X4.0043Y-3.819
X4.0043Y-3.8977
X4.0043Y-6.6536
X4.0387Y-1.0631
X4.0387Y-3.819
X4.0387Y-3.8977
X4.0387Y-6.6536
X4.0732Y-1.0631
X4.0732Y-3.819
X4.0732Y-3.8977
X4.0732Y-6.6536
X4.1077Y-1.0631
X4.1077Y-3.819
X4.1077Y-3.8977
X4.1077Y-6.6536
X4.7506Y-1.0631
X4.7506Y-3.819
X4.7506Y-3.8977
X4.7506Y-6.6536
X4.7851Y-1.0631
X4.7851Y-3.819
X4.7851Y-3.8977
X4.7851Y-6.6536
X4.8195Y-1.0631
X4.8195Y-3.819
X4.8195Y-3.8977
X4.8195Y-6.6536
X4.854Y-1.0631
X4.854Y-3.819
X4.854Y-3.8977
X4.854Y-6.6536
X4.8885Y-1.0631
X4.8885Y-3.819
X4.8885Y-3.8977
X4.8885Y-6.6536
X4.9229Y-1.0631
X4.9229Y-3.819
X4.9229Y-3.8977
X4.9229Y-6.6536
X4.9574Y-1.0631
X4.9574Y-3.819
X4.9574Y-3.8977
X4.9574Y-6.6536
X4.9918Y-1.0631
X4.9918Y-3.819
X4.9918Y-3.8977
X4.9918Y-6.6536
X5.0263Y-1.0631
X5.0263Y-3.819
X5.0263Y-3.8977
X5.0263Y-6.6536
X5.8071Y-1.8439
X5.8071Y-1.8783
X5.8071Y-1.9128
X5.8071Y-1.9472
X5.8071Y-1.9817
X5.8071Y-2.0161
X5.8071Y-2.0506
X5.8071Y-2.0851
X5.8071Y-2.1195
X5.8071Y-2.7625
X5.8071Y-2.7969
X5.8071Y-2.8314
X5.8071Y-2.8659
X5.8071Y-2.9003
X5.8071Y-2.9348
X5.8071Y-2.9692
X5.8071Y-3.0037
X5.8071Y-3.0382
X5.8071Y-4.6785
X5.8071Y-4.713
X5.8071Y-4.7474
X5.8071Y-4.7819
X5.8071Y-4.8163
X5.8071Y-4.8508
X5.8071Y-4.8852
X5.8071Y-4.9197
X5.8071Y-4.9542
X5.8071Y-5.5971
X5.8071Y-5.6316
X5.8071Y-5.666
X5.8071Y-5.7005
X5.8071Y-5.735
X5.8071Y-5.7694
X5.8071Y-5.8039
X5.8071Y-5.8383
X5.8071Y-5.8728
X5.8858Y-1.8439
X5.8858Y-1.8783
X5.8858Y-1.9128
X5.8858Y-1.9472
X5.8858Y-1.9817
X5.8858Y-2.0161
X5.8858Y-2.0506
X5.8858Y-2.0851
X5.8858Y-2.1195
X5.8858Y-2.7625
X5.8858Y-2.7969
X5.8858Y-2.8314
X5.8858Y-2.8659
X5.8858Y-2.9003
X5.8858Y-2.9348
X5.8858Y-2.9692
X5.8858Y-3.0037
X5.8858Y-3.0382
X5.8858Y-4.6785
X5.8858Y-4.713
X5.8858Y-4.7474
X5.8858Y-4.7819
X5.8858Y-4.8163
X5.8858Y-4.8508
X5.8858Y-4.8852
X5.8858Y-4.9197
X5.8858Y-4.9542
X5.8858Y-5.5971
X5.8858Y-5.6316
X5.8858Y-5.666
X5.8858Y-5.7005
X5.8858Y-5.735
X5.8858Y-5.7694
X5.8858Y-5.8039
X5.8858Y-5.8383
X5.8858Y-5.8728
X6.6666Y-1.0631
X6.6666Y-3.819
X6.6666Y-3.8977
X6.6666Y-6.6536
X6.7011Y-1.0631
X6.7011Y-3.819
X6.7011Y-3.8977
X6.7011Y-6.6536
X6.7355Y-1.0631
X6.7355Y-3.819
X6.7355Y-3.8977
X6.7355Y-6.6536
X6.77Y-1.0631
X6.77Y-3.819
X6.77Y-3.8977
X6.77Y-6.6536
X6.8045Y-1.0631
X6.8045Y-3.819
X6.8045Y-3.8977
X6.8045Y-6.6536
X6.8389Y-1.0631
X6.8389Y-3.819
X6.8389Y-3.8977
X6.8389Y-6.6536
X6.8734Y-1.0631
X6.8734Y-3.819
X6.8734Y-3.8977
X6.8734Y-6.6536
X6.9078Y-1.0631
X6.9078Y-3.819
X6.9078Y-3.8977
X6.9078Y-6.6536
X6.9423Y-1.0631
X6.9423Y-3.819
X6.9423Y-3.8977
X6.9423Y-6.6536
X7.5853Y-1.0631
X7.5853Y-3.819
X7.5853Y-3.8977
X7.5853Y-6.6536
X7.6197Y-1.0631
X7.6197Y-3.819
X7.6197Y-3.8977
X7.6197Y-6.6536
X7.6542Y-1.0631
X7.6542Y-3.819
X7.6542Y-3.8977
X7.6542Y-6.6536
X7.6886Y-1.0631
X7.6886Y-3.819
X7.6886Y-3.8977
X7.6886Y-6.6536
X7.7231Y-1.0631
X7.7231Y-3.819
X7.7231Y-3.8977
X7.7231Y-6.6536
X7.7576Y-1.0631
X7.7576Y-3.819
X7.7576Y-3.8977
X7.7576Y-6.6536
X7.792Y-1.0631
X7.792Y-3.819
X7.792Y-3.8977
X7.792Y-6.6536
X7.8265Y-1.0631
X7.8265Y-3.819
X7.8265Y-3.8977
X7.8265Y-6.6536
X7.8609Y-1.0631
X7.8609Y-3.819
X7.8609Y-3.8977
X7.8609Y-6.6536
X8.6417Y-1.8439
X8.6417Y-1.8783
X8.6417Y-1.9128
X8.6417Y-1.9472
X8.6417Y-1.9817
X8.6417Y-2.0161
X8.6417Y-2.0506
X8.6417Y-2.0851
X8.6417Y-2.1195
X8.6417Y-2.7625
X8.6417Y-2.7969
X8.6417Y-2.8314
X8.6417Y-2.8659
X8.6417Y-2.9003
X8.6417Y-2.9348
X8.6417Y-2.9692
X8.6417Y-3.0037
X8.6417Y-3.0382
X8.6417Y-4.6785
X8.6417Y-4.713
X8.6417Y-4.7474
X8.6417Y-4.7819
X8.6417Y-4.8163
X8.6417Y-4.8508
X8.6417Y-4.8852
X8.6417Y-4.9197
X8.6417Y-4.9542
X8.6417Y-5.5971
X8.6417Y-5.6316
X8.6417Y-5.666
X8.6417Y-5.7005
X8.6417Y-5.735
X8.6417Y-5.7694
X8.6417Y-5.8039
X8.6417Y-5.8383
X8.6417Y-5.8728
X8.7205Y-1.8439
X8.7205Y-1.8783
X8.7205Y-1.9128
X8.7205Y-1.9472
X8.7205Y-1.9817
X8.7205Y-2.0161
X8.7205Y-2.0506
X8.7205Y-2.0851
X8.7205Y-2.1195
X8.7205Y-2.7625
X8.7205Y-2.7969
X8.7205Y-2.8314
X8.7205Y-2.8659
X8.7205Y-2.9003
X8.7205Y-2.9348
X8.7205Y-2.9692
X8.7205Y-3.0037
X8.7205Y-3.0382
X8.7205Y-4.6785
X8.7205Y-4.713
X8.7205Y-4.7474
X8.7205Y-4.7819
X8.7205Y-4.8163
X8.7205Y-4.8508
X8.7205Y-4.8852
X8.7205Y-4.9197
X8.7205Y-4.9542
X8.7205Y-5.5971
X8.7205Y-5.6316
X8.7205Y-5.666
X8.7205Y-5.7005
X8.7205Y-5.735
X8.7205Y-5.7694
X8.7205Y-5.8039
X8.7205Y-5.8383
X8.7205Y-5.8728
X9.5013Y-1.0631
X9.5013Y-3.819
X9.5013Y-3.8977
X9.5013Y-6.6536
X9.5357Y-1.0631
X9.5357Y-3.819
X9.5357Y-3.8977
X9.5357Y-6.6536
X9.5702Y-1.0631
X9.5702Y-3.819
X9.5702Y-3.8977
X9.5702Y-6.6536
X9.6046Y-1.0631
X9.6046Y-3.819
X9.6046Y-3.8977
X9.6046Y-6.6536
X9.6391Y-1.0631
X9.6391Y-3.819
X9.6391Y-3.8977
X9.6391Y-6.6536
X9.6736Y-1.0631
X9.6736Y-3.819
X9.6736Y-3.8977
X9.6736Y-6.6536
X9.708Y-1.0631
X9.708Y-3.819
X9.708Y-3.8977
X9.708Y-6.6536
X9.7425Y-1.0631
X9.7425Y-3.819
X9.7425Y-3.8977
X9.7425Y-6.6536
X9.7769Y-1.0631
X9.7769Y-3.819
X9.7769Y-3.8977
X9.7769Y-6.6536
X10.4199Y-1.0631
X10.4199Y-3.819
X10.4199Y-3.8977
X10.4199Y-6.6536
X10.4544Y-1.0631
X10.4544Y-3.819
X10.4544Y-3.8977
X10.4544Y-6.6536
X10.4888Y-1.0631
X10.4888Y-3.819
X10.4888Y-3.8977
X10.4888Y-6.6536
X10.5233Y-1.0631
X10.5233Y-3.819
X10.5233Y-3.8977
X10.5233Y-6.6536
X10.5577Y-1.0631
X10.5577Y-3.819
X10.5577Y-3.8977
X10.5577Y-6.6536
X10.5922Y-1.0631
X10.5922Y-3.819
X10.5922Y-3.8977
X10.5922Y-6.6536
X10.6267Y-1.0631
X10.6267Y-3.819
X10.6267Y-3.8977
X10.6267Y-6.6536
X10.6611Y-1.0631
X10.6611Y-3.819
X10.6611Y-3.8977
X10.6611Y-6.6536
X10.6956Y-1.0631
X10.6956Y-3.819
X10.6956Y-3.8977
X10.6956Y-6.6536
T2
X1.4807Y-3.618
X1.4807Y-6.4526
X1.7083Y-3.618
X1.7083Y-6.4526
X4.3154Y-3.618
X4.3154Y-6.4526
X4.5429Y-3.618
X4.5429Y-6.4526
X7.15Y-3.618
X7.15Y-6.4526
X7.3776Y-3.618
X7.3776Y-6.4526
X9.9846Y-3.618
X9.9846Y-6.4526
X10.2122Y-3.618
X10.2122Y-6.4526
M30
