%TF.GenerationSoftware,KiCad,Pcbnew,8.0.9-8.0.9-0~ubuntu24.04.1*%
%TF.CreationDate,2025-07-17T17:50:56+05:00*%
%TF.ProjectId,panel_170725,70616e65-6c5f-4313-9730-3732352e6b69,rev?*%
%TF.SameCoordinates,Original*%
%TF.FileFunction,Paste,Top*%
%TF.FilePolarity,Positive*%
%FSLAX46Y46*%
G04 Gerber Fmt 4.6, Leading zero omitted, Abs format (unit mm)*
G04 Created by KiCad (PCBNEW 8.0.9-8.0.9-0~ubuntu24.04.1) date 2025-07-17 17:50:56*
%MOMM*%
%LPD*%
G01*
G04 APERTURE LIST*
G04 Aperture macros list*
%AMRoundRect*
0 Rectangle with rounded corners*
0 $1 Rounding radius*
0 $2 $3 $4 $5 $6 $7 $8 $9 X,Y pos of 4 corners*
0 Add a 4 corners polygon primitive as box body*
4,1,4,$2,$3,$4,$5,$6,$7,$8,$9,$2,$3,0*
0 Add four circle primitives for the rounded corners*
1,1,$1+$1,$2,$3*
1,1,$1+$1,$4,$5*
1,1,$1+$1,$6,$7*
1,1,$1+$1,$8,$9*
0 Add four rect primitives between the rounded corners*
20,1,$1+$1,$2,$3,$4,$5,0*
20,1,$1+$1,$4,$5,$6,$7,0*
20,1,$1+$1,$6,$7,$8,$9,0*
20,1,$1+$1,$8,$9,$2,$3,0*%
G04 Aperture macros list end*
%ADD10RoundRect,0.250000X-0.450000X0.262500X-0.450000X-0.262500X0.450000X-0.262500X0.450000X0.262500X0*%
%ADD11RoundRect,0.150000X-0.150000X-0.425000X0.150000X-0.425000X0.150000X0.425000X-0.150000X0.425000X0*%
%ADD12RoundRect,0.075000X-0.075000X-0.500000X0.075000X-0.500000X0.075000X0.500000X-0.075000X0.500000X0*%
%ADD13O,1.000000X2.100000*%
%ADD14O,1.000000X1.800000*%
%ADD15RoundRect,0.150000X-0.512500X-0.150000X0.512500X-0.150000X0.512500X0.150000X-0.512500X0.150000X0*%
%ADD16RoundRect,0.250000X0.250000X0.475000X-0.250000X0.475000X-0.250000X-0.475000X0.250000X-0.475000X0*%
%ADD17R,1.400000X1.200000*%
%ADD18RoundRect,0.250000X0.450000X-0.262500X0.450000X0.262500X-0.450000X0.262500X-0.450000X-0.262500X0*%
%ADD19RoundRect,0.250000X-0.475000X0.250000X-0.475000X-0.250000X0.475000X-0.250000X0.475000X0.250000X0*%
%ADD20RoundRect,0.250000X0.262500X0.450000X-0.262500X0.450000X-0.262500X-0.450000X0.262500X-0.450000X0*%
%ADD21RoundRect,0.250000X-0.370000X0.370000X-0.370000X-0.370000X0.370000X-0.370000X0.370000X0.370000X0*%
%ADD22RoundRect,0.050000X-0.050000X0.350000X-0.050000X-0.350000X0.050000X-0.350000X0.050000X0.350000X0*%
%ADD23RoundRect,0.050000X-0.350000X0.050000X-0.350000X-0.050000X0.350000X-0.050000X0.350000X0.050000X0*%
%ADD24RoundRect,0.243750X-0.243750X-0.456250X0.243750X-0.456250X0.243750X0.456250X-0.243750X0.456250X0*%
%ADD25RoundRect,0.150000X0.512500X0.150000X-0.512500X0.150000X-0.512500X-0.150000X0.512500X-0.150000X0*%
%ADD26RoundRect,0.250000X0.475000X-0.250000X0.475000X0.250000X-0.475000X0.250000X-0.475000X-0.250000X0*%
%ADD27RoundRect,0.250000X-0.250000X-0.475000X0.250000X-0.475000X0.250000X0.475000X-0.250000X0.475000X0*%
%ADD28RoundRect,0.625000X-0.625000X-0.625000X0.625000X-0.625000X0.625000X0.625000X-0.625000X0.625000X0*%
%ADD29RoundRect,0.250000X-0.262500X-0.450000X0.262500X-0.450000X0.262500X0.450000X-0.262500X0.450000X0*%
G04 APERTURE END LIST*
D10*
%TO.C,R1*%
X26000000Y-133089000D03*
X26000000Y-134914000D03*
%TD*%
D11*
%TO.C,J1*%
X109300000Y-90821500D03*
X110100000Y-90821500D03*
D12*
X111250000Y-90821500D03*
X112250000Y-90821500D03*
X112750000Y-90821500D03*
X113750000Y-90821500D03*
D11*
X114900000Y-90821500D03*
X115700000Y-90821500D03*
X115700000Y-90821500D03*
X114900000Y-90821500D03*
D12*
X114250000Y-90821500D03*
X113250000Y-90821500D03*
X111750000Y-90821500D03*
X110750000Y-90821500D03*
D11*
X110100000Y-90821500D03*
X109300000Y-90821500D03*
D13*
X108180000Y-91396500D03*
D14*
X108180000Y-95576500D03*
D13*
X116820000Y-91396500D03*
D14*
X116820000Y-95576500D03*
%TD*%
D15*
%TO.C,U2*%
X275654500Y-163289500D03*
X275654500Y-164239500D03*
X275654500Y-165189500D03*
X277929500Y-165189500D03*
X277929500Y-163289500D03*
%TD*%
D16*
%TO.C,C10*%
X99950000Y-116031500D03*
X98050000Y-116031500D03*
%TD*%
%TO.C,C10*%
X243950000Y-116031500D03*
X242050000Y-116031500D03*
%TD*%
D17*
%TO.C,Y1*%
X110400000Y-57351500D03*
X112600000Y-57351500D03*
X112600000Y-55651500D03*
X110400000Y-55651500D03*
%TD*%
D18*
%TO.C,R4*%
X32090000Y-164136000D03*
X32090000Y-162311000D03*
%TD*%
D16*
%TO.C,C9*%
X176450000Y-44001500D03*
X174550000Y-44001500D03*
%TD*%
D19*
%TO.C,C11*%
X280602000Y-163289500D03*
X280602000Y-165189500D03*
%TD*%
D20*
%TO.C,R3*%
X133958500Y-167541500D03*
X132133500Y-167541500D03*
%TD*%
D16*
%TO.C,C10*%
X99950000Y-44031500D03*
X98050000Y-44031500D03*
%TD*%
D21*
%TO.C,U1*%
X33530000Y-120471500D03*
X32000000Y-120471500D03*
X30470000Y-120471500D03*
X33530000Y-122001500D03*
X32000000Y-122001500D03*
X30470000Y-122001500D03*
X33530000Y-123531500D03*
X32000000Y-123531500D03*
X30470000Y-123531500D03*
D22*
X34200000Y-119051500D03*
X33800000Y-119051500D03*
X33400000Y-119051500D03*
X33000000Y-119051500D03*
X32600000Y-119051500D03*
X32200000Y-119051500D03*
X31800000Y-119051500D03*
X31400000Y-119051500D03*
X31000000Y-119051500D03*
X30600000Y-119051500D03*
X30200000Y-119051500D03*
X29800000Y-119051500D03*
D23*
X29050000Y-119801500D03*
X29050000Y-120201500D03*
X29050000Y-120601500D03*
X29050000Y-121001500D03*
X29050000Y-121401500D03*
X29050000Y-121801500D03*
X29050000Y-122201500D03*
X29050000Y-122601500D03*
X29050000Y-123001500D03*
X29050000Y-123401500D03*
X29050000Y-123801500D03*
X29050000Y-124201500D03*
D22*
X29800000Y-124951500D03*
X30200000Y-124951500D03*
X30600000Y-124951500D03*
X31000000Y-124951500D03*
X31400000Y-124951500D03*
X31800000Y-124951500D03*
X32200000Y-124951500D03*
X32600000Y-124951500D03*
X33000000Y-124951500D03*
X33400000Y-124951500D03*
X33800000Y-124951500D03*
X34200000Y-124951500D03*
D23*
X34950000Y-124201500D03*
X34950000Y-123801500D03*
X34950000Y-123401500D03*
X34950000Y-123001500D03*
X34950000Y-122601500D03*
X34950000Y-122201500D03*
X34950000Y-121801500D03*
X34950000Y-121401500D03*
X34950000Y-121001500D03*
X34950000Y-120601500D03*
X34950000Y-120201500D03*
X34950000Y-119801500D03*
%TD*%
D18*
%TO.C,R4*%
X104090000Y-92136000D03*
X104090000Y-90311000D03*
%TD*%
D24*
%TO.C,D2*%
X272044500Y-167541500D03*
X273919500Y-167541500D03*
%TD*%
D25*
%TO.C,U3*%
X270309500Y-93189500D03*
X270309500Y-92239500D03*
X270309500Y-91289500D03*
X268034500Y-91289500D03*
X268034500Y-93189500D03*
%TD*%
D21*
%TO.C,U1*%
X177530000Y-48471500D03*
X176000000Y-48471500D03*
X174470000Y-48471500D03*
X177530000Y-50001500D03*
X176000000Y-50001500D03*
X174470000Y-50001500D03*
X177530000Y-51531500D03*
X176000000Y-51531500D03*
X174470000Y-51531500D03*
D22*
X178200000Y-47051500D03*
X177800000Y-47051500D03*
X177400000Y-47051500D03*
X177000000Y-47051500D03*
X176600000Y-47051500D03*
X176200000Y-47051500D03*
X175800000Y-47051500D03*
X175400000Y-47051500D03*
X175000000Y-47051500D03*
X174600000Y-47051500D03*
X174200000Y-47051500D03*
X173800000Y-47051500D03*
D23*
X173050000Y-47801500D03*
X173050000Y-48201500D03*
X173050000Y-48601500D03*
X173050000Y-49001500D03*
X173050000Y-49401500D03*
X173050000Y-49801500D03*
X173050000Y-50201500D03*
X173050000Y-50601500D03*
X173050000Y-51001500D03*
X173050000Y-51401500D03*
X173050000Y-51801500D03*
X173050000Y-52201500D03*
D22*
X173800000Y-52951500D03*
X174200000Y-52951500D03*
X174600000Y-52951500D03*
X175000000Y-52951500D03*
X175400000Y-52951500D03*
X175800000Y-52951500D03*
X176200000Y-52951500D03*
X176600000Y-52951500D03*
X177000000Y-52951500D03*
X177400000Y-52951500D03*
X177800000Y-52951500D03*
X178200000Y-52951500D03*
D23*
X178950000Y-52201500D03*
X178950000Y-51801500D03*
X178950000Y-51401500D03*
X178950000Y-51001500D03*
X178950000Y-50601500D03*
X178950000Y-50201500D03*
X178950000Y-49801500D03*
X178950000Y-49401500D03*
X178950000Y-49001500D03*
X178950000Y-48601500D03*
X178950000Y-48201500D03*
X178950000Y-47801500D03*
%TD*%
D11*
%TO.C,J1*%
X109300000Y-162821500D03*
X110100000Y-162821500D03*
D12*
X111250000Y-162821500D03*
X112250000Y-162821500D03*
X112750000Y-162821500D03*
X113750000Y-162821500D03*
D11*
X114900000Y-162821500D03*
X115700000Y-162821500D03*
X115700000Y-162821500D03*
X114900000Y-162821500D03*
D12*
X114250000Y-162821500D03*
X113250000Y-162821500D03*
X111750000Y-162821500D03*
X110750000Y-162821500D03*
D11*
X110100000Y-162821500D03*
X109300000Y-162821500D03*
D13*
X108180000Y-163396500D03*
D14*
X108180000Y-167576500D03*
D13*
X116820000Y-163396500D03*
D14*
X116820000Y-167576500D03*
%TD*%
D16*
%TO.C,C7*%
X104950000Y-56001500D03*
X103050000Y-56001500D03*
%TD*%
D26*
%TO.C,C13*%
X120854000Y-95729500D03*
X120854000Y-93829500D03*
%TD*%
D19*
%TO.C,C6*%
X183500000Y-119376500D03*
X183500000Y-121276500D03*
%TD*%
D20*
%TO.C,R3*%
X61958500Y-167541500D03*
X60133500Y-167541500D03*
%TD*%
D16*
%TO.C,C7*%
X248950000Y-56001500D03*
X247050000Y-56001500D03*
%TD*%
D27*
%TO.C,C8*%
X251050000Y-116001500D03*
X252950000Y-116001500D03*
%TD*%
D26*
%TO.C,C1*%
X252000000Y-129451500D03*
X252000000Y-127551500D03*
%TD*%
D11*
%TO.C,J1*%
X181300000Y-162821500D03*
X182100000Y-162821500D03*
D12*
X183250000Y-162821500D03*
X184250000Y-162821500D03*
X184750000Y-162821500D03*
X185750000Y-162821500D03*
D11*
X186900000Y-162821500D03*
X187700000Y-162821500D03*
X187700000Y-162821500D03*
X186900000Y-162821500D03*
D12*
X186250000Y-162821500D03*
X185250000Y-162821500D03*
X183750000Y-162821500D03*
X182750000Y-162821500D03*
D11*
X182100000Y-162821500D03*
X181300000Y-162821500D03*
D13*
X180180000Y-163396500D03*
D14*
X180180000Y-167576500D03*
D13*
X188820000Y-163396500D03*
D14*
X188820000Y-167576500D03*
%TD*%
D25*
%TO.C,U3*%
X54309500Y-93189500D03*
X54309500Y-92239500D03*
X54309500Y-91289500D03*
X52034500Y-91289500D03*
X52034500Y-93189500D03*
%TD*%
D19*
%TO.C,C6*%
X111500000Y-47376500D03*
X111500000Y-49276500D03*
%TD*%
D16*
%TO.C,C7*%
X176950000Y-56001500D03*
X175050000Y-56001500D03*
%TD*%
D26*
%TO.C,C5*%
X25500000Y-120451500D03*
X25500000Y-118551500D03*
%TD*%
D19*
%TO.C,C12*%
X56982000Y-91289500D03*
X56982000Y-93189500D03*
%TD*%
D16*
%TO.C,C9*%
X248450000Y-44001500D03*
X246550000Y-44001500D03*
%TD*%
D10*
%TO.C,R5*%
X48854000Y-90311000D03*
X48854000Y-92136000D03*
%TD*%
D11*
%TO.C,J1*%
X181300000Y-90821500D03*
X182100000Y-90821500D03*
D12*
X183250000Y-90821500D03*
X184250000Y-90821500D03*
X184750000Y-90821500D03*
X185750000Y-90821500D03*
D11*
X186900000Y-90821500D03*
X187700000Y-90821500D03*
X187700000Y-90821500D03*
X186900000Y-90821500D03*
D12*
X186250000Y-90821500D03*
X185250000Y-90821500D03*
X183750000Y-90821500D03*
X182750000Y-90821500D03*
D11*
X182100000Y-90821500D03*
X181300000Y-90821500D03*
D13*
X180180000Y-91396500D03*
D14*
X180180000Y-95576500D03*
D13*
X188820000Y-91396500D03*
D14*
X188820000Y-95576500D03*
%TD*%
D16*
%TO.C,C7*%
X32950000Y-56001500D03*
X31050000Y-56001500D03*
%TD*%
D25*
%TO.C,U3*%
X126309500Y-165189500D03*
X126309500Y-164239500D03*
X126309500Y-163289500D03*
X124034500Y-163289500D03*
X124034500Y-165189500D03*
%TD*%
D26*
%TO.C,C4*%
X255500000Y-45466500D03*
X255500000Y-43566500D03*
%TD*%
D16*
%TO.C,C7*%
X32950000Y-128001500D03*
X31050000Y-128001500D03*
%TD*%
D26*
%TO.C,C13*%
X48854000Y-167729500D03*
X48854000Y-165829500D03*
%TD*%
D19*
%TO.C,C12*%
X56982000Y-163289500D03*
X56982000Y-165189500D03*
%TD*%
%TO.C,C11*%
X208602000Y-91289500D03*
X208602000Y-93189500D03*
%TD*%
D18*
%TO.C,R4*%
X248090000Y-164136000D03*
X248090000Y-162311000D03*
%TD*%
D26*
%TO.C,C5*%
X169500000Y-120451500D03*
X169500000Y-118551500D03*
%TD*%
D21*
%TO.C,U1*%
X105530000Y-120471500D03*
X104000000Y-120471500D03*
X102470000Y-120471500D03*
X105530000Y-122001500D03*
X104000000Y-122001500D03*
X102470000Y-122001500D03*
X105530000Y-123531500D03*
X104000000Y-123531500D03*
X102470000Y-123531500D03*
D22*
X106200000Y-119051500D03*
X105800000Y-119051500D03*
X105400000Y-119051500D03*
X105000000Y-119051500D03*
X104600000Y-119051500D03*
X104200000Y-119051500D03*
X103800000Y-119051500D03*
X103400000Y-119051500D03*
X103000000Y-119051500D03*
X102600000Y-119051500D03*
X102200000Y-119051500D03*
X101800000Y-119051500D03*
D23*
X101050000Y-119801500D03*
X101050000Y-120201500D03*
X101050000Y-120601500D03*
X101050000Y-121001500D03*
X101050000Y-121401500D03*
X101050000Y-121801500D03*
X101050000Y-122201500D03*
X101050000Y-122601500D03*
X101050000Y-123001500D03*
X101050000Y-123401500D03*
X101050000Y-123801500D03*
X101050000Y-124201500D03*
D22*
X101800000Y-124951500D03*
X102200000Y-124951500D03*
X102600000Y-124951500D03*
X103000000Y-124951500D03*
X103400000Y-124951500D03*
X103800000Y-124951500D03*
X104200000Y-124951500D03*
X104600000Y-124951500D03*
X105000000Y-124951500D03*
X105400000Y-124951500D03*
X105800000Y-124951500D03*
X106200000Y-124951500D03*
D23*
X106950000Y-124201500D03*
X106950000Y-123801500D03*
X106950000Y-123401500D03*
X106950000Y-123001500D03*
X106950000Y-122601500D03*
X106950000Y-122201500D03*
X106950000Y-121801500D03*
X106950000Y-121401500D03*
X106950000Y-121001500D03*
X106950000Y-120601500D03*
X106950000Y-120201500D03*
X106950000Y-119801500D03*
%TD*%
D19*
%TO.C,C6*%
X183500000Y-47376500D03*
X183500000Y-49276500D03*
%TD*%
D11*
%TO.C,J1*%
X253300000Y-162821500D03*
X254100000Y-162821500D03*
D12*
X255250000Y-162821500D03*
X256250000Y-162821500D03*
X256750000Y-162821500D03*
X257750000Y-162821500D03*
D11*
X258900000Y-162821500D03*
X259700000Y-162821500D03*
X259700000Y-162821500D03*
X258900000Y-162821500D03*
D12*
X258250000Y-162821500D03*
X257250000Y-162821500D03*
X255750000Y-162821500D03*
X254750000Y-162821500D03*
D11*
X254100000Y-162821500D03*
X253300000Y-162821500D03*
D13*
X252180000Y-163396500D03*
D14*
X252180000Y-167576500D03*
D13*
X260820000Y-163396500D03*
D14*
X260820000Y-167576500D03*
%TD*%
D26*
%TO.C,C4*%
X255500000Y-117466500D03*
X255500000Y-115566500D03*
%TD*%
D28*
%TO.C,BT1*%
X126442000Y-87921500D03*
X136602000Y-87921500D03*
%TD*%
D24*
%TO.C,D2*%
X56044500Y-95541500D03*
X57919500Y-95541500D03*
%TD*%
D18*
%TO.C,R4*%
X32090000Y-92136000D03*
X32090000Y-90311000D03*
%TD*%
D19*
%TO.C,C2*%
X115000000Y-127551500D03*
X115000000Y-129451500D03*
%TD*%
%TO.C,C12*%
X128982000Y-163289500D03*
X128982000Y-165189500D03*
%TD*%
D25*
%TO.C,U3*%
X270309500Y-165189500D03*
X270309500Y-164239500D03*
X270309500Y-163289500D03*
X268034500Y-163289500D03*
X268034500Y-165189500D03*
%TD*%
D10*
%TO.C,R5*%
X264854000Y-90311000D03*
X264854000Y-92136000D03*
%TD*%
D16*
%TO.C,C7*%
X176950000Y-128001500D03*
X175050000Y-128001500D03*
%TD*%
D25*
%TO.C,U3*%
X54309500Y-165189500D03*
X54309500Y-164239500D03*
X54309500Y-163289500D03*
X52034500Y-163289500D03*
X52034500Y-165189500D03*
%TD*%
D28*
%TO.C,BT1*%
X198442000Y-159921500D03*
X208602000Y-159921500D03*
%TD*%
D24*
%TO.C,D2*%
X56044500Y-167541500D03*
X57919500Y-167541500D03*
%TD*%
D16*
%TO.C,C9*%
X32450000Y-44001500D03*
X30550000Y-44001500D03*
%TD*%
D26*
%TO.C,C1*%
X108000000Y-129451500D03*
X108000000Y-127551500D03*
%TD*%
D16*
%TO.C,C9*%
X248450000Y-116001500D03*
X246550000Y-116001500D03*
%TD*%
D10*
%TO.C,R1*%
X98000000Y-61089000D03*
X98000000Y-62914000D03*
%TD*%
D26*
%TO.C,C3*%
X111500866Y-53086500D03*
X111500866Y-51186500D03*
%TD*%
D16*
%TO.C,C10*%
X171950000Y-116031500D03*
X170050000Y-116031500D03*
%TD*%
D17*
%TO.C,Y1*%
X254400000Y-129351500D03*
X256600000Y-129351500D03*
X256600000Y-127651500D03*
X254400000Y-127651500D03*
%TD*%
D16*
%TO.C,C10*%
X27950000Y-116031500D03*
X26050000Y-116031500D03*
%TD*%
D19*
%TO.C,C11*%
X280602000Y-91289500D03*
X280602000Y-93189500D03*
%TD*%
%TO.C,C2*%
X187000000Y-127551500D03*
X187000000Y-129451500D03*
%TD*%
%TO.C,C2*%
X259000000Y-55551500D03*
X259000000Y-57451500D03*
%TD*%
D26*
%TO.C,C5*%
X97500000Y-120451500D03*
X97500000Y-118551500D03*
%TD*%
D10*
%TO.C,R5*%
X192854000Y-90311000D03*
X192854000Y-92136000D03*
%TD*%
D26*
%TO.C,C3*%
X255500866Y-125086500D03*
X255500866Y-123186500D03*
%TD*%
D29*
%TO.C,R2*%
X52005500Y-167541500D03*
X53830500Y-167541500D03*
%TD*%
D21*
%TO.C,U1*%
X177530000Y-120471500D03*
X176000000Y-120471500D03*
X174470000Y-120471500D03*
X177530000Y-122001500D03*
X176000000Y-122001500D03*
X174470000Y-122001500D03*
X177530000Y-123531500D03*
X176000000Y-123531500D03*
X174470000Y-123531500D03*
D22*
X178200000Y-119051500D03*
X177800000Y-119051500D03*
X177400000Y-119051500D03*
X177000000Y-119051500D03*
X176600000Y-119051500D03*
X176200000Y-119051500D03*
X175800000Y-119051500D03*
X175400000Y-119051500D03*
X175000000Y-119051500D03*
X174600000Y-119051500D03*
X174200000Y-119051500D03*
X173800000Y-119051500D03*
D23*
X173050000Y-119801500D03*
X173050000Y-120201500D03*
X173050000Y-120601500D03*
X173050000Y-121001500D03*
X173050000Y-121401500D03*
X173050000Y-121801500D03*
X173050000Y-122201500D03*
X173050000Y-122601500D03*
X173050000Y-123001500D03*
X173050000Y-123401500D03*
X173050000Y-123801500D03*
X173050000Y-124201500D03*
D22*
X173800000Y-124951500D03*
X174200000Y-124951500D03*
X174600000Y-124951500D03*
X175000000Y-124951500D03*
X175400000Y-124951500D03*
X175800000Y-124951500D03*
X176200000Y-124951500D03*
X176600000Y-124951500D03*
X177000000Y-124951500D03*
X177400000Y-124951500D03*
X177800000Y-124951500D03*
X178200000Y-124951500D03*
D23*
X178950000Y-124201500D03*
X178950000Y-123801500D03*
X178950000Y-123401500D03*
X178950000Y-123001500D03*
X178950000Y-122601500D03*
X178950000Y-122201500D03*
X178950000Y-121801500D03*
X178950000Y-121401500D03*
X178950000Y-121001500D03*
X178950000Y-120601500D03*
X178950000Y-120201500D03*
X178950000Y-119801500D03*
%TD*%
D19*
%TO.C,C12*%
X200982000Y-163289500D03*
X200982000Y-165189500D03*
%TD*%
D27*
%TO.C,C8*%
X107050000Y-44001500D03*
X108950000Y-44001500D03*
%TD*%
D29*
%TO.C,R2*%
X124005500Y-95541500D03*
X125830500Y-95541500D03*
%TD*%
D24*
%TO.C,D2*%
X128044500Y-95541500D03*
X129919500Y-95541500D03*
%TD*%
D26*
%TO.C,C4*%
X111500000Y-117466500D03*
X111500000Y-115566500D03*
%TD*%
D10*
%TO.C,R5*%
X120854000Y-90311000D03*
X120854000Y-92136000D03*
%TD*%
D26*
%TO.C,C5*%
X25500000Y-48451500D03*
X25500000Y-46551500D03*
%TD*%
D15*
%TO.C,U2*%
X203654500Y-91289500D03*
X203654500Y-92239500D03*
X203654500Y-93189500D03*
X205929500Y-93189500D03*
X205929500Y-91289500D03*
%TD*%
D10*
%TO.C,R1*%
X242000000Y-133089000D03*
X242000000Y-134914000D03*
%TD*%
D19*
%TO.C,C12*%
X272982000Y-163289500D03*
X272982000Y-165189500D03*
%TD*%
D26*
%TO.C,C5*%
X97500000Y-48451500D03*
X97500000Y-46551500D03*
%TD*%
D29*
%TO.C,R2*%
X268005500Y-95541500D03*
X269830500Y-95541500D03*
%TD*%
D19*
%TO.C,C2*%
X43000000Y-55551500D03*
X43000000Y-57451500D03*
%TD*%
%TO.C,C6*%
X255500000Y-119376500D03*
X255500000Y-121276500D03*
%TD*%
D29*
%TO.C,R2*%
X124005500Y-167541500D03*
X125830500Y-167541500D03*
%TD*%
D26*
%TO.C,C1*%
X108000000Y-57451500D03*
X108000000Y-55551500D03*
%TD*%
D27*
%TO.C,C8*%
X179050000Y-116001500D03*
X180950000Y-116001500D03*
%TD*%
D19*
%TO.C,C11*%
X64602000Y-163289500D03*
X64602000Y-165189500D03*
%TD*%
D29*
%TO.C,R2*%
X196005500Y-95541500D03*
X197830500Y-95541500D03*
%TD*%
D26*
%TO.C,C1*%
X180000000Y-129451500D03*
X180000000Y-127551500D03*
%TD*%
D19*
%TO.C,C2*%
X43000000Y-127551500D03*
X43000000Y-129451500D03*
%TD*%
D17*
%TO.C,Y1*%
X38400000Y-57351500D03*
X40600000Y-57351500D03*
X40600000Y-55651500D03*
X38400000Y-55651500D03*
%TD*%
D10*
%TO.C,R1*%
X98000000Y-133089000D03*
X98000000Y-134914000D03*
%TD*%
%TO.C,R1*%
X170000000Y-133089000D03*
X170000000Y-134914000D03*
%TD*%
D19*
%TO.C,C12*%
X272982000Y-91289500D03*
X272982000Y-93189500D03*
%TD*%
D10*
%TO.C,R1*%
X26000000Y-61089000D03*
X26000000Y-62914000D03*
%TD*%
D17*
%TO.C,Y1*%
X110400000Y-129351500D03*
X112600000Y-129351500D03*
X112600000Y-127651500D03*
X110400000Y-127651500D03*
%TD*%
D16*
%TO.C,C9*%
X176450000Y-116001500D03*
X174550000Y-116001500D03*
%TD*%
%TO.C,C9*%
X32450000Y-116001500D03*
X30550000Y-116001500D03*
%TD*%
%TO.C,C7*%
X248950000Y-128001500D03*
X247050000Y-128001500D03*
%TD*%
D26*
%TO.C,C4*%
X183500000Y-117466500D03*
X183500000Y-115566500D03*
%TD*%
D29*
%TO.C,R2*%
X196005500Y-167541500D03*
X197830500Y-167541500D03*
%TD*%
D16*
%TO.C,C9*%
X104450000Y-44001500D03*
X102550000Y-44001500D03*
%TD*%
D19*
%TO.C,C2*%
X115000000Y-55551500D03*
X115000000Y-57451500D03*
%TD*%
D20*
%TO.C,R3*%
X61958500Y-95541500D03*
X60133500Y-95541500D03*
%TD*%
D19*
%TO.C,C6*%
X255500000Y-47376500D03*
X255500000Y-49276500D03*
%TD*%
D10*
%TO.C,R5*%
X264854000Y-162311000D03*
X264854000Y-164136000D03*
%TD*%
D26*
%TO.C,C13*%
X192854000Y-95729500D03*
X192854000Y-93829500D03*
%TD*%
D17*
%TO.C,Y1*%
X182400000Y-129351500D03*
X184600000Y-129351500D03*
X184600000Y-127651500D03*
X182400000Y-127651500D03*
%TD*%
D19*
%TO.C,C2*%
X187000000Y-55551500D03*
X187000000Y-57451500D03*
%TD*%
%TO.C,C6*%
X39500000Y-47376500D03*
X39500000Y-49276500D03*
%TD*%
D20*
%TO.C,R3*%
X205958500Y-167541500D03*
X204133500Y-167541500D03*
%TD*%
D19*
%TO.C,C12*%
X200982000Y-91289500D03*
X200982000Y-93189500D03*
%TD*%
D18*
%TO.C,R4*%
X176090000Y-92136000D03*
X176090000Y-90311000D03*
%TD*%
D28*
%TO.C,BT1*%
X198442000Y-87921500D03*
X208602000Y-87921500D03*
%TD*%
D21*
%TO.C,U1*%
X249530000Y-48471500D03*
X248000000Y-48471500D03*
X246470000Y-48471500D03*
X249530000Y-50001500D03*
X248000000Y-50001500D03*
X246470000Y-50001500D03*
X249530000Y-51531500D03*
X248000000Y-51531500D03*
X246470000Y-51531500D03*
D22*
X250200000Y-47051500D03*
X249800000Y-47051500D03*
X249400000Y-47051500D03*
X249000000Y-47051500D03*
X248600000Y-47051500D03*
X248200000Y-47051500D03*
X247800000Y-47051500D03*
X247400000Y-47051500D03*
X247000000Y-47051500D03*
X246600000Y-47051500D03*
X246200000Y-47051500D03*
X245800000Y-47051500D03*
D23*
X245050000Y-47801500D03*
X245050000Y-48201500D03*
X245050000Y-48601500D03*
X245050000Y-49001500D03*
X245050000Y-49401500D03*
X245050000Y-49801500D03*
X245050000Y-50201500D03*
X245050000Y-50601500D03*
X245050000Y-51001500D03*
X245050000Y-51401500D03*
X245050000Y-51801500D03*
X245050000Y-52201500D03*
D22*
X245800000Y-52951500D03*
X246200000Y-52951500D03*
X246600000Y-52951500D03*
X247000000Y-52951500D03*
X247400000Y-52951500D03*
X247800000Y-52951500D03*
X248200000Y-52951500D03*
X248600000Y-52951500D03*
X249000000Y-52951500D03*
X249400000Y-52951500D03*
X249800000Y-52951500D03*
X250200000Y-52951500D03*
D23*
X250950000Y-52201500D03*
X250950000Y-51801500D03*
X250950000Y-51401500D03*
X250950000Y-51001500D03*
X250950000Y-50601500D03*
X250950000Y-50201500D03*
X250950000Y-49801500D03*
X250950000Y-49401500D03*
X250950000Y-49001500D03*
X250950000Y-48601500D03*
X250950000Y-48201500D03*
X250950000Y-47801500D03*
%TD*%
D25*
%TO.C,U3*%
X198309500Y-93189500D03*
X198309500Y-92239500D03*
X198309500Y-91289500D03*
X196034500Y-91289500D03*
X196034500Y-93189500D03*
%TD*%
D10*
%TO.C,R5*%
X48854000Y-162311000D03*
X48854000Y-164136000D03*
%TD*%
D28*
%TO.C,BT1*%
X54442000Y-87921500D03*
X64602000Y-87921500D03*
%TD*%
D11*
%TO.C,J1*%
X253300000Y-90821500D03*
X254100000Y-90821500D03*
D12*
X255250000Y-90821500D03*
X256250000Y-90821500D03*
X256750000Y-90821500D03*
X257750000Y-90821500D03*
D11*
X258900000Y-90821500D03*
X259700000Y-90821500D03*
X259700000Y-90821500D03*
X258900000Y-90821500D03*
D12*
X258250000Y-90821500D03*
X257250000Y-90821500D03*
X255750000Y-90821500D03*
X254750000Y-90821500D03*
D11*
X254100000Y-90821500D03*
X253300000Y-90821500D03*
D13*
X252180000Y-91396500D03*
D14*
X252180000Y-95576500D03*
D13*
X260820000Y-91396500D03*
D14*
X260820000Y-95576500D03*
%TD*%
D27*
%TO.C,C8*%
X35050000Y-116001500D03*
X36950000Y-116001500D03*
%TD*%
D26*
%TO.C,C5*%
X169500000Y-48451500D03*
X169500000Y-46551500D03*
%TD*%
D15*
%TO.C,U2*%
X59654500Y-163289500D03*
X59654500Y-164239500D03*
X59654500Y-165189500D03*
X61929500Y-165189500D03*
X61929500Y-163289500D03*
%TD*%
D10*
%TO.C,R1*%
X242000000Y-61089000D03*
X242000000Y-62914000D03*
%TD*%
D20*
%TO.C,R3*%
X133958500Y-95541500D03*
X132133500Y-95541500D03*
%TD*%
D15*
%TO.C,U2*%
X203654500Y-163289500D03*
X203654500Y-164239500D03*
X203654500Y-165189500D03*
X205929500Y-165189500D03*
X205929500Y-163289500D03*
%TD*%
D26*
%TO.C,C13*%
X264854000Y-167729500D03*
X264854000Y-165829500D03*
%TD*%
D28*
%TO.C,BT1*%
X126442000Y-159921500D03*
X136602000Y-159921500D03*
%TD*%
D26*
%TO.C,C4*%
X111500000Y-45466500D03*
X111500000Y-43566500D03*
%TD*%
D29*
%TO.C,R2*%
X268005500Y-167541500D03*
X269830500Y-167541500D03*
%TD*%
D26*
%TO.C,C1*%
X180000000Y-57451500D03*
X180000000Y-55551500D03*
%TD*%
D19*
%TO.C,C11*%
X136602000Y-163289500D03*
X136602000Y-165189500D03*
%TD*%
D21*
%TO.C,U1*%
X33530000Y-48471500D03*
X32000000Y-48471500D03*
X30470000Y-48471500D03*
X33530000Y-50001500D03*
X32000000Y-50001500D03*
X30470000Y-50001500D03*
X33530000Y-51531500D03*
X32000000Y-51531500D03*
X30470000Y-51531500D03*
D22*
X34200000Y-47051500D03*
X33800000Y-47051500D03*
X33400000Y-47051500D03*
X33000000Y-47051500D03*
X32600000Y-47051500D03*
X32200000Y-47051500D03*
X31800000Y-47051500D03*
X31400000Y-47051500D03*
X31000000Y-47051500D03*
X30600000Y-47051500D03*
X30200000Y-47051500D03*
X29800000Y-47051500D03*
D23*
X29050000Y-47801500D03*
X29050000Y-48201500D03*
X29050000Y-48601500D03*
X29050000Y-49001500D03*
X29050000Y-49401500D03*
X29050000Y-49801500D03*
X29050000Y-50201500D03*
X29050000Y-50601500D03*
X29050000Y-51001500D03*
X29050000Y-51401500D03*
X29050000Y-51801500D03*
X29050000Y-52201500D03*
D22*
X29800000Y-52951500D03*
X30200000Y-52951500D03*
X30600000Y-52951500D03*
X31000000Y-52951500D03*
X31400000Y-52951500D03*
X31800000Y-52951500D03*
X32200000Y-52951500D03*
X32600000Y-52951500D03*
X33000000Y-52951500D03*
X33400000Y-52951500D03*
X33800000Y-52951500D03*
X34200000Y-52951500D03*
D23*
X34950000Y-52201500D03*
X34950000Y-51801500D03*
X34950000Y-51401500D03*
X34950000Y-51001500D03*
X34950000Y-50601500D03*
X34950000Y-50201500D03*
X34950000Y-49801500D03*
X34950000Y-49401500D03*
X34950000Y-49001500D03*
X34950000Y-48601500D03*
X34950000Y-48201500D03*
X34950000Y-47801500D03*
%TD*%
D26*
%TO.C,C3*%
X183500866Y-125086500D03*
X183500866Y-123186500D03*
%TD*%
D15*
%TO.C,U2*%
X275654500Y-91289500D03*
X275654500Y-92239500D03*
X275654500Y-93189500D03*
X277929500Y-93189500D03*
X277929500Y-91289500D03*
%TD*%
D19*
%TO.C,C6*%
X111500000Y-119376500D03*
X111500000Y-121276500D03*
%TD*%
D29*
%TO.C,R2*%
X52005500Y-95541500D03*
X53830500Y-95541500D03*
%TD*%
D27*
%TO.C,C8*%
X179050000Y-44001500D03*
X180950000Y-44001500D03*
%TD*%
D10*
%TO.C,R5*%
X192854000Y-162311000D03*
X192854000Y-164136000D03*
%TD*%
D19*
%TO.C,C2*%
X259000000Y-127551500D03*
X259000000Y-129451500D03*
%TD*%
D16*
%TO.C,C10*%
X27950000Y-44031500D03*
X26050000Y-44031500D03*
%TD*%
D24*
%TO.C,D2*%
X272044500Y-95541500D03*
X273919500Y-95541500D03*
%TD*%
D18*
%TO.C,R4*%
X248090000Y-92136000D03*
X248090000Y-90311000D03*
%TD*%
D17*
%TO.C,Y1*%
X254400000Y-57351500D03*
X256600000Y-57351500D03*
X256600000Y-55651500D03*
X254400000Y-55651500D03*
%TD*%
D11*
%TO.C,J1*%
X37300000Y-162821500D03*
X38100000Y-162821500D03*
D12*
X39250000Y-162821500D03*
X40250000Y-162821500D03*
X40750000Y-162821500D03*
X41750000Y-162821500D03*
D11*
X42900000Y-162821500D03*
X43700000Y-162821500D03*
X43700000Y-162821500D03*
X42900000Y-162821500D03*
D12*
X42250000Y-162821500D03*
X41250000Y-162821500D03*
X39750000Y-162821500D03*
X38750000Y-162821500D03*
D11*
X38100000Y-162821500D03*
X37300000Y-162821500D03*
D13*
X36180000Y-163396500D03*
D14*
X36180000Y-167576500D03*
D13*
X44820000Y-163396500D03*
D14*
X44820000Y-167576500D03*
%TD*%
D26*
%TO.C,C3*%
X183500866Y-53086500D03*
X183500866Y-51186500D03*
%TD*%
%TO.C,C1*%
X36000000Y-129451500D03*
X36000000Y-127551500D03*
%TD*%
D17*
%TO.C,Y1*%
X38400000Y-129351500D03*
X40600000Y-129351500D03*
X40600000Y-127651500D03*
X38400000Y-127651500D03*
%TD*%
D27*
%TO.C,C8*%
X35050000Y-44001500D03*
X36950000Y-44001500D03*
%TD*%
D26*
%TO.C,C13*%
X48854000Y-95729500D03*
X48854000Y-93829500D03*
%TD*%
D10*
%TO.C,R1*%
X170000000Y-61089000D03*
X170000000Y-62914000D03*
%TD*%
D19*
%TO.C,C6*%
X39500000Y-119376500D03*
X39500000Y-121276500D03*
%TD*%
D28*
%TO.C,BT1*%
X270442000Y-159921500D03*
X280602000Y-159921500D03*
%TD*%
D26*
%TO.C,C4*%
X39500000Y-45466500D03*
X39500000Y-43566500D03*
%TD*%
%TO.C,C5*%
X241500000Y-120451500D03*
X241500000Y-118551500D03*
%TD*%
D21*
%TO.C,U1*%
X105530000Y-48471500D03*
X104000000Y-48471500D03*
X102470000Y-48471500D03*
X105530000Y-50001500D03*
X104000000Y-50001500D03*
X102470000Y-50001500D03*
X105530000Y-51531500D03*
X104000000Y-51531500D03*
X102470000Y-51531500D03*
D22*
X106200000Y-47051500D03*
X105800000Y-47051500D03*
X105400000Y-47051500D03*
X105000000Y-47051500D03*
X104600000Y-47051500D03*
X104200000Y-47051500D03*
X103800000Y-47051500D03*
X103400000Y-47051500D03*
X103000000Y-47051500D03*
X102600000Y-47051500D03*
X102200000Y-47051500D03*
X101800000Y-47051500D03*
D23*
X101050000Y-47801500D03*
X101050000Y-48201500D03*
X101050000Y-48601500D03*
X101050000Y-49001500D03*
X101050000Y-49401500D03*
X101050000Y-49801500D03*
X101050000Y-50201500D03*
X101050000Y-50601500D03*
X101050000Y-51001500D03*
X101050000Y-51401500D03*
X101050000Y-51801500D03*
X101050000Y-52201500D03*
D22*
X101800000Y-52951500D03*
X102200000Y-52951500D03*
X102600000Y-52951500D03*
X103000000Y-52951500D03*
X103400000Y-52951500D03*
X103800000Y-52951500D03*
X104200000Y-52951500D03*
X104600000Y-52951500D03*
X105000000Y-52951500D03*
X105400000Y-52951500D03*
X105800000Y-52951500D03*
X106200000Y-52951500D03*
D23*
X106950000Y-52201500D03*
X106950000Y-51801500D03*
X106950000Y-51401500D03*
X106950000Y-51001500D03*
X106950000Y-50601500D03*
X106950000Y-50201500D03*
X106950000Y-49801500D03*
X106950000Y-49401500D03*
X106950000Y-49001500D03*
X106950000Y-48601500D03*
X106950000Y-48201500D03*
X106950000Y-47801500D03*
%TD*%
D26*
%TO.C,C3*%
X39500866Y-125086500D03*
X39500866Y-123186500D03*
%TD*%
%TO.C,C3*%
X255500866Y-53086500D03*
X255500866Y-51186500D03*
%TD*%
D27*
%TO.C,C8*%
X107050000Y-116001500D03*
X108950000Y-116001500D03*
%TD*%
D18*
%TO.C,R4*%
X176090000Y-164136000D03*
X176090000Y-162311000D03*
%TD*%
D19*
%TO.C,C11*%
X208602000Y-163289500D03*
X208602000Y-165189500D03*
%TD*%
D15*
%TO.C,U2*%
X131654500Y-91289500D03*
X131654500Y-92239500D03*
X131654500Y-93189500D03*
X133929500Y-93189500D03*
X133929500Y-91289500D03*
%TD*%
D16*
%TO.C,C9*%
X104450000Y-116001500D03*
X102550000Y-116001500D03*
%TD*%
D27*
%TO.C,C8*%
X251050000Y-44001500D03*
X252950000Y-44001500D03*
%TD*%
D24*
%TO.C,D2*%
X200044500Y-95541500D03*
X201919500Y-95541500D03*
%TD*%
D26*
%TO.C,C1*%
X252000000Y-57451500D03*
X252000000Y-55551500D03*
%TD*%
D19*
%TO.C,C12*%
X128982000Y-91289500D03*
X128982000Y-93189500D03*
%TD*%
D20*
%TO.C,R3*%
X277958500Y-95541500D03*
X276133500Y-95541500D03*
%TD*%
D26*
%TO.C,C13*%
X120854000Y-167729500D03*
X120854000Y-165829500D03*
%TD*%
D16*
%TO.C,C10*%
X243950000Y-44031500D03*
X242050000Y-44031500D03*
%TD*%
D26*
%TO.C,C13*%
X264854000Y-95729500D03*
X264854000Y-93829500D03*
%TD*%
D10*
%TO.C,R5*%
X120854000Y-162311000D03*
X120854000Y-164136000D03*
%TD*%
D25*
%TO.C,U3*%
X126309500Y-93189500D03*
X126309500Y-92239500D03*
X126309500Y-91289500D03*
X124034500Y-91289500D03*
X124034500Y-93189500D03*
%TD*%
D16*
%TO.C,C10*%
X171950000Y-44031500D03*
X170050000Y-44031500D03*
%TD*%
D24*
%TO.C,D2*%
X200044500Y-167541500D03*
X201919500Y-167541500D03*
%TD*%
D21*
%TO.C,U1*%
X249530000Y-120471500D03*
X248000000Y-120471500D03*
X246470000Y-120471500D03*
X249530000Y-122001500D03*
X248000000Y-122001500D03*
X246470000Y-122001500D03*
X249530000Y-123531500D03*
X248000000Y-123531500D03*
X246470000Y-123531500D03*
D22*
X250200000Y-119051500D03*
X249800000Y-119051500D03*
X249400000Y-119051500D03*
X249000000Y-119051500D03*
X248600000Y-119051500D03*
X248200000Y-119051500D03*
X247800000Y-119051500D03*
X247400000Y-119051500D03*
X247000000Y-119051500D03*
X246600000Y-119051500D03*
X246200000Y-119051500D03*
X245800000Y-119051500D03*
D23*
X245050000Y-119801500D03*
X245050000Y-120201500D03*
X245050000Y-120601500D03*
X245050000Y-121001500D03*
X245050000Y-121401500D03*
X245050000Y-121801500D03*
X245050000Y-122201500D03*
X245050000Y-122601500D03*
X245050000Y-123001500D03*
X245050000Y-123401500D03*
X245050000Y-123801500D03*
X245050000Y-124201500D03*
D22*
X245800000Y-124951500D03*
X246200000Y-124951500D03*
X246600000Y-124951500D03*
X247000000Y-124951500D03*
X247400000Y-124951500D03*
X247800000Y-124951500D03*
X248200000Y-124951500D03*
X248600000Y-124951500D03*
X249000000Y-124951500D03*
X249400000Y-124951500D03*
X249800000Y-124951500D03*
X250200000Y-124951500D03*
D23*
X250950000Y-124201500D03*
X250950000Y-123801500D03*
X250950000Y-123401500D03*
X250950000Y-123001500D03*
X250950000Y-122601500D03*
X250950000Y-122201500D03*
X250950000Y-121801500D03*
X250950000Y-121401500D03*
X250950000Y-121001500D03*
X250950000Y-120601500D03*
X250950000Y-120201500D03*
X250950000Y-119801500D03*
%TD*%
D26*
%TO.C,C1*%
X36000000Y-57451500D03*
X36000000Y-55551500D03*
%TD*%
D24*
%TO.C,D2*%
X128044500Y-167541500D03*
X129919500Y-167541500D03*
%TD*%
D15*
%TO.C,U2*%
X131654500Y-163289500D03*
X131654500Y-164239500D03*
X131654500Y-165189500D03*
X133929500Y-165189500D03*
X133929500Y-163289500D03*
%TD*%
D26*
%TO.C,C3*%
X39500866Y-53086500D03*
X39500866Y-51186500D03*
%TD*%
D20*
%TO.C,R3*%
X205958500Y-95541500D03*
X204133500Y-95541500D03*
%TD*%
%TO.C,R3*%
X277958500Y-167541500D03*
X276133500Y-167541500D03*
%TD*%
D17*
%TO.C,Y1*%
X182400000Y-57351500D03*
X184600000Y-57351500D03*
X184600000Y-55651500D03*
X182400000Y-55651500D03*
%TD*%
D28*
%TO.C,BT1*%
X270442000Y-87921500D03*
X280602000Y-87921500D03*
%TD*%
D26*
%TO.C,C5*%
X241500000Y-48451500D03*
X241500000Y-46551500D03*
%TD*%
%TO.C,C13*%
X192854000Y-167729500D03*
X192854000Y-165829500D03*
%TD*%
%TO.C,C3*%
X111500866Y-125086500D03*
X111500866Y-123186500D03*
%TD*%
D18*
%TO.C,R4*%
X104090000Y-164136000D03*
X104090000Y-162311000D03*
%TD*%
D28*
%TO.C,BT1*%
X54442000Y-159921500D03*
X64602000Y-159921500D03*
%TD*%
D16*
%TO.C,C7*%
X104950000Y-128001500D03*
X103050000Y-128001500D03*
%TD*%
D25*
%TO.C,U3*%
X198309500Y-165189500D03*
X198309500Y-164239500D03*
X198309500Y-163289500D03*
X196034500Y-163289500D03*
X196034500Y-165189500D03*
%TD*%
D15*
%TO.C,U2*%
X59654500Y-91289500D03*
X59654500Y-92239500D03*
X59654500Y-93189500D03*
X61929500Y-93189500D03*
X61929500Y-91289500D03*
%TD*%
D26*
%TO.C,C4*%
X39500000Y-117466500D03*
X39500000Y-115566500D03*
%TD*%
D11*
%TO.C,J1*%
X37300000Y-90821500D03*
X38100000Y-90821500D03*
D12*
X39250000Y-90821500D03*
X40250000Y-90821500D03*
X40750000Y-90821500D03*
X41750000Y-90821500D03*
D11*
X42900000Y-90821500D03*
X43700000Y-90821500D03*
X43700000Y-90821500D03*
X42900000Y-90821500D03*
D12*
X42250000Y-90821500D03*
X41250000Y-90821500D03*
X39750000Y-90821500D03*
X38750000Y-90821500D03*
D11*
X38100000Y-90821500D03*
X37300000Y-90821500D03*
D13*
X36180000Y-91396500D03*
D14*
X36180000Y-95576500D03*
D13*
X44820000Y-91396500D03*
D14*
X44820000Y-95576500D03*
%TD*%
D26*
%TO.C,C4*%
X183500000Y-45466500D03*
X183500000Y-43566500D03*
%TD*%
D19*
%TO.C,C11*%
X136602000Y-91289500D03*
X136602000Y-93189500D03*
%TD*%
%TO.C,C11*%
X64602000Y-91289500D03*
X64602000Y-93189500D03*
%TD*%
M02*
