%TF.GenerationSoftware,KiCad,Pcbnew,8.0.3-8.0.3-0~ubuntu24.04.1*%
%TF.CreationDate,2024-08-27T16:23:42+05:00*%
%TF.ProjectId,solartap_mcu_clear_60x60_g400,736f6c61-7274-4617-905f-6d63755f636c,rev?*%
%TF.SameCoordinates,Original*%
%TF.FileFunction,Paste,Top*%
%TF.FilePolarity,Positive*%
%FSLAX46Y46*%
G04 Gerber Fmt 4.6, Leading zero omitted, Abs format (unit mm)*
G04 Created by KiCad (PCBNEW 8.0.3-8.0.3-0~ubuntu24.04.1) date 2024-08-27 16:23:42*
%MOMM*%
%LPD*%
G01*
G04 APERTURE LIST*
G04 Aperture macros list*
%AMRoundRect*
0 Rectangle with rounded corners*
0 $1 Rounding radius*
0 $2 $3 $4 $5 $6 $7 $8 $9 X,Y pos of 4 corners*
0 Add a 4 corners polygon primitive as box body*
4,1,4,$2,$3,$4,$5,$6,$7,$8,$9,$2,$3,0*
0 Add four circle primitives for the rounded corners*
1,1,$1+$1,$2,$3*
1,1,$1+$1,$4,$5*
1,1,$1+$1,$6,$7*
1,1,$1+$1,$8,$9*
0 Add four rect primitives between the rounded corners*
20,1,$1+$1,$2,$3,$4,$5,0*
20,1,$1+$1,$4,$5,$6,$7,0*
20,1,$1+$1,$6,$7,$8,$9,0*
20,1,$1+$1,$8,$9,$2,$3,0*%
G04 Aperture macros list end*
%ADD10RoundRect,0.250000X-0.450000X0.262500X-0.450000X-0.262500X0.450000X-0.262500X0.450000X0.262500X0*%
%ADD11RoundRect,0.250000X0.450000X-0.262500X0.450000X0.262500X-0.450000X0.262500X-0.450000X-0.262500X0*%
%ADD12RoundRect,0.250000X-0.250000X-0.475000X0.250000X-0.475000X0.250000X0.475000X-0.250000X0.475000X0*%
%ADD13RoundRect,0.250000X-0.475000X0.250000X-0.475000X-0.250000X0.475000X-0.250000X0.475000X0.250000X0*%
%ADD14RoundRect,0.250000X0.250000X0.475000X-0.250000X0.475000X-0.250000X-0.475000X0.250000X-0.475000X0*%
%ADD15RoundRect,0.250000X0.475000X-0.250000X0.475000X0.250000X-0.475000X0.250000X-0.475000X-0.250000X0*%
%ADD16RoundRect,0.150000X0.150000X-0.512500X0.150000X0.512500X-0.150000X0.512500X-0.150000X-0.512500X0*%
%ADD17R,1.400000X1.200000*%
%ADD18RoundRect,0.150000X-0.512500X-0.150000X0.512500X-0.150000X0.512500X0.150000X-0.512500X0.150000X0*%
%ADD19R,2.200000X2.200000*%
%ADD20C,8.000000*%
%ADD21RoundRect,0.150000X-0.150000X-0.425000X0.150000X-0.425000X0.150000X0.425000X-0.150000X0.425000X0*%
%ADD22RoundRect,0.075000X-0.075000X-0.500000X0.075000X-0.500000X0.075000X0.500000X-0.075000X0.500000X0*%
%ADD23RoundRect,0.250000X-0.840000X-0.750000X0.840000X-0.750000X0.840000X0.750000X-0.840000X0.750000X0*%
%ADD24RoundRect,0.250000X-0.370000X0.370000X-0.370000X-0.370000X0.370000X-0.370000X0.370000X0.370000X0*%
%ADD25RoundRect,0.050000X-0.050000X0.350000X-0.050000X-0.350000X0.050000X-0.350000X0.050000X0.350000X0*%
%ADD26RoundRect,0.050000X-0.350000X0.050000X-0.350000X-0.050000X0.350000X-0.050000X0.350000X0.050000X0*%
G04 APERTURE END LIST*
D10*
%TO.C,R3*%
X103500000Y-103087500D03*
X103500000Y-104912500D03*
%TD*%
D11*
%TO.C,R2*%
X86500000Y-104912500D03*
X86500000Y-103087500D03*
%TD*%
%TO.C,R1*%
X84000000Y-107912500D03*
X84000000Y-106087500D03*
%TD*%
D12*
%TO.C,C12*%
X103550000Y-107500000D03*
X105450000Y-107500000D03*
%TD*%
D13*
%TO.C,C11*%
X112500000Y-106050000D03*
X112500000Y-107950000D03*
%TD*%
D14*
%TO.C,C10*%
X82450000Y-57030000D03*
X80550000Y-57030000D03*
%TD*%
%TO.C,C9*%
X86950000Y-57000000D03*
X85050000Y-57000000D03*
%TD*%
D12*
%TO.C,C8*%
X89550000Y-57000000D03*
X91450000Y-57000000D03*
%TD*%
D14*
%TO.C,C7*%
X87450000Y-69000000D03*
X85550000Y-69000000D03*
%TD*%
D13*
%TO.C,C6*%
X94000000Y-61050000D03*
X94000000Y-62950000D03*
%TD*%
D15*
%TO.C,C5*%
X80000000Y-61450000D03*
X80000000Y-59550000D03*
%TD*%
%TO.C,C4*%
X94000000Y-58950000D03*
X94000000Y-57050000D03*
%TD*%
%TO.C,C3*%
X91500000Y-64950000D03*
X91500000Y-63050000D03*
%TD*%
D13*
%TO.C,C2*%
X97500000Y-68550000D03*
X97500000Y-70450000D03*
%TD*%
D15*
%TO.C,C1*%
X90500000Y-70450000D03*
X90500000Y-68550000D03*
%TD*%
D16*
%TO.C,D2*%
X114550000Y-108137500D03*
X116450000Y-108137500D03*
X115500000Y-105862500D03*
%TD*%
D17*
%TO.C,Y1*%
X92900000Y-68650000D03*
X95100000Y-68650000D03*
X95100000Y-70350000D03*
X92900000Y-70350000D03*
%TD*%
D18*
%TO.C,U2*%
X107862500Y-106050000D03*
X107862500Y-107000000D03*
X107862500Y-107950000D03*
X110137500Y-107950000D03*
X110137500Y-106050000D03*
%TD*%
D19*
%TO.C,BT1*%
X89000000Y-77500000D03*
X101000000Y-77500000D03*
D20*
X95000000Y-77500000D03*
%TD*%
D21*
%TO.C,J1*%
X91800000Y-104320000D03*
X92600000Y-104320000D03*
D22*
X93750000Y-104320000D03*
X94750000Y-104320000D03*
X95250000Y-104320000D03*
X96250000Y-104320000D03*
D21*
X97400000Y-104320000D03*
X98200000Y-104320000D03*
X98200000Y-104320000D03*
X97400000Y-104320000D03*
D22*
X96750000Y-104320000D03*
X95750000Y-104320000D03*
X94250000Y-104320000D03*
X93250000Y-104320000D03*
D21*
X92600000Y-104320000D03*
X91800000Y-104320000D03*
D23*
X89890000Y-104895000D03*
X89890000Y-108825000D03*
X100110000Y-104895000D03*
X100110000Y-108825000D03*
%TD*%
D24*
%TO.C,U1*%
X88030000Y-61470000D03*
X86500000Y-61470000D03*
X84970000Y-61470000D03*
X88030000Y-63000000D03*
X86500000Y-63000000D03*
X84970000Y-63000000D03*
X88030000Y-64530000D03*
X86500000Y-64530000D03*
X84970000Y-64530000D03*
D25*
X88700000Y-60050000D03*
X88300000Y-60050000D03*
X87900000Y-60050000D03*
X87500000Y-60050000D03*
X87100000Y-60050000D03*
X86700000Y-60050000D03*
X86300000Y-60050000D03*
X85900000Y-60050000D03*
X85500000Y-60050000D03*
X85100000Y-60050000D03*
X84700000Y-60050000D03*
X84300000Y-60050000D03*
D26*
X83550000Y-60800000D03*
X83550000Y-61200000D03*
X83550000Y-61600000D03*
X83550000Y-62000000D03*
X83550000Y-62400000D03*
X83550000Y-62800000D03*
X83550000Y-63200000D03*
X83550000Y-63600000D03*
X83550000Y-64000000D03*
X83550000Y-64400000D03*
X83550000Y-64800000D03*
X83550000Y-65200000D03*
D25*
X84300000Y-65950000D03*
X84700000Y-65950000D03*
X85100000Y-65950000D03*
X85500000Y-65950000D03*
X85900000Y-65950000D03*
X86300000Y-65950000D03*
X86700000Y-65950000D03*
X87100000Y-65950000D03*
X87500000Y-65950000D03*
X87900000Y-65950000D03*
X88300000Y-65950000D03*
X88700000Y-65950000D03*
D26*
X89450000Y-65200000D03*
X89450000Y-64800000D03*
X89450000Y-64400000D03*
X89450000Y-64000000D03*
X89450000Y-63600000D03*
X89450000Y-63200000D03*
X89450000Y-62800000D03*
X89450000Y-62400000D03*
X89450000Y-62000000D03*
X89450000Y-61600000D03*
X89450000Y-61200000D03*
X89450000Y-60800000D03*
%TD*%
M02*
