%TF.GenerationSoftware,KiCad,Pcbnew,8.0.3-8.0.3-0~ubuntu24.04.1*%
%TF.CreationDate,2024-08-27T16:23:41+05:00*%
%TF.ProjectId,solartap_mcu_clear_60x60_g400,736f6c61-7274-4617-905f-6d63755f636c,rev?*%
%TF.SameCoordinates,Original*%
%TF.FileFunction,Copper,L1,Top*%
%TF.FilePolarity,Positive*%
%FSLAX46Y46*%
G04 Gerber Fmt 4.6, Leading zero omitted, Abs format (unit mm)*
G04 Created by KiCad (PCBNEW 8.0.3-8.0.3-0~ubuntu24.04.1) date 2024-08-27 16:23:41*
%MOMM*%
%LPD*%
G01*
G04 APERTURE LIST*
G04 Aperture macros list*
%AMRoundRect*
0 Rectangle with rounded corners*
0 $1 Rounding radius*
0 $2 $3 $4 $5 $6 $7 $8 $9 X,Y pos of 4 corners*
0 Add a 4 corners polygon primitive as box body*
4,1,4,$2,$3,$4,$5,$6,$7,$8,$9,$2,$3,0*
0 Add four circle primitives for the rounded corners*
1,1,$1+$1,$2,$3*
1,1,$1+$1,$4,$5*
1,1,$1+$1,$6,$7*
1,1,$1+$1,$8,$9*
0 Add four rect primitives between the rounded corners*
20,1,$1+$1,$2,$3,$4,$5,0*
20,1,$1+$1,$4,$5,$6,$7,0*
20,1,$1+$1,$6,$7,$8,$9,0*
20,1,$1+$1,$8,$9,$2,$3,0*%
G04 Aperture macros list end*
%TA.AperFunction,SMDPad,CuDef*%
%ADD10RoundRect,0.250000X-0.450000X0.262500X-0.450000X-0.262500X0.450000X-0.262500X0.450000X0.262500X0*%
%TD*%
%TA.AperFunction,SMDPad,CuDef*%
%ADD11RoundRect,0.250000X0.450000X-0.262500X0.450000X0.262500X-0.450000X0.262500X-0.450000X-0.262500X0*%
%TD*%
%TA.AperFunction,SMDPad,CuDef*%
%ADD12RoundRect,0.250000X-0.250000X-0.475000X0.250000X-0.475000X0.250000X0.475000X-0.250000X0.475000X0*%
%TD*%
%TA.AperFunction,SMDPad,CuDef*%
%ADD13RoundRect,0.250000X-0.475000X0.250000X-0.475000X-0.250000X0.475000X-0.250000X0.475000X0.250000X0*%
%TD*%
%TA.AperFunction,SMDPad,CuDef*%
%ADD14RoundRect,0.250000X0.250000X0.475000X-0.250000X0.475000X-0.250000X-0.475000X0.250000X-0.475000X0*%
%TD*%
%TA.AperFunction,SMDPad,CuDef*%
%ADD15RoundRect,0.250000X0.475000X-0.250000X0.475000X0.250000X-0.475000X0.250000X-0.475000X-0.250000X0*%
%TD*%
%TA.AperFunction,SMDPad,CuDef*%
%ADD16RoundRect,0.150000X0.150000X-0.512500X0.150000X0.512500X-0.150000X0.512500X-0.150000X-0.512500X0*%
%TD*%
%TA.AperFunction,SMDPad,CuDef*%
%ADD17R,1.400000X1.200000*%
%TD*%
%TA.AperFunction,SMDPad,CuDef*%
%ADD18RoundRect,0.150000X-0.512500X-0.150000X0.512500X-0.150000X0.512500X0.150000X-0.512500X0.150000X0*%
%TD*%
%TA.AperFunction,SMDPad,CuDef*%
%ADD19C,2.000000*%
%TD*%
%TA.AperFunction,SMDPad,CuDef*%
%ADD20R,2.200000X2.200000*%
%TD*%
%TA.AperFunction,SMDPad,CuDef*%
%ADD21C,8.000000*%
%TD*%
%TA.AperFunction,SMDPad,CuDef*%
%ADD22RoundRect,0.150000X-0.150000X-0.425000X0.150000X-0.425000X0.150000X0.425000X-0.150000X0.425000X0*%
%TD*%
%TA.AperFunction,SMDPad,CuDef*%
%ADD23RoundRect,0.075000X-0.075000X-0.500000X0.075000X-0.500000X0.075000X0.500000X-0.075000X0.500000X0*%
%TD*%
%TA.AperFunction,SMDPad,CuDef*%
%ADD24RoundRect,0.250000X-0.840000X-0.750000X0.840000X-0.750000X0.840000X0.750000X-0.840000X0.750000X0*%
%TD*%
%TA.AperFunction,SMDPad,CuDef*%
%ADD25RoundRect,0.050000X-0.050000X0.350000X-0.050000X-0.350000X0.050000X-0.350000X0.050000X0.350000X0*%
%TD*%
%TA.AperFunction,SMDPad,CuDef*%
%ADD26RoundRect,0.050000X-0.350000X0.050000X-0.350000X-0.050000X0.350000X-0.050000X0.350000X0.050000X0*%
%TD*%
%TA.AperFunction,HeatsinkPad*%
%ADD27R,4.600000X4.600000*%
%TD*%
%TA.AperFunction,ViaPad*%
%ADD28C,0.600000*%
%TD*%
%TA.AperFunction,Conductor*%
%ADD29C,0.200000*%
%TD*%
G04 APERTURE END LIST*
D10*
%TO.P,R3,1*%
%TO.N,Net-(J1-CC2)*%
X103500000Y-103087500D03*
%TO.P,R3,2*%
%TO.N,GND*%
X103500000Y-104912500D03*
%TD*%
D11*
%TO.P,R2,1*%
%TO.N,GND*%
X86500000Y-104912500D03*
%TO.P,R2,2*%
%TO.N,Net-(J1-CC1)*%
X86500000Y-103087500D03*
%TD*%
%TO.P,R1,1*%
%TO.N,Net-(D1-A)*%
X84000000Y-107912500D03*
%TO.P,R1,2*%
%TO.N,+3.3V*%
X84000000Y-106087500D03*
%TD*%
D12*
%TO.P,C12,1*%
%TO.N,Net-(U2-EN)*%
X103550000Y-107500000D03*
%TO.P,C12,2*%
%TO.N,GND*%
X105450000Y-107500000D03*
%TD*%
D13*
%TO.P,C11,1*%
%TO.N,Net-(U2-OUT)*%
X112500000Y-106050000D03*
%TO.P,C11,2*%
%TO.N,GND*%
X112500000Y-107950000D03*
%TD*%
D14*
%TO.P,C10,1*%
%TO.N,Net-(U1-NFC1{slash}P0.09)*%
X82450000Y-57030000D03*
%TO.P,C10,2*%
%TO.N,GND*%
X80550000Y-57030000D03*
%TD*%
%TO.P,C9,1*%
%TO.N,GND*%
X86950000Y-57000000D03*
%TO.P,C9,2*%
%TO.N,Net-(U1-NFC1{slash}P0.09)*%
X85050000Y-57000000D03*
%TD*%
D12*
%TO.P,C8,1*%
%TO.N,Net-(U1-DEC1)*%
X89550000Y-57000000D03*
%TO.P,C8,2*%
%TO.N,GND*%
X91450000Y-57000000D03*
%TD*%
D14*
%TO.P,C7,1*%
%TO.N,Net-(U1-DEC3)*%
X87450000Y-69000000D03*
%TO.P,C7,2*%
%TO.N,GND*%
X85550000Y-69000000D03*
%TD*%
D13*
%TO.P,C6,1*%
%TO.N,Net-(U1-DEC4)*%
X94000000Y-61050000D03*
%TO.P,C6,2*%
%TO.N,GND*%
X94000000Y-62950000D03*
%TD*%
D15*
%TO.P,C5,1*%
%TO.N,+3.3V*%
X80000000Y-61450000D03*
%TO.P,C5,2*%
%TO.N,GND*%
X80000000Y-59550000D03*
%TD*%
%TO.P,C4,1*%
%TO.N,+3.3V*%
X94000000Y-58950000D03*
%TO.P,C4,2*%
%TO.N,GND*%
X94000000Y-57050000D03*
%TD*%
%TO.P,C3,1*%
%TO.N,+3.3V*%
X91500000Y-64950000D03*
%TO.P,C3,2*%
%TO.N,GND*%
X91500000Y-63050000D03*
%TD*%
D13*
%TO.P,C2,1*%
%TO.N,Net-(U1-XC2)*%
X97500000Y-68550000D03*
%TO.P,C2,2*%
%TO.N,GND*%
X97500000Y-70450000D03*
%TD*%
D15*
%TO.P,C1,1*%
%TO.N,Net-(U1-XC1)*%
X90500000Y-70450000D03*
%TO.P,C1,2*%
%TO.N,GND*%
X90500000Y-68550000D03*
%TD*%
D16*
%TO.P,D2,1,K*%
%TO.N,Net-(U2-OUT)*%
X114550000Y-108137500D03*
%TO.P,D2,2,K*%
%TO.N,Net-(BT1-+)*%
X116450000Y-108137500D03*
%TO.P,D2,3,A*%
%TO.N,+3.3V*%
X115500000Y-105862500D03*
%TD*%
D17*
%TO.P,Y1,4,4*%
%TO.N,GND*%
X92900000Y-68650000D03*
%TO.P,Y1,3,3*%
%TO.N,Net-(U1-XC2)*%
X95100000Y-68650000D03*
%TO.P,Y1,2,2*%
%TO.N,GND*%
X95100000Y-70350000D03*
%TO.P,Y1,1,1*%
%TO.N,Net-(U1-XC1)*%
X92900000Y-70350000D03*
%TD*%
D18*
%TO.P,U2,1,IN*%
%TO.N,Net-(U2-EN)*%
X107862500Y-106050000D03*
%TO.P,U2,2,GND*%
%TO.N,GND*%
X107862500Y-107000000D03*
%TO.P,U2,3,EN*%
%TO.N,Net-(U2-EN)*%
X107862500Y-107950000D03*
%TO.P,U2,4,NC*%
%TO.N,unconnected-(U2-NC-Pad4)*%
X110137500Y-107950000D03*
%TO.P,U2,5,OUT*%
%TO.N,Net-(U2-OUT)*%
X110137500Y-106050000D03*
%TD*%
D19*
%TO.P,TP4,1,1*%
%TO.N,GND*%
X62000000Y-64500000D03*
%TD*%
D20*
%TO.P,BT1,1,+*%
%TO.N,Net-(BT1-+)*%
X89000000Y-77500000D03*
X101000000Y-77500000D03*
D21*
%TO.P,BT1,2,-*%
%TO.N,GND*%
X95000000Y-77500000D03*
%TD*%
D19*
%TO.P,TP1,1,1*%
%TO.N,Net-(U1-SWDIO)*%
X62000000Y-78500000D03*
%TD*%
%TO.P,TP2,1,1*%
%TO.N,Net-(U1-SWDCLK)*%
X62000000Y-75000000D03*
%TD*%
%TO.P,TP3,1,1*%
%TO.N,Net-(U1-P0.21{slash}~{RESET})*%
X62000000Y-71500000D03*
%TD*%
D22*
%TO.P,J1,A1,GND*%
%TO.N,GND*%
X91800000Y-104320000D03*
%TO.P,J1,A4,VBUS*%
%TO.N,Net-(U2-EN)*%
X92600000Y-104320000D03*
D23*
%TO.P,J1,A5,CC1*%
%TO.N,Net-(J1-CC1)*%
X93750000Y-104320000D03*
%TO.P,J1,A6,D+*%
%TO.N,unconnected-(J1-D+-PadA6)*%
X94750000Y-104320000D03*
%TO.P,J1,A7,D-*%
%TO.N,unconnected-(J1-D--PadA7)*%
X95250000Y-104320000D03*
%TO.P,J1,A8,SBU1*%
%TO.N,unconnected-(J1-SBU1-PadA8)*%
X96250000Y-104320000D03*
D22*
%TO.P,J1,A9,VBUS*%
%TO.N,Net-(U2-EN)*%
X97400000Y-104320000D03*
%TO.P,J1,A12,GND*%
%TO.N,GND*%
X98200000Y-104320000D03*
%TO.P,J1,B1,GND*%
X98200000Y-104320000D03*
%TO.P,J1,B4,VBUS*%
%TO.N,Net-(U2-EN)*%
X97400000Y-104320000D03*
D23*
%TO.P,J1,B5,CC2*%
%TO.N,Net-(J1-CC2)*%
X96750000Y-104320000D03*
%TO.P,J1,B6,D+*%
%TO.N,unconnected-(J1-D+-PadB6)*%
X95750000Y-104320000D03*
%TO.P,J1,B7,D-*%
%TO.N,unconnected-(J1-D--PadB7)*%
X94250000Y-104320000D03*
%TO.P,J1,B8,SBU2*%
%TO.N,unconnected-(J1-SBU2-PadB8)*%
X93250000Y-104320000D03*
D22*
%TO.P,J1,B9,VBUS*%
%TO.N,Net-(U2-EN)*%
X92600000Y-104320000D03*
%TO.P,J1,B12,GND*%
%TO.N,GND*%
X91800000Y-104320000D03*
D24*
%TO.P,J1,S1,SHIELD*%
X89890000Y-104895000D03*
X89890000Y-108825000D03*
X100110000Y-104895000D03*
X100110000Y-108825000D03*
%TD*%
D25*
%TO.P,U1,1,DEC1*%
%TO.N,Net-(U1-DEC1)*%
X88700000Y-60050000D03*
%TO.P,U1,2,P0.00/XL1*%
%TO.N,unconnected-(U1-P0.00{slash}XL1-Pad2)*%
X88300000Y-60050000D03*
%TO.P,U1,3,P0.01/XL2*%
%TO.N,unconnected-(U1-P0.01{slash}XL2-Pad3)*%
X87900000Y-60050000D03*
%TO.P,U1,4,P0.02/AIN0*%
%TO.N,unconnected-(U1-P0.02{slash}AIN0-Pad4)*%
X87500000Y-60050000D03*
%TO.P,U1,5,P0.03/AIN1*%
%TO.N,unconnected-(U1-P0.03{slash}AIN1-Pad5)*%
X87100000Y-60050000D03*
%TO.P,U1,6,P0.04/AIN2*%
%TO.N,unconnected-(U1-P0.04{slash}AIN2-Pad6)*%
X86700000Y-60050000D03*
%TO.P,U1,7,P0.05/AIN3*%
%TO.N,unconnected-(U1-P0.05{slash}AIN3-Pad7)*%
X86300000Y-60050000D03*
%TO.P,U1,8,P0.06*%
%TO.N,unconnected-(U1-P0.06-Pad8)*%
X85900000Y-60050000D03*
%TO.P,U1,9,P0.07*%
%TO.N,unconnected-(U1-P0.07-Pad9)*%
X85500000Y-60050000D03*
%TO.P,U1,10,P0.08*%
%TO.N,unconnected-(U1-P0.08-Pad10)*%
X85100000Y-60050000D03*
%TO.P,U1,11,NFC1/P0.09*%
%TO.N,Net-(U1-NFC1{slash}P0.09)*%
X84700000Y-60050000D03*
%TO.P,U1,12,NFC2/P0.10*%
X84300000Y-60050000D03*
D26*
%TO.P,U1,13,VDD*%
%TO.N,+3.3V*%
X83550000Y-60800000D03*
%TO.P,U1,14,P0.11*%
%TO.N,unconnected-(U1-P0.11-Pad14)*%
X83550000Y-61200000D03*
%TO.P,U1,15,P0.12*%
%TO.N,unconnected-(U1-P0.12-Pad15)*%
X83550000Y-61600000D03*
%TO.P,U1,16,P0.13*%
%TO.N,unconnected-(U1-P0.13-Pad16)*%
X83550000Y-62000000D03*
%TO.P,U1,17,P0.14*%
%TO.N,unconnected-(U1-P0.14-Pad17)*%
X83550000Y-62400000D03*
%TO.P,U1,18,P0.15*%
%TO.N,unconnected-(U1-P0.15-Pad18)*%
X83550000Y-62800000D03*
%TO.P,U1,19,P0.16*%
%TO.N,unconnected-(U1-P0.16-Pad19)*%
X83550000Y-63200000D03*
%TO.P,U1,20,P0.17*%
%TO.N,unconnected-(U1-P0.17-Pad20)*%
X83550000Y-63600000D03*
%TO.P,U1,21,P0.18/SWO*%
%TO.N,unconnected-(U1-P0.18{slash}SWO-Pad21)*%
X83550000Y-64000000D03*
%TO.P,U1,22,P0.19*%
%TO.N,unconnected-(U1-P0.19-Pad22)*%
X83550000Y-64400000D03*
%TO.P,U1,23,P0.20*%
%TO.N,unconnected-(U1-P0.20-Pad23)*%
X83550000Y-64800000D03*
%TO.P,U1,24,P0.21/~{RESET}*%
%TO.N,Net-(U1-P0.21{slash}~{RESET})*%
X83550000Y-65200000D03*
D25*
%TO.P,U1,25,SWDCLK*%
%TO.N,Net-(U1-SWDCLK)*%
X84300000Y-65950000D03*
%TO.P,U1,26,SWDIO*%
%TO.N,Net-(U1-SWDIO)*%
X84700000Y-65950000D03*
%TO.P,U1,27,P0.22*%
%TO.N,Net-(D1-K)*%
X85100000Y-65950000D03*
%TO.P,U1,28,P0.23*%
%TO.N,unconnected-(U1-P0.23-Pad28)*%
X85500000Y-65950000D03*
%TO.P,U1,29,P0.24*%
%TO.N,unconnected-(U1-P0.24-Pad29)*%
X85900000Y-65950000D03*
%TO.P,U1,30,ANT*%
%TO.N,unconnected-(U1-ANT-Pad30)*%
X86300000Y-65950000D03*
%TO.P,U1,31,VSS*%
%TO.N,GND*%
X86700000Y-65950000D03*
%TO.P,U1,32,DEC2*%
%TO.N,unconnected-(U1-DEC2-Pad32)*%
X87100000Y-65950000D03*
%TO.P,U1,33,DEC3*%
%TO.N,Net-(U1-DEC3)*%
X87500000Y-65950000D03*
%TO.P,U1,34,XC1*%
%TO.N,Net-(U1-XC1)*%
X87900000Y-65950000D03*
%TO.P,U1,35,XC2*%
%TO.N,Net-(U1-XC2)*%
X88300000Y-65950000D03*
%TO.P,U1,36,VDD*%
%TO.N,+3.3V*%
X88700000Y-65950000D03*
D26*
%TO.P,U1,37,P0.25*%
%TO.N,unconnected-(U1-P0.25-Pad37)*%
X89450000Y-65200000D03*
%TO.P,U1,38,P0.26*%
%TO.N,unconnected-(U1-P0.26-Pad38)*%
X89450000Y-64800000D03*
%TO.P,U1,39,P0.27*%
%TO.N,unconnected-(U1-P0.27-Pad39)*%
X89450000Y-64400000D03*
%TO.P,U1,40,P0.28/AIN4*%
%TO.N,unconnected-(U1-P0.28{slash}AIN4-Pad40)*%
X89450000Y-64000000D03*
%TO.P,U1,41,P0.29/AIN5*%
%TO.N,unconnected-(U1-P0.29{slash}AIN5-Pad41)*%
X89450000Y-63600000D03*
%TO.P,U1,42,P0.30/AIN6*%
%TO.N,unconnected-(U1-P0.30{slash}AIN6-Pad42)*%
X89450000Y-63200000D03*
%TO.P,U1,43,P0.31/AIN7*%
%TO.N,unconnected-(U1-P0.31{slash}AIN7-Pad43)*%
X89450000Y-62800000D03*
%TO.P,U1,44,NC*%
%TO.N,unconnected-(U1-NC-Pad44)*%
X89450000Y-62400000D03*
%TO.P,U1,45,VSS*%
%TO.N,GND*%
X89450000Y-62000000D03*
%TO.P,U1,46,DEC4*%
%TO.N,Net-(U1-DEC4)*%
X89450000Y-61600000D03*
%TO.P,U1,47,DCC*%
%TO.N,unconnected-(U1-DCC-Pad47)*%
X89450000Y-61200000D03*
%TO.P,U1,48,VDD*%
%TO.N,+3.3V*%
X89450000Y-60800000D03*
D27*
%TO.P,U1,49,VSS*%
%TO.N,GND*%
X86500000Y-63000000D03*
%TD*%
D19*
%TO.P,TP5,1,1*%
%TO.N,+3.3V*%
X62000000Y-68000000D03*
%TD*%
D28*
%TO.N,+3.3V*%
X87500000Y-84000000D03*
X109500000Y-84000000D03*
%TO.N,Net-(D1-A)*%
X72000000Y-108000000D03*
%TO.N,Net-(D1-K)*%
X70000000Y-104500000D03*
%TO.N,GND*%
X92000000Y-68500000D03*
%TO.N,+3.3V*%
X81800000Y-60800000D03*
X91500000Y-66000000D03*
X91500000Y-61000000D03*
%TO.N,GND*%
X88000000Y-61500000D03*
X100000000Y-105000000D03*
X93500000Y-74500000D03*
X88000000Y-64500000D03*
X100000000Y-109000000D03*
X87000000Y-58500000D03*
X90500000Y-58500000D03*
X85000000Y-61500000D03*
X82000000Y-58500000D03*
%TO.N,Net-(U1-NFC1{slash}P0.09)*%
X87400000Y-55100000D03*
X72000000Y-42500000D03*
%TD*%
D29*
%TO.N,Net-(D1-K)*%
X85100000Y-65950000D02*
X85100000Y-66612046D01*
X77500000Y-103562500D02*
X75562500Y-105500000D01*
X85100000Y-66612046D02*
X77500000Y-74212046D01*
X77500000Y-74212046D02*
X77500000Y-103562500D01*
X75562500Y-105500000D02*
X74500000Y-105500000D01*
X74500000Y-105500000D02*
X73500000Y-104500000D01*
X73500000Y-104500000D02*
X70000000Y-104500000D01*
%TO.N,unconnected-(U1-P0.17-Pad20)*%
X80500000Y-64000000D02*
X79000000Y-64000000D01*
X83550000Y-63600000D02*
X80900000Y-63600000D01*
X80900000Y-63600000D02*
X80500000Y-64000000D01*
%TO.N,unconnected-(U1-P0.18{slash}SWO-Pad21)*%
X80500000Y-65000000D02*
X79000000Y-65000000D01*
X83550000Y-64000000D02*
X81500000Y-64000000D01*
X81500000Y-64000000D02*
X80500000Y-65000000D01*
%TO.N,unconnected-(U1-P0.19-Pad22)*%
X80500000Y-66000000D02*
X79000000Y-66000000D01*
X83550000Y-64400000D02*
X82100000Y-64400000D01*
X82100000Y-64400000D02*
X80500000Y-66000000D01*
%TO.N,unconnected-(U1-P0.20-Pad23)*%
X80500000Y-67000000D02*
X79000000Y-67000000D01*
X83550000Y-64800000D02*
X82700000Y-64800000D01*
X82700000Y-64800000D02*
X80500000Y-67000000D01*
%TO.N,unconnected-(U1-P0.24-Pad29)*%
X84000000Y-68934314D02*
X84000000Y-71000000D01*
X85900000Y-67034314D02*
X84000000Y-68934314D01*
X85900000Y-65950000D02*
X85900000Y-67034314D01*
%TO.N,+3.3V*%
X87500000Y-84000000D02*
X87500000Y-88500000D01*
X84000000Y-92000000D02*
X84000000Y-106000000D01*
X87500000Y-88500000D02*
X84000000Y-92000000D01*
X109500000Y-84000000D02*
X112500000Y-87000000D01*
X112500000Y-87000000D02*
X112500000Y-103000000D01*
X112500000Y-103000000D02*
X115362500Y-105862500D01*
X115362500Y-105862500D02*
X115500000Y-105862500D01*
%TO.N,Net-(BT1-+)*%
X101000000Y-77500000D02*
X111500000Y-88000000D01*
X111500000Y-88000000D02*
X111500000Y-103187500D01*
X111500000Y-103187500D02*
X116450000Y-108137500D01*
%TO.N,GND*%
X95000000Y-78500000D02*
X105000000Y-88500000D01*
X105000000Y-88500000D02*
X105000000Y-103500000D01*
X105000000Y-103500000D02*
X103500000Y-105000000D01*
%TO.N,Net-(U2-OUT)*%
X114550000Y-108137500D02*
X112500000Y-106087500D01*
X112500000Y-106087500D02*
X112500000Y-105962500D01*
%TO.N,GND*%
X107037500Y-109000000D02*
X111537500Y-109000000D01*
X111537500Y-109000000D02*
X112500000Y-108037500D01*
%TO.N,Net-(U2-OUT)*%
X110137500Y-106050000D02*
X112412500Y-106050000D01*
X112412500Y-106050000D02*
X112500000Y-105962500D01*
%TO.N,unconnected-(U1-P0.23-Pad28)*%
X85500000Y-65950000D02*
X85500000Y-66777732D01*
X85500000Y-66777732D02*
X83000000Y-69277732D01*
X83000000Y-69277732D02*
X83000000Y-71000000D01*
%TO.N,Net-(D1-A)*%
X72000000Y-108000000D02*
X84000000Y-108000000D01*
%TO.N,+3.3V*%
X81800000Y-60800000D02*
X81267500Y-60800000D01*
X81800000Y-60800000D02*
X83550000Y-60800000D01*
X81267500Y-60800000D02*
X80500000Y-61567500D01*
%TO.N,GND*%
X62000000Y-64500000D02*
X74962500Y-64500000D01*
X74962500Y-64500000D02*
X80000000Y-59462500D01*
%TO.N,+3.3V*%
X62000000Y-68000000D02*
X73537500Y-68000000D01*
X73537500Y-68000000D02*
X80000000Y-61537500D01*
%TO.N,Net-(U1-SWDIO)*%
X84700000Y-65950000D02*
X84700000Y-66446360D01*
X84700000Y-66446360D02*
X72646360Y-78500000D01*
X72646360Y-78500000D02*
X62000000Y-78500000D01*
%TO.N,Net-(U1-SWDCLK)*%
X84300000Y-65950000D02*
X75250000Y-75000000D01*
X75250000Y-75000000D02*
X63000000Y-75000000D01*
%TO.N,GND*%
X95100000Y-70350000D02*
X95350000Y-70350000D01*
X95350000Y-70350000D02*
X95537500Y-70537500D01*
X95537500Y-70537500D02*
X97500000Y-70537500D01*
X92900000Y-68650000D02*
X93150000Y-68650000D01*
X93150000Y-68650000D02*
X94850000Y-70350000D01*
X94850000Y-70350000D02*
X95100000Y-70350000D01*
X90500000Y-68462500D02*
X92712500Y-68462500D01*
X92712500Y-68462500D02*
X92900000Y-68650000D01*
%TO.N,Net-(U1-XC2)*%
X95100000Y-68650000D02*
X97312500Y-68650000D01*
X97312500Y-68650000D02*
X97500000Y-68462500D01*
X88300000Y-65950000D02*
X88300000Y-66446360D01*
X88300000Y-66446360D02*
X89353640Y-67500000D01*
X89353640Y-67500000D02*
X93950000Y-67500000D01*
X93950000Y-67500000D02*
X95100000Y-68650000D01*
%TO.N,Net-(U1-XC1)*%
X90500000Y-70537500D02*
X92712500Y-70537500D01*
X92712500Y-70537500D02*
X92900000Y-70350000D01*
X87900000Y-65950000D02*
X87900000Y-67765256D01*
X87900000Y-67765256D02*
X90500000Y-70365256D01*
X90500000Y-70365256D02*
X90500000Y-70537500D01*
%TO.N,GND*%
X105537500Y-107500000D02*
X107037500Y-109000000D01*
%TO.N,Net-(U2-EN)*%
X107862500Y-106050000D02*
X108524999Y-106050000D01*
X108550000Y-107950000D02*
X107862500Y-107950000D01*
X108524999Y-106050000D02*
X109000000Y-106525001D01*
X109000000Y-106525001D02*
X109000000Y-107500000D01*
X109000000Y-107500000D02*
X108550000Y-107950000D01*
%TO.N,GND*%
X105537500Y-107500000D02*
X106037500Y-107000000D01*
X106037500Y-107000000D02*
X107862500Y-107000000D01*
%TO.N,Net-(U2-EN)*%
X107862500Y-106050000D02*
X104912500Y-106050000D01*
X104912500Y-106050000D02*
X103462500Y-107500000D01*
%TO.N,+3.3V*%
X91500000Y-66000000D02*
X91500000Y-65037500D01*
X93462500Y-59037500D02*
X94000000Y-59037500D01*
X91450000Y-65950000D02*
X91500000Y-66000000D01*
X91500000Y-66000000D02*
X91550000Y-65950000D01*
X91500000Y-61000000D02*
X93462500Y-59037500D01*
X91300000Y-60800000D02*
X89450000Y-60800000D01*
X91500000Y-61000000D02*
X91300000Y-60800000D01*
X88700000Y-65950000D02*
X91450000Y-65950000D01*
%TO.N,GND*%
X81007500Y-59492500D02*
X82000000Y-58500000D01*
X91537500Y-57462500D02*
X90500000Y-58500000D01*
X99535000Y-104320000D02*
X100000000Y-105000000D01*
X100215000Y-105000000D02*
X100110000Y-104895000D01*
X103500000Y-105000000D02*
X100215000Y-105000000D01*
X82000000Y-58500000D02*
X80530000Y-57030000D01*
X86700000Y-66800000D02*
X85462500Y-68037500D01*
X91225000Y-104895000D02*
X91800000Y-104320000D01*
X89785000Y-105000000D02*
X89890000Y-104895000D01*
X80530000Y-57030000D02*
X80462500Y-57030000D01*
X87500000Y-62000000D02*
X86500000Y-63000000D01*
X91537500Y-57000000D02*
X91537500Y-57462500D01*
X89450000Y-62000000D02*
X90537500Y-62000000D01*
X86500000Y-105000000D02*
X89785000Y-105000000D01*
X98200000Y-104320000D02*
X98880000Y-105000000D01*
X98880000Y-105000000D02*
X100000000Y-105000000D01*
X89890000Y-104895000D02*
X91225000Y-104895000D01*
X104212500Y-108825000D02*
X105537500Y-107500000D01*
X93962500Y-57000000D02*
X94000000Y-56962500D01*
X87000000Y-58500000D02*
X87037500Y-58462500D01*
X91500000Y-62962500D02*
X93925000Y-62962500D01*
X100110000Y-108825000D02*
X104212500Y-108825000D01*
X90537500Y-62000000D02*
X91500000Y-62962500D01*
X89450000Y-62000000D02*
X87500000Y-62000000D01*
X86700000Y-65950000D02*
X86700000Y-66800000D01*
X91537500Y-57000000D02*
X91500000Y-57000000D01*
X80500000Y-59492500D02*
X81007500Y-59492500D01*
X89890000Y-108825000D02*
X89890000Y-104895000D01*
X85462500Y-68037500D02*
X85462500Y-69000000D01*
X91500000Y-57000000D02*
X93962500Y-57000000D01*
X93925000Y-62962500D02*
X94000000Y-63037500D01*
X87037500Y-58462500D02*
X87037500Y-57030000D01*
X100000000Y-109000000D02*
X100110000Y-108825000D01*
X86700000Y-65950000D02*
X86700000Y-63200000D01*
X86700000Y-63200000D02*
X86500000Y-63000000D01*
X85537500Y-69075000D02*
X85462500Y-69000000D01*
X100000000Y-105000000D02*
X100110000Y-104895000D01*
%TO.N,Net-(U1-DEC1)*%
X88700000Y-57762500D02*
X89462500Y-57000000D01*
X88700000Y-60050000D02*
X88700000Y-57762500D01*
%TO.N,Net-(U1-DEC3)*%
X87500000Y-65950000D02*
X87500000Y-68962500D01*
X87500000Y-68962500D02*
X87537500Y-69000000D01*
%TO.N,Net-(U1-DEC4)*%
X89450000Y-61600000D02*
X93362500Y-61600000D01*
X93362500Y-61600000D02*
X94000000Y-60962500D01*
%TO.N,Net-(U1-NFC1{slash}P0.09)*%
X82537500Y-57030000D02*
X82537500Y-53037500D01*
X82537500Y-53037500D02*
X72000000Y-42500000D01*
X84300000Y-60050000D02*
X84300000Y-58792500D01*
X87400000Y-54900000D02*
X87400000Y-55100000D01*
X87400000Y-55100000D02*
X86892500Y-55100000D01*
X84700000Y-57725000D02*
X84700000Y-60050000D01*
X84962500Y-57030000D02*
X84962500Y-57462500D01*
X84962500Y-57462500D02*
X84700000Y-57725000D01*
X84300000Y-58792500D02*
X82537500Y-57030000D01*
X86892500Y-55100000D02*
X84962500Y-57030000D01*
%TO.N,Net-(U2-EN)*%
X103462500Y-107500000D02*
X99040406Y-107500000D01*
X92600000Y-104894999D02*
X93379595Y-105674594D01*
X92600000Y-104320000D02*
X92600000Y-104894999D01*
X99040406Y-107500000D02*
X97215000Y-105674594D01*
X97215000Y-105674594D02*
X97215000Y-104505000D01*
X97215000Y-104505000D02*
X97400000Y-104320000D01*
X97400000Y-104815000D02*
X97400000Y-104320000D01*
X96540406Y-105674594D02*
X97400000Y-104815000D01*
X93379595Y-105674594D02*
X96540406Y-105674594D01*
%TO.N,Net-(J1-CC1)*%
X93037410Y-103000000D02*
X93750000Y-103712590D01*
X86500000Y-103000000D02*
X93037410Y-103000000D01*
X93750000Y-103712590D02*
X93750000Y-104320000D01*
%TO.N,Net-(J1-CC2)*%
X97495001Y-103000000D02*
X96750000Y-103745001D01*
X96750000Y-103745001D02*
X96750000Y-104320000D01*
X103500000Y-103000000D02*
X97495001Y-103000000D01*
%TO.N,Net-(U1-P0.21{slash}~{RESET})*%
X83550000Y-65200000D02*
X77250000Y-71500000D01*
X77250000Y-71500000D02*
X62000000Y-71500000D01*
%TD*%
M02*
