%TF.GenerationSoftware,KiCad,Pcbnew,8.0.3-8.0.3-0~ubuntu24.04.1*%
%TF.CreationDate,2024-06-13T22:02:11+05:00*%
%TF.ProjectId,solartap_mcu_clear,736f6c61-7274-4617-905f-6d63755f636c,rev?*%
%TF.SameCoordinates,Original*%
%TF.FileFunction,Legend,Top*%
%TF.FilePolarity,Positive*%
%FSLAX46Y46*%
G04 Gerber Fmt 4.6, Leading zero omitted, Abs format (unit mm)*
G04 Created by KiCad (PCBNEW 8.0.3-8.0.3-0~ubuntu24.04.1) date 2024-06-13 22:02:11*
%MOMM*%
%LPD*%
G01*
G04 APERTURE LIST*
%ADD10C,0.100000*%
%ADD11C,0.150000*%
%ADD12C,0.120000*%
G04 APERTURE END LIST*
D10*
X66875312Y-75872419D02*
X66541979Y-75396228D01*
X66303884Y-75872419D02*
X66303884Y-74872419D01*
X66303884Y-74872419D02*
X66684836Y-74872419D01*
X66684836Y-74872419D02*
X66780074Y-74920038D01*
X66780074Y-74920038D02*
X66827693Y-74967657D01*
X66827693Y-74967657D02*
X66875312Y-75062895D01*
X66875312Y-75062895D02*
X66875312Y-75205752D01*
X66875312Y-75205752D02*
X66827693Y-75300990D01*
X66827693Y-75300990D02*
X66780074Y-75348609D01*
X66780074Y-75348609D02*
X66684836Y-75396228D01*
X66684836Y-75396228D02*
X66303884Y-75396228D01*
X67303884Y-75348609D02*
X67637217Y-75348609D01*
X67780074Y-75872419D02*
X67303884Y-75872419D01*
X67303884Y-75872419D02*
X67303884Y-74872419D01*
X67303884Y-74872419D02*
X67780074Y-74872419D01*
X68161027Y-75824800D02*
X68303884Y-75872419D01*
X68303884Y-75872419D02*
X68541979Y-75872419D01*
X68541979Y-75872419D02*
X68637217Y-75824800D01*
X68637217Y-75824800D02*
X68684836Y-75777180D01*
X68684836Y-75777180D02*
X68732455Y-75681942D01*
X68732455Y-75681942D02*
X68732455Y-75586704D01*
X68732455Y-75586704D02*
X68684836Y-75491466D01*
X68684836Y-75491466D02*
X68637217Y-75443847D01*
X68637217Y-75443847D02*
X68541979Y-75396228D01*
X68541979Y-75396228D02*
X68351503Y-75348609D01*
X68351503Y-75348609D02*
X68256265Y-75300990D01*
X68256265Y-75300990D02*
X68208646Y-75253371D01*
X68208646Y-75253371D02*
X68161027Y-75158133D01*
X68161027Y-75158133D02*
X68161027Y-75062895D01*
X68161027Y-75062895D02*
X68208646Y-74967657D01*
X68208646Y-74967657D02*
X68256265Y-74920038D01*
X68256265Y-74920038D02*
X68351503Y-74872419D01*
X68351503Y-74872419D02*
X68589598Y-74872419D01*
X68589598Y-74872419D02*
X68732455Y-74920038D01*
X69161027Y-75348609D02*
X69494360Y-75348609D01*
X69637217Y-75872419D02*
X69161027Y-75872419D01*
X69161027Y-75872419D02*
X69161027Y-74872419D01*
X69161027Y-74872419D02*
X69637217Y-74872419D01*
X69922932Y-74872419D02*
X70494360Y-74872419D01*
X70208646Y-75872419D02*
X70208646Y-74872419D01*
X124803884Y-96991466D02*
X125565789Y-96991466D01*
X125184836Y-97372419D02*
X125184836Y-96610514D01*
X125946741Y-96372419D02*
X126565788Y-96372419D01*
X126565788Y-96372419D02*
X126232455Y-96753371D01*
X126232455Y-96753371D02*
X126375312Y-96753371D01*
X126375312Y-96753371D02*
X126470550Y-96800990D01*
X126470550Y-96800990D02*
X126518169Y-96848609D01*
X126518169Y-96848609D02*
X126565788Y-96943847D01*
X126565788Y-96943847D02*
X126565788Y-97181942D01*
X126565788Y-97181942D02*
X126518169Y-97277180D01*
X126518169Y-97277180D02*
X126470550Y-97324800D01*
X126470550Y-97324800D02*
X126375312Y-97372419D01*
X126375312Y-97372419D02*
X126089598Y-97372419D01*
X126089598Y-97372419D02*
X125994360Y-97324800D01*
X125994360Y-97324800D02*
X125946741Y-97277180D01*
X126994360Y-97277180D02*
X127041979Y-97324800D01*
X127041979Y-97324800D02*
X126994360Y-97372419D01*
X126994360Y-97372419D02*
X126946741Y-97324800D01*
X126946741Y-97324800D02*
X126994360Y-97277180D01*
X126994360Y-97277180D02*
X126994360Y-97372419D01*
X127375312Y-96372419D02*
X127994359Y-96372419D01*
X127994359Y-96372419D02*
X127661026Y-96753371D01*
X127661026Y-96753371D02*
X127803883Y-96753371D01*
X127803883Y-96753371D02*
X127899121Y-96800990D01*
X127899121Y-96800990D02*
X127946740Y-96848609D01*
X127946740Y-96848609D02*
X127994359Y-96943847D01*
X127994359Y-96943847D02*
X127994359Y-97181942D01*
X127994359Y-97181942D02*
X127946740Y-97277180D01*
X127946740Y-97277180D02*
X127899121Y-97324800D01*
X127899121Y-97324800D02*
X127803883Y-97372419D01*
X127803883Y-97372419D02*
X127518169Y-97372419D01*
X127518169Y-97372419D02*
X127422931Y-97324800D01*
X127422931Y-97324800D02*
X127375312Y-97277180D01*
X66303884Y-84872419D02*
X66303884Y-83872419D01*
X66970550Y-83872419D02*
X67161026Y-83872419D01*
X67161026Y-83872419D02*
X67256264Y-83920038D01*
X67256264Y-83920038D02*
X67351502Y-84015276D01*
X67351502Y-84015276D02*
X67399121Y-84205752D01*
X67399121Y-84205752D02*
X67399121Y-84539085D01*
X67399121Y-84539085D02*
X67351502Y-84729561D01*
X67351502Y-84729561D02*
X67256264Y-84824800D01*
X67256264Y-84824800D02*
X67161026Y-84872419D01*
X67161026Y-84872419D02*
X66970550Y-84872419D01*
X66970550Y-84872419D02*
X66875312Y-84824800D01*
X66875312Y-84824800D02*
X66780074Y-84729561D01*
X66780074Y-84729561D02*
X66732455Y-84539085D01*
X66732455Y-84539085D02*
X66732455Y-84205752D01*
X66732455Y-84205752D02*
X66780074Y-84015276D01*
X66780074Y-84015276D02*
X66875312Y-83920038D01*
X66875312Y-83920038D02*
X66970550Y-83872419D01*
X120327693Y-103420038D02*
X120232455Y-103372419D01*
X120232455Y-103372419D02*
X120089598Y-103372419D01*
X120089598Y-103372419D02*
X119946741Y-103420038D01*
X119946741Y-103420038D02*
X119851503Y-103515276D01*
X119851503Y-103515276D02*
X119803884Y-103610514D01*
X119803884Y-103610514D02*
X119756265Y-103800990D01*
X119756265Y-103800990D02*
X119756265Y-103943847D01*
X119756265Y-103943847D02*
X119803884Y-104134323D01*
X119803884Y-104134323D02*
X119851503Y-104229561D01*
X119851503Y-104229561D02*
X119946741Y-104324800D01*
X119946741Y-104324800D02*
X120089598Y-104372419D01*
X120089598Y-104372419D02*
X120184836Y-104372419D01*
X120184836Y-104372419D02*
X120327693Y-104324800D01*
X120327693Y-104324800D02*
X120375312Y-104277180D01*
X120375312Y-104277180D02*
X120375312Y-103943847D01*
X120375312Y-103943847D02*
X120184836Y-103943847D01*
X120803884Y-104372419D02*
X120803884Y-103372419D01*
X120803884Y-103372419D02*
X121375312Y-104372419D01*
X121375312Y-104372419D02*
X121375312Y-103372419D01*
X121851503Y-104372419D02*
X121851503Y-103372419D01*
X121851503Y-103372419D02*
X122089598Y-103372419D01*
X122089598Y-103372419D02*
X122232455Y-103420038D01*
X122232455Y-103420038D02*
X122327693Y-103515276D01*
X122327693Y-103515276D02*
X122375312Y-103610514D01*
X122375312Y-103610514D02*
X122422931Y-103800990D01*
X122422931Y-103800990D02*
X122422931Y-103943847D01*
X122422931Y-103943847D02*
X122375312Y-104134323D01*
X122375312Y-104134323D02*
X122327693Y-104229561D01*
X122327693Y-104229561D02*
X122232455Y-104324800D01*
X122232455Y-104324800D02*
X122089598Y-104372419D01*
X122089598Y-104372419D02*
X121851503Y-104372419D01*
X66875312Y-80277180D02*
X66827693Y-80324800D01*
X66827693Y-80324800D02*
X66684836Y-80372419D01*
X66684836Y-80372419D02*
X66589598Y-80372419D01*
X66589598Y-80372419D02*
X66446741Y-80324800D01*
X66446741Y-80324800D02*
X66351503Y-80229561D01*
X66351503Y-80229561D02*
X66303884Y-80134323D01*
X66303884Y-80134323D02*
X66256265Y-79943847D01*
X66256265Y-79943847D02*
X66256265Y-79800990D01*
X66256265Y-79800990D02*
X66303884Y-79610514D01*
X66303884Y-79610514D02*
X66351503Y-79515276D01*
X66351503Y-79515276D02*
X66446741Y-79420038D01*
X66446741Y-79420038D02*
X66589598Y-79372419D01*
X66589598Y-79372419D02*
X66684836Y-79372419D01*
X66684836Y-79372419D02*
X66827693Y-79420038D01*
X66827693Y-79420038D02*
X66875312Y-79467657D01*
X67780074Y-80372419D02*
X67303884Y-80372419D01*
X67303884Y-80372419D02*
X67303884Y-79372419D01*
X68113408Y-80372419D02*
X68113408Y-79372419D01*
X68684836Y-80372419D02*
X68256265Y-79800990D01*
X68684836Y-79372419D02*
X68113408Y-79943847D01*
X82875312Y-52872419D02*
X82541979Y-52396228D01*
X82303884Y-52872419D02*
X82303884Y-51872419D01*
X82303884Y-51872419D02*
X82684836Y-51872419D01*
X82684836Y-51872419D02*
X82780074Y-51920038D01*
X82780074Y-51920038D02*
X82827693Y-51967657D01*
X82827693Y-51967657D02*
X82875312Y-52062895D01*
X82875312Y-52062895D02*
X82875312Y-52205752D01*
X82875312Y-52205752D02*
X82827693Y-52300990D01*
X82827693Y-52300990D02*
X82780074Y-52348609D01*
X82780074Y-52348609D02*
X82684836Y-52396228D01*
X82684836Y-52396228D02*
X82303884Y-52396228D01*
X83303884Y-52348609D02*
X83637217Y-52348609D01*
X83780074Y-52872419D02*
X83303884Y-52872419D01*
X83303884Y-52872419D02*
X83303884Y-51872419D01*
X83303884Y-51872419D02*
X83780074Y-51872419D01*
X84065789Y-51872419D02*
X84399122Y-52872419D01*
X84399122Y-52872419D02*
X84732455Y-51872419D01*
X85065789Y-52777180D02*
X85113408Y-52824800D01*
X85113408Y-52824800D02*
X85065789Y-52872419D01*
X85065789Y-52872419D02*
X85018170Y-52824800D01*
X85018170Y-52824800D02*
X85065789Y-52777180D01*
X85065789Y-52777180D02*
X85065789Y-52872419D01*
X85065789Y-52253371D02*
X85113408Y-52300990D01*
X85113408Y-52300990D02*
X85065789Y-52348609D01*
X85065789Y-52348609D02*
X85018170Y-52300990D01*
X85018170Y-52300990D02*
X85065789Y-52253371D01*
X85065789Y-52253371D02*
X85065789Y-52348609D01*
X86780074Y-52872419D02*
X86303884Y-52872419D01*
X86303884Y-52872419D02*
X86303884Y-51872419D01*
X87113408Y-52872419D02*
X87113408Y-51872419D01*
X87113408Y-51872419D02*
X87351503Y-51872419D01*
X87351503Y-51872419D02*
X87494360Y-51920038D01*
X87494360Y-51920038D02*
X87589598Y-52015276D01*
X87589598Y-52015276D02*
X87637217Y-52110514D01*
X87637217Y-52110514D02*
X87684836Y-52300990D01*
X87684836Y-52300990D02*
X87684836Y-52443847D01*
X87684836Y-52443847D02*
X87637217Y-52634323D01*
X87637217Y-52634323D02*
X87589598Y-52729561D01*
X87589598Y-52729561D02*
X87494360Y-52824800D01*
X87494360Y-52824800D02*
X87351503Y-52872419D01*
X87351503Y-52872419D02*
X87113408Y-52872419D01*
X88303884Y-51872419D02*
X88494360Y-51872419D01*
X88494360Y-51872419D02*
X88589598Y-51920038D01*
X88589598Y-51920038D02*
X88684836Y-52015276D01*
X88684836Y-52015276D02*
X88732455Y-52205752D01*
X88732455Y-52205752D02*
X88732455Y-52539085D01*
X88732455Y-52539085D02*
X88684836Y-52729561D01*
X88684836Y-52729561D02*
X88589598Y-52824800D01*
X88589598Y-52824800D02*
X88494360Y-52872419D01*
X88494360Y-52872419D02*
X88303884Y-52872419D01*
X88303884Y-52872419D02*
X88208646Y-52824800D01*
X88208646Y-52824800D02*
X88113408Y-52729561D01*
X88113408Y-52729561D02*
X88065789Y-52539085D01*
X88065789Y-52539085D02*
X88065789Y-52205752D01*
X88065789Y-52205752D02*
X88113408Y-52015276D01*
X88113408Y-52015276D02*
X88208646Y-51920038D01*
X88208646Y-51920038D02*
X88303884Y-51872419D01*
X89875312Y-51824800D02*
X89018170Y-53110514D01*
X90208646Y-52872419D02*
X90208646Y-51872419D01*
X90208646Y-51872419D02*
X90446741Y-51872419D01*
X90446741Y-51872419D02*
X90589598Y-51920038D01*
X90589598Y-51920038D02*
X90684836Y-52015276D01*
X90684836Y-52015276D02*
X90732455Y-52110514D01*
X90732455Y-52110514D02*
X90780074Y-52300990D01*
X90780074Y-52300990D02*
X90780074Y-52443847D01*
X90780074Y-52443847D02*
X90732455Y-52634323D01*
X90732455Y-52634323D02*
X90684836Y-52729561D01*
X90684836Y-52729561D02*
X90589598Y-52824800D01*
X90589598Y-52824800D02*
X90446741Y-52872419D01*
X90446741Y-52872419D02*
X90208646Y-52872419D01*
X91208646Y-52348609D02*
X91970551Y-52348609D01*
X91970551Y-52634323D02*
X91208646Y-52634323D01*
X92922931Y-51872419D02*
X92446741Y-51872419D01*
X92446741Y-51872419D02*
X92399122Y-52348609D01*
X92399122Y-52348609D02*
X92446741Y-52300990D01*
X92446741Y-52300990D02*
X92541979Y-52253371D01*
X92541979Y-52253371D02*
X92780074Y-52253371D01*
X92780074Y-52253371D02*
X92875312Y-52300990D01*
X92875312Y-52300990D02*
X92922931Y-52348609D01*
X92922931Y-52348609D02*
X92970550Y-52443847D01*
X92970550Y-52443847D02*
X92970550Y-52681942D01*
X92970550Y-52681942D02*
X92922931Y-52777180D01*
X92922931Y-52777180D02*
X92875312Y-52824800D01*
X92875312Y-52824800D02*
X92780074Y-52872419D01*
X92780074Y-52872419D02*
X92541979Y-52872419D01*
X92541979Y-52872419D02*
X92446741Y-52824800D01*
X92446741Y-52824800D02*
X92399122Y-52777180D01*
X93589598Y-51872419D02*
X93684836Y-51872419D01*
X93684836Y-51872419D02*
X93780074Y-51920038D01*
X93780074Y-51920038D02*
X93827693Y-51967657D01*
X93827693Y-51967657D02*
X93875312Y-52062895D01*
X93875312Y-52062895D02*
X93922931Y-52253371D01*
X93922931Y-52253371D02*
X93922931Y-52491466D01*
X93922931Y-52491466D02*
X93875312Y-52681942D01*
X93875312Y-52681942D02*
X93827693Y-52777180D01*
X93827693Y-52777180D02*
X93780074Y-52824800D01*
X93780074Y-52824800D02*
X93684836Y-52872419D01*
X93684836Y-52872419D02*
X93589598Y-52872419D01*
X93589598Y-52872419D02*
X93494360Y-52824800D01*
X93494360Y-52824800D02*
X93446741Y-52777180D01*
X93446741Y-52777180D02*
X93399122Y-52681942D01*
X93399122Y-52681942D02*
X93351503Y-52491466D01*
X93351503Y-52491466D02*
X93351503Y-52253371D01*
X93351503Y-52253371D02*
X93399122Y-52062895D01*
X93399122Y-52062895D02*
X93446741Y-51967657D01*
X93446741Y-51967657D02*
X93494360Y-51920038D01*
X93494360Y-51920038D02*
X93589598Y-51872419D01*
X94256265Y-52872419D02*
X94780074Y-52205752D01*
X94256265Y-52205752D02*
X94780074Y-52872419D01*
X95637217Y-51872419D02*
X95161027Y-51872419D01*
X95161027Y-51872419D02*
X95113408Y-52348609D01*
X95113408Y-52348609D02*
X95161027Y-52300990D01*
X95161027Y-52300990D02*
X95256265Y-52253371D01*
X95256265Y-52253371D02*
X95494360Y-52253371D01*
X95494360Y-52253371D02*
X95589598Y-52300990D01*
X95589598Y-52300990D02*
X95637217Y-52348609D01*
X95637217Y-52348609D02*
X95684836Y-52443847D01*
X95684836Y-52443847D02*
X95684836Y-52681942D01*
X95684836Y-52681942D02*
X95637217Y-52777180D01*
X95637217Y-52777180D02*
X95589598Y-52824800D01*
X95589598Y-52824800D02*
X95494360Y-52872419D01*
X95494360Y-52872419D02*
X95256265Y-52872419D01*
X95256265Y-52872419D02*
X95161027Y-52824800D01*
X95161027Y-52824800D02*
X95113408Y-52777180D01*
X96303884Y-51872419D02*
X96399122Y-51872419D01*
X96399122Y-51872419D02*
X96494360Y-51920038D01*
X96494360Y-51920038D02*
X96541979Y-51967657D01*
X96541979Y-51967657D02*
X96589598Y-52062895D01*
X96589598Y-52062895D02*
X96637217Y-52253371D01*
X96637217Y-52253371D02*
X96637217Y-52491466D01*
X96637217Y-52491466D02*
X96589598Y-52681942D01*
X96589598Y-52681942D02*
X96541979Y-52777180D01*
X96541979Y-52777180D02*
X96494360Y-52824800D01*
X96494360Y-52824800D02*
X96399122Y-52872419D01*
X96399122Y-52872419D02*
X96303884Y-52872419D01*
X96303884Y-52872419D02*
X96208646Y-52824800D01*
X96208646Y-52824800D02*
X96161027Y-52777180D01*
X96161027Y-52777180D02*
X96113408Y-52681942D01*
X96113408Y-52681942D02*
X96065789Y-52491466D01*
X96065789Y-52491466D02*
X96065789Y-52253371D01*
X96065789Y-52253371D02*
X96113408Y-52062895D01*
X96113408Y-52062895D02*
X96161027Y-51967657D01*
X96161027Y-51967657D02*
X96208646Y-51920038D01*
X96208646Y-51920038D02*
X96303884Y-51872419D01*
X97780074Y-51824800D02*
X96922932Y-53110514D01*
X98113408Y-52872419D02*
X98113408Y-51872419D01*
X98113408Y-51872419D02*
X98684836Y-52872419D01*
X98684836Y-52872419D02*
X98684836Y-51872419D01*
X99161027Y-52348609D02*
X99922932Y-52348609D01*
X99922932Y-52634323D02*
X99161027Y-52634323D01*
X100922931Y-52872419D02*
X100351503Y-52872419D01*
X100637217Y-52872419D02*
X100637217Y-51872419D01*
X100637217Y-51872419D02*
X100541979Y-52015276D01*
X100541979Y-52015276D02*
X100446741Y-52110514D01*
X100446741Y-52110514D02*
X100351503Y-52158133D01*
X101541979Y-51872419D02*
X101637217Y-51872419D01*
X101637217Y-51872419D02*
X101732455Y-51920038D01*
X101732455Y-51920038D02*
X101780074Y-51967657D01*
X101780074Y-51967657D02*
X101827693Y-52062895D01*
X101827693Y-52062895D02*
X101875312Y-52253371D01*
X101875312Y-52253371D02*
X101875312Y-52491466D01*
X101875312Y-52491466D02*
X101827693Y-52681942D01*
X101827693Y-52681942D02*
X101780074Y-52777180D01*
X101780074Y-52777180D02*
X101732455Y-52824800D01*
X101732455Y-52824800D02*
X101637217Y-52872419D01*
X101637217Y-52872419D02*
X101541979Y-52872419D01*
X101541979Y-52872419D02*
X101446741Y-52824800D01*
X101446741Y-52824800D02*
X101399122Y-52777180D01*
X101399122Y-52777180D02*
X101351503Y-52681942D01*
X101351503Y-52681942D02*
X101303884Y-52491466D01*
X101303884Y-52491466D02*
X101303884Y-52253371D01*
X101303884Y-52253371D02*
X101351503Y-52062895D01*
X101351503Y-52062895D02*
X101399122Y-51967657D01*
X101399122Y-51967657D02*
X101446741Y-51920038D01*
X101446741Y-51920038D02*
X101541979Y-51872419D01*
X103018169Y-51824800D02*
X102161027Y-53110514D01*
X103875312Y-51920038D02*
X103780074Y-51872419D01*
X103780074Y-51872419D02*
X103637217Y-51872419D01*
X103637217Y-51872419D02*
X103494360Y-51920038D01*
X103494360Y-51920038D02*
X103399122Y-52015276D01*
X103399122Y-52015276D02*
X103351503Y-52110514D01*
X103351503Y-52110514D02*
X103303884Y-52300990D01*
X103303884Y-52300990D02*
X103303884Y-52443847D01*
X103303884Y-52443847D02*
X103351503Y-52634323D01*
X103351503Y-52634323D02*
X103399122Y-52729561D01*
X103399122Y-52729561D02*
X103494360Y-52824800D01*
X103494360Y-52824800D02*
X103637217Y-52872419D01*
X103637217Y-52872419D02*
X103732455Y-52872419D01*
X103732455Y-52872419D02*
X103875312Y-52824800D01*
X103875312Y-52824800D02*
X103922931Y-52777180D01*
X103922931Y-52777180D02*
X103922931Y-52443847D01*
X103922931Y-52443847D02*
X103732455Y-52443847D01*
X104351503Y-52348609D02*
X105113408Y-52348609D01*
X105113408Y-52634323D02*
X104351503Y-52634323D01*
X106113407Y-52872419D02*
X105541979Y-52872419D01*
X105827693Y-52872419D02*
X105827693Y-51872419D01*
X105827693Y-51872419D02*
X105732455Y-52015276D01*
X105732455Y-52015276D02*
X105637217Y-52110514D01*
X105637217Y-52110514D02*
X105541979Y-52158133D01*
X106494360Y-51967657D02*
X106541979Y-51920038D01*
X106541979Y-51920038D02*
X106637217Y-51872419D01*
X106637217Y-51872419D02*
X106875312Y-51872419D01*
X106875312Y-51872419D02*
X106970550Y-51920038D01*
X106970550Y-51920038D02*
X107018169Y-51967657D01*
X107018169Y-51967657D02*
X107065788Y-52062895D01*
X107065788Y-52062895D02*
X107065788Y-52158133D01*
X107065788Y-52158133D02*
X107018169Y-52300990D01*
X107018169Y-52300990D02*
X106446741Y-52872419D01*
X106446741Y-52872419D02*
X107065788Y-52872419D01*
X107684836Y-51872419D02*
X107780074Y-51872419D01*
X107780074Y-51872419D02*
X107875312Y-51920038D01*
X107875312Y-51920038D02*
X107922931Y-51967657D01*
X107922931Y-51967657D02*
X107970550Y-52062895D01*
X107970550Y-52062895D02*
X108018169Y-52253371D01*
X108018169Y-52253371D02*
X108018169Y-52491466D01*
X108018169Y-52491466D02*
X107970550Y-52681942D01*
X107970550Y-52681942D02*
X107922931Y-52777180D01*
X107922931Y-52777180D02*
X107875312Y-52824800D01*
X107875312Y-52824800D02*
X107780074Y-52872419D01*
X107780074Y-52872419D02*
X107684836Y-52872419D01*
X107684836Y-52872419D02*
X107589598Y-52824800D01*
X107589598Y-52824800D02*
X107541979Y-52777180D01*
X107541979Y-52777180D02*
X107494360Y-52681942D01*
X107494360Y-52681942D02*
X107446741Y-52491466D01*
X107446741Y-52491466D02*
X107446741Y-52253371D01*
X107446741Y-52253371D02*
X107494360Y-52062895D01*
X107494360Y-52062895D02*
X107541979Y-51967657D01*
X107541979Y-51967657D02*
X107589598Y-51920038D01*
X107589598Y-51920038D02*
X107684836Y-51872419D01*
X120303884Y-100991466D02*
X121065789Y-100991466D01*
X120684836Y-101372419D02*
X120684836Y-100610514D01*
X122018169Y-100372419D02*
X121541979Y-100372419D01*
X121541979Y-100372419D02*
X121494360Y-100848609D01*
X121494360Y-100848609D02*
X121541979Y-100800990D01*
X121541979Y-100800990D02*
X121637217Y-100753371D01*
X121637217Y-100753371D02*
X121875312Y-100753371D01*
X121875312Y-100753371D02*
X121970550Y-100800990D01*
X121970550Y-100800990D02*
X122018169Y-100848609D01*
X122018169Y-100848609D02*
X122065788Y-100943847D01*
X122065788Y-100943847D02*
X122065788Y-101181942D01*
X122065788Y-101181942D02*
X122018169Y-101277180D01*
X122018169Y-101277180D02*
X121970550Y-101324800D01*
X121970550Y-101324800D02*
X121875312Y-101372419D01*
X121875312Y-101372419D02*
X121637217Y-101372419D01*
X121637217Y-101372419D02*
X121541979Y-101324800D01*
X121541979Y-101324800D02*
X121494360Y-101277180D01*
D11*
X93833333Y-59859580D02*
X93785714Y-59907200D01*
X93785714Y-59907200D02*
X93642857Y-59954819D01*
X93642857Y-59954819D02*
X93547619Y-59954819D01*
X93547619Y-59954819D02*
X93404762Y-59907200D01*
X93404762Y-59907200D02*
X93309524Y-59811961D01*
X93309524Y-59811961D02*
X93261905Y-59716723D01*
X93261905Y-59716723D02*
X93214286Y-59526247D01*
X93214286Y-59526247D02*
X93214286Y-59383390D01*
X93214286Y-59383390D02*
X93261905Y-59192914D01*
X93261905Y-59192914D02*
X93309524Y-59097676D01*
X93309524Y-59097676D02*
X93404762Y-59002438D01*
X93404762Y-59002438D02*
X93547619Y-58954819D01*
X93547619Y-58954819D02*
X93642857Y-58954819D01*
X93642857Y-58954819D02*
X93785714Y-59002438D01*
X93785714Y-59002438D02*
X93833333Y-59050057D01*
X94738095Y-58954819D02*
X94261905Y-58954819D01*
X94261905Y-58954819D02*
X94214286Y-59431009D01*
X94214286Y-59431009D02*
X94261905Y-59383390D01*
X94261905Y-59383390D02*
X94357143Y-59335771D01*
X94357143Y-59335771D02*
X94595238Y-59335771D01*
X94595238Y-59335771D02*
X94690476Y-59383390D01*
X94690476Y-59383390D02*
X94738095Y-59431009D01*
X94738095Y-59431009D02*
X94785714Y-59526247D01*
X94785714Y-59526247D02*
X94785714Y-59764342D01*
X94785714Y-59764342D02*
X94738095Y-59859580D01*
X94738095Y-59859580D02*
X94690476Y-59907200D01*
X94690476Y-59907200D02*
X94595238Y-59954819D01*
X94595238Y-59954819D02*
X94357143Y-59954819D01*
X94357143Y-59954819D02*
X94261905Y-59907200D01*
X94261905Y-59907200D02*
X94214286Y-59859580D01*
X78333333Y-64859580D02*
X78285714Y-64907200D01*
X78285714Y-64907200D02*
X78142857Y-64954819D01*
X78142857Y-64954819D02*
X78047619Y-64954819D01*
X78047619Y-64954819D02*
X77904762Y-64907200D01*
X77904762Y-64907200D02*
X77809524Y-64811961D01*
X77809524Y-64811961D02*
X77761905Y-64716723D01*
X77761905Y-64716723D02*
X77714286Y-64526247D01*
X77714286Y-64526247D02*
X77714286Y-64383390D01*
X77714286Y-64383390D02*
X77761905Y-64192914D01*
X77761905Y-64192914D02*
X77809524Y-64097676D01*
X77809524Y-64097676D02*
X77904762Y-64002438D01*
X77904762Y-64002438D02*
X78047619Y-63954819D01*
X78047619Y-63954819D02*
X78142857Y-63954819D01*
X78142857Y-63954819D02*
X78285714Y-64002438D01*
X78285714Y-64002438D02*
X78333333Y-64050057D01*
X79190476Y-64288152D02*
X79190476Y-64954819D01*
X78952381Y-63907200D02*
X78714286Y-64621485D01*
X78714286Y-64621485D02*
X79333333Y-64621485D01*
X95833333Y-66359580D02*
X95785714Y-66407200D01*
X95785714Y-66407200D02*
X95642857Y-66454819D01*
X95642857Y-66454819D02*
X95547619Y-66454819D01*
X95547619Y-66454819D02*
X95404762Y-66407200D01*
X95404762Y-66407200D02*
X95309524Y-66311961D01*
X95309524Y-66311961D02*
X95261905Y-66216723D01*
X95261905Y-66216723D02*
X95214286Y-66026247D01*
X95214286Y-66026247D02*
X95214286Y-65883390D01*
X95214286Y-65883390D02*
X95261905Y-65692914D01*
X95261905Y-65692914D02*
X95309524Y-65597676D01*
X95309524Y-65597676D02*
X95404762Y-65502438D01*
X95404762Y-65502438D02*
X95547619Y-65454819D01*
X95547619Y-65454819D02*
X95642857Y-65454819D01*
X95642857Y-65454819D02*
X95785714Y-65502438D01*
X95785714Y-65502438D02*
X95833333Y-65550057D01*
X96166667Y-65454819D02*
X96785714Y-65454819D01*
X96785714Y-65454819D02*
X96452381Y-65835771D01*
X96452381Y-65835771D02*
X96595238Y-65835771D01*
X96595238Y-65835771D02*
X96690476Y-65883390D01*
X96690476Y-65883390D02*
X96738095Y-65931009D01*
X96738095Y-65931009D02*
X96785714Y-66026247D01*
X96785714Y-66026247D02*
X96785714Y-66264342D01*
X96785714Y-66264342D02*
X96738095Y-66359580D01*
X96738095Y-66359580D02*
X96690476Y-66407200D01*
X96690476Y-66407200D02*
X96595238Y-66454819D01*
X96595238Y-66454819D02*
X96309524Y-66454819D01*
X96309524Y-66454819D02*
X96214286Y-66407200D01*
X96214286Y-66407200D02*
X96166667Y-66359580D01*
X104214285Y-74431009D02*
X104357142Y-74478628D01*
X104357142Y-74478628D02*
X104404761Y-74526247D01*
X104404761Y-74526247D02*
X104452380Y-74621485D01*
X104452380Y-74621485D02*
X104452380Y-74764342D01*
X104452380Y-74764342D02*
X104404761Y-74859580D01*
X104404761Y-74859580D02*
X104357142Y-74907200D01*
X104357142Y-74907200D02*
X104261904Y-74954819D01*
X104261904Y-74954819D02*
X103880952Y-74954819D01*
X103880952Y-74954819D02*
X103880952Y-73954819D01*
X103880952Y-73954819D02*
X104214285Y-73954819D01*
X104214285Y-73954819D02*
X104309523Y-74002438D01*
X104309523Y-74002438D02*
X104357142Y-74050057D01*
X104357142Y-74050057D02*
X104404761Y-74145295D01*
X104404761Y-74145295D02*
X104404761Y-74240533D01*
X104404761Y-74240533D02*
X104357142Y-74335771D01*
X104357142Y-74335771D02*
X104309523Y-74383390D01*
X104309523Y-74383390D02*
X104214285Y-74431009D01*
X104214285Y-74431009D02*
X103880952Y-74431009D01*
X104738095Y-73954819D02*
X105309523Y-73954819D01*
X105023809Y-74954819D02*
X105023809Y-73954819D01*
X106166666Y-74954819D02*
X105595238Y-74954819D01*
X105880952Y-74954819D02*
X105880952Y-73954819D01*
X105880952Y-73954819D02*
X105785714Y-74097676D01*
X105785714Y-74097676D02*
X105690476Y-74192914D01*
X105690476Y-74192914D02*
X105595238Y-74240533D01*
X85833333Y-107954819D02*
X85500000Y-107478628D01*
X85261905Y-107954819D02*
X85261905Y-106954819D01*
X85261905Y-106954819D02*
X85642857Y-106954819D01*
X85642857Y-106954819D02*
X85738095Y-107002438D01*
X85738095Y-107002438D02*
X85785714Y-107050057D01*
X85785714Y-107050057D02*
X85833333Y-107145295D01*
X85833333Y-107145295D02*
X85833333Y-107288152D01*
X85833333Y-107288152D02*
X85785714Y-107383390D01*
X85785714Y-107383390D02*
X85738095Y-107431009D01*
X85738095Y-107431009D02*
X85642857Y-107478628D01*
X85642857Y-107478628D02*
X85261905Y-107478628D01*
X86785714Y-107954819D02*
X86214286Y-107954819D01*
X86500000Y-107954819D02*
X86500000Y-106954819D01*
X86500000Y-106954819D02*
X86404762Y-107097676D01*
X86404762Y-107097676D02*
X86309524Y-107192914D01*
X86309524Y-107192914D02*
X86214286Y-107240533D01*
X80857142Y-59709580D02*
X80809523Y-59757200D01*
X80809523Y-59757200D02*
X80666666Y-59804819D01*
X80666666Y-59804819D02*
X80571428Y-59804819D01*
X80571428Y-59804819D02*
X80428571Y-59757200D01*
X80428571Y-59757200D02*
X80333333Y-59661961D01*
X80333333Y-59661961D02*
X80285714Y-59566723D01*
X80285714Y-59566723D02*
X80238095Y-59376247D01*
X80238095Y-59376247D02*
X80238095Y-59233390D01*
X80238095Y-59233390D02*
X80285714Y-59042914D01*
X80285714Y-59042914D02*
X80333333Y-58947676D01*
X80333333Y-58947676D02*
X80428571Y-58852438D01*
X80428571Y-58852438D02*
X80571428Y-58804819D01*
X80571428Y-58804819D02*
X80666666Y-58804819D01*
X80666666Y-58804819D02*
X80809523Y-58852438D01*
X80809523Y-58852438D02*
X80857142Y-58900057D01*
X81809523Y-59804819D02*
X81238095Y-59804819D01*
X81523809Y-59804819D02*
X81523809Y-58804819D01*
X81523809Y-58804819D02*
X81428571Y-58947676D01*
X81428571Y-58947676D02*
X81333333Y-59042914D01*
X81333333Y-59042914D02*
X81238095Y-59090533D01*
X82428571Y-58804819D02*
X82523809Y-58804819D01*
X82523809Y-58804819D02*
X82619047Y-58852438D01*
X82619047Y-58852438D02*
X82666666Y-58900057D01*
X82666666Y-58900057D02*
X82714285Y-58995295D01*
X82714285Y-58995295D02*
X82761904Y-59185771D01*
X82761904Y-59185771D02*
X82761904Y-59423866D01*
X82761904Y-59423866D02*
X82714285Y-59614342D01*
X82714285Y-59614342D02*
X82666666Y-59709580D01*
X82666666Y-59709580D02*
X82619047Y-59757200D01*
X82619047Y-59757200D02*
X82523809Y-59804819D01*
X82523809Y-59804819D02*
X82428571Y-59804819D01*
X82428571Y-59804819D02*
X82333333Y-59757200D01*
X82333333Y-59757200D02*
X82285714Y-59709580D01*
X82285714Y-59709580D02*
X82238095Y-59614342D01*
X82238095Y-59614342D02*
X82190476Y-59423866D01*
X82190476Y-59423866D02*
X82190476Y-59185771D01*
X82190476Y-59185771D02*
X82238095Y-58995295D01*
X82238095Y-58995295D02*
X82285714Y-58900057D01*
X82285714Y-58900057D02*
X82333333Y-58852438D01*
X82333333Y-58852438D02*
X82428571Y-58804819D01*
X94666666Y-102439819D02*
X94666666Y-103154104D01*
X94666666Y-103154104D02*
X94619047Y-103296961D01*
X94619047Y-103296961D02*
X94523809Y-103392200D01*
X94523809Y-103392200D02*
X94380952Y-103439819D01*
X94380952Y-103439819D02*
X94285714Y-103439819D01*
X95666666Y-103439819D02*
X95095238Y-103439819D01*
X95380952Y-103439819D02*
X95380952Y-102439819D01*
X95380952Y-102439819D02*
X95285714Y-102582676D01*
X95285714Y-102582676D02*
X95190476Y-102677914D01*
X95190476Y-102677914D02*
X95095238Y-102725533D01*
X79761905Y-104454819D02*
X79761905Y-103454819D01*
X79761905Y-103454819D02*
X80000000Y-103454819D01*
X80000000Y-103454819D02*
X80142857Y-103502438D01*
X80142857Y-103502438D02*
X80238095Y-103597676D01*
X80238095Y-103597676D02*
X80285714Y-103692914D01*
X80285714Y-103692914D02*
X80333333Y-103883390D01*
X80333333Y-103883390D02*
X80333333Y-104026247D01*
X80333333Y-104026247D02*
X80285714Y-104216723D01*
X80285714Y-104216723D02*
X80238095Y-104311961D01*
X80238095Y-104311961D02*
X80142857Y-104407200D01*
X80142857Y-104407200D02*
X80000000Y-104454819D01*
X80000000Y-104454819D02*
X79761905Y-104454819D01*
X81285714Y-104454819D02*
X80714286Y-104454819D01*
X81000000Y-104454819D02*
X81000000Y-103454819D01*
X81000000Y-103454819D02*
X80904762Y-103597676D01*
X80904762Y-103597676D02*
X80809524Y-103692914D01*
X80809524Y-103692914D02*
X80714286Y-103740533D01*
X80238095Y-67954819D02*
X80238095Y-68764342D01*
X80238095Y-68764342D02*
X80285714Y-68859580D01*
X80285714Y-68859580D02*
X80333333Y-68907200D01*
X80333333Y-68907200D02*
X80428571Y-68954819D01*
X80428571Y-68954819D02*
X80619047Y-68954819D01*
X80619047Y-68954819D02*
X80714285Y-68907200D01*
X80714285Y-68907200D02*
X80761904Y-68859580D01*
X80761904Y-68859580D02*
X80809523Y-68764342D01*
X80809523Y-68764342D02*
X80809523Y-67954819D01*
X81809523Y-68954819D02*
X81238095Y-68954819D01*
X81523809Y-68954819D02*
X81523809Y-67954819D01*
X81523809Y-67954819D02*
X81428571Y-68097676D01*
X81428571Y-68097676D02*
X81333333Y-68192914D01*
X81333333Y-68192914D02*
X81238095Y-68240533D01*
X93333333Y-69859580D02*
X93285714Y-69907200D01*
X93285714Y-69907200D02*
X93142857Y-69954819D01*
X93142857Y-69954819D02*
X93047619Y-69954819D01*
X93047619Y-69954819D02*
X92904762Y-69907200D01*
X92904762Y-69907200D02*
X92809524Y-69811961D01*
X92809524Y-69811961D02*
X92761905Y-69716723D01*
X92761905Y-69716723D02*
X92714286Y-69526247D01*
X92714286Y-69526247D02*
X92714286Y-69383390D01*
X92714286Y-69383390D02*
X92761905Y-69192914D01*
X92761905Y-69192914D02*
X92809524Y-69097676D01*
X92809524Y-69097676D02*
X92904762Y-69002438D01*
X92904762Y-69002438D02*
X93047619Y-68954819D01*
X93047619Y-68954819D02*
X93142857Y-68954819D01*
X93142857Y-68954819D02*
X93285714Y-69002438D01*
X93285714Y-69002438D02*
X93333333Y-69050057D01*
X94190476Y-68954819D02*
X94000000Y-68954819D01*
X94000000Y-68954819D02*
X93904762Y-69002438D01*
X93904762Y-69002438D02*
X93857143Y-69050057D01*
X93857143Y-69050057D02*
X93761905Y-69192914D01*
X93761905Y-69192914D02*
X93714286Y-69383390D01*
X93714286Y-69383390D02*
X93714286Y-69764342D01*
X93714286Y-69764342D02*
X93761905Y-69859580D01*
X93761905Y-69859580D02*
X93809524Y-69907200D01*
X93809524Y-69907200D02*
X93904762Y-69954819D01*
X93904762Y-69954819D02*
X94095238Y-69954819D01*
X94095238Y-69954819D02*
X94190476Y-69907200D01*
X94190476Y-69907200D02*
X94238095Y-69859580D01*
X94238095Y-69859580D02*
X94285714Y-69764342D01*
X94285714Y-69764342D02*
X94285714Y-69526247D01*
X94285714Y-69526247D02*
X94238095Y-69431009D01*
X94238095Y-69431009D02*
X94190476Y-69383390D01*
X94190476Y-69383390D02*
X94095238Y-69335771D01*
X94095238Y-69335771D02*
X93904762Y-69335771D01*
X93904762Y-69335771D02*
X93809524Y-69383390D01*
X93809524Y-69383390D02*
X93761905Y-69431009D01*
X93761905Y-69431009D02*
X93714286Y-69526247D01*
X83333333Y-72859580D02*
X83285714Y-72907200D01*
X83285714Y-72907200D02*
X83142857Y-72954819D01*
X83142857Y-72954819D02*
X83047619Y-72954819D01*
X83047619Y-72954819D02*
X82904762Y-72907200D01*
X82904762Y-72907200D02*
X82809524Y-72811961D01*
X82809524Y-72811961D02*
X82761905Y-72716723D01*
X82761905Y-72716723D02*
X82714286Y-72526247D01*
X82714286Y-72526247D02*
X82714286Y-72383390D01*
X82714286Y-72383390D02*
X82761905Y-72192914D01*
X82761905Y-72192914D02*
X82809524Y-72097676D01*
X82809524Y-72097676D02*
X82904762Y-72002438D01*
X82904762Y-72002438D02*
X83047619Y-71954819D01*
X83047619Y-71954819D02*
X83142857Y-71954819D01*
X83142857Y-71954819D02*
X83285714Y-72002438D01*
X83285714Y-72002438D02*
X83333333Y-72050057D01*
X83714286Y-72050057D02*
X83761905Y-72002438D01*
X83761905Y-72002438D02*
X83857143Y-71954819D01*
X83857143Y-71954819D02*
X84095238Y-71954819D01*
X84095238Y-71954819D02*
X84190476Y-72002438D01*
X84190476Y-72002438D02*
X84238095Y-72050057D01*
X84238095Y-72050057D02*
X84285714Y-72145295D01*
X84285714Y-72145295D02*
X84285714Y-72240533D01*
X84285714Y-72240533D02*
X84238095Y-72383390D01*
X84238095Y-72383390D02*
X83666667Y-72954819D01*
X83666667Y-72954819D02*
X84285714Y-72954819D01*
X86333333Y-101454819D02*
X86000000Y-100978628D01*
X85761905Y-101454819D02*
X85761905Y-100454819D01*
X85761905Y-100454819D02*
X86142857Y-100454819D01*
X86142857Y-100454819D02*
X86238095Y-100502438D01*
X86238095Y-100502438D02*
X86285714Y-100550057D01*
X86285714Y-100550057D02*
X86333333Y-100645295D01*
X86333333Y-100645295D02*
X86333333Y-100788152D01*
X86333333Y-100788152D02*
X86285714Y-100883390D01*
X86285714Y-100883390D02*
X86238095Y-100931009D01*
X86238095Y-100931009D02*
X86142857Y-100978628D01*
X86142857Y-100978628D02*
X85761905Y-100978628D01*
X86714286Y-100550057D02*
X86761905Y-100502438D01*
X86761905Y-100502438D02*
X86857143Y-100454819D01*
X86857143Y-100454819D02*
X87095238Y-100454819D01*
X87095238Y-100454819D02*
X87190476Y-100502438D01*
X87190476Y-100502438D02*
X87238095Y-100550057D01*
X87238095Y-100550057D02*
X87285714Y-100645295D01*
X87285714Y-100645295D02*
X87285714Y-100740533D01*
X87285714Y-100740533D02*
X87238095Y-100883390D01*
X87238095Y-100883390D02*
X86666667Y-101454819D01*
X86666667Y-101454819D02*
X87285714Y-101454819D01*
X108238095Y-102954819D02*
X108238095Y-103764342D01*
X108238095Y-103764342D02*
X108285714Y-103859580D01*
X108285714Y-103859580D02*
X108333333Y-103907200D01*
X108333333Y-103907200D02*
X108428571Y-103954819D01*
X108428571Y-103954819D02*
X108619047Y-103954819D01*
X108619047Y-103954819D02*
X108714285Y-103907200D01*
X108714285Y-103907200D02*
X108761904Y-103859580D01*
X108761904Y-103859580D02*
X108809523Y-103764342D01*
X108809523Y-103764342D02*
X108809523Y-102954819D01*
X109238095Y-103050057D02*
X109285714Y-103002438D01*
X109285714Y-103002438D02*
X109380952Y-102954819D01*
X109380952Y-102954819D02*
X109619047Y-102954819D01*
X109619047Y-102954819D02*
X109714285Y-103002438D01*
X109714285Y-103002438D02*
X109761904Y-103050057D01*
X109761904Y-103050057D02*
X109809523Y-103145295D01*
X109809523Y-103145295D02*
X109809523Y-103240533D01*
X109809523Y-103240533D02*
X109761904Y-103383390D01*
X109761904Y-103383390D02*
X109190476Y-103954819D01*
X109190476Y-103954819D02*
X109809523Y-103954819D01*
X111761905Y-103954819D02*
X111761905Y-102954819D01*
X111761905Y-102954819D02*
X112000000Y-102954819D01*
X112000000Y-102954819D02*
X112142857Y-103002438D01*
X112142857Y-103002438D02*
X112238095Y-103097676D01*
X112238095Y-103097676D02*
X112285714Y-103192914D01*
X112285714Y-103192914D02*
X112333333Y-103383390D01*
X112333333Y-103383390D02*
X112333333Y-103526247D01*
X112333333Y-103526247D02*
X112285714Y-103716723D01*
X112285714Y-103716723D02*
X112238095Y-103811961D01*
X112238095Y-103811961D02*
X112142857Y-103907200D01*
X112142857Y-103907200D02*
X112000000Y-103954819D01*
X112000000Y-103954819D02*
X111761905Y-103954819D01*
X112714286Y-103050057D02*
X112761905Y-103002438D01*
X112761905Y-103002438D02*
X112857143Y-102954819D01*
X112857143Y-102954819D02*
X113095238Y-102954819D01*
X113095238Y-102954819D02*
X113190476Y-103002438D01*
X113190476Y-103002438D02*
X113238095Y-103050057D01*
X113238095Y-103050057D02*
X113285714Y-103145295D01*
X113285714Y-103145295D02*
X113285714Y-103240533D01*
X113285714Y-103240533D02*
X113238095Y-103383390D01*
X113238095Y-103383390D02*
X112666667Y-103954819D01*
X112666667Y-103954819D02*
X113285714Y-103954819D01*
X103333333Y-101454819D02*
X103000000Y-100978628D01*
X102761905Y-101454819D02*
X102761905Y-100454819D01*
X102761905Y-100454819D02*
X103142857Y-100454819D01*
X103142857Y-100454819D02*
X103238095Y-100502438D01*
X103238095Y-100502438D02*
X103285714Y-100550057D01*
X103285714Y-100550057D02*
X103333333Y-100645295D01*
X103333333Y-100645295D02*
X103333333Y-100788152D01*
X103333333Y-100788152D02*
X103285714Y-100883390D01*
X103285714Y-100883390D02*
X103238095Y-100931009D01*
X103238095Y-100931009D02*
X103142857Y-100978628D01*
X103142857Y-100978628D02*
X102761905Y-100978628D01*
X103666667Y-100454819D02*
X104285714Y-100454819D01*
X104285714Y-100454819D02*
X103952381Y-100835771D01*
X103952381Y-100835771D02*
X104095238Y-100835771D01*
X104095238Y-100835771D02*
X104190476Y-100883390D01*
X104190476Y-100883390D02*
X104238095Y-100931009D01*
X104238095Y-100931009D02*
X104285714Y-101026247D01*
X104285714Y-101026247D02*
X104285714Y-101264342D01*
X104285714Y-101264342D02*
X104238095Y-101359580D01*
X104238095Y-101359580D02*
X104190476Y-101407200D01*
X104190476Y-101407200D02*
X104095238Y-101454819D01*
X104095238Y-101454819D02*
X103809524Y-101454819D01*
X103809524Y-101454819D02*
X103714286Y-101407200D01*
X103714286Y-101407200D02*
X103666667Y-101359580D01*
X90333333Y-59679580D02*
X90285714Y-59727200D01*
X90285714Y-59727200D02*
X90142857Y-59774819D01*
X90142857Y-59774819D02*
X90047619Y-59774819D01*
X90047619Y-59774819D02*
X89904762Y-59727200D01*
X89904762Y-59727200D02*
X89809524Y-59631961D01*
X89809524Y-59631961D02*
X89761905Y-59536723D01*
X89761905Y-59536723D02*
X89714286Y-59346247D01*
X89714286Y-59346247D02*
X89714286Y-59203390D01*
X89714286Y-59203390D02*
X89761905Y-59012914D01*
X89761905Y-59012914D02*
X89809524Y-58917676D01*
X89809524Y-58917676D02*
X89904762Y-58822438D01*
X89904762Y-58822438D02*
X90047619Y-58774819D01*
X90047619Y-58774819D02*
X90142857Y-58774819D01*
X90142857Y-58774819D02*
X90285714Y-58822438D01*
X90285714Y-58822438D02*
X90333333Y-58870057D01*
X91285714Y-59774819D02*
X90714286Y-59774819D01*
X91000000Y-59774819D02*
X91000000Y-58774819D01*
X91000000Y-58774819D02*
X90904762Y-58917676D01*
X90904762Y-58917676D02*
X90809524Y-59012914D01*
X90809524Y-59012914D02*
X90714286Y-59060533D01*
X85357142Y-59709580D02*
X85309523Y-59757200D01*
X85309523Y-59757200D02*
X85166666Y-59804819D01*
X85166666Y-59804819D02*
X85071428Y-59804819D01*
X85071428Y-59804819D02*
X84928571Y-59757200D01*
X84928571Y-59757200D02*
X84833333Y-59661961D01*
X84833333Y-59661961D02*
X84785714Y-59566723D01*
X84785714Y-59566723D02*
X84738095Y-59376247D01*
X84738095Y-59376247D02*
X84738095Y-59233390D01*
X84738095Y-59233390D02*
X84785714Y-59042914D01*
X84785714Y-59042914D02*
X84833333Y-58947676D01*
X84833333Y-58947676D02*
X84928571Y-58852438D01*
X84928571Y-58852438D02*
X85071428Y-58804819D01*
X85071428Y-58804819D02*
X85166666Y-58804819D01*
X85166666Y-58804819D02*
X85309523Y-58852438D01*
X85309523Y-58852438D02*
X85357142Y-58900057D01*
X86309523Y-59804819D02*
X85738095Y-59804819D01*
X86023809Y-59804819D02*
X86023809Y-58804819D01*
X86023809Y-58804819D02*
X85928571Y-58947676D01*
X85928571Y-58947676D02*
X85833333Y-59042914D01*
X85833333Y-59042914D02*
X85738095Y-59090533D01*
X87261904Y-59804819D02*
X86690476Y-59804819D01*
X86976190Y-59804819D02*
X86976190Y-58804819D01*
X86976190Y-58804819D02*
X86880952Y-58947676D01*
X86880952Y-58947676D02*
X86785714Y-59042914D01*
X86785714Y-59042914D02*
X86690476Y-59090533D01*
X116357142Y-103859580D02*
X116309523Y-103907200D01*
X116309523Y-103907200D02*
X116166666Y-103954819D01*
X116166666Y-103954819D02*
X116071428Y-103954819D01*
X116071428Y-103954819D02*
X115928571Y-103907200D01*
X115928571Y-103907200D02*
X115833333Y-103811961D01*
X115833333Y-103811961D02*
X115785714Y-103716723D01*
X115785714Y-103716723D02*
X115738095Y-103526247D01*
X115738095Y-103526247D02*
X115738095Y-103383390D01*
X115738095Y-103383390D02*
X115785714Y-103192914D01*
X115785714Y-103192914D02*
X115833333Y-103097676D01*
X115833333Y-103097676D02*
X115928571Y-103002438D01*
X115928571Y-103002438D02*
X116071428Y-102954819D01*
X116071428Y-102954819D02*
X116166666Y-102954819D01*
X116166666Y-102954819D02*
X116309523Y-103002438D01*
X116309523Y-103002438D02*
X116357142Y-103050057D01*
X117309523Y-103954819D02*
X116738095Y-103954819D01*
X117023809Y-103954819D02*
X117023809Y-102954819D01*
X117023809Y-102954819D02*
X116928571Y-103097676D01*
X116928571Y-103097676D02*
X116833333Y-103192914D01*
X116833333Y-103192914D02*
X116738095Y-103240533D01*
X117642857Y-102954819D02*
X118261904Y-102954819D01*
X118261904Y-102954819D02*
X117928571Y-103335771D01*
X117928571Y-103335771D02*
X118071428Y-103335771D01*
X118071428Y-103335771D02*
X118166666Y-103383390D01*
X118166666Y-103383390D02*
X118214285Y-103431009D01*
X118214285Y-103431009D02*
X118261904Y-103526247D01*
X118261904Y-103526247D02*
X118261904Y-103764342D01*
X118261904Y-103764342D02*
X118214285Y-103859580D01*
X118214285Y-103859580D02*
X118166666Y-103907200D01*
X118166666Y-103907200D02*
X118071428Y-103954819D01*
X118071428Y-103954819D02*
X117785714Y-103954819D01*
X117785714Y-103954819D02*
X117690476Y-103907200D01*
X117690476Y-103907200D02*
X117642857Y-103859580D01*
X105357142Y-104359580D02*
X105309523Y-104407200D01*
X105309523Y-104407200D02*
X105166666Y-104454819D01*
X105166666Y-104454819D02*
X105071428Y-104454819D01*
X105071428Y-104454819D02*
X104928571Y-104407200D01*
X104928571Y-104407200D02*
X104833333Y-104311961D01*
X104833333Y-104311961D02*
X104785714Y-104216723D01*
X104785714Y-104216723D02*
X104738095Y-104026247D01*
X104738095Y-104026247D02*
X104738095Y-103883390D01*
X104738095Y-103883390D02*
X104785714Y-103692914D01*
X104785714Y-103692914D02*
X104833333Y-103597676D01*
X104833333Y-103597676D02*
X104928571Y-103502438D01*
X104928571Y-103502438D02*
X105071428Y-103454819D01*
X105071428Y-103454819D02*
X105166666Y-103454819D01*
X105166666Y-103454819D02*
X105309523Y-103502438D01*
X105309523Y-103502438D02*
X105357142Y-103550057D01*
X106309523Y-104454819D02*
X105738095Y-104454819D01*
X106023809Y-104454819D02*
X106023809Y-103454819D01*
X106023809Y-103454819D02*
X105928571Y-103597676D01*
X105928571Y-103597676D02*
X105833333Y-103692914D01*
X105833333Y-103692914D02*
X105738095Y-103740533D01*
X106690476Y-103550057D02*
X106738095Y-103502438D01*
X106738095Y-103502438D02*
X106833333Y-103454819D01*
X106833333Y-103454819D02*
X107071428Y-103454819D01*
X107071428Y-103454819D02*
X107166666Y-103502438D01*
X107166666Y-103502438D02*
X107214285Y-103550057D01*
X107214285Y-103550057D02*
X107261904Y-103645295D01*
X107261904Y-103645295D02*
X107261904Y-103740533D01*
X107261904Y-103740533D02*
X107214285Y-103883390D01*
X107214285Y-103883390D02*
X106642857Y-104454819D01*
X106642857Y-104454819D02*
X107261904Y-104454819D01*
D12*
%TO.C,TP5*%
X127700000Y-99500000D02*
G75*
G02*
X125300000Y-99500000I-1200000J0D01*
G01*
X125300000Y-99500000D02*
G75*
G02*
X127700000Y-99500000I1200000J0D01*
G01*
%TO.C,TP3*%
X65200000Y-84500000D02*
G75*
G02*
X62800000Y-84500000I-1200000J0D01*
G01*
X62800000Y-84500000D02*
G75*
G02*
X65200000Y-84500000I1200000J0D01*
G01*
%TO.C,TP2*%
X65200000Y-80000000D02*
G75*
G02*
X62800000Y-80000000I-1200000J0D01*
G01*
X62800000Y-80000000D02*
G75*
G02*
X65200000Y-80000000I1200000J0D01*
G01*
%TO.C,TP1*%
X65200000Y-75500000D02*
G75*
G02*
X62800000Y-75500000I-1200000J0D01*
G01*
X62800000Y-75500000D02*
G75*
G02*
X65200000Y-75500000I1200000J0D01*
G01*
%TO.C,C5*%
X94735000Y-62261252D02*
X94735000Y-61738748D01*
X93265000Y-62261252D02*
X93265000Y-61738748D01*
%TO.C,C4*%
X81235000Y-64791252D02*
X81235000Y-64268748D01*
X79765000Y-64791252D02*
X79765000Y-64268748D01*
%TO.C,C3*%
X94735000Y-65738748D02*
X94735000Y-66261252D01*
X93265000Y-65738748D02*
X93265000Y-66261252D01*
%TO.C,BT1*%
X84530000Y-76615000D02*
X86137090Y-76615000D01*
X84530000Y-78500000D02*
X84530000Y-76615000D01*
X84530000Y-84500000D02*
X84530000Y-86385000D01*
X84530000Y-86385000D02*
X86137090Y-86385000D01*
X105470000Y-76615000D02*
X103862910Y-76615000D01*
X105470000Y-78500000D02*
X105470000Y-76615000D01*
X105470000Y-84500000D02*
X105470000Y-86385000D01*
X105470000Y-86385000D02*
X103862910Y-86385000D01*
X86137090Y-76615000D02*
G75*
G02*
X103862910Y-76615000I8862910J-4885000D01*
G01*
X103865021Y-86381168D02*
G75*
G02*
X86137090Y-86385000I-8865021J4881167D01*
G01*
%TO.C,R1*%
X83265000Y-107227064D02*
X83265000Y-106772936D01*
X84735000Y-107227064D02*
X84735000Y-106772936D01*
%TO.C,C10*%
X81238748Y-61765000D02*
X81761252Y-61765000D01*
X81238748Y-60295000D02*
X81761252Y-60295000D01*
%TO.C,J1*%
X99580000Y-107565000D02*
X99580000Y-106155000D01*
X92040000Y-103485000D02*
X91240000Y-103485000D01*
X91240000Y-103485000D02*
X91240000Y-103635000D01*
X90420000Y-107565000D02*
X90420000Y-106155000D01*
%TO.C,D1*%
X80040000Y-105315000D02*
X80040000Y-108000000D01*
X81960000Y-105315000D02*
X80040000Y-105315000D01*
X81960000Y-108000000D02*
X81960000Y-105315000D01*
%TO.C,U1*%
X89940000Y-64130000D02*
X89610000Y-63890000D01*
X89940000Y-63650000D01*
X89940000Y-64130000D01*
G36*
X89940000Y-64130000D02*
G01*
X89610000Y-63890000D01*
X89940000Y-63650000D01*
X89940000Y-64130000D01*
G37*
X89610000Y-70110000D02*
X89060000Y-70110000D01*
X89610000Y-69560000D02*
X89610000Y-70110000D01*
X89610000Y-64440000D02*
X89610000Y-64190000D01*
X89060000Y-63890000D02*
X89370000Y-63890000D01*
X83390000Y-70110000D02*
X83940000Y-70110000D01*
X83390000Y-69560000D02*
X83390000Y-70110000D01*
X83390000Y-64440000D02*
X83390000Y-63890000D01*
X83390000Y-63890000D02*
X83940000Y-63890000D01*
%TO.C,C6*%
X92235000Y-68261252D02*
X92235000Y-67738748D01*
X90765000Y-68261252D02*
X90765000Y-67738748D01*
%TO.C,C2*%
X86761252Y-73235000D02*
X86238748Y-73235000D01*
X86761252Y-71765000D02*
X86238748Y-71765000D01*
%TO.C,R2*%
X85765000Y-104227064D02*
X85765000Y-103772936D01*
X87235000Y-104227064D02*
X87235000Y-103772936D01*
%TO.C,U2*%
X107440000Y-106500000D02*
X107440000Y-105700000D01*
X107440000Y-106500000D02*
X107440000Y-107300000D01*
X110560000Y-106500000D02*
X110560000Y-105700000D01*
X110560000Y-106500000D02*
X110560000Y-107300000D01*
X107490000Y-107800000D02*
X107160000Y-108040000D01*
X107160000Y-107560000D01*
X107490000Y-107800000D01*
G36*
X107490000Y-107800000D02*
G01*
X107160000Y-108040000D01*
X107160000Y-107560000D01*
X107490000Y-107800000D01*
G37*
%TO.C,D2*%
X111900000Y-106700000D02*
X111900000Y-104740000D01*
X113100000Y-104740000D02*
X111900000Y-104740000D01*
X113100000Y-106700000D02*
X113100000Y-104740000D01*
%TO.C,R3*%
X102765000Y-103772936D02*
X102765000Y-104227064D01*
X104235000Y-103772936D02*
X104235000Y-104227064D01*
%TO.C,C1*%
X90238748Y-61735000D02*
X90761252Y-61735000D01*
X90238748Y-60265000D02*
X90761252Y-60265000D01*
%TO.C,C11*%
X85738748Y-60295000D02*
X86261252Y-60295000D01*
X85738748Y-61765000D02*
X86261252Y-61765000D01*
%TO.C,C13*%
X114265000Y-106238748D02*
X114265000Y-106761252D01*
X115735000Y-106238748D02*
X115735000Y-106761252D01*
%TO.C,C12*%
X104238748Y-106765000D02*
X104761252Y-106765000D01*
X104238748Y-108235000D02*
X104761252Y-108235000D01*
%TO.C,TP6*%
X121200000Y-106500000D02*
G75*
G02*
X118800000Y-106500000I-1200000J0D01*
G01*
X118800000Y-106500000D02*
G75*
G02*
X121200000Y-106500000I1200000J0D01*
G01*
%TD*%
M02*
