%TF.GenerationSoftware,KiCad,Pcbnew,8.0.3-8.0.3-0~ubuntu24.04.1*%
%TF.CreationDate,2024-06-13T23:22:46+05:00*%
%TF.ProjectId,solartap_mcu_clear_60x60_g150,736f6c61-7274-4617-905f-6d63755f636c,rev?*%
%TF.SameCoordinates,Original*%
%TF.FileFunction,Paste,Top*%
%TF.FilePolarity,Positive*%
%FSLAX46Y46*%
G04 Gerber Fmt 4.6, Leading zero omitted, Abs format (unit mm)*
G04 Created by KiCad (PCBNEW 8.0.3-8.0.3-0~ubuntu24.04.1) date 2024-06-13 23:22:46*
%MOMM*%
%LPD*%
G01*
G04 APERTURE LIST*
G04 Aperture macros list*
%AMRoundRect*
0 Rectangle with rounded corners*
0 $1 Rounding radius*
0 $2 $3 $4 $5 $6 $7 $8 $9 X,Y pos of 4 corners*
0 Add a 4 corners polygon primitive as box body*
4,1,4,$2,$3,$4,$5,$6,$7,$8,$9,$2,$3,0*
0 Add four circle primitives for the rounded corners*
1,1,$1+$1,$2,$3*
1,1,$1+$1,$4,$5*
1,1,$1+$1,$6,$7*
1,1,$1+$1,$8,$9*
0 Add four rect primitives between the rounded corners*
20,1,$1+$1,$2,$3,$4,$5,0*
20,1,$1+$1,$4,$5,$6,$7,0*
20,1,$1+$1,$6,$7,$8,$9,0*
20,1,$1+$1,$8,$9,$2,$3,0*%
G04 Aperture macros list end*
%ADD10RoundRect,0.250000X0.475000X-0.337500X0.475000X0.337500X-0.475000X0.337500X-0.475000X-0.337500X0*%
%ADD11RoundRect,0.250000X-0.475000X0.337500X-0.475000X-0.337500X0.475000X-0.337500X0.475000X0.337500X0*%
%ADD12RoundRect,0.250000X-0.337500X-0.475000X0.337500X-0.475000X0.337500X0.475000X-0.337500X0.475000X0*%
%ADD13R,2.600000X5.560000*%
%ADD14RoundRect,0.250000X0.450000X-0.350000X0.450000X0.350000X-0.450000X0.350000X-0.450000X-0.350000X0*%
%ADD15RoundRect,0.150000X-0.150000X-0.425000X0.150000X-0.425000X0.150000X0.425000X-0.150000X0.425000X0*%
%ADD16RoundRect,0.075000X-0.075000X-0.500000X0.075000X-0.500000X0.075000X0.500000X-0.075000X0.500000X0*%
%ADD17RoundRect,0.250000X-0.840000X-0.750000X0.840000X-0.750000X0.840000X0.750000X-0.840000X0.750000X0*%
%ADD18RoundRect,0.243750X-0.456250X0.243750X-0.456250X-0.243750X0.456250X-0.243750X0.456250X0.243750X0*%
%ADD19RoundRect,0.250000X-0.370000X0.370000X-0.370000X-0.370000X0.370000X-0.370000X0.370000X0.370000X0*%
%ADD20RoundRect,0.050000X-0.050000X0.350000X-0.050000X-0.350000X0.050000X-0.350000X0.050000X0.350000X0*%
%ADD21RoundRect,0.050000X-0.350000X0.050000X-0.350000X-0.050000X0.350000X-0.050000X0.350000X0.050000X0*%
%ADD22RoundRect,0.250000X0.337500X0.475000X-0.337500X0.475000X-0.337500X-0.475000X0.337500X-0.475000X0*%
%ADD23RoundRect,0.150000X0.150000X-0.512500X0.150000X0.512500X-0.150000X0.512500X-0.150000X-0.512500X0*%
%ADD24RoundRect,0.150000X0.200000X-0.150000X0.200000X0.150000X-0.200000X0.150000X-0.200000X-0.150000X0*%
%ADD25RoundRect,0.250000X-0.450000X0.350000X-0.450000X-0.350000X0.450000X-0.350000X0.450000X0.350000X0*%
G04 APERTURE END LIST*
D10*
%TO.C,C5*%
X94000000Y-59037500D03*
X94000000Y-56962500D03*
%TD*%
%TO.C,C4*%
X80500000Y-61567500D03*
X80500000Y-59492500D03*
%TD*%
D11*
%TO.C,C3*%
X94000000Y-60962500D03*
X94000000Y-63037500D03*
%TD*%
D12*
%TO.C,C12*%
X103462500Y-107500000D03*
X105537500Y-107500000D03*
%TD*%
D11*
%TO.C,C13*%
X115000000Y-105462500D03*
X115000000Y-107537500D03*
%TD*%
D13*
%TO.C,BT1*%
X83095000Y-77500000D03*
X106905000Y-77500000D03*
%TD*%
D14*
%TO.C,R1*%
X84000000Y-108000000D03*
X84000000Y-106000000D03*
%TD*%
D12*
%TO.C,C10*%
X80462500Y-57030000D03*
X82537500Y-57030000D03*
%TD*%
%TO.C,C11*%
X84962500Y-57030000D03*
X87037500Y-57030000D03*
%TD*%
D15*
%TO.C,J1*%
X91800000Y-104320000D03*
X92600000Y-104320000D03*
D16*
X93750000Y-104320000D03*
X94750000Y-104320000D03*
X95250000Y-104320000D03*
X96250000Y-104320000D03*
D15*
X97400000Y-104320000D03*
X98200000Y-104320000D03*
X98200000Y-104320000D03*
X97400000Y-104320000D03*
D16*
X96750000Y-104320000D03*
X95750000Y-104320000D03*
X94250000Y-104320000D03*
X93250000Y-104320000D03*
D15*
X92600000Y-104320000D03*
X91800000Y-104320000D03*
D17*
X89890000Y-104895000D03*
X89890000Y-108825000D03*
X100110000Y-104895000D03*
X100110000Y-108825000D03*
%TD*%
D18*
%TO.C,D1*%
X81000000Y-106062500D03*
X81000000Y-107937500D03*
%TD*%
D19*
%TO.C,U1*%
X88030000Y-61470000D03*
X86500000Y-61470000D03*
X84970000Y-61470000D03*
X88030000Y-63000000D03*
X86500000Y-63000000D03*
X84970000Y-63000000D03*
X88030000Y-64530000D03*
X86500000Y-64530000D03*
X84970000Y-64530000D03*
D20*
X88700000Y-60050000D03*
X88300000Y-60050000D03*
X87900000Y-60050000D03*
X87500000Y-60050000D03*
X87100000Y-60050000D03*
X86700000Y-60050000D03*
X86300000Y-60050000D03*
X85900000Y-60050000D03*
X85500000Y-60050000D03*
X85100000Y-60050000D03*
X84700000Y-60050000D03*
X84300000Y-60050000D03*
D21*
X83550000Y-60800000D03*
X83550000Y-61200000D03*
X83550000Y-61600000D03*
X83550000Y-62000000D03*
X83550000Y-62400000D03*
X83550000Y-62800000D03*
X83550000Y-63200000D03*
X83550000Y-63600000D03*
X83550000Y-64000000D03*
X83550000Y-64400000D03*
X83550000Y-64800000D03*
X83550000Y-65200000D03*
D20*
X84300000Y-65950000D03*
X84700000Y-65950000D03*
X85100000Y-65950000D03*
X85500000Y-65950000D03*
X85900000Y-65950000D03*
X86300000Y-65950000D03*
X86700000Y-65950000D03*
X87100000Y-65950000D03*
X87500000Y-65950000D03*
X87900000Y-65950000D03*
X88300000Y-65950000D03*
X88700000Y-65950000D03*
D21*
X89450000Y-65200000D03*
X89450000Y-64800000D03*
X89450000Y-64400000D03*
X89450000Y-64000000D03*
X89450000Y-63600000D03*
X89450000Y-63200000D03*
X89450000Y-62800000D03*
X89450000Y-62400000D03*
X89450000Y-62000000D03*
X89450000Y-61600000D03*
X89450000Y-61200000D03*
X89450000Y-60800000D03*
%TD*%
D10*
%TO.C,C6*%
X91500000Y-65037500D03*
X91500000Y-62962500D03*
%TD*%
D22*
%TO.C,C2*%
X87537500Y-68500000D03*
X85462500Y-68500000D03*
%TD*%
D14*
%TO.C,R2*%
X86500000Y-105000000D03*
X86500000Y-103000000D03*
%TD*%
D23*
%TO.C,U2*%
X108050000Y-107637500D03*
X109950000Y-107637500D03*
X109000000Y-105362500D03*
%TD*%
D24*
%TO.C,D2*%
X112500000Y-105300000D03*
X112500000Y-106700000D03*
%TD*%
D25*
%TO.C,R3*%
X103500000Y-103000000D03*
X103500000Y-105000000D03*
%TD*%
D12*
%TO.C,C1*%
X89462500Y-57000000D03*
X91537500Y-57000000D03*
%TD*%
M02*
