%TF.GenerationSoftware,KiCad,Pcbnew,8.0.3-8.0.3-0~ubuntu24.04.1*%
%TF.CreationDate,2024-06-13T23:22:46+05:00*%
%TF.ProjectId,solartap_mcu_clear_60x60_g150,736f6c61-7274-4617-905f-6d63755f636c,rev?*%
%TF.SameCoordinates,Original*%
%TF.FileFunction,Copper,L2,Bot*%
%TF.FilePolarity,Positive*%
%FSLAX46Y46*%
G04 Gerber Fmt 4.6, Leading zero omitted, Abs format (unit mm)*
G04 Created by KiCad (PCBNEW 8.0.3-8.0.3-0~ubuntu24.04.1) date 2024-06-13 23:22:46*
%MOMM*%
%LPD*%
G01*
G04 APERTURE LIST*
%TA.AperFunction,ViaPad*%
%ADD10C,0.600000*%
%TD*%
%TA.AperFunction,Conductor*%
%ADD11C,0.200000*%
%TD*%
%TA.AperFunction,Conductor*%
%ADD12C,1.000000*%
%TD*%
G04 APERTURE END LIST*
D10*
%TO.N,+3.3V*%
X82000000Y-61000000D03*
X91500000Y-66000000D03*
X91500000Y-61000000D03*
X83000000Y-76500000D03*
X107000000Y-76500000D03*
%TO.N,GND*%
X88000000Y-61500000D03*
X100000000Y-105000000D03*
X92000000Y-71000000D03*
X88000000Y-64500000D03*
X100000000Y-109000000D03*
X87000000Y-58500000D03*
X90500000Y-58500000D03*
X85000000Y-61500000D03*
X82000000Y-58500000D03*
%TO.N,Net-(U1-NFC1{slash}P0.09)*%
X72000000Y-42500000D03*
X83500000Y-54000000D03*
%TD*%
D11*
%TO.N,+3.3V*%
X91500000Y-66000000D02*
X95000000Y-69500000D01*
X95000000Y-76500000D02*
X107000000Y-76500000D01*
X91500000Y-62000000D02*
X91500000Y-66000000D01*
X95000000Y-69500000D02*
X95000000Y-76500000D01*
X91500000Y-61000000D02*
X91500000Y-62000000D01*
X83100000Y-62100000D02*
X91400000Y-62100000D01*
X82000000Y-61000000D02*
X83100000Y-62100000D01*
X91400000Y-62100000D02*
X91500000Y-62000000D01*
X107000000Y-76500000D02*
X83000000Y-76500000D01*
%TO.N,GND*%
X100000000Y-105000000D02*
X100000000Y-109000000D01*
X92000000Y-68500000D02*
X92000000Y-71000000D01*
X88000000Y-64500000D02*
X92000000Y-68500000D01*
X88000000Y-61500000D02*
X90500000Y-59000000D01*
X85000000Y-61500000D02*
X85000000Y-58500000D01*
X84000000Y-58500000D02*
X87000000Y-58500000D01*
X90500000Y-59000000D02*
X90500000Y-58500000D01*
X82000000Y-58500000D02*
X84000000Y-58500000D01*
D12*
%TO.N,Net-(U1-NFC1{slash}P0.09)*%
X83500000Y-54000000D02*
X83400000Y-54000000D01*
X82250000Y-52850000D02*
X75350000Y-52850000D01*
X83400000Y-51700000D02*
X82250000Y-52850000D01*
X75350000Y-45950000D02*
X68450000Y-45950000D01*
X82250000Y-50550000D02*
X81100000Y-51700000D01*
X68450000Y-98850000D02*
X121350000Y-98850000D01*
X74200000Y-93100000D02*
X115600000Y-93100000D01*
X81100000Y-51700000D02*
X74200000Y-51700000D01*
X83500000Y-53900000D02*
X83500000Y-54000000D01*
X123650000Y-43650000D02*
X75350000Y-43650000D01*
X79950000Y-48250000D02*
X78800000Y-49400000D01*
X120200000Y-97700000D02*
X120200000Y-47100000D01*
X120200000Y-47100000D02*
X78800000Y-47100000D01*
X74200000Y-42500000D02*
X73050000Y-43650000D01*
X73050000Y-50550000D02*
X73050000Y-94250000D01*
X78800000Y-49400000D02*
X71900000Y-49400000D01*
X114450000Y-52850000D02*
X84550000Y-52850000D01*
X122500000Y-44800000D02*
X76500000Y-44800000D01*
X72000000Y-42500000D02*
X65000000Y-42500000D01*
X70750000Y-48250000D02*
X70750000Y-96550000D01*
X75350000Y-91950000D02*
X114450000Y-91950000D01*
X116750000Y-94250000D02*
X116750000Y-50550000D01*
X114450000Y-91950000D02*
X114450000Y-52850000D01*
X76500000Y-44800000D02*
X75350000Y-45950000D01*
X77650000Y-48250000D02*
X70750000Y-48250000D01*
X121350000Y-98850000D02*
X121350000Y-45950000D01*
X77650000Y-45950000D02*
X76500000Y-47100000D01*
X67300000Y-44800000D02*
X67300000Y-100000000D01*
X122500000Y-100000000D02*
X122500000Y-44800000D01*
X66150000Y-101150000D02*
X123650000Y-101150000D01*
X71900000Y-49400000D02*
X71900000Y-95400000D01*
X119050000Y-48250000D02*
X79950000Y-48250000D01*
X69600000Y-47100000D02*
X69600000Y-97700000D01*
X124800000Y-102300000D02*
X124800000Y-42500000D01*
X71900000Y-95400000D02*
X117900000Y-95400000D01*
X73050000Y-94250000D02*
X116750000Y-94250000D01*
X121350000Y-45950000D02*
X77650000Y-45950000D01*
X75350000Y-52850000D02*
X75350000Y-91950000D01*
X65000000Y-102300000D02*
X124800000Y-102300000D01*
X74200000Y-44800000D02*
X67300000Y-44800000D01*
X74200000Y-51700000D02*
X74200000Y-93100000D01*
X66150000Y-43650000D02*
X66150000Y-101150000D01*
X75350000Y-43650000D02*
X74200000Y-44800000D01*
X117900000Y-49400000D02*
X81100000Y-49400000D01*
X67300000Y-100000000D02*
X122500000Y-100000000D01*
X81100000Y-49400000D02*
X79950000Y-50550000D01*
X116750000Y-50550000D02*
X82250000Y-50550000D01*
X79950000Y-50550000D02*
X73050000Y-50550000D01*
X78800000Y-47100000D02*
X77650000Y-48250000D01*
X115600000Y-51700000D02*
X83400000Y-51700000D01*
X68450000Y-45950000D02*
X68450000Y-98850000D01*
X69600000Y-97700000D02*
X120200000Y-97700000D01*
X115600000Y-93100000D02*
X115600000Y-51700000D01*
X65000000Y-42500000D02*
X65000000Y-102300000D01*
X123650000Y-101150000D02*
X123650000Y-43650000D01*
X119050000Y-96550000D02*
X119050000Y-48250000D01*
X84550000Y-52850000D02*
X83500000Y-53900000D01*
X83400000Y-54000000D02*
X83400000Y-54000000D01*
X76500000Y-47100000D02*
X69600000Y-47100000D01*
X71900000Y-42500000D02*
X72000000Y-42500000D01*
X117900000Y-95400000D02*
X117900000Y-49400000D01*
X124800000Y-42500000D02*
X74200000Y-42500000D01*
X73050000Y-43650000D02*
X66150000Y-43650000D01*
X70750000Y-96550000D02*
X119050000Y-96550000D01*
%TD*%
M02*
